<svg width="1362" height="850" viewBox="0 0 1362 850" fill="none" xmlns="http://www.w3.org/2000/svg">
<path opacity="0.2" fill-rule="evenodd" clip-rule="evenodd" d="M647.073 57.8893C652.179 57.6069 657.323 57.4639 662.5 57.4639C667.677 57.4639 672.821 57.6069 677.927 57.8893C678.203 57.9046 678.414 58.1404 678.399 58.4162C678.384 58.6919 678.148 58.903 677.872 58.8878C672.784 58.6064 667.659 58.4639 662.5 58.4639C657.341 58.4639 652.216 58.6064 647.128 58.8878C646.852 58.903 646.616 58.6919 646.601 58.4162C646.586 58.1404 646.797 57.9046 647.073 57.8893ZM616.99 61.7186C617.036 61.9909 616.852 62.2489 616.58 62.2948C606.39 64.0142 596.391 66.2962 586.616 69.1076C586.351 69.184 586.074 69.0307 585.997 68.7653C585.921 68.4999 586.074 68.2229 586.34 68.1466C596.15 65.3248 606.186 63.0345 616.414 61.3088C616.686 61.2628 616.944 61.4463 616.99 61.7186ZM708.01 61.7186C708.056 61.4463 708.314 61.2628 708.586 61.3088C718.814 63.0345 728.85 65.3248 738.66 68.1466C738.926 68.2229 739.079 68.4999 739.003 68.7653C738.926 69.0307 738.649 69.184 738.384 69.1076C728.609 66.2962 718.61 64.0143 708.42 62.2948C708.148 62.2489 707.964 61.9909 708.01 61.7186ZM767.113 78.6015C767.219 78.3465 767.512 78.2254 767.767 78.3312C777.309 82.2883 786.581 86.7672 795.545 91.7322C795.787 91.866 795.874 92.1703 795.74 92.4119C795.607 92.6534 795.302 92.7408 795.061 92.607C786.129 87.66 776.891 83.1975 767.384 79.2549C767.129 79.1492 767.008 78.8566 767.113 78.6015ZM557.887 78.6015C557.992 78.8566 557.871 79.1492 557.616 79.2549C548.109 83.1975 538.871 87.66 529.939 92.607C529.698 92.7408 529.393 92.6534 529.26 92.4119C529.126 92.1703 529.213 91.866 529.455 91.7322C538.419 86.7672 547.691 82.2883 557.233 78.3312C557.488 78.2254 557.781 78.3465 557.887 78.6015ZM820.948 108.283C821.108 108.058 821.421 108.006 821.646 108.166C830.041 114.133 838.087 120.56 845.746 127.409C845.952 127.593 845.97 127.91 845.786 128.115C845.601 128.321 845.285 128.339 845.079 128.155C837.448 121.33 829.431 114.926 821.066 108.981C820.841 108.821 820.789 108.509 820.948 108.283ZM504.052 108.283C504.211 108.509 504.159 108.821 503.934 108.981C495.569 114.926 487.552 121.33 479.92 128.155C479.715 128.339 479.399 128.321 479.214 128.115C479.03 127.91 479.048 127.593 479.254 127.409C486.913 120.56 494.959 114.133 503.354 108.166C503.579 108.006 503.892 108.058 504.052 108.283ZM458.152 149.178C458.357 149.362 458.375 149.679 458.191 149.884C451.366 157.516 444.962 165.533 439.017 173.898C438.857 174.123 438.545 174.175 438.32 174.015C438.094 173.855 438.042 173.543 438.202 173.318C444.169 164.923 450.596 156.877 457.446 149.218C457.63 149.012 457.946 148.994 458.152 149.178ZM866.848 149.178C867.054 148.994 867.37 149.012 867.554 149.218C874.404 156.877 880.831 164.923 886.798 173.318C886.958 173.543 886.906 173.855 886.68 174.015C886.455 174.175 886.143 174.123 885.983 173.898C880.038 165.533 873.634 157.516 866.809 149.884C866.625 149.679 866.643 149.362 866.848 149.178ZM422.448 199.224C422.69 199.357 422.777 199.662 422.643 199.903C417.696 208.835 413.234 218.073 409.291 227.58C409.185 227.835 408.893 227.956 408.638 227.85C408.383 227.745 408.262 227.452 408.367 227.197C412.324 217.655 416.803 208.383 421.768 199.419C421.902 199.177 422.206 199.09 422.448 199.224ZM902.552 199.224C902.794 199.09 903.098 199.177 903.232 199.419C908.197 208.383 912.676 217.655 916.633 227.197C916.738 227.452 916.617 227.745 916.362 227.85C916.107 227.956 915.815 227.835 915.709 227.58C911.766 218.073 907.304 208.835 902.357 199.903C902.223 199.662 902.31 199.357 902.552 199.224ZM398.801 255.961C399.067 256.038 399.22 256.315 399.144 256.58C396.332 266.355 394.05 276.354 392.331 286.544C392.285 286.816 392.027 287 391.755 286.954C391.482 286.908 391.299 286.65 391.345 286.378C393.071 276.15 395.361 266.114 398.183 256.303C398.259 256.038 398.536 255.885 398.801 255.961ZM926.199 255.961C926.464 255.885 926.741 256.038 926.817 256.303C929.639 266.114 931.929 276.15 933.655 286.378C933.701 286.65 933.518 286.908 933.245 286.954C932.973 287 932.715 286.816 932.669 286.544C930.95 276.354 928.668 266.355 925.856 256.58C925.78 256.315 925.933 256.038 926.199 255.961ZM388.452 316.565C388.728 316.58 388.939 316.816 388.924 317.092C388.643 322.18 388.5 327.305 388.5 332.464C388.5 337.622 388.643 342.748 388.924 347.836C388.939 348.112 388.728 348.348 388.452 348.363C388.177 348.378 387.941 348.167 387.925 347.891C387.643 342.785 387.5 337.641 387.5 332.464C387.5 327.287 387.643 322.143 387.925 317.036C387.941 316.761 388.177 316.55 388.452 316.565ZM936.548 316.565C936.823 316.55 937.059 316.761 937.075 317.036C937.357 322.143 937.5 327.287 937.5 332.464C937.5 337.641 937.357 342.785 937.075 347.891C937.059 348.167 936.823 348.378 936.548 348.363C936.272 348.348 936.061 348.112 936.076 347.836C936.357 342.748 936.5 337.623 936.5 332.464C936.5 327.305 936.357 322.18 936.076 317.092C936.061 316.816 936.272 316.58 936.548 316.565ZM391.755 377.974C392.027 377.928 392.285 378.111 392.331 378.384C394.05 388.574 396.332 398.573 399.144 408.348C399.22 408.613 399.067 408.89 398.801 408.967C398.536 409.043 398.259 408.89 398.183 408.624C395.361 398.813 393.071 388.778 391.345 378.55C391.299 378.278 391.482 378.02 391.755 377.974ZM933.245 377.974C933.518 378.02 933.701 378.278 933.655 378.55C931.929 388.778 929.639 398.813 926.817 408.624C926.741 408.89 926.464 409.043 926.199 408.967C925.933 408.89 925.78 408.613 925.856 408.348C928.668 398.573 930.95 388.574 932.669 378.384C932.715 378.111 932.973 377.928 933.245 377.974ZM408.638 437.077C408.893 436.971 409.185 437.093 409.291 437.348C413.234 446.855 417.696 456.093 422.643 465.025C422.777 465.266 422.69 465.57 422.448 465.704C422.206 465.838 421.902 465.751 421.768 465.509C416.803 456.544 412.324 447.273 408.367 437.731C408.262 437.476 408.383 437.183 408.638 437.077ZM916.362 437.077C916.617 437.183 916.738 437.476 916.633 437.731C912.676 447.273 908.197 456.544 903.232 465.509C903.098 465.751 902.794 465.838 902.552 465.704C902.31 465.57 902.223 465.266 902.357 465.025C907.304 456.093 911.766 446.855 915.709 437.348C915.815 437.093 916.107 436.971 916.362 437.077ZM438.32 490.912C438.545 490.752 438.857 490.805 439.017 491.03C444.962 499.395 451.366 507.411 458.191 515.043C458.375 515.249 458.357 515.565 458.152 515.749C457.946 515.933 457.63 515.916 457.446 515.71C450.596 508.05 444.169 500.005 438.202 491.61C438.042 491.384 438.094 491.072 438.32 490.912ZM886.68 490.912C886.906 491.072 886.958 491.384 886.798 491.61C880.831 500.005 874.404 508.05 867.554 515.71C867.37 515.916 867.054 515.933 866.848 515.749C866.643 515.565 866.625 515.249 866.809 515.043C873.634 507.411 880.038 499.395 885.983 491.03C886.143 490.805 886.455 490.752 886.68 490.912ZM479.214 536.812C479.399 536.606 479.715 536.589 479.92 536.773C487.552 543.598 495.569 550.001 503.934 555.947C504.159 556.107 504.212 556.419 504.052 556.644C503.892 556.869 503.579 556.922 503.354 556.762C494.959 550.795 486.913 544.368 479.254 537.518C479.048 537.334 479.03 537.018 479.214 536.812ZM845.786 536.812C845.97 537.018 845.952 537.334 845.746 537.518C838.087 544.368 830.041 550.795 821.646 556.762C821.421 556.922 821.108 556.869 820.948 556.644C820.789 556.419 820.841 556.107 821.066 555.947C829.431 550.001 837.448 543.598 845.079 536.773C845.285 536.589 845.601 536.606 845.786 536.812ZM529.26 572.516C529.393 572.274 529.698 572.187 529.939 572.321C538.871 577.268 548.109 581.73 557.616 585.673C557.871 585.779 557.992 586.071 557.887 586.326C557.781 586.581 557.488 586.702 557.233 586.596C547.691 582.639 538.419 578.161 529.455 573.195C529.213 573.062 529.126 572.757 529.26 572.516ZM795.74 572.516C795.874 572.757 795.787 573.062 795.545 573.195C786.581 578.161 777.309 582.639 767.767 586.596C767.512 586.702 767.219 586.581 767.113 586.326C767.008 586.071 767.129 585.779 767.384 585.673C776.891 581.73 786.129 577.268 795.061 572.321C795.302 572.187 795.607 572.274 795.74 572.516ZM585.997 596.162C586.074 595.897 586.351 595.744 586.616 595.82C596.391 598.632 606.39 600.914 616.58 602.633C616.852 602.679 617.036 602.937 616.99 603.209C616.944 603.481 616.686 603.665 616.414 603.619C606.186 601.893 596.15 599.603 586.34 596.781C586.074 596.705 585.921 596.428 585.997 596.162ZM739.003 596.162C739.079 596.428 738.926 596.705 738.66 596.781C728.85 599.603 718.814 601.893 708.586 603.619C708.314 603.665 708.056 603.481 708.01 603.209C707.964 602.937 708.148 602.679 708.42 602.633C718.61 600.914 728.609 598.632 738.384 595.82C738.649 595.744 738.926 595.897 739.003 596.162ZM646.601 606.512C646.616 606.236 646.852 606.025 647.128 606.04C652.216 606.321 657.341 606.464 662.5 606.464C667.659 606.464 672.784 606.321 677.872 606.04C678.148 606.025 678.384 606.236 678.399 606.512C678.414 606.787 678.203 607.023 677.927 607.038C672.821 607.321 667.677 607.464 662.5 607.464C657.323 607.464 652.179 607.321 647.073 607.038C646.797 607.023 646.586 606.787 646.601 606.512Z" fill="#D0D4E6"/>
<path opacity="0.5" fill-rule="evenodd" clip-rule="evenodd" d="M647.961 -184.336C652.791 -184.469 657.638 -184.536 662.5 -184.536C667.362 -184.536 672.209 -184.469 677.039 -184.336C677.315 -184.328 677.532 -184.098 677.525 -183.822C677.517 -183.546 677.287 -183.328 677.011 -183.336C672.19 -183.469 667.353 -183.536 662.5 -183.536C657.647 -183.536 652.81 -183.469 647.989 -183.336C647.713 -183.328 647.483 -183.546 647.475 -183.822C647.468 -184.098 647.685 -184.328 647.961 -184.336ZM705.452 -182.276C705.475 -182.551 705.716 -182.756 705.992 -182.733C715.675 -181.926 725.283 -180.853 734.808 -179.52C735.082 -179.481 735.273 -179.229 735.234 -178.955C735.196 -178.682 734.943 -178.491 734.67 -178.529C725.163 -179.86 715.574 -180.931 705.909 -181.736C705.633 -181.759 705.429 -182.001 705.452 -182.276ZM619.548 -182.276C619.571 -182.001 619.367 -181.759 619.091 -181.736C609.426 -180.931 599.837 -179.86 590.33 -178.529C590.057 -178.491 589.804 -178.682 589.766 -178.955C589.727 -179.229 589.918 -179.481 590.192 -179.52C599.716 -180.853 609.324 -181.926 619.008 -182.733C619.284 -182.756 619.525 -182.551 619.548 -182.276ZM762.811 -174.302C762.864 -174.573 763.127 -174.749 763.398 -174.696C772.919 -172.812 782.345 -170.667 791.67 -168.269C791.937 -168.2 792.098 -167.928 792.029 -167.66C791.961 -167.393 791.688 -167.232 791.421 -167.3C782.114 -169.694 772.706 -171.835 763.204 -173.715C762.933 -173.768 762.757 -174.031 762.811 -174.302ZM562.189 -174.302C562.243 -174.031 562.067 -173.768 561.796 -173.715C552.294 -171.835 542.886 -169.694 533.579 -167.3C533.312 -167.232 533.039 -167.393 532.971 -167.66C532.902 -167.928 533.063 -168.2 533.33 -168.269C542.655 -170.667 552.081 -172.812 561.602 -174.696C561.873 -174.749 562.136 -174.573 562.189 -174.302ZM818.923 -159.926C819.007 -160.189 819.288 -160.334 819.552 -160.25C828.794 -157.307 837.923 -154.111 846.931 -150.67C847.189 -150.571 847.319 -150.282 847.22 -150.024C847.122 -149.766 846.833 -149.637 846.575 -149.736C837.584 -153.17 828.472 -156.36 819.248 -159.298C818.985 -159.381 818.84 -159.663 818.923 -159.926ZM506.077 -159.926C506.16 -159.663 506.015 -159.381 505.752 -159.298C496.528 -156.36 487.416 -153.17 478.425 -149.736C478.167 -149.637 477.878 -149.766 477.78 -150.024C477.681 -150.282 477.81 -150.571 478.068 -150.67C487.077 -154.111 496.206 -157.307 505.448 -160.25C505.711 -160.334 505.993 -160.189 506.077 -159.926ZM873.062 -139.308C873.175 -139.56 873.471 -139.673 873.723 -139.56C882.565 -135.597 891.274 -131.394 899.844 -126.958C900.089 -126.831 900.185 -126.529 900.058 -126.284C899.931 -126.038 899.629 -125.943 899.384 -126.069C890.831 -130.497 882.138 -134.692 873.314 -138.647C873.062 -138.76 872.95 -139.056 873.062 -139.308ZM451.937 -139.308C452.05 -139.056 451.938 -138.76 451.686 -138.647C442.862 -134.692 434.169 -130.497 425.616 -126.069C425.37 -125.942 425.069 -126.038 424.942 -126.284C424.815 -126.529 424.911 -126.831 425.156 -126.957C433.726 -131.394 442.435 -135.597 451.277 -139.56C451.529 -139.673 451.824 -139.56 451.937 -139.308ZM924.528 -112.731C924.669 -112.969 924.975 -113.047 925.213 -112.907C933.546 -107.981 941.729 -102.827 949.754 -97.4552C949.983 -97.3016 950.045 -96.991 949.891 -96.7616C949.737 -96.5321 949.427 -96.4706 949.197 -96.6242C941.189 -101.986 933.021 -107.129 924.704 -112.046C924.467 -112.187 924.388 -112.493 924.528 -112.731ZM400.472 -112.731C400.612 -112.493 400.533 -112.186 400.296 -112.046C391.979 -107.129 383.811 -101.986 375.803 -96.6242C375.573 -96.4705 375.263 -96.532 375.109 -96.7615C374.955 -96.991 375.017 -97.3015 375.246 -97.4551C383.271 -102.827 391.454 -107.981 399.787 -112.907C400.025 -113.047 400.331 -112.969 400.472 -112.731ZM972.693 -80.5541C972.859 -80.7746 973.173 -80.8186 973.393 -80.6524C981.12 -74.8286 988.678 -68.7931 996.058 -62.5544C996.269 -62.3762 996.296 -62.0607 996.117 -61.8498C995.939 -61.6389 995.624 -61.6124 995.413 -61.7907C988.046 -68.0173 980.503 -74.0413 972.791 -79.8539C972.571 -80.0201 972.527 -80.3336 972.693 -80.5541ZM352.307 -80.554C352.473 -80.3335 352.429 -80.02 352.209 -79.8538C344.497 -74.0412 336.954 -68.0173 329.587 -61.7906C329.376 -61.6124 329.061 -61.6388 328.883 -61.8497C328.704 -62.0606 328.731 -62.3761 328.942 -62.5543C336.322 -68.793 343.88 -74.8285 351.607 -80.6523C351.827 -80.8186 352.141 -80.7745 352.307 -80.554ZM1016.97 -43.2016C1017.16 -43.4022 1017.48 -43.411 1017.68 -43.2213C1024.7 -36.5774 1031.54 -29.7386 1038.19 -22.7136C1038.37 -22.513 1038.37 -22.1965 1038.17 -22.0068C1037.96 -21.817 1037.65 -21.8259 1037.46 -22.0265C1030.83 -29.038 1024 -35.8636 1016.99 -42.4948C1016.79 -42.6845 1016.78 -43.0009 1016.97 -43.2016ZM308.029 -43.2015C308.219 -43.0009 308.21 -42.6844 308.01 -42.4947C300.998 -35.8636 294.172 -29.0379 287.541 -22.0264C287.352 -21.8258 287.035 -21.8169 286.835 -22.0067C286.634 -22.1964 286.625 -22.5129 286.815 -22.7135C293.459 -29.7386 300.298 -36.5773 307.323 -43.2212C307.523 -43.4109 307.84 -43.4021 308.029 -43.2015ZM1056.81 -1.1535C1057.02 -1.33177 1057.34 -1.30531 1057.52 -1.09442C1063.76 6.28625 1069.79 13.8441 1075.62 21.5706C1075.78 21.7912 1075.74 22.1047 1075.52 22.2709C1075.3 22.4371 1074.98 22.3931 1074.82 22.1725C1069.01 14.461 1062.98 6.9176 1056.75 -0.448868C1056.58 -0.659775 1056.6 -0.97525 1056.81 -1.1535ZM268.186 -1.15341C268.397 -0.975159 268.424 -0.659683 268.245 -0.448776C262.019 6.91769 255.995 14.461 250.182 22.1726C250.016 22.3932 249.703 22.4372 249.482 22.271C249.262 22.1048 249.217 21.7912 249.384 21.5707C255.208 13.8442 261.243 6.28635 267.482 -1.09433C267.66 -1.30522 267.975 -1.33168 268.186 -1.15341ZM1091.73 45.0729C1091.95 44.9192 1092.27 44.9807 1092.42 45.2102C1097.79 53.2344 1102.94 61.4174 1107.87 69.7507C1108.01 69.9884 1107.93 70.295 1107.69 70.4355C1107.46 70.576 1107.15 70.4973 1107.01 70.2596C1102.09 61.9424 1096.95 53.7752 1091.59 45.7665C1091.43 45.537 1091.5 45.2265 1091.73 45.0729ZM233.275 45.073C233.504 45.2266 233.566 45.5371 233.412 45.7666C228.05 53.7753 222.907 61.9425 217.99 70.2596C217.85 70.4973 217.543 70.5761 217.305 70.4356C217.068 70.2951 216.989 69.9885 217.129 69.7507C222.055 61.4175 227.209 53.2345 232.581 45.2103C232.735 44.9808 233.045 44.9193 233.275 45.073ZM1121.25 94.9057C1121.49 94.7787 1121.79 94.8746 1121.92 95.1198C1126.36 103.69 1130.56 112.399 1134.52 121.24C1134.64 121.492 1134.52 121.788 1134.27 121.901C1134.02 122.014 1133.72 121.901 1133.61 121.649C1129.66 112.825 1125.46 104.133 1121.03 95.5796C1120.91 95.3344 1121 95.0326 1121.25 94.9057ZM203.752 94.9058C203.998 95.0327 204.094 95.3344 203.967 95.5797C199.539 104.133 195.344 112.825 191.389 121.65C191.276 121.902 190.98 122.014 190.728 121.901C190.476 121.788 190.364 121.493 190.477 121.241C194.439 112.399 198.642 103.69 203.079 95.1199C203.206 94.8747 203.507 94.7788 203.752 94.9058ZM1144.99 147.744C1145.25 147.645 1145.54 147.774 1145.63 148.032C1149.07 157.041 1152.27 166.17 1155.21 175.412C1155.3 175.675 1155.15 175.957 1154.89 176.04C1154.63 176.124 1154.35 175.979 1154.26 175.716C1151.32 166.492 1148.13 157.38 1144.7 148.389C1144.6 148.131 1144.73 147.842 1144.99 147.744ZM180.012 147.744C180.27 147.842 180.399 148.131 180.3 148.389C176.866 157.38 173.676 166.492 170.739 175.716C170.655 175.979 170.374 176.124 170.11 176.04C169.847 175.957 169.702 175.675 169.786 175.412C172.729 166.17 175.925 157.041 179.366 148.032C179.465 147.774 179.754 147.645 180.012 147.744ZM1162.62 202.934C1162.89 202.866 1163.16 203.027 1163.23 203.294C1165.63 212.619 1167.78 222.045 1169.66 231.566C1169.71 231.837 1169.54 232.1 1169.27 232.153C1169 232.207 1168.73 232.031 1168.68 231.76C1166.8 222.258 1164.66 212.85 1162.26 203.543C1162.2 203.276 1162.36 203.003 1162.62 202.934ZM162.376 202.935C162.643 203.003 162.804 203.276 162.736 203.543C160.342 212.85 158.201 222.258 156.322 231.76C156.268 232.031 156.005 232.207 155.734 232.153C155.463 232.1 155.287 231.837 155.341 231.566C157.224 222.045 159.369 212.619 161.767 203.294C161.836 203.027 162.109 202.866 162.376 202.935ZM1173.92 259.73C1174.19 259.691 1174.45 259.882 1174.48 260.155C1175.82 269.68 1176.89 279.288 1177.7 288.972C1177.72 289.247 1177.51 289.489 1177.24 289.512C1176.96 289.535 1176.72 289.33 1176.7 289.055C1175.89 279.39 1174.82 269.8 1173.49 260.294C1173.45 260.021 1173.65 259.768 1173.92 259.73ZM151.081 259.73C151.355 259.768 151.545 260.021 151.507 260.294C150.176 269.801 149.105 279.39 148.3 289.055C148.277 289.331 148.035 289.535 147.76 289.512C147.485 289.489 147.281 289.248 147.303 288.972C148.11 279.289 149.184 269.68 150.517 260.156C150.555 259.882 150.808 259.691 151.081 259.73ZM1178.79 317.439C1179.06 317.431 1179.29 317.649 1179.3 317.925C1179.43 322.755 1179.5 327.602 1179.5 332.464C1179.5 337.326 1179.43 342.173 1179.3 347.003C1179.29 347.279 1179.06 347.496 1178.79 347.489C1178.51 347.481 1178.29 347.251 1178.3 346.975C1178.43 342.154 1178.5 337.317 1178.5 332.464C1178.5 327.611 1178.43 322.773 1178.3 317.953C1178.29 317.677 1178.51 317.447 1178.79 317.439ZM146.214 317.439C146.49 317.447 146.708 317.677 146.7 317.953C146.567 322.774 146.5 327.611 146.5 332.464C146.5 337.317 146.567 342.154 146.7 346.975C146.708 347.251 146.49 347.481 146.214 347.489C145.938 347.496 145.708 347.279 145.7 347.003C145.567 342.173 145.5 337.326 145.5 332.464C145.5 327.602 145.567 322.755 145.7 317.925C145.708 317.649 145.938 317.432 146.214 317.439ZM1177.24 375.416C1177.52 375.439 1177.72 375.68 1177.7 375.955C1176.89 385.639 1175.82 395.247 1174.48 404.772C1174.45 405.046 1174.19 405.236 1173.92 405.198C1173.65 405.16 1173.45 404.907 1173.49 404.634C1174.82 395.127 1175.89 385.538 1176.7 375.872C1176.72 375.597 1176.96 375.393 1177.24 375.416ZM147.76 375.416C148.035 375.393 148.277 375.597 148.3 375.873C149.105 385.538 150.176 395.127 151.507 404.634C151.545 404.907 151.355 405.16 151.081 405.198C150.808 405.237 150.555 405.046 150.517 404.772C149.184 395.247 148.11 385.639 147.303 375.956C147.281 375.68 147.485 375.439 147.76 375.416ZM1169.27 432.774C1169.54 432.828 1169.71 433.091 1169.66 433.362C1167.78 442.882 1165.63 452.309 1163.23 461.633C1163.16 461.901 1162.89 462.062 1162.62 461.993C1162.36 461.924 1162.2 461.652 1162.26 461.384C1164.66 452.078 1166.8 442.67 1168.68 433.168C1168.73 432.897 1169 432.721 1169.27 432.774ZM155.734 432.775C156.005 432.721 156.268 432.897 156.322 433.168C158.201 442.67 160.342 452.078 162.736 461.385C162.805 461.652 162.643 461.925 162.376 461.993C162.109 462.062 161.836 461.901 161.767 461.634C159.369 452.309 157.224 442.883 155.341 433.362C155.287 433.091 155.463 432.828 155.734 432.775ZM1154.89 488.887C1155.15 488.971 1155.3 489.252 1155.21 489.515C1152.27 498.758 1149.07 507.887 1145.63 516.895C1145.54 517.153 1145.25 517.283 1144.99 517.184C1144.73 517.085 1144.6 516.796 1144.7 516.539C1148.13 507.548 1151.32 498.436 1154.26 489.212C1154.35 488.949 1154.63 488.803 1154.89 488.887ZM170.11 488.887C170.374 488.804 170.655 488.949 170.739 489.212C173.676 498.436 176.866 507.548 180.3 516.539C180.399 516.797 180.27 517.086 180.012 517.184C179.754 517.283 179.465 517.153 179.366 516.895C175.925 507.887 172.729 498.758 169.786 489.516C169.702 489.252 169.847 488.971 170.11 488.887ZM1134.27 543.026C1134.52 543.139 1134.64 543.435 1134.52 543.687C1130.56 552.528 1126.36 561.238 1121.92 569.808C1121.79 570.053 1121.49 570.149 1121.25 570.022C1121 569.895 1120.91 569.593 1121.03 569.348C1125.46 560.795 1129.66 552.102 1133.61 543.278C1133.72 543.026 1134.02 542.913 1134.27 543.026ZM190.728 543.026C190.98 542.914 191.276 543.026 191.389 543.278C195.344 552.102 199.539 560.795 203.967 569.348C204.094 569.593 203.998 569.895 203.753 570.022C203.507 570.149 203.206 570.053 203.079 569.808C198.642 561.238 194.439 552.529 190.477 543.687C190.364 543.435 190.476 543.139 190.728 543.026ZM1107.69 594.492C1107.93 594.633 1108.01 594.939 1107.87 595.177C1102.94 603.51 1097.79 611.693 1092.42 619.717C1092.27 619.947 1091.95 620.008 1091.73 619.855C1091.5 619.701 1091.43 619.391 1091.59 619.161C1096.95 611.152 1102.09 602.985 1107.01 594.668C1107.15 594.43 1107.46 594.352 1107.69 594.492ZM217.305 594.492C217.543 594.352 217.85 594.43 217.99 594.668C222.907 602.985 228.05 611.153 233.412 619.161C233.566 619.391 233.504 619.701 233.275 619.855C233.045 620.008 232.735 619.947 232.581 619.718C227.209 611.693 222.056 603.51 217.129 595.177C216.989 594.939 217.068 594.633 217.305 594.492ZM1075.52 642.657C1075.74 642.823 1075.78 643.136 1075.62 643.357C1069.79 651.083 1063.76 658.641 1057.52 666.022C1057.34 666.233 1057.02 666.259 1056.81 666.081C1056.6 665.903 1056.58 665.587 1056.75 665.377C1062.98 658.01 1069.01 650.467 1074.82 642.755C1074.98 642.535 1075.3 642.491 1075.52 642.657ZM249.482 642.657C249.703 642.491 250.016 642.535 250.182 642.755C255.995 650.467 262.019 658.01 268.246 665.377C268.424 665.588 268.397 665.903 268.186 666.081C267.976 666.26 267.66 666.233 267.482 666.022C261.243 658.641 255.208 651.084 249.384 643.357C249.218 643.137 249.262 642.823 249.482 642.657ZM1038.17 686.934C1038.37 687.124 1038.37 687.441 1038.19 687.641C1031.54 694.666 1024.7 701.505 1017.68 708.149C1017.48 708.339 1017.16 708.33 1016.97 708.129C1016.78 707.929 1016.79 707.612 1016.99 707.422C1024 700.791 1030.83 693.966 1037.46 686.954C1037.65 686.753 1037.96 686.745 1038.17 686.934ZM286.835 686.935C287.035 686.745 287.352 686.754 287.541 686.954C294.173 693.966 300.998 700.791 308.01 707.422C308.21 707.612 308.219 707.929 308.029 708.129C307.84 708.33 307.523 708.339 307.323 708.149C300.298 701.505 293.459 694.666 286.815 687.641C286.625 687.441 286.634 687.124 286.835 686.935ZM996.117 726.777C996.296 726.988 996.269 727.304 996.058 727.482C988.678 733.721 981.12 739.756 973.393 745.58C973.173 745.746 972.859 745.702 972.693 745.482C972.527 745.261 972.571 744.948 972.791 744.781C980.503 738.969 988.046 732.945 995.413 726.718C995.624 726.54 995.939 726.567 996.117 726.777ZM328.883 726.778C329.061 726.567 329.376 726.54 329.587 726.718C336.954 732.945 344.497 738.969 352.209 744.782C352.429 744.948 352.473 745.261 352.307 745.482C352.141 745.702 351.827 745.746 351.607 745.58C343.88 739.756 336.322 733.721 328.942 727.482C328.731 727.304 328.704 726.988 328.883 726.778ZM949.891 761.689C950.045 761.919 949.983 762.229 949.754 762.383C941.729 767.755 933.546 772.908 925.213 777.835C924.975 777.975 924.669 777.896 924.528 777.659C924.388 777.421 924.467 777.114 924.704 776.974C933.021 772.057 941.189 766.914 949.197 761.552C949.427 761.398 949.737 761.46 949.891 761.689ZM375.109 761.689C375.263 761.46 375.573 761.398 375.803 761.552C383.811 766.914 391.979 772.057 400.296 776.974C400.533 777.114 400.612 777.421 400.472 777.659C400.331 777.896 400.025 777.975 399.787 777.835C391.454 772.908 383.271 767.755 375.246 762.383C375.017 762.229 374.955 761.919 375.109 761.689ZM424.942 791.211C425.069 790.966 425.371 790.87 425.616 790.997C434.169 795.425 442.862 799.62 451.686 803.575C451.938 803.688 452.05 803.984 451.937 804.236C451.825 804.488 451.529 804.6 451.277 804.487C442.435 800.525 433.726 796.321 425.156 791.885C424.911 791.758 424.815 791.457 424.942 791.211ZM900.058 791.211C900.185 791.457 900.089 791.758 899.844 791.885C891.274 796.321 882.565 800.525 873.723 804.487C873.471 804.6 873.176 804.488 873.063 804.236C872.95 803.984 873.062 803.688 873.314 803.575C882.138 799.62 890.831 795.425 899.384 790.997C899.63 790.87 899.931 790.966 900.058 791.211ZM847.22 814.952C847.319 815.21 847.19 815.499 846.932 815.598C837.923 819.039 828.794 822.235 819.552 825.178C819.289 825.262 819.007 825.117 818.923 824.853C818.84 824.59 818.985 824.309 819.248 824.225C828.472 821.288 837.584 818.098 846.575 814.663C846.833 814.565 847.122 814.694 847.22 814.952ZM477.78 814.952C477.878 814.694 478.167 814.565 478.425 814.663C487.416 818.098 496.528 821.288 505.752 824.225C506.015 824.309 506.16 824.59 506.077 824.853C505.993 825.117 505.712 825.262 505.448 825.178C496.206 822.235 487.077 819.039 478.069 815.598C477.811 815.499 477.681 815.21 477.78 814.952ZM792.029 832.588C792.098 832.855 791.937 833.128 791.67 833.197C782.345 835.595 772.919 837.74 763.398 839.623C763.127 839.677 762.864 839.501 762.811 839.23C762.757 838.959 762.933 838.696 763.204 838.642C772.706 836.763 782.114 834.622 791.421 832.228C791.688 832.159 791.961 832.32 792.029 832.588ZM532.971 832.588C533.039 832.32 533.312 832.159 533.579 832.228C542.886 834.622 552.294 836.763 561.796 838.642C562.067 838.696 562.243 838.959 562.189 839.23C562.136 839.501 561.873 839.677 561.602 839.623C552.081 837.74 542.655 835.595 533.33 833.197C533.063 833.128 532.902 832.855 532.971 832.588ZM589.766 843.883C589.804 843.609 590.057 843.419 590.33 843.457C599.837 844.787 609.426 845.859 619.091 846.664C619.367 846.687 619.571 846.928 619.548 847.204C619.525 847.479 619.284 847.683 619.008 847.66C609.325 846.854 599.717 845.78 590.192 844.447C589.918 844.409 589.728 844.156 589.766 843.883ZM735.234 843.883C735.273 844.156 735.082 844.409 734.808 844.447C725.284 845.78 715.676 846.854 705.992 847.66C705.716 847.683 705.475 847.479 705.452 847.204C705.429 846.928 705.633 846.687 705.909 846.664C715.574 845.859 725.163 844.787 734.67 843.457C734.943 843.419 735.196 843.609 735.234 843.883ZM647.475 848.75C647.483 848.474 647.713 848.256 647.989 848.264C652.81 848.397 657.647 848.464 662.5 848.464C667.353 848.464 672.19 848.397 677.011 848.264C677.287 848.256 677.517 848.474 677.525 848.75C677.532 849.026 677.315 849.256 677.039 849.263C672.209 849.397 667.362 849.464 662.5 849.464C657.638 849.464 652.791 849.397 647.961 849.263C647.685 849.256 647.468 849.026 647.475 848.75Z" fill="#D0D4E6"/>
<path d="M1110 16.4639C1110 33.8608 1095.9 47.9639 1078.5 47.9639C1061.1 47.9639 1047 33.8608 1047 16.4639C1047 -0.933102 1061.1 -15.0361 1078.5 -15.0361C1095.9 -15.0361 1110 -0.933102 1110 16.4639Z" fill="url(#paint0_linear_339_722)"/>
<path d="M1362 143.464C1362 168.593 1341.63 188.964 1316.5 188.964C1291.37 188.964 1271 168.593 1271 143.464C1271 118.335 1291.37 97.9639 1316.5 97.9639C1341.63 97.9639 1362 118.335 1362 143.464Z" fill="url(#paint1_linear_339_722)"/>
<path d="M43 287.464C43 299.338 33.3741 308.964 21.5 308.964C9.62588 308.964 0 299.338 0 287.464C0 275.59 9.62588 265.964 21.5 265.964C33.3741 265.964 43 275.59 43 287.464Z" fill="url(#paint2_linear_339_722)"/>
<path d="M385 734.464C385 755.727 367.763 772.964 346.5 772.964C325.237 772.964 308 755.727 308 734.464C308 713.201 325.237 695.964 346.5 695.964C367.763 695.964 385 713.201 385 734.464Z" fill="url(#paint3_linear_339_722)"/>
<path opacity="0.3" fill-rule="evenodd" clip-rule="evenodd" d="M647.166 -57.2402C652.253 -57.4369 657.365 -57.5361 662.5 -57.5361C667.635 -57.5361 672.747 -57.4369 677.834 -57.2402C678.11 -57.2295 678.325 -56.9972 678.314 -56.7213C678.303 -56.4453 678.071 -56.2303 677.795 -56.241C672.721 -56.4371 667.622 -56.5361 662.5 -56.5361C657.378 -56.5361 652.279 -56.4371 647.205 -56.241C646.929 -56.2303 646.697 -56.4453 646.686 -56.7213C646.675 -56.9972 646.891 -57.2296 647.166 -57.2402ZM617.188 -54.4289C617.22 -54.1547 617.023 -53.9063 616.749 -53.8742C606.568 -52.6814 596.507 -51.0954 586.581 -49.1319C586.311 -49.0783 586.047 -49.2544 585.994 -49.5253C585.94 -49.7962 586.116 -50.0593 586.387 -50.1129C596.338 -52.0815 606.425 -53.6715 616.633 -54.8674C616.907 -54.8995 617.156 -54.7032 617.188 -54.4289ZM707.812 -54.4289C707.845 -54.7032 708.093 -54.8995 708.367 -54.8674C718.575 -53.6715 728.662 -52.0815 738.613 -50.1129C738.884 -50.0593 739.06 -49.7962 739.006 -49.5253C738.953 -49.2544 738.69 -49.0783 738.419 -49.1319C728.493 -51.0954 718.432 -52.6814 708.251 -53.8742C707.977 -53.9063 707.78 -54.1547 707.812 -54.4289ZM557.212 -42.6392C557.287 -42.3733 557.132 -42.0972 556.866 -42.0224C547.021 -39.251 537.335 -36.1019 527.823 -32.5916C527.564 -32.496 527.277 -32.6285 527.181 -32.8876C527.085 -33.1466 527.218 -33.4342 527.477 -33.5298C537.013 -37.0491 546.725 -40.2064 556.595 -42.985C556.861 -43.0598 557.137 -42.905 557.212 -42.6392ZM767.788 -42.6391C767.863 -42.9049 768.139 -43.0598 768.405 -42.9849C778.275 -40.2064 787.987 -37.0491 797.523 -33.5297C797.782 -33.4341 797.915 -33.1466 797.819 -32.8876C797.723 -32.6285 797.436 -32.496 797.177 -32.5916C787.665 -36.1019 777.979 -39.251 768.134 -42.0224C767.868 -42.0972 767.713 -42.3733 767.788 -42.6391ZM499.844 -21.5516C499.96 -21.3009 499.85 -21.0039 499.6 -20.8881C490.329 -16.6068 481.254 -11.9714 472.395 -6.99915C472.154 -6.864 471.849 -6.94965 471.714 -7.19046C471.579 -7.43127 471.665 -7.73605 471.905 -7.8712C480.788 -12.8562 489.885 -17.5036 499.18 -21.796C499.431 -21.9117 499.728 -21.8023 499.844 -21.5516ZM825.156 -21.5516C825.272 -21.8023 825.569 -21.9117 825.82 -21.7959C835.115 -17.5036 844.212 -12.8562 853.095 -7.87117C853.336 -7.73602 853.421 -7.43125 853.286 -7.19044C853.151 -6.94963 852.846 -6.86397 852.605 -6.99912C843.746 -11.9714 834.672 -16.6068 825.4 -20.8881C825.15 -21.0038 825.04 -21.3009 825.156 -21.5516ZM446.503 8.29098C446.657 8.52044 446.595 8.83099 446.366 8.98462C437.891 14.6584 429.652 20.6564 421.665 26.9609C421.448 27.132 421.134 27.095 420.963 26.8782C420.792 26.6615 420.829 26.3471 421.046 26.176C429.052 19.8553 437.313 13.842 445.81 8.15365C446.039 8.00002 446.35 8.06151 446.503 8.29098ZM878.497 8.291C878.651 8.06154 878.961 8.00005 879.19 8.15368C887.687 13.842 895.948 19.8554 903.955 26.176C904.171 26.3471 904.208 26.6615 904.037 26.8783C903.866 27.095 903.552 27.132 903.335 26.9609C895.349 20.6564 887.109 14.6584 878.634 8.98465C878.405 8.83102 878.343 8.52047 878.497 8.291ZM398.474 46.1032C398.662 46.306 398.649 46.6223 398.447 46.8098C390.968 53.726 383.762 60.9321 376.846 68.4104C376.658 68.6131 376.342 68.6255 376.139 68.438C375.937 68.2505 375.924 67.9342 376.112 67.7314C383.046 60.234 390.27 53.0095 397.768 46.0756C397.97 45.8882 398.287 45.9005 398.474 46.1032ZM926.526 46.1033C926.713 45.9005 927.03 45.8882 927.232 46.0757C934.73 53.0095 941.954 60.2341 948.888 67.7315C949.076 67.9342 949.063 68.2505 948.861 68.438C948.658 68.6255 948.342 68.6132 948.154 68.4104C941.238 60.9322 934.032 53.726 926.553 46.8098C926.351 46.6223 926.338 46.306 926.526 46.1033ZM356.914 90.9267C357.131 91.0978 357.168 91.4122 356.997 91.629C350.693 99.6153 344.695 107.855 339.021 116.33C338.867 116.559 338.557 116.621 338.327 116.467C338.098 116.313 338.036 116.003 338.19 115.773C343.878 107.277 349.892 99.0162 356.212 91.0094C356.383 90.7926 356.698 90.7556 356.914 90.9267ZM968.086 90.9268C968.302 90.7557 968.617 90.7927 968.788 91.0094C975.109 99.0162 981.122 107.277 986.81 115.773C986.964 116.003 986.902 116.313 986.673 116.467C986.443 116.621 986.133 116.559 985.979 116.33C980.305 107.855 974.307 99.6154 968.003 91.629C967.832 91.4123 967.869 91.0979 968.086 90.9268ZM322.846 141.678C323.087 141.813 323.172 142.118 323.037 142.359C318.065 151.218 313.429 160.292 309.148 169.564C309.032 169.814 308.735 169.924 308.485 169.808C308.234 169.692 308.124 169.395 308.24 169.144C312.533 159.849 317.18 150.752 322.165 141.869C322.3 141.628 322.605 141.543 322.846 141.678ZM1002.15 141.678C1002.4 141.543 1002.7 141.628 1002.84 141.869C1007.82 150.752 1012.47 159.849 1016.76 169.144C1016.88 169.395 1016.77 169.692 1016.52 169.808C1016.26 169.924 1015.97 169.814 1015.85 169.564C1011.57 160.292 1006.94 151.218 1001.96 142.359C1001.83 142.118 1001.91 141.813 1002.15 141.678ZM297.149 197.145C297.408 197.24 297.54 197.528 297.445 197.787C293.934 207.299 290.785 216.985 288.014 226.83C287.939 227.096 287.663 227.251 287.397 227.176C287.131 227.101 286.976 226.825 287.051 226.559C289.83 216.689 292.987 206.977 296.506 197.441C296.602 197.182 296.89 197.049 297.149 197.145ZM1027.85 197.145C1028.11 197.049 1028.4 197.182 1028.49 197.441C1032.01 206.977 1035.17 216.689 1037.95 226.559C1038.02 226.825 1037.87 227.101 1037.6 227.176C1037.34 227.251 1037.06 227.096 1036.99 226.83C1034.21 216.985 1031.07 207.299 1027.56 197.787C1027.46 197.528 1027.59 197.24 1027.85 197.145ZM280.511 255.958C280.782 256.011 280.958 256.274 280.904 256.545C278.941 266.471 277.355 276.532 276.162 286.713C276.13 286.987 275.881 287.184 275.607 287.151C275.333 287.119 275.137 286.871 275.169 286.597C276.365 276.389 277.955 266.302 279.923 256.351C279.977 256.08 280.24 255.904 280.511 255.958ZM1044.49 255.958C1044.76 255.904 1045.02 256.08 1045.08 256.351C1047.05 266.302 1048.64 276.389 1049.83 286.597C1049.86 286.871 1049.67 287.119 1049.39 287.152C1049.12 287.184 1048.87 286.987 1048.84 286.713C1047.65 276.532 1046.06 266.471 1044.1 256.545C1044.04 256.274 1044.22 256.011 1044.49 255.958ZM273.315 316.65C273.591 316.661 273.806 316.893 273.795 317.169C273.599 322.243 273.5 327.342 273.5 332.464C273.5 337.586 273.599 342.685 273.795 347.759C273.806 348.035 273.591 348.267 273.315 348.278C273.039 348.288 272.807 348.073 272.796 347.797C272.599 342.711 272.5 337.599 272.5 332.464C272.5 327.329 272.599 322.217 272.796 317.13C272.807 316.854 273.039 316.639 273.315 316.65ZM1051.69 316.65C1051.96 316.639 1052.19 316.854 1052.2 317.13C1052.4 322.217 1052.5 327.329 1052.5 332.464C1052.5 337.599 1052.4 342.711 1052.2 347.797C1052.19 348.073 1051.96 348.288 1051.69 348.278C1051.41 348.267 1051.19 348.035 1051.2 347.759C1051.4 342.685 1051.5 337.586 1051.5 332.464C1051.5 327.342 1051.4 322.243 1051.2 317.169C1051.19 316.893 1051.41 316.661 1051.69 316.65ZM275.607 377.776C275.881 377.744 276.13 377.94 276.162 378.215C277.355 388.396 278.941 398.457 280.904 408.382C280.958 408.653 280.782 408.916 280.511 408.97C280.24 409.024 279.977 408.847 279.923 408.577C277.955 398.626 276.365 388.538 275.169 378.331C275.137 378.057 275.333 377.808 275.607 377.776ZM1049.39 377.776C1049.67 377.808 1049.86 378.057 1049.83 378.331C1048.64 388.539 1047.05 398.626 1045.08 408.577C1045.02 408.847 1044.76 409.024 1044.49 408.97C1044.22 408.916 1044.04 408.653 1044.1 408.382C1046.06 398.457 1047.65 388.396 1048.84 378.215C1048.87 377.94 1049.12 377.744 1049.39 377.776ZM287.397 437.752C287.663 437.677 287.939 437.832 288.014 438.098C290.785 447.943 293.934 457.629 297.445 467.141C297.54 467.4 297.408 467.687 297.149 467.783C296.889 467.878 296.602 467.746 296.506 467.487C292.987 457.951 289.83 448.239 287.051 438.369C286.976 438.103 287.131 437.827 287.397 437.752ZM1037.6 437.752C1037.87 437.827 1038.02 438.103 1037.95 438.369C1035.17 448.239 1032.01 457.951 1028.49 467.487C1028.4 467.746 1028.11 467.879 1027.85 467.783C1027.59 467.687 1027.46 467.4 1027.56 467.141C1031.07 457.629 1034.21 447.943 1036.99 438.098C1037.06 437.832 1037.34 437.677 1037.6 437.752ZM308.484 495.12C308.735 495.004 309.032 495.113 309.148 495.364C313.429 504.635 318.065 513.709 323.037 522.569C323.172 522.81 323.086 523.115 322.846 523.25C322.605 523.385 322.3 523.299 322.165 523.059C317.18 514.176 312.533 505.079 308.24 495.783C308.124 495.533 308.234 495.236 308.484 495.12ZM1016.52 495.12C1016.77 495.236 1016.88 495.533 1016.76 495.783C1012.47 505.079 1007.82 514.176 1002.84 523.059C1002.7 523.299 1002.4 523.385 1002.15 523.25C1001.91 523.115 1001.83 522.81 1001.96 522.569C1006.94 513.709 1011.57 504.635 1015.85 495.364C1015.97 495.114 1016.26 495.004 1016.52 495.12ZM338.327 548.461C338.557 548.307 338.867 548.369 339.021 548.598C344.695 557.073 350.693 565.312 356.997 573.299C357.168 573.515 357.131 573.83 356.914 574.001C356.698 574.172 356.383 574.135 356.212 573.918C349.891 565.911 343.878 557.651 338.19 549.154C338.036 548.925 338.098 548.614 338.327 548.461ZM986.673 548.461C986.902 548.614 986.964 548.925 986.81 549.154C981.122 557.651 975.108 565.912 968.788 573.918C968.617 574.135 968.302 574.172 968.086 574.001C967.869 573.83 967.832 573.516 968.003 573.299C974.307 565.312 980.305 557.073 985.979 548.598C986.133 548.369 986.443 548.307 986.673 548.461ZM376.139 596.49C376.342 596.302 376.658 596.315 376.846 596.517C383.762 603.996 390.968 611.202 398.447 618.118C398.649 618.305 398.662 618.622 398.474 618.824C398.287 619.027 397.97 619.04 397.768 618.852C390.27 611.918 383.046 604.694 376.112 597.196C375.924 596.994 375.937 596.677 376.139 596.49ZM948.861 596.49C949.063 596.677 949.076 596.994 948.888 597.196C941.954 604.694 934.73 611.918 927.232 618.852C927.03 619.04 926.713 619.027 926.526 618.825C926.338 618.622 926.351 618.305 926.553 618.118C934.032 611.202 941.238 603.996 948.154 596.517C948.341 596.315 948.658 596.302 948.861 596.49ZM420.963 638.049C421.134 637.833 421.448 637.796 421.665 637.967C429.651 644.271 437.891 650.269 446.366 655.943C446.595 656.097 446.657 656.407 446.503 656.637C446.35 656.866 446.039 656.928 445.809 656.774C437.313 651.086 429.052 645.072 421.046 638.752C420.829 638.581 420.792 638.266 420.963 638.049ZM904.037 638.049C904.208 638.266 904.171 638.581 903.954 638.752C895.948 645.072 887.687 651.086 879.19 656.774C878.961 656.928 878.65 656.866 878.497 656.637C878.343 656.407 878.405 656.097 878.634 655.943C887.109 650.269 895.349 644.271 903.335 637.967C903.552 637.796 903.866 637.833 904.037 638.049ZM471.714 672.118C471.849 671.877 472.154 671.792 472.395 671.927C481.254 676.899 490.328 681.535 499.6 685.816C499.85 685.932 499.96 686.229 499.844 686.479C499.728 686.73 499.431 686.839 499.18 686.724C489.885 682.431 480.788 677.784 471.905 672.799C471.664 672.664 471.579 672.359 471.714 672.118ZM853.286 672.118C853.421 672.359 853.335 672.664 853.095 672.799C844.212 677.784 835.115 682.431 825.82 686.724C825.569 686.839 825.272 686.73 825.156 686.479C825.04 686.229 825.15 685.932 825.4 685.816C834.672 681.535 843.746 676.899 852.605 671.927C852.846 671.792 853.151 671.877 853.286 672.118ZM527.181 697.815C527.277 697.556 527.564 697.424 527.823 697.519C537.335 701.03 547.021 704.179 556.866 706.95C557.132 707.025 557.287 707.301 557.212 707.567C557.137 707.833 556.861 707.987 556.595 707.913C546.725 705.134 537.013 701.977 527.477 698.457C527.218 698.362 527.085 698.074 527.181 697.815ZM797.819 697.815C797.915 698.074 797.782 698.362 797.523 698.458C787.987 701.977 778.275 705.134 768.405 707.913C768.139 707.988 767.863 707.833 767.788 707.567C767.713 707.301 767.868 707.025 768.134 706.95C777.979 704.179 787.665 701.03 797.177 697.519C797.436 697.424 797.723 697.556 797.819 697.815ZM585.994 714.453C586.047 714.182 586.31 714.006 586.581 714.06C596.507 716.023 606.568 717.609 616.749 718.802C617.023 718.834 617.22 719.082 617.188 719.357C617.155 719.631 616.907 719.827 616.633 719.795C606.425 718.599 596.338 717.009 586.387 715.041C586.116 714.987 585.94 714.724 585.994 714.453ZM739.006 714.453C739.06 714.724 738.884 714.987 738.613 715.041C728.662 717.009 718.575 718.599 708.367 719.795C708.093 719.827 707.844 719.631 707.812 719.357C707.78 719.082 707.977 718.834 708.251 718.802C718.432 717.609 728.493 716.023 738.419 714.06C738.689 714.006 738.953 714.182 739.006 714.453ZM646.686 721.649C646.697 721.373 646.929 721.158 647.205 721.169C652.279 721.365 657.378 721.464 662.5 721.464C667.622 721.464 672.721 721.365 677.795 721.169C678.071 721.158 678.303 721.373 678.314 721.649C678.325 721.925 678.109 722.157 677.834 722.168C672.747 722.365 667.635 722.464 662.5 722.464C657.365 722.464 652.253 722.365 647.166 722.168C646.89 722.157 646.675 721.925 646.686 721.649Z" fill="#D0D4E6"/>
<path d="M793 85.4639C793 90.1583 789.194 93.9639 784.5 93.9639C779.806 93.9639 776 90.1583 776 85.4639C776 80.7694 779.806 76.9639 784.5 76.9639C789.194 76.9639 793 80.7694 793 85.4639Z" fill="url(#paint4_linear_339_722)"/>
<path d="M614 600.464C614 608.472 607.508 614.964 599.5 614.964C591.492 614.964 585 608.472 585 600.464C585 592.456 591.492 585.964 599.5 585.964C607.508 585.964 614 592.456 614 600.464Z" fill="url(#paint5_linear_339_722)"/>
<path d="M1072 297.464C1072 308.786 1062.82 317.964 1051.5 317.964C1040.18 317.964 1031 308.786 1031 297.464C1031 286.142 1040.18 276.964 1051.5 276.964C1062.82 276.964 1072 286.142 1072 297.464Z" fill="url(#paint6_linear_339_722)"/>
<path d="M325 189.464C325 201.89 314.926 211.964 302.5 211.964C290.074 211.964 280 201.89 280 189.464C280 177.037 290.074 166.964 302.5 166.964C314.926 166.964 325 177.037 325 189.464Z" fill="url(#paint7_linear_339_722)"/>
<defs>
<linearGradient id="paint0_linear_339_722" x1="1093.5" y1="-15.0361" x2="1051.38" y2="27.3946" gradientUnits="userSpaceOnUse">
<stop stop-color="#3B53A9"/>
<stop offset="1" stop-color="#E82134"/>
</linearGradient>
<linearGradient id="paint1_linear_339_722" x1="1362" y1="135.464" x2="1295.52" y2="116.095" gradientUnits="userSpaceOnUse">
<stop offset="0.0172973" stop-color="#121523" stop-opacity="0"/>
<stop offset="1" stop-color="#E82134"/>
</linearGradient>
<linearGradient id="paint2_linear_339_722" x1="0" y1="308.964" x2="46.3184" y2="287.688" gradientUnits="userSpaceOnUse">
<stop stop-color="#10131E" stop-opacity="0"/>
<stop offset="1" stop-color="#E82134"/>
</linearGradient>
<linearGradient id="paint3_linear_339_722" x1="322.5" y1="821.964" x2="377.735" y2="721.079" gradientUnits="userSpaceOnUse">
<stop stop-color="#3B53A9"/>
<stop offset="0.875" stop-color="#E82134"/>
</linearGradient>
<linearGradient id="paint4_linear_339_722" x1="785" y1="62.4639" x2="780.584" y2="90.7751" gradientUnits="userSpaceOnUse">
<stop stop-color="#3B53A9"/>
<stop offset="1" stop-color="#E82134"/>
</linearGradient>
<linearGradient id="paint5_linear_339_722" x1="578.5" y1="623.964" x2="617.268" y2="603.011" gradientUnits="userSpaceOnUse">
<stop stop-color="#3B53A9"/>
<stop offset="1" stop-color="#E82134"/>
</linearGradient>
<linearGradient id="paint6_linear_339_722" x1="1088" y1="276.964" x2="1038.6" y2="298.759" gradientUnits="userSpaceOnUse">
<stop stop-color="#3B53A9"/>
<stop offset="0.838542" stop-color="#E82134"/>
</linearGradient>
<linearGradient id="paint7_linear_339_722" x1="342.561" y1="166.964" x2="288.342" y2="190.885" gradientUnits="userSpaceOnUse">
<stop stop-color="#3B53A9"/>
<stop offset="0.838542" stop-color="#E82134"/>
</linearGradient>
</defs>
</svg>
