<svg width="146" height="112" viewBox="0 0 146 112" fill="none" xmlns="http://www.w3.org/2000/svg">
<path d="M94.674 91.7904C95.4117 91.1596 96.1318 90.5088 96.8334 89.8388H124.758H125.425V89.1722V86.1504C125.425 84.8515 125.943 83.6499 126.856 82.7945L126.857 82.7941C127.769 81.9379 128.972 81.5018 130.251 81.5287C131.367 81.5886 132.488 82.0785 133.286 82.8772L133.758 82.4058L133.286 82.8772L143.566 93.157C144.469 94.0598 144.909 95.1283 144.923 96.221C144.937 97.3135 144.525 98.4808 143.633 99.5718C143.626 99.5795 143.62 99.5869 143.614 99.594C143.596 99.6156 143.582 99.6343 143.573 99.6471C143.559 99.6665 143.546 99.6859 143.538 99.6976L133.286 109.949L133.278 109.957L133.271 109.965C132.419 110.875 131.286 111.333 130.046 111.333C128.818 111.333 127.671 110.849 126.771 109.981C125.912 109.12 125.426 107.978 125.426 106.712V103.722V103.055H124.76H72.3748L94.674 91.7904ZM94.674 91.7904L126.434 91.7923C126.986 91.7923 127.41 91.368 127.41 90.8166V86.1854C127.41 85.4184 127.71 84.7102 128.25 84.2154M94.674 91.7904C94.4112 92.0151 94.1461 92.2374 93.8788 92.457L126.434 92.459C127.354 92.459 128.077 91.7362 128.077 90.8166V86.1854C128.077 85.5936 128.306 85.0678 128.7 84.707C129.095 84.3451 129.62 84.1482 130.179 84.1812C130.672 84.2131 131.163 84.443 131.492 84.7719L141.772 95.0518C142.79 96.0693 142.297 97.1858 141.706 97.9415L131.491 108.156C131.097 108.55 130.604 108.747 130.079 108.747C129.553 108.747 129.027 108.517 128.666 108.156C128.272 107.762 128.075 107.27 128.075 106.711V102.08C128.075 101.16 127.353 100.437 126.433 100.437H80.5711C80.0103 100.669 79.4446 100.891 78.8742 101.104H126.433C126.985 101.104 127.409 101.528 127.409 102.08V106.711C127.409 107.441 127.672 108.103 128.194 108.627L128.195 108.628C128.675 109.108 129.369 109.414 130.079 109.414C130.781 109.414 131.443 109.147 131.963 108.628L142.177 98.4129L142.206 98.3842L142.231 98.3521C142.559 97.9323 142.909 97.3542 143.002 96.6869C143.101 95.9768 142.898 95.2353 142.243 94.5803L131.964 84.3005C131.521 83.8582 130.878 83.5584 130.222 83.5159L130.218 83.5157C129.475 83.4718 128.774 83.7349 128.25 84.2154M128.25 84.2154L128.684 84.6893L128.25 84.2155C128.25 84.2155 128.25 84.2154 128.25 84.2154ZM93.4821 88.5055H96.295C105.839 79.2025 111.776 66.2147 111.776 51.8624C111.776 23.6218 88.8194 0.666667 60.5802 0.666667C34.1578 0.666667 12.0775 20.8985 9.61378 46.9974L9.55676 47.6014H8.95006H5.69843C4.43262 47.6014 3.29004 48.0868 2.42921 48.9456C1.56069 49.8462 1.07707 50.9943 1.07707 52.2228C1.07707 53.4597 1.56536 54.6361 2.42492 55.4958C2.42501 55.4959 2.4251 55.496 2.42519 55.4961L12.7105 65.7474C12.7221 65.7552 12.7417 65.7684 12.7612 65.7826C12.7782 65.795 12.8056 65.8155 12.8365 65.8432C13.9275 66.7351 15.0948 67.1467 16.1873 67.1326C17.28 67.1184 18.3485 66.6786 19.2513 65.7759L29.5311 55.4961L29.5311 55.496C30.3316 54.6957 30.8218 53.5718 30.88 52.4539C30.9361 51.193 30.4793 49.9886 29.6143 49.0665L29.6138 49.0661C28.767 48.1617 27.568 47.6658 26.2503 47.6347H23.565H22.8041L22.9041 46.8804C25.3787 28.2224 41.5898 13.8828 60.5813 13.8828C81.5085 13.8828 98.5925 30.8993 98.5915 51.8613C98.5915 72.8227 81.5432 89.8715 60.5813 89.8715C56.9419 89.8715 53.9888 92.8247 53.9888 96.464C53.9888 99.3181 55.805 101.75 58.3441 102.667C58.2962 102.48 58.2707 102.283 58.2707 102.08C58.2707 101.578 58.4256 101.117 58.6908 100.741C57.0676 100.019 55.9401 98.3938 55.9401 96.4991C55.9401 93.9295 58.0131 91.8579 60.5813 91.8579C82.6139 91.8579 100.544 73.9277 100.544 51.8951C100.544 30.0573 82.929 12.2498 61.165 11.9365L61.1649 11.9373H60.5806C50.4677 11.9373 40.8423 15.6843 33.446 22.5636L33.4436 22.5658C26.0804 29.3468 21.5896 38.5839 20.7489 48.533C20.7305 48.8027 20.8268 49.0771 20.9954 49.2716C21.2118 49.4822 21.4691 49.5893 21.7265 49.5893H21.7267L26.2896 49.5904C26.2897 49.5904 26.2897 49.5904 26.2898 49.5904C27.0567 49.5904 27.7647 49.8904 28.2595 50.4304C28.2596 50.4304 28.2596 50.4304 28.2596 50.4304L27.768 50.8808C28.1299 51.2756 28.3268 51.8004 28.2938 52.3592L93.4821 88.5055ZM93.4821 88.5055C103.507 79.4874 109.824 66.4201 109.824 51.8972C109.824 24.7293 87.7179 2.6198 60.5813 2.6198C34.6791 2.6198 13.1042 22.8268 11.4375 48.6639M94.8746 89.8388C94.1308 90.5111 93.3672 91.1619 92.5849 91.7903L92.2103 91.7902C91.6588 91.7902 91.2346 91.366 91.2346 90.8145C91.2346 90.6216 91.2865 90.4443 91.3776 90.2952C91.541 90.1639 91.7036 90.0316 91.8653 89.8982C91.9719 89.8597 92.0879 89.8388 92.2103 89.8388H94.8746ZM89.9704 91.385C90.1347 92.0462 90.5793 92.5891 91.1742 92.8837C87.3656 95.7314 83.1495 98.0621 78.6312 99.7708H72.1366C78.6848 98.1899 84.7281 95.2964 89.9704 91.385Z" fill="url(#paint0_linear_195_1120)" stroke="url(#paint1_linear_195_1120)" stroke-width="1.33333"/>
<defs>
<linearGradient id="paint0_linear_195_1120" x1="81.3119" y1="-21.7241" x2="-11.4007" y2="106.216" gradientUnits="userSpaceOnUse">
<stop stop-color="#44F26B"/>
<stop offset="1" stop-color="#3B53A9"/>
</linearGradient>
<linearGradient id="paint1_linear_195_1120" x1="81.3119" y1="-21.7241" x2="-11.4007" y2="106.216" gradientUnits="userSpaceOnUse">
<stop stop-color="#44F26B"/>
<stop offset="1" stop-color="#3B53A9"/>
</linearGradient>
</defs>
</svg>
