<svg width="114" height="113" viewBox="0 0 114 113" fill="none" xmlns="http://www.w3.org/2000/svg">
<mask id="path-1-inside-1_894_539" fill="white">
<path d="M58.6316 72.8128C58.6316 73.7133 57.9014 74.4436 57.0009 74.4436C56.1004 74.4436 55.3701 73.7133 55.3701 72.8128C55.3701 71.9123 56.1004 71.182 57.0009 71.182C57.9014 71.182 58.6316 71.9123 58.6316 72.8128Z"/>
<path d="M58.6316 67.3749C58.6316 68.2754 57.9014 69.0056 57.0009 69.0056C56.1004 69.0056 55.3701 68.2754 55.3701 67.3749C55.3701 66.4744 56.1004 65.7441 57.0009 65.7441C57.9014 65.7441 58.6316 66.4744 58.6316 67.3749Z"/>
<path d="M58.6316 78.2487C58.6316 79.1492 57.9014 79.8786 57.0009 79.8786C56.1004 79.8786 55.3701 79.1492 55.3701 78.2487C55.3701 77.3482 56.1004 76.6179 57.0009 76.6179C57.9014 76.6179 58.6316 77.3482 58.6316 78.2487Z"/>
<path d="M58.6316 56.5011C58.6316 57.4016 57.9014 58.1318 57.0009 58.1318C56.1004 58.1318 55.3701 57.4016 55.3701 56.5011C55.3701 55.6006 56.1004 54.8703 57.0009 54.8703C57.9014 54.8703 58.6316 55.6006 58.6316 56.5011Z"/>
<path d="M58.6316 61.939C58.6316 62.8395 57.9014 63.569 57.0009 63.569C56.1004 63.569 55.3701 62.8395 55.3701 61.939C55.3701 61.0385 56.1004 60.3082 57.0009 60.3082C57.9014 60.3082 58.6316 61.0385 58.6316 61.939Z"/>
<path d="M53.1937 72.8128C53.1937 73.7133 52.4634 74.4436 51.5629 74.4436C50.6624 74.4436 49.933 73.7133 49.933 72.8128C49.933 71.9123 50.6624 71.182 51.5629 71.182C52.4634 71.182 53.1937 71.9123 53.1937 72.8128Z"/>
<path d="M53.1937 56.5011C53.1937 57.4016 52.4634 58.1318 51.5629 58.1318C50.6624 58.1318 49.933 57.4016 49.933 56.5011C49.933 55.6006 50.6624 54.8703 51.5629 54.8703C52.4634 54.8703 53.1937 55.6006 53.1937 56.5011Z"/>
<path d="M53.1937 61.939C53.1937 62.8395 52.4634 63.569 51.5629 63.569C50.6624 63.569 49.933 62.8395 49.933 61.939C49.933 61.0385 50.6624 60.3082 51.5629 60.3082C52.4634 60.3082 53.1937 61.0385 53.1937 61.939Z"/>
<path d="M53.1937 78.2487C53.1937 79.1492 52.4634 79.8786 51.5629 79.8786C50.6624 79.8786 49.933 79.1492 49.933 78.2487C49.933 77.3482 50.6624 76.6179 51.5629 76.6179C52.4634 76.6179 53.1937 77.3482 53.1937 78.2487Z"/>
<path d="M53.1937 67.3749C53.1937 68.2754 52.4634 69.0056 51.5629 69.0056C50.6624 69.0056 49.933 68.2754 49.933 67.3749C49.933 66.4744 50.6624 65.7441 51.5629 65.7441C52.4634 65.7441 53.1937 66.4744 53.1937 67.3749Z"/>
<path d="M64.0675 78.2487C64.0675 79.1492 63.3381 79.8786 62.4375 79.8786C61.537 79.8786 60.8068 79.1492 60.8068 78.2487C60.8068 77.3482 61.537 76.6179 62.4375 76.6179C63.338 76.6179 64.0675 77.3482 64.0675 78.2487Z"/>
<path d="M64.0675 56.5011C64.0675 57.4016 63.3381 58.1318 62.4375 58.1318C61.537 58.1318 60.8068 57.4016 60.8068 56.5011C60.8068 55.6006 61.537 54.8703 62.4375 54.8703C63.338 54.8703 64.0675 55.6006 64.0675 56.5011Z"/>
<path d="M64.0675 67.3749C64.0675 68.2754 63.3381 69.0056 62.4375 69.0056C61.537 69.0056 60.8068 68.2754 60.8068 67.3749C60.8068 66.4744 61.537 65.7441 62.4375 65.7441C63.338 65.7441 64.0675 66.4744 64.0675 67.3749Z"/>
<path d="M64.0675 61.939C64.0675 62.8395 63.3381 63.569 62.4375 63.569C61.537 63.569 60.8068 62.8395 60.8068 61.939C60.8068 61.0385 61.537 60.3082 62.4375 60.3082C63.338 60.3082 64.0675 61.0385 64.0675 61.939Z"/>
<path d="M64.0675 72.8128C64.0675 73.7133 63.3381 74.4436 62.4375 74.4436C61.537 74.4436 60.8068 73.7133 60.8068 72.8128C60.8068 71.9123 61.537 71.182 62.4375 71.182C63.338 71.182 64.0675 71.9123 64.0675 72.8128Z"/>
<path d="M105.933 87.4909C102.598 87.4909 99.8024 89.8158 99.0622 92.9284H93.9716L93.9708 78.2474C93.9708 77.3469 93.2397 76.6166 92.34 76.6166H91.2529L91.2537 63.5681H99.063C99.8023 66.6807 102.598 69.0056 105.934 69.0056C109.831 69.0056 113.001 65.8346 113.001 61.9381C113.001 58.0408 109.831 54.8707 105.934 54.8707C102.598 54.8707 99.8032 57.1956 99.063 60.3082H91.2537V47.258H92.3409C93.2414 47.258 93.9716 46.5285 93.9716 45.6272V41.8213H100.496C101.397 41.8213 102.127 41.0918 102.127 40.1905V36.3845H105.933C106.677 36.3845 107.325 35.8821 107.512 35.1633C107.699 34.4429 107.376 33.6888 106.726 33.3286L74.6834 15.5282C73.2845 7.01987 65.8986 0.5 56.9998 0.5C48.1009 0.5 40.715 7.01987 39.3162 15.5282L7.27372 33.3269C6.62405 33.6879 6.30085 34.4421 6.48752 35.1616C6.67502 35.8804 7.32307 36.3829 8.06649 36.3829H11.8724V40.1888C11.8724 41.0893 12.6035 41.8196 13.5032 41.8196H20.0279V45.6255C20.0279 46.526 20.759 47.2563 21.6587 47.2563H22.7459V60.3049H14.9365C14.1972 57.1922 11.4011 54.8673 8.0655 54.8673C4.16819 54.8673 0.998047 58.0383 0.998047 61.9348C0.998047 65.8321 4.16903 69.0022 8.0655 69.0022C11.4011 69.0022 14.1963 66.6774 14.9365 63.5647H22.7459V76.6133H21.6587C20.7582 76.6133 20.0279 77.3427 20.0279 78.244V92.9251H14.9373C14.198 89.8124 11.4019 87.4875 8.0663 87.4875C4.16899 87.4875 0.998847 90.6585 0.998847 94.555C0.998847 98.4514 4.16983 101.622 8.0663 101.622C11.4019 101.622 14.1971 99.2976 14.9373 96.1849H21.6595C22.56 96.1849 23.2903 95.4554 23.2903 94.5541V90.7482H49.9306V103.797H42.1212C41.3819 100.684 38.5858 98.3592 35.2502 98.3592C31.3529 98.3592 28.1828 101.53 28.1828 105.427C28.1828 109.323 31.3537 112.494 35.2502 112.494C38.5858 112.494 41.381 110.169 42.1212 107.057H51.5614C52.4619 107.057 53.1921 106.327 53.1921 105.426L53.1897 90.7521H60.8007V105.432C60.8007 106.332 61.5318 107.062 62.4315 107.062H71.8716C72.6109 110.175 75.407 112.5 78.7426 112.5C82.6399 112.5 85.8101 109.329 85.8101 105.433C85.8101 101.536 82.6391 98.3651 78.7426 98.3651C75.407 98.3651 72.6118 100.69 71.8716 103.803H64.0622V90.7524H90.7025V94.5583C90.7025 95.4588 91.4336 96.1891 92.3333 96.1891H99.0555C99.7948 99.3018 102.591 101.627 105.927 101.627C109.824 101.627 112.994 98.4556 112.994 94.5592C112.995 90.6619 109.827 87.4909 105.931 87.4909H105.933ZM105.933 58.1305C108.032 58.1305 109.739 59.8378 109.739 61.9365C109.739 64.0352 108.032 65.7424 105.933 65.7424C103.835 65.7424 102.127 64.0352 102.127 61.9365C102.127 59.8386 103.835 58.1305 105.933 58.1305ZM8.06685 65.7424C5.96813 65.7424 4.26091 64.0352 4.26091 61.9365C4.26091 59.8378 5.96817 58.1305 8.06685 58.1305C10.1655 58.1305 11.8728 59.8378 11.8728 61.9365C11.8728 64.0344 10.1655 65.7424 8.06685 65.7424ZM8.06685 98.3639C5.96813 98.3639 4.26091 96.6566 4.26091 94.5579C4.26091 92.4592 5.96817 90.752 8.06685 90.752C10.1655 90.752 11.8728 92.4592 11.8728 94.5579C11.8728 96.6566 10.1655 98.3639 8.06685 98.3639ZM35.2503 109.237C33.1516 109.237 31.4444 107.53 31.4444 105.431C31.4444 103.333 33.1516 101.625 35.2503 101.625C37.349 101.625 39.0563 103.333 39.0563 105.431C39.0563 107.53 37.349 109.237 35.2503 109.237ZM78.7477 101.626C80.8464 101.626 82.5536 103.333 82.5536 105.432C82.5536 107.531 80.8463 109.238 78.7477 109.238C76.649 109.238 74.9417 107.531 74.9417 105.432C74.9417 103.333 76.649 101.626 78.7477 101.626ZM69.5042 82.0527V51.0608C69.5042 50.1603 68.7731 49.43 67.8734 49.43L46.1258 49.4308C45.2253 49.4308 44.495 50.1603 44.495 51.0616V82.0514H39.6028V78.2455C39.6028 77.345 38.8717 76.6147 37.972 76.6147H36.8848V47.2544H37.972C38.8725 47.2544 39.6028 46.5249 39.6028 45.6236V41.8177H74.4011V45.6236C74.4011 46.5241 75.1322 47.2544 76.0318 47.2544H77.119V76.6147H76.0318C75.1313 76.6147 74.4011 77.3442 74.4011 78.2455V82.0514L69.5054 82.0506L69.5042 82.0527ZM47.7566 82.0527V52.6924H66.2429V82.0527H47.7566ZM23.291 79.8775H36.339V82.0527H23.291V79.8775ZM33.6208 47.2561V76.6164H31.4456V47.2561H33.6208ZM80.3772 76.6164V47.2561H82.5524V76.6164H80.3772ZM77.6584 79.878H90.7063V82.0531H77.6584V79.878ZM87.989 76.6164H85.8139V47.2561H87.989V76.6164ZM77.6599 43.995V41.8198H90.7084V43.995H77.6599ZM68.313 32.3494C68.3813 32.2943 68.4487 32.2359 68.5162 32.18C68.9084 31.8502 69.2908 31.5065 69.6535 31.1446C69.6831 31.115 69.7102 31.0846 69.7398 31.055C70.0935 30.6981 70.4306 30.3255 70.7538 29.9398C70.7925 29.8938 70.8328 29.8494 70.8714 29.8017C71.193 29.4094 71.4948 29.0015 71.7843 28.5829C71.8361 28.5072 71.8879 28.4308 71.9397 28.3543C72.2193 27.9349 72.4833 27.5031 72.7275 27.0599C72.7654 26.9924 72.7991 26.9233 72.8361 26.8551C73.3344 25.92 73.7522 24.9373 74.0812 23.9125C74.1058 23.8369 74.1322 23.7612 74.1552 23.6847C74.3065 23.1921 74.4348 22.6897 74.5434 22.1806C74.5631 22.0885 74.5812 21.9964 74.5985 21.9051C74.6996 21.3878 74.7835 20.8632 74.8402 20.3303C74.846 20.2702 74.8493 20.2085 74.8559 20.1477C74.8797 19.8969 74.9044 19.6444 74.9184 19.3911L99.6366 33.1216H67.3056C67.6527 32.8773 67.9874 32.6166 68.3147 32.3493L68.313 32.3494ZM56.9988 3.7617C64.5639 3.7617 70.8065 9.51503 71.5918 16.8736C71.5992 16.9329 71.6025 16.9962 71.6082 17.0562C71.651 17.5126 71.679 17.9732 71.679 18.4411C71.679 26.5357 65.0943 33.1206 56.9994 33.1206C48.9048 33.1206 42.3199 26.5351 42.3199 18.4411C42.3199 17.974 42.347 17.5135 42.3906 17.0562C42.3964 16.9962 42.3997 16.932 42.4071 16.8736C43.1908 9.51503 49.4335 3.7617 56.9986 3.7617H56.9988ZM39.0809 19.3886C39.0941 19.6436 39.1187 19.8944 39.1434 20.1452C39.1492 20.2053 39.1516 20.2669 39.159 20.3278C39.2158 20.8607 39.298 21.3854 39.4008 21.9026C39.4189 21.9948 39.437 22.0869 39.4559 22.1781C39.5644 22.6872 39.6927 23.1897 39.8441 23.6823C39.8679 23.7587 39.8934 23.8336 39.9181 23.9101C40.247 24.9347 40.664 25.9175 41.1632 26.8526C41.1993 26.9209 41.2339 26.9908 41.2717 27.0574C41.516 27.5007 41.78 27.9324 42.0596 28.3518C42.1105 28.4283 42.1624 28.504 42.215 28.5804C42.5036 28.999 42.8055 29.4077 43.1278 29.7992C43.1657 29.8461 43.2068 29.8897 43.2454 29.9374C43.5686 30.323 43.9058 30.6956 44.2594 31.0525C44.289 31.0821 44.3162 31.1125 44.3458 31.1421C44.7093 31.504 45.0908 31.8469 45.4831 32.1775C45.5505 32.2343 45.6171 32.2918 45.6862 32.3469C46.0144 32.6142 46.3491 32.8741 46.6953 33.1192L14.3623 33.1216L39.0809 19.3886ZM15.1332 36.3831H98.8626V38.5583H15.1332V36.3831ZM36.3377 41.8207V43.9959H23.2883V41.8207H36.3377ZM26.0071 47.2574H28.1822V76.6177H26.0071V47.2574ZM23.2891 87.4915V85.3163H90.7068V87.4915H23.2891ZM105.93 98.3658C103.831 98.3658 102.124 96.6585 102.124 94.5598C102.124 92.4611 103.831 90.7539 105.93 90.7539C108.029 90.7539 109.736 92.4611 109.736 94.5598C109.735 96.6585 108.028 98.3658 105.93 98.3658Z"/>
<path d="M42.3199 94.5604C42.3199 95.4609 41.5896 96.1912 40.6891 96.1912C39.7886 96.1912 39.0583 95.4609 39.0583 94.5604C39.0583 93.66 39.7886 92.9305 40.6891 92.9305C41.5896 92.9305 42.3199 93.6599 42.3199 94.5604Z"/>
<path d="M31.4461 94.5604C31.4461 95.4609 30.7158 96.1912 29.8153 96.1912C28.9148 96.1912 28.1845 95.4609 28.1845 94.5604C28.1845 93.66 28.9148 92.9305 29.8153 92.9305C30.7158 92.9305 31.4461 93.6599 31.4461 94.5604Z"/>
<path d="M36.8819 94.5604C36.8819 95.4609 36.1516 96.1912 35.2511 96.1912C34.3506 96.1912 33.6212 95.4609 33.6212 94.5604C33.6212 93.66 34.3506 92.9305 35.2511 92.9305C36.1516 92.9305 36.8819 93.6599 36.8819 94.5604Z"/>
<path d="M47.7578 99.9963C47.7578 100.897 47.0276 101.626 46.1271 101.626C45.2266 101.626 44.4963 100.897 44.4963 99.9963C44.4963 99.0958 45.2266 98.3655 46.1271 98.3655C47.0276 98.3655 47.7578 99.0958 47.7578 99.9963Z"/>
<path d="M47.7578 94.5604C47.7578 95.4609 47.0276 96.1912 46.1271 96.1912C45.2266 96.1912 44.4963 95.4609 44.4963 94.5604C44.4963 93.66 45.2266 92.9305 46.1271 92.9305C47.0276 92.9305 47.7578 93.6599 47.7578 94.5604Z"/>
<path d="M80.3793 94.5604C80.3793 95.4609 79.6498 96.1912 78.7493 96.1912C77.8488 96.1912 77.1185 95.4609 77.1185 94.5604C77.1185 93.66 77.8488 92.9305 78.7493 92.9305C79.6498 92.9305 80.3793 93.6599 80.3793 94.5604Z"/>
<path d="M85.8151 94.5604C85.8151 95.4609 85.0848 96.1912 84.1843 96.1912C83.2838 96.1912 82.5536 95.4609 82.5536 94.5604C82.5536 93.66 83.2838 92.9305 84.1843 92.9305C85.0848 92.9305 85.8151 93.6599 85.8151 94.5604Z"/>
<path d="M74.9413 94.5604C74.9413 95.4609 74.211 96.1912 73.3105 96.1912C72.41 96.1912 71.6798 95.4609 71.6798 94.5604C71.6798 93.66 72.41 92.9305 73.3105 92.9305C74.211 92.9305 74.9413 93.6599 74.9413 94.5604Z"/>
<path d="M69.5034 99.9963C69.5034 100.897 68.7731 101.626 67.8726 101.626C66.9721 101.626 66.2418 100.897 66.2418 99.9963C66.2418 99.0958 66.9721 98.3655 67.8726 98.3655C68.7731 98.3655 69.5034 99.0958 69.5034 99.9963Z"/>
<path d="M69.5034 94.5604C69.5034 95.4609 68.7731 96.1912 67.8726 96.1912C66.9721 96.1912 66.2418 95.4609 66.2418 94.5604C66.2418 93.66 66.9721 92.9305 67.8726 92.9305C68.7731 92.9305 69.5034 93.6599 69.5034 94.5604Z"/>
<path d="M15.1343 78.2487C15.1343 79.1492 14.404 79.8786 13.5035 79.8786C12.603 79.8786 11.8736 79.1492 11.8736 78.2487C11.8736 77.3482 12.603 76.6179 13.5035 76.6179C14.404 76.6179 15.1343 77.3482 15.1343 78.2487Z"/>
<path d="M9.69844 83.6845C9.69844 84.585 8.96816 85.3153 8.06767 85.3153C7.16717 85.3153 6.43771 84.585 6.43771 83.6845C6.43771 82.784 7.16715 82.0538 8.06767 82.0538C8.96816 82.0538 9.69844 82.784 9.69844 83.6845Z"/>
<path d="M15.1343 72.8128C15.1343 73.7133 14.404 74.4436 13.5035 74.4436C12.603 74.4436 11.8736 73.7133 11.8736 72.8128C11.8736 71.9123 12.603 71.182 13.5035 71.182C14.404 71.182 15.1343 71.9123 15.1343 72.8128Z"/>
<path d="M15.1343 83.6845C15.1343 84.585 14.404 85.3153 13.5035 85.3153C12.603 85.3153 11.8736 84.585 11.8736 83.6845C11.8736 82.784 12.603 82.0538 13.5035 82.0538C14.404 82.0538 15.1343 82.784 15.1343 83.6845Z"/>
<path d="M20.5702 72.8128C20.5702 73.7133 19.8407 74.4436 18.9402 74.4436C18.0397 74.4436 17.3094 73.7133 17.3094 72.8128C17.3094 71.9123 18.0397 71.182 18.9402 71.182C19.8407 71.182 20.5702 71.9123 20.5702 72.8128Z"/>
<path d="M102.125 83.6845C102.125 84.585 101.395 85.3153 100.495 85.3153C99.5943 85.3153 98.864 84.585 98.864 83.6845C98.864 82.784 99.5943 82.0538 100.495 82.0538C101.395 82.0538 102.125 82.784 102.125 83.6845Z"/>
<path d="M107.563 83.6845C107.563 84.585 106.833 85.3153 105.933 85.3153C105.032 85.3153 104.302 84.585 104.302 83.6845C104.302 82.784 105.032 82.0538 105.933 82.0538C106.833 82.0538 107.563 82.784 107.563 83.6845Z"/>
<path d="M102.125 72.8128C102.125 73.7133 101.395 74.4436 100.495 74.4436C99.5943 74.4436 98.864 73.7133 98.864 72.8128C98.864 71.9123 99.5943 71.182 100.495 71.182C101.395 71.182 102.125 71.9123 102.125 72.8128Z"/>
<path d="M102.125 78.2487C102.125 79.1492 101.395 79.8786 100.495 79.8786C99.5943 79.8786 98.864 79.1492 98.864 78.2487C98.864 77.3482 99.5943 76.6179 100.495 76.6179C101.395 76.6179 102.125 77.3482 102.125 78.2487Z"/>
<path d="M96.6889 72.8128C96.6889 73.7133 95.9587 74.4436 95.0582 74.4436C94.1577 74.4436 93.4282 73.7133 93.4282 72.8128C93.4282 71.9123 94.1576 71.182 95.0582 71.182C95.9587 71.182 96.6889 71.9123 96.6889 72.8128Z"/>
<path d="M9.69844 45.6272C9.69844 46.5277 8.96816 47.258 8.06767 47.258C7.16717 47.258 6.43771 46.5277 6.43771 45.6272C6.43771 44.7268 7.16715 43.9965 8.06767 43.9965C8.96816 43.9965 9.69844 44.7268 9.69844 45.6272Z"/>
<path d="M15.1343 51.0631C15.1343 51.9636 14.404 52.6939 13.5035 52.6939C12.603 52.6939 11.8736 51.9636 11.8736 51.0631C11.8736 50.1626 12.603 49.4331 13.5035 49.4331C14.404 49.4331 15.1343 50.1626 15.1343 51.0631Z"/>
<path d="M20.5702 51.0631C20.5702 51.9636 19.8407 52.6939 18.9402 52.6939C18.0397 52.6939 17.3094 51.9636 17.3094 51.0631C17.3094 50.1626 18.0397 49.4331 18.9402 49.4331C19.8407 49.4331 20.5702 50.1626 20.5702 51.0631Z"/>
<path d="M15.1343 45.6272C15.1343 46.5277 14.404 47.258 13.5035 47.258C12.603 47.258 11.8736 46.5277 11.8736 45.6272C11.8736 44.7268 12.603 43.9965 13.5035 43.9965C14.404 43.9965 15.1343 44.7268 15.1343 45.6272Z"/>
<path d="M102.125 51.0631C102.125 51.9636 101.395 52.6939 100.495 52.6939C99.5943 52.6939 98.864 51.9636 98.864 51.0631C98.864 50.1626 99.5943 49.4331 100.495 49.4331C101.395 49.4331 102.125 50.1626 102.125 51.0631Z"/>
<path d="M96.6889 51.0631C96.6889 51.9636 95.9587 52.6939 95.0582 52.6939C94.1577 52.6939 93.4282 51.9636 93.4282 51.0631C93.4282 50.1626 94.1576 49.4331 95.0582 49.4331C95.9587 49.4331 96.6889 50.1626 96.6889 51.0631Z"/>
<path d="M102.125 45.6272C102.125 46.5277 101.395 47.258 100.495 47.258C99.5943 47.258 98.864 46.5277 98.864 45.6272C98.864 44.7268 99.5943 43.9965 100.495 43.9965C101.395 43.9965 102.125 44.7268 102.125 45.6272Z"/>
<path d="M107.563 45.6272C107.563 46.5277 106.833 47.258 105.933 47.258C105.032 47.258 104.302 46.5277 104.302 45.6272C104.302 44.7268 105.032 43.9965 105.933 43.9965C106.833 43.9965 107.563 44.7268 107.563 45.6272Z"/>
<path d="M57.798 24.0607H52.3975C51.497 24.0607 50.7667 24.7901 50.7667 25.6915C50.7667 26.5919 51.4978 27.3222 52.3975 27.3222H55.2611V29.3157C55.2611 30.2162 55.9922 30.9465 56.8919 30.9465C57.7915 30.9465 58.5226 30.217 58.5226 29.3157V27.249C61.1757 26.8905 63.2341 24.6355 63.2341 21.8863C63.2341 18.8879 60.7949 16.4487 57.7965 16.4487H55.8393C54.8392 16.4487 54.0259 15.6362 54.0259 14.637C54.0259 13.637 54.8392 12.8253 55.8393 12.8253H60.8772C61.7777 12.8253 62.508 12.0959 62.508 11.1945C62.508 10.294 61.7769 9.56375 60.8772 9.56375H58.5218L58.521 7.56783C58.521 6.66734 57.7899 5.93705 56.8902 5.93705C55.9905 5.93705 55.2594 6.66649 55.2594 7.56783V9.62049C52.7365 9.91325 50.7642 12.0359 50.7642 14.6361C50.7642 17.4338 53.0405 19.7103 55.8399 19.7103H57.7971C58.9962 19.7103 59.9723 20.6856 59.9723 21.8855C59.9731 23.0845 58.997 24.0607 57.798 24.0607Z"/>
</mask>
<path d="M58.6316 72.8128C58.6316 73.7133 57.9014 74.4436 57.0009 74.4436C56.1004 74.4436 55.3701 73.7133 55.3701 72.8128C55.3701 71.9123 56.1004 71.182 57.0009 71.182C57.9014 71.182 58.6316 71.9123 58.6316 72.8128Z" fill="url(#paint0_linear_894_539)"/>
<path d="M58.6316 67.3749C58.6316 68.2754 57.9014 69.0056 57.0009 69.0056C56.1004 69.0056 55.3701 68.2754 55.3701 67.3749C55.3701 66.4744 56.1004 65.7441 57.0009 65.7441C57.9014 65.7441 58.6316 66.4744 58.6316 67.3749Z" fill="url(#paint1_linear_894_539)"/>
<path d="M58.6316 78.2487C58.6316 79.1492 57.9014 79.8786 57.0009 79.8786C56.1004 79.8786 55.3701 79.1492 55.3701 78.2487C55.3701 77.3482 56.1004 76.6179 57.0009 76.6179C57.9014 76.6179 58.6316 77.3482 58.6316 78.2487Z" fill="url(#paint2_linear_894_539)"/>
<path d="M58.6316 56.5011C58.6316 57.4016 57.9014 58.1318 57.0009 58.1318C56.1004 58.1318 55.3701 57.4016 55.3701 56.5011C55.3701 55.6006 56.1004 54.8703 57.0009 54.8703C57.9014 54.8703 58.6316 55.6006 58.6316 56.5011Z" fill="url(#paint3_linear_894_539)"/>
<path d="M58.6316 61.939C58.6316 62.8395 57.9014 63.569 57.0009 63.569C56.1004 63.569 55.3701 62.8395 55.3701 61.939C55.3701 61.0385 56.1004 60.3082 57.0009 60.3082C57.9014 60.3082 58.6316 61.0385 58.6316 61.939Z" fill="url(#paint4_linear_894_539)"/>
<path d="M53.1937 72.8128C53.1937 73.7133 52.4634 74.4436 51.5629 74.4436C50.6624 74.4436 49.933 73.7133 49.933 72.8128C49.933 71.9123 50.6624 71.182 51.5629 71.182C52.4634 71.182 53.1937 71.9123 53.1937 72.8128Z" fill="url(#paint5_linear_894_539)"/>
<path d="M53.1937 56.5011C53.1937 57.4016 52.4634 58.1318 51.5629 58.1318C50.6624 58.1318 49.933 57.4016 49.933 56.5011C49.933 55.6006 50.6624 54.8703 51.5629 54.8703C52.4634 54.8703 53.1937 55.6006 53.1937 56.5011Z" fill="url(#paint6_linear_894_539)"/>
<path d="M53.1937 61.939C53.1937 62.8395 52.4634 63.569 51.5629 63.569C50.6624 63.569 49.933 62.8395 49.933 61.939C49.933 61.0385 50.6624 60.3082 51.5629 60.3082C52.4634 60.3082 53.1937 61.0385 53.1937 61.939Z" fill="url(#paint7_linear_894_539)"/>
<path d="M53.1937 78.2487C53.1937 79.1492 52.4634 79.8786 51.5629 79.8786C50.6624 79.8786 49.933 79.1492 49.933 78.2487C49.933 77.3482 50.6624 76.6179 51.5629 76.6179C52.4634 76.6179 53.1937 77.3482 53.1937 78.2487Z" fill="url(#paint8_linear_894_539)"/>
<path d="M53.1937 67.3749C53.1937 68.2754 52.4634 69.0056 51.5629 69.0056C50.6624 69.0056 49.933 68.2754 49.933 67.3749C49.933 66.4744 50.6624 65.7441 51.5629 65.7441C52.4634 65.7441 53.1937 66.4744 53.1937 67.3749Z" fill="url(#paint9_linear_894_539)"/>
<path d="M64.0675 78.2487C64.0675 79.1492 63.3381 79.8786 62.4375 79.8786C61.537 79.8786 60.8068 79.1492 60.8068 78.2487C60.8068 77.3482 61.537 76.6179 62.4375 76.6179C63.338 76.6179 64.0675 77.3482 64.0675 78.2487Z" fill="url(#paint10_linear_894_539)"/>
<path d="M64.0675 56.5011C64.0675 57.4016 63.3381 58.1318 62.4375 58.1318C61.537 58.1318 60.8068 57.4016 60.8068 56.5011C60.8068 55.6006 61.537 54.8703 62.4375 54.8703C63.338 54.8703 64.0675 55.6006 64.0675 56.5011Z" fill="url(#paint11_linear_894_539)"/>
<path d="M64.0675 67.3749C64.0675 68.2754 63.3381 69.0056 62.4375 69.0056C61.537 69.0056 60.8068 68.2754 60.8068 67.3749C60.8068 66.4744 61.537 65.7441 62.4375 65.7441C63.338 65.7441 64.0675 66.4744 64.0675 67.3749Z" fill="url(#paint12_linear_894_539)"/>
<path d="M64.0675 61.939C64.0675 62.8395 63.3381 63.569 62.4375 63.569C61.537 63.569 60.8068 62.8395 60.8068 61.939C60.8068 61.0385 61.537 60.3082 62.4375 60.3082C63.338 60.3082 64.0675 61.0385 64.0675 61.939Z" fill="url(#paint13_linear_894_539)"/>
<path d="M64.0675 72.8128C64.0675 73.7133 63.3381 74.4436 62.4375 74.4436C61.537 74.4436 60.8068 73.7133 60.8068 72.8128C60.8068 71.9123 61.537 71.182 62.4375 71.182C63.338 71.182 64.0675 71.9123 64.0675 72.8128Z" fill="url(#paint14_linear_894_539)"/>
<path d="M105.933 87.4909C102.598 87.4909 99.8024 89.8158 99.0622 92.9284H93.9716L93.9708 78.2474C93.9708 77.3469 93.2397 76.6166 92.34 76.6166H91.2529L91.2537 63.5681H99.063C99.8023 66.6807 102.598 69.0056 105.934 69.0056C109.831 69.0056 113.001 65.8346 113.001 61.9381C113.001 58.0408 109.831 54.8707 105.934 54.8707C102.598 54.8707 99.8032 57.1956 99.063 60.3082H91.2537V47.258H92.3409C93.2414 47.258 93.9716 46.5285 93.9716 45.6272V41.8213H100.496C101.397 41.8213 102.127 41.0918 102.127 40.1905V36.3845H105.933C106.677 36.3845 107.325 35.8821 107.512 35.1633C107.699 34.4429 107.376 33.6888 106.726 33.3286L74.6834 15.5282C73.2845 7.01987 65.8986 0.5 56.9998 0.5C48.1009 0.5 40.715 7.01987 39.3162 15.5282L7.27372 33.3269C6.62405 33.6879 6.30085 34.4421 6.48752 35.1616C6.67502 35.8804 7.32307 36.3829 8.06649 36.3829H11.8724V40.1888C11.8724 41.0893 12.6035 41.8196 13.5032 41.8196H20.0279V45.6255C20.0279 46.526 20.759 47.2563 21.6587 47.2563H22.7459V60.3049H14.9365C14.1972 57.1922 11.4011 54.8673 8.0655 54.8673C4.16819 54.8673 0.998047 58.0383 0.998047 61.9348C0.998047 65.8321 4.16903 69.0022 8.0655 69.0022C11.4011 69.0022 14.1963 66.6774 14.9365 63.5647H22.7459V76.6133H21.6587C20.7582 76.6133 20.0279 77.3427 20.0279 78.244V92.9251H14.9373C14.198 89.8124 11.4019 87.4875 8.0663 87.4875C4.16899 87.4875 0.998847 90.6585 0.998847 94.555C0.998847 98.4514 4.16983 101.622 8.0663 101.622C11.4019 101.622 14.1971 99.2976 14.9373 96.1849H21.6595C22.56 96.1849 23.2903 95.4554 23.2903 94.5541V90.7482H49.9306V103.797H42.1212C41.3819 100.684 38.5858 98.3592 35.2502 98.3592C31.3529 98.3592 28.1828 101.53 28.1828 105.427C28.1828 109.323 31.3537 112.494 35.2502 112.494C38.5858 112.494 41.381 110.169 42.1212 107.057H51.5614C52.4619 107.057 53.1921 106.327 53.1921 105.426L53.1897 90.7521H60.8007V105.432C60.8007 106.332 61.5318 107.062 62.4315 107.062H71.8716C72.6109 110.175 75.407 112.5 78.7426 112.5C82.6399 112.5 85.8101 109.329 85.8101 105.433C85.8101 101.536 82.6391 98.3651 78.7426 98.3651C75.407 98.3651 72.6118 100.69 71.8716 103.803H64.0622V90.7524H90.7025V94.5583C90.7025 95.4588 91.4336 96.1891 92.3333 96.1891H99.0555C99.7948 99.3018 102.591 101.627 105.927 101.627C109.824 101.627 112.994 98.4556 112.994 94.5592C112.995 90.6619 109.827 87.4909 105.931 87.4909H105.933ZM105.933 58.1305C108.032 58.1305 109.739 59.8378 109.739 61.9365C109.739 64.0352 108.032 65.7424 105.933 65.7424C103.835 65.7424 102.127 64.0352 102.127 61.9365C102.127 59.8386 103.835 58.1305 105.933 58.1305ZM8.06685 65.7424C5.96813 65.7424 4.26091 64.0352 4.26091 61.9365C4.26091 59.8378 5.96817 58.1305 8.06685 58.1305C10.1655 58.1305 11.8728 59.8378 11.8728 61.9365C11.8728 64.0344 10.1655 65.7424 8.06685 65.7424ZM8.06685 98.3639C5.96813 98.3639 4.26091 96.6566 4.26091 94.5579C4.26091 92.4592 5.96817 90.752 8.06685 90.752C10.1655 90.752 11.8728 92.4592 11.8728 94.5579C11.8728 96.6566 10.1655 98.3639 8.06685 98.3639ZM35.2503 109.237C33.1516 109.237 31.4444 107.53 31.4444 105.431C31.4444 103.333 33.1516 101.625 35.2503 101.625C37.349 101.625 39.0563 103.333 39.0563 105.431C39.0563 107.53 37.349 109.237 35.2503 109.237ZM78.7477 101.626C80.8464 101.626 82.5536 103.333 82.5536 105.432C82.5536 107.531 80.8463 109.238 78.7477 109.238C76.649 109.238 74.9417 107.531 74.9417 105.432C74.9417 103.333 76.649 101.626 78.7477 101.626ZM69.5042 82.0527V51.0608C69.5042 50.1603 68.7731 49.43 67.8734 49.43L46.1258 49.4308C45.2253 49.4308 44.495 50.1603 44.495 51.0616V82.0514H39.6028V78.2455C39.6028 77.345 38.8717 76.6147 37.972 76.6147H36.8848V47.2544H37.972C38.8725 47.2544 39.6028 46.5249 39.6028 45.6236V41.8177H74.4011V45.6236C74.4011 46.5241 75.1322 47.2544 76.0318 47.2544H77.119V76.6147H76.0318C75.1313 76.6147 74.4011 77.3442 74.4011 78.2455V82.0514L69.5054 82.0506L69.5042 82.0527ZM47.7566 82.0527V52.6924H66.2429V82.0527H47.7566ZM23.291 79.8775H36.339V82.0527H23.291V79.8775ZM33.6208 47.2561V76.6164H31.4456V47.2561H33.6208ZM80.3772 76.6164V47.2561H82.5524V76.6164H80.3772ZM77.6584 79.878H90.7063V82.0531H77.6584V79.878ZM87.989 76.6164H85.8139V47.2561H87.989V76.6164ZM77.6599 43.995V41.8198H90.7084V43.995H77.6599ZM68.313 32.3494C68.3813 32.2943 68.4487 32.2359 68.5162 32.18C68.9084 31.8502 69.2908 31.5065 69.6535 31.1446C69.6831 31.115 69.7102 31.0846 69.7398 31.055C70.0935 30.6981 70.4306 30.3255 70.7538 29.9398C70.7925 29.8938 70.8328 29.8494 70.8714 29.8017C71.193 29.4094 71.4948 29.0015 71.7843 28.5829C71.8361 28.5072 71.8879 28.4308 71.9397 28.3543C72.2193 27.9349 72.4833 27.5031 72.7275 27.0599C72.7654 26.9924 72.7991 26.9233 72.8361 26.8551C73.3344 25.92 73.7522 24.9373 74.0812 23.9125C74.1058 23.8369 74.1322 23.7612 74.1552 23.6847C74.3065 23.1921 74.4348 22.6897 74.5434 22.1806C74.5631 22.0885 74.5812 21.9964 74.5985 21.9051C74.6996 21.3878 74.7835 20.8632 74.8402 20.3303C74.846 20.2702 74.8493 20.2085 74.8559 20.1477C74.8797 19.8969 74.9044 19.6444 74.9184 19.3911L99.6366 33.1216H67.3056C67.6527 32.8773 67.9874 32.6166 68.3147 32.3493L68.313 32.3494ZM56.9988 3.7617C64.5639 3.7617 70.8065 9.51503 71.5918 16.8736C71.5992 16.9329 71.6025 16.9962 71.6082 17.0562C71.651 17.5126 71.679 17.9732 71.679 18.4411C71.679 26.5357 65.0943 33.1206 56.9994 33.1206C48.9048 33.1206 42.3199 26.5351 42.3199 18.4411C42.3199 17.974 42.347 17.5135 42.3906 17.0562C42.3964 16.9962 42.3997 16.932 42.4071 16.8736C43.1908 9.51503 49.4335 3.7617 56.9986 3.7617H56.9988ZM39.0809 19.3886C39.0941 19.6436 39.1187 19.8944 39.1434 20.1452C39.1492 20.2053 39.1516 20.2669 39.159 20.3278C39.2158 20.8607 39.298 21.3854 39.4008 21.9026C39.4189 21.9948 39.437 22.0869 39.4559 22.1781C39.5644 22.6872 39.6927 23.1897 39.8441 23.6823C39.8679 23.7587 39.8934 23.8336 39.9181 23.9101C40.247 24.9347 40.664 25.9175 41.1632 26.8526C41.1993 26.9209 41.2339 26.9908 41.2717 27.0574C41.516 27.5007 41.78 27.9324 42.0596 28.3518C42.1105 28.4283 42.1624 28.504 42.215 28.5804C42.5036 28.999 42.8055 29.4077 43.1278 29.7992C43.1657 29.8461 43.2068 29.8897 43.2454 29.9374C43.5686 30.323 43.9058 30.6956 44.2594 31.0525C44.289 31.0821 44.3162 31.1125 44.3458 31.1421C44.7093 31.504 45.0908 31.8469 45.4831 32.1775C45.5505 32.2343 45.6171 32.2918 45.6862 32.3469C46.0144 32.6142 46.3491 32.8741 46.6953 33.1192L14.3623 33.1216L39.0809 19.3886ZM15.1332 36.3831H98.8626V38.5583H15.1332V36.3831ZM36.3377 41.8207V43.9959H23.2883V41.8207H36.3377ZM26.0071 47.2574H28.1822V76.6177H26.0071V47.2574ZM23.2891 87.4915V85.3163H90.7068V87.4915H23.2891ZM105.93 98.3658C103.831 98.3658 102.124 96.6585 102.124 94.5598C102.124 92.4611 103.831 90.7539 105.93 90.7539C108.029 90.7539 109.736 92.4611 109.736 94.5598C109.735 96.6585 108.028 98.3658 105.93 98.3658Z" fill="url(#paint15_linear_894_539)"/>
<path d="M42.3199 94.5604C42.3199 95.4609 41.5896 96.1912 40.6891 96.1912C39.7886 96.1912 39.0583 95.4609 39.0583 94.5604C39.0583 93.66 39.7886 92.9305 40.6891 92.9305C41.5896 92.9305 42.3199 93.6599 42.3199 94.5604Z" fill="url(#paint16_linear_894_539)"/>
<path d="M31.4461 94.5604C31.4461 95.4609 30.7158 96.1912 29.8153 96.1912C28.9148 96.1912 28.1845 95.4609 28.1845 94.5604C28.1845 93.66 28.9148 92.9305 29.8153 92.9305C30.7158 92.9305 31.4461 93.6599 31.4461 94.5604Z" fill="url(#paint17_linear_894_539)"/>
<path d="M36.8819 94.5604C36.8819 95.4609 36.1516 96.1912 35.2511 96.1912C34.3506 96.1912 33.6212 95.4609 33.6212 94.5604C33.6212 93.66 34.3506 92.9305 35.2511 92.9305C36.1516 92.9305 36.8819 93.6599 36.8819 94.5604Z" fill="url(#paint18_linear_894_539)"/>
<path d="M47.7578 99.9963C47.7578 100.897 47.0276 101.626 46.1271 101.626C45.2266 101.626 44.4963 100.897 44.4963 99.9963C44.4963 99.0958 45.2266 98.3655 46.1271 98.3655C47.0276 98.3655 47.7578 99.0958 47.7578 99.9963Z" fill="url(#paint19_linear_894_539)"/>
<path d="M47.7578 94.5604C47.7578 95.4609 47.0276 96.1912 46.1271 96.1912C45.2266 96.1912 44.4963 95.4609 44.4963 94.5604C44.4963 93.66 45.2266 92.9305 46.1271 92.9305C47.0276 92.9305 47.7578 93.6599 47.7578 94.5604Z" fill="url(#paint20_linear_894_539)"/>
<path d="M80.3793 94.5604C80.3793 95.4609 79.6498 96.1912 78.7493 96.1912C77.8488 96.1912 77.1185 95.4609 77.1185 94.5604C77.1185 93.66 77.8488 92.9305 78.7493 92.9305C79.6498 92.9305 80.3793 93.6599 80.3793 94.5604Z" fill="url(#paint21_linear_894_539)"/>
<path d="M85.8151 94.5604C85.8151 95.4609 85.0848 96.1912 84.1843 96.1912C83.2838 96.1912 82.5536 95.4609 82.5536 94.5604C82.5536 93.66 83.2838 92.9305 84.1843 92.9305C85.0848 92.9305 85.8151 93.6599 85.8151 94.5604Z" fill="url(#paint22_linear_894_539)"/>
<path d="M74.9413 94.5604C74.9413 95.4609 74.211 96.1912 73.3105 96.1912C72.41 96.1912 71.6798 95.4609 71.6798 94.5604C71.6798 93.66 72.41 92.9305 73.3105 92.9305C74.211 92.9305 74.9413 93.6599 74.9413 94.5604Z" fill="url(#paint23_linear_894_539)"/>
<path d="M69.5034 99.9963C69.5034 100.897 68.7731 101.626 67.8726 101.626C66.9721 101.626 66.2418 100.897 66.2418 99.9963C66.2418 99.0958 66.9721 98.3655 67.8726 98.3655C68.7731 98.3655 69.5034 99.0958 69.5034 99.9963Z" fill="url(#paint24_linear_894_539)"/>
<path d="M69.5034 94.5604C69.5034 95.4609 68.7731 96.1912 67.8726 96.1912C66.9721 96.1912 66.2418 95.4609 66.2418 94.5604C66.2418 93.66 66.9721 92.9305 67.8726 92.9305C68.7731 92.9305 69.5034 93.6599 69.5034 94.5604Z" fill="url(#paint25_linear_894_539)"/>
<path d="M15.1343 78.2487C15.1343 79.1492 14.404 79.8786 13.5035 79.8786C12.603 79.8786 11.8736 79.1492 11.8736 78.2487C11.8736 77.3482 12.603 76.6179 13.5035 76.6179C14.404 76.6179 15.1343 77.3482 15.1343 78.2487Z" fill="url(#paint26_linear_894_539)"/>
<path d="M9.69844 83.6845C9.69844 84.585 8.96816 85.3153 8.06767 85.3153C7.16717 85.3153 6.43771 84.585 6.43771 83.6845C6.43771 82.784 7.16715 82.0538 8.06767 82.0538C8.96816 82.0538 9.69844 82.784 9.69844 83.6845Z" fill="url(#paint27_linear_894_539)"/>
<path d="M15.1343 72.8128C15.1343 73.7133 14.404 74.4436 13.5035 74.4436C12.603 74.4436 11.8736 73.7133 11.8736 72.8128C11.8736 71.9123 12.603 71.182 13.5035 71.182C14.404 71.182 15.1343 71.9123 15.1343 72.8128Z" fill="url(#paint28_linear_894_539)"/>
<path d="M15.1343 83.6845C15.1343 84.585 14.404 85.3153 13.5035 85.3153C12.603 85.3153 11.8736 84.585 11.8736 83.6845C11.8736 82.784 12.603 82.0538 13.5035 82.0538C14.404 82.0538 15.1343 82.784 15.1343 83.6845Z" fill="url(#paint29_linear_894_539)"/>
<path d="M20.5702 72.8128C20.5702 73.7133 19.8407 74.4436 18.9402 74.4436C18.0397 74.4436 17.3094 73.7133 17.3094 72.8128C17.3094 71.9123 18.0397 71.182 18.9402 71.182C19.8407 71.182 20.5702 71.9123 20.5702 72.8128Z" fill="url(#paint30_linear_894_539)"/>
<path d="M102.125 83.6845C102.125 84.585 101.395 85.3153 100.495 85.3153C99.5943 85.3153 98.864 84.585 98.864 83.6845C98.864 82.784 99.5943 82.0538 100.495 82.0538C101.395 82.0538 102.125 82.784 102.125 83.6845Z" fill="url(#paint31_linear_894_539)"/>
<path d="M107.563 83.6845C107.563 84.585 106.833 85.3153 105.933 85.3153C105.032 85.3153 104.302 84.585 104.302 83.6845C104.302 82.784 105.032 82.0538 105.933 82.0538C106.833 82.0538 107.563 82.784 107.563 83.6845Z" fill="url(#paint32_linear_894_539)"/>
<path d="M102.125 72.8128C102.125 73.7133 101.395 74.4436 100.495 74.4436C99.5943 74.4436 98.864 73.7133 98.864 72.8128C98.864 71.9123 99.5943 71.182 100.495 71.182C101.395 71.182 102.125 71.9123 102.125 72.8128Z" fill="url(#paint33_linear_894_539)"/>
<path d="M102.125 78.2487C102.125 79.1492 101.395 79.8786 100.495 79.8786C99.5943 79.8786 98.864 79.1492 98.864 78.2487C98.864 77.3482 99.5943 76.6179 100.495 76.6179C101.395 76.6179 102.125 77.3482 102.125 78.2487Z" fill="url(#paint34_linear_894_539)"/>
<path d="M96.6889 72.8128C96.6889 73.7133 95.9587 74.4436 95.0582 74.4436C94.1577 74.4436 93.4282 73.7133 93.4282 72.8128C93.4282 71.9123 94.1576 71.182 95.0582 71.182C95.9587 71.182 96.6889 71.9123 96.6889 72.8128Z" fill="url(#paint35_linear_894_539)"/>
<path d="M9.69844 45.6272C9.69844 46.5277 8.96816 47.258 8.06767 47.258C7.16717 47.258 6.43771 46.5277 6.43771 45.6272C6.43771 44.7268 7.16715 43.9965 8.06767 43.9965C8.96816 43.9965 9.69844 44.7268 9.69844 45.6272Z" fill="url(#paint36_linear_894_539)"/>
<path d="M15.1343 51.0631C15.1343 51.9636 14.404 52.6939 13.5035 52.6939C12.603 52.6939 11.8736 51.9636 11.8736 51.0631C11.8736 50.1626 12.603 49.4331 13.5035 49.4331C14.404 49.4331 15.1343 50.1626 15.1343 51.0631Z" fill="url(#paint37_linear_894_539)"/>
<path d="M20.5702 51.0631C20.5702 51.9636 19.8407 52.6939 18.9402 52.6939C18.0397 52.6939 17.3094 51.9636 17.3094 51.0631C17.3094 50.1626 18.0397 49.4331 18.9402 49.4331C19.8407 49.4331 20.5702 50.1626 20.5702 51.0631Z" fill="url(#paint38_linear_894_539)"/>
<path d="M15.1343 45.6272C15.1343 46.5277 14.404 47.258 13.5035 47.258C12.603 47.258 11.8736 46.5277 11.8736 45.6272C11.8736 44.7268 12.603 43.9965 13.5035 43.9965C14.404 43.9965 15.1343 44.7268 15.1343 45.6272Z" fill="url(#paint39_linear_894_539)"/>
<path d="M102.125 51.0631C102.125 51.9636 101.395 52.6939 100.495 52.6939C99.5943 52.6939 98.864 51.9636 98.864 51.0631C98.864 50.1626 99.5943 49.4331 100.495 49.4331C101.395 49.4331 102.125 50.1626 102.125 51.0631Z" fill="url(#paint40_linear_894_539)"/>
<path d="M96.6889 51.0631C96.6889 51.9636 95.9587 52.6939 95.0582 52.6939C94.1577 52.6939 93.4282 51.9636 93.4282 51.0631C93.4282 50.1626 94.1576 49.4331 95.0582 49.4331C95.9587 49.4331 96.6889 50.1626 96.6889 51.0631Z" fill="url(#paint41_linear_894_539)"/>
<path d="M102.125 45.6272C102.125 46.5277 101.395 47.258 100.495 47.258C99.5943 47.258 98.864 46.5277 98.864 45.6272C98.864 44.7268 99.5943 43.9965 100.495 43.9965C101.395 43.9965 102.125 44.7268 102.125 45.6272Z" fill="url(#paint42_linear_894_539)"/>
<path d="M107.563 45.6272C107.563 46.5277 106.833 47.258 105.933 47.258C105.032 47.258 104.302 46.5277 104.302 45.6272C104.302 44.7268 105.032 43.9965 105.933 43.9965C106.833 43.9965 107.563 44.7268 107.563 45.6272Z" fill="url(#paint43_linear_894_539)"/>
<path d="M57.798 24.0607H52.3975C51.497 24.0607 50.7667 24.7901 50.7667 25.6915C50.7667 26.5919 51.4978 27.3222 52.3975 27.3222H55.2611V29.3157C55.2611 30.2162 55.9922 30.9465 56.8919 30.9465C57.7915 30.9465 58.5226 30.217 58.5226 29.3157V27.249C61.1757 26.8905 63.2341 24.6355 63.2341 21.8863C63.2341 18.8879 60.7949 16.4487 57.7965 16.4487H55.8393C54.8392 16.4487 54.0259 15.6362 54.0259 14.637C54.0259 13.637 54.8392 12.8253 55.8393 12.8253H60.8772C61.7777 12.8253 62.508 12.0959 62.508 11.1945C62.508 10.294 61.7769 9.56375 60.8772 9.56375H58.5218L58.521 7.56783C58.521 6.66734 57.7899 5.93705 56.8902 5.93705C55.9905 5.93705 55.2594 6.66649 55.2594 7.56783V9.62049C52.7365 9.91325 50.7642 12.0359 50.7642 14.6361C50.7642 17.4338 53.0405 19.7103 55.8399 19.7103H57.7971C58.9962 19.7103 59.9723 20.6856 59.9723 21.8855C59.9731 23.0845 58.997 24.0607 57.798 24.0607Z" fill="url(#paint44_linear_894_539)"/>
<path d="M58.6316 72.8128C58.6316 73.7133 57.9014 74.4436 57.0009 74.4436C56.1004 74.4436 55.3701 73.7133 55.3701 72.8128C55.3701 71.9123 56.1004 71.182 57.0009 71.182C57.9014 71.182 58.6316 71.9123 58.6316 72.8128Z" stroke="url(#paint45_linear_894_539)" stroke-width="6" mask="url(#path-1-inside-1_894_539)"/>
<path d="M58.6316 67.3749C58.6316 68.2754 57.9014 69.0056 57.0009 69.0056C56.1004 69.0056 55.3701 68.2754 55.3701 67.3749C55.3701 66.4744 56.1004 65.7441 57.0009 65.7441C57.9014 65.7441 58.6316 66.4744 58.6316 67.3749Z" stroke="url(#paint46_linear_894_539)" stroke-width="6" mask="url(#path-1-inside-1_894_539)"/>
<path d="M58.6316 78.2487C58.6316 79.1492 57.9014 79.8786 57.0009 79.8786C56.1004 79.8786 55.3701 79.1492 55.3701 78.2487C55.3701 77.3482 56.1004 76.6179 57.0009 76.6179C57.9014 76.6179 58.6316 77.3482 58.6316 78.2487Z" stroke="url(#paint47_linear_894_539)" stroke-width="6" mask="url(#path-1-inside-1_894_539)"/>
<path d="M58.6316 56.5011C58.6316 57.4016 57.9014 58.1318 57.0009 58.1318C56.1004 58.1318 55.3701 57.4016 55.3701 56.5011C55.3701 55.6006 56.1004 54.8703 57.0009 54.8703C57.9014 54.8703 58.6316 55.6006 58.6316 56.5011Z" stroke="url(#paint48_linear_894_539)" stroke-width="6" mask="url(#path-1-inside-1_894_539)"/>
<path d="M58.6316 61.939C58.6316 62.8395 57.9014 63.569 57.0009 63.569C56.1004 63.569 55.3701 62.8395 55.3701 61.939C55.3701 61.0385 56.1004 60.3082 57.0009 60.3082C57.9014 60.3082 58.6316 61.0385 58.6316 61.939Z" stroke="url(#paint49_linear_894_539)" stroke-width="6" mask="url(#path-1-inside-1_894_539)"/>
<path d="M53.1937 72.8128C53.1937 73.7133 52.4634 74.4436 51.5629 74.4436C50.6624 74.4436 49.933 73.7133 49.933 72.8128C49.933 71.9123 50.6624 71.182 51.5629 71.182C52.4634 71.182 53.1937 71.9123 53.1937 72.8128Z" stroke="url(#paint50_linear_894_539)" stroke-width="6" mask="url(#path-1-inside-1_894_539)"/>
<path d="M53.1937 56.5011C53.1937 57.4016 52.4634 58.1318 51.5629 58.1318C50.6624 58.1318 49.933 57.4016 49.933 56.5011C49.933 55.6006 50.6624 54.8703 51.5629 54.8703C52.4634 54.8703 53.1937 55.6006 53.1937 56.5011Z" stroke="url(#paint51_linear_894_539)" stroke-width="6" mask="url(#path-1-inside-1_894_539)"/>
<path d="M53.1937 61.939C53.1937 62.8395 52.4634 63.569 51.5629 63.569C50.6624 63.569 49.933 62.8395 49.933 61.939C49.933 61.0385 50.6624 60.3082 51.5629 60.3082C52.4634 60.3082 53.1937 61.0385 53.1937 61.939Z" stroke="url(#paint52_linear_894_539)" stroke-width="6" mask="url(#path-1-inside-1_894_539)"/>
<path d="M53.1937 78.2487C53.1937 79.1492 52.4634 79.8786 51.5629 79.8786C50.6624 79.8786 49.933 79.1492 49.933 78.2487C49.933 77.3482 50.6624 76.6179 51.5629 76.6179C52.4634 76.6179 53.1937 77.3482 53.1937 78.2487Z" stroke="url(#paint53_linear_894_539)" stroke-width="6" mask="url(#path-1-inside-1_894_539)"/>
<path d="M53.1937 67.3749C53.1937 68.2754 52.4634 69.0056 51.5629 69.0056C50.6624 69.0056 49.933 68.2754 49.933 67.3749C49.933 66.4744 50.6624 65.7441 51.5629 65.7441C52.4634 65.7441 53.1937 66.4744 53.1937 67.3749Z" stroke="url(#paint54_linear_894_539)" stroke-width="6" mask="url(#path-1-inside-1_894_539)"/>
<path d="M64.0675 78.2487C64.0675 79.1492 63.3381 79.8786 62.4375 79.8786C61.537 79.8786 60.8068 79.1492 60.8068 78.2487C60.8068 77.3482 61.537 76.6179 62.4375 76.6179C63.338 76.6179 64.0675 77.3482 64.0675 78.2487Z" stroke="url(#paint55_linear_894_539)" stroke-width="6" mask="url(#path-1-inside-1_894_539)"/>
<path d="M64.0675 56.5011C64.0675 57.4016 63.3381 58.1318 62.4375 58.1318C61.537 58.1318 60.8068 57.4016 60.8068 56.5011C60.8068 55.6006 61.537 54.8703 62.4375 54.8703C63.338 54.8703 64.0675 55.6006 64.0675 56.5011Z" stroke="url(#paint56_linear_894_539)" stroke-width="6" mask="url(#path-1-inside-1_894_539)"/>
<path d="M64.0675 67.3749C64.0675 68.2754 63.3381 69.0056 62.4375 69.0056C61.537 69.0056 60.8068 68.2754 60.8068 67.3749C60.8068 66.4744 61.537 65.7441 62.4375 65.7441C63.338 65.7441 64.0675 66.4744 64.0675 67.3749Z" stroke="url(#paint57_linear_894_539)" stroke-width="6" mask="url(#path-1-inside-1_894_539)"/>
<path d="M64.0675 61.939C64.0675 62.8395 63.3381 63.569 62.4375 63.569C61.537 63.569 60.8068 62.8395 60.8068 61.939C60.8068 61.0385 61.537 60.3082 62.4375 60.3082C63.338 60.3082 64.0675 61.0385 64.0675 61.939Z" stroke="url(#paint58_linear_894_539)" stroke-width="6" mask="url(#path-1-inside-1_894_539)"/>
<path d="M64.0675 72.8128C64.0675 73.7133 63.3381 74.4436 62.4375 74.4436C61.537 74.4436 60.8068 73.7133 60.8068 72.8128C60.8068 71.9123 61.537 71.182 62.4375 71.182C63.338 71.182 64.0675 71.9123 64.0675 72.8128Z" stroke="url(#paint59_linear_894_539)" stroke-width="6" mask="url(#path-1-inside-1_894_539)"/>
<path d="M105.933 87.4909C102.598 87.4909 99.8024 89.8158 99.0622 92.9284H93.9716L93.9708 78.2474C93.9708 77.3469 93.2397 76.6166 92.34 76.6166H91.2529L91.2537 63.5681H99.063C99.8023 66.6807 102.598 69.0056 105.934 69.0056C109.831 69.0056 113.001 65.8346 113.001 61.9381C113.001 58.0408 109.831 54.8707 105.934 54.8707C102.598 54.8707 99.8032 57.1956 99.063 60.3082H91.2537V47.258H92.3409C93.2414 47.258 93.9716 46.5285 93.9716 45.6272V41.8213H100.496C101.397 41.8213 102.127 41.0918 102.127 40.1905V36.3845H105.933C106.677 36.3845 107.325 35.8821 107.512 35.1633C107.699 34.4429 107.376 33.6888 106.726 33.3286L74.6834 15.5282C73.2845 7.01987 65.8986 0.5 56.9998 0.5C48.1009 0.5 40.715 7.01987 39.3162 15.5282L7.27372 33.3269C6.62405 33.6879 6.30085 34.4421 6.48752 35.1616C6.67502 35.8804 7.32307 36.3829 8.06649 36.3829H11.8724V40.1888C11.8724 41.0893 12.6035 41.8196 13.5032 41.8196H20.0279V45.6255C20.0279 46.526 20.759 47.2563 21.6587 47.2563H22.7459V60.3049H14.9365C14.1972 57.1922 11.4011 54.8673 8.0655 54.8673C4.16819 54.8673 0.998047 58.0383 0.998047 61.9348C0.998047 65.8321 4.16903 69.0022 8.0655 69.0022C11.4011 69.0022 14.1963 66.6774 14.9365 63.5647H22.7459V76.6133H21.6587C20.7582 76.6133 20.0279 77.3427 20.0279 78.244V92.9251H14.9373C14.198 89.8124 11.4019 87.4875 8.0663 87.4875C4.16899 87.4875 0.998847 90.6585 0.998847 94.555C0.998847 98.4514 4.16983 101.622 8.0663 101.622C11.4019 101.622 14.1971 99.2976 14.9373 96.1849H21.6595C22.56 96.1849 23.2903 95.4554 23.2903 94.5541V90.7482H49.9306V103.797H42.1212C41.3819 100.684 38.5858 98.3592 35.2502 98.3592C31.3529 98.3592 28.1828 101.53 28.1828 105.427C28.1828 109.323 31.3537 112.494 35.2502 112.494C38.5858 112.494 41.381 110.169 42.1212 107.057H51.5614C52.4619 107.057 53.1921 106.327 53.1921 105.426L53.1897 90.7521H60.8007V105.432C60.8007 106.332 61.5318 107.062 62.4315 107.062H71.8716C72.6109 110.175 75.407 112.5 78.7426 112.5C82.6399 112.5 85.8101 109.329 85.8101 105.433C85.8101 101.536 82.6391 98.3651 78.7426 98.3651C75.407 98.3651 72.6118 100.69 71.8716 103.803H64.0622V90.7524H90.7025V94.5583C90.7025 95.4588 91.4336 96.1891 92.3333 96.1891H99.0555C99.7948 99.3018 102.591 101.627 105.927 101.627C109.824 101.627 112.994 98.4556 112.994 94.5592C112.995 90.6619 109.827 87.4909 105.931 87.4909H105.933ZM105.933 58.1305C108.032 58.1305 109.739 59.8378 109.739 61.9365C109.739 64.0352 108.032 65.7424 105.933 65.7424C103.835 65.7424 102.127 64.0352 102.127 61.9365C102.127 59.8386 103.835 58.1305 105.933 58.1305ZM8.06685 65.7424C5.96813 65.7424 4.26091 64.0352 4.26091 61.9365C4.26091 59.8378 5.96817 58.1305 8.06685 58.1305C10.1655 58.1305 11.8728 59.8378 11.8728 61.9365C11.8728 64.0344 10.1655 65.7424 8.06685 65.7424ZM8.06685 98.3639C5.96813 98.3639 4.26091 96.6566 4.26091 94.5579C4.26091 92.4592 5.96817 90.752 8.06685 90.752C10.1655 90.752 11.8728 92.4592 11.8728 94.5579C11.8728 96.6566 10.1655 98.3639 8.06685 98.3639ZM35.2503 109.237C33.1516 109.237 31.4444 107.53 31.4444 105.431C31.4444 103.333 33.1516 101.625 35.2503 101.625C37.349 101.625 39.0563 103.333 39.0563 105.431C39.0563 107.53 37.349 109.237 35.2503 109.237ZM78.7477 101.626C80.8464 101.626 82.5536 103.333 82.5536 105.432C82.5536 107.531 80.8463 109.238 78.7477 109.238C76.649 109.238 74.9417 107.531 74.9417 105.432C74.9417 103.333 76.649 101.626 78.7477 101.626ZM69.5042 82.0527V51.0608C69.5042 50.1603 68.7731 49.43 67.8734 49.43L46.1258 49.4308C45.2253 49.4308 44.495 50.1603 44.495 51.0616V82.0514H39.6028V78.2455C39.6028 77.345 38.8717 76.6147 37.972 76.6147H36.8848V47.2544H37.972C38.8725 47.2544 39.6028 46.5249 39.6028 45.6236V41.8177H74.4011V45.6236C74.4011 46.5241 75.1322 47.2544 76.0318 47.2544H77.119V76.6147H76.0318C75.1313 76.6147 74.4011 77.3442 74.4011 78.2455V82.0514L69.5054 82.0506L69.5042 82.0527ZM47.7566 82.0527V52.6924H66.2429V82.0527H47.7566ZM23.291 79.8775H36.339V82.0527H23.291V79.8775ZM33.6208 47.2561V76.6164H31.4456V47.2561H33.6208ZM80.3772 76.6164V47.2561H82.5524V76.6164H80.3772ZM77.6584 79.878H90.7063V82.0531H77.6584V79.878ZM87.989 76.6164H85.8139V47.2561H87.989V76.6164ZM77.6599 43.995V41.8198H90.7084V43.995H77.6599ZM68.313 32.3494C68.3813 32.2943 68.4487 32.2359 68.5162 32.18C68.9084 31.8502 69.2908 31.5065 69.6535 31.1446C69.6831 31.115 69.7102 31.0846 69.7398 31.055C70.0935 30.6981 70.4306 30.3255 70.7538 29.9398C70.7925 29.8938 70.8328 29.8494 70.8714 29.8017C71.193 29.4094 71.4948 29.0015 71.7843 28.5829C71.8361 28.5072 71.8879 28.4308 71.9397 28.3543C72.2193 27.9349 72.4833 27.5031 72.7275 27.0599C72.7654 26.9924 72.7991 26.9233 72.8361 26.8551C73.3344 25.92 73.7522 24.9373 74.0812 23.9125C74.1058 23.8369 74.1322 23.7612 74.1552 23.6847C74.3065 23.1921 74.4348 22.6897 74.5434 22.1806C74.5631 22.0885 74.5812 21.9964 74.5985 21.9051C74.6996 21.3878 74.7835 20.8632 74.8402 20.3303C74.846 20.2702 74.8493 20.2085 74.8559 20.1477C74.8797 19.8969 74.9044 19.6444 74.9184 19.3911L99.6366 33.1216H67.3056C67.6527 32.8773 67.9874 32.6166 68.3147 32.3493L68.313 32.3494ZM56.9988 3.7617C64.5639 3.7617 70.8065 9.51503 71.5918 16.8736C71.5992 16.9329 71.6025 16.9962 71.6082 17.0562C71.651 17.5126 71.679 17.9732 71.679 18.4411C71.679 26.5357 65.0943 33.1206 56.9994 33.1206C48.9048 33.1206 42.3199 26.5351 42.3199 18.4411C42.3199 17.974 42.347 17.5135 42.3906 17.0562C42.3964 16.9962 42.3997 16.932 42.4071 16.8736C43.1908 9.51503 49.4335 3.7617 56.9986 3.7617H56.9988ZM39.0809 19.3886C39.0941 19.6436 39.1187 19.8944 39.1434 20.1452C39.1492 20.2053 39.1516 20.2669 39.159 20.3278C39.2158 20.8607 39.298 21.3854 39.4008 21.9026C39.4189 21.9948 39.437 22.0869 39.4559 22.1781C39.5644 22.6872 39.6927 23.1897 39.8441 23.6823C39.8679 23.7587 39.8934 23.8336 39.9181 23.9101C40.247 24.9347 40.664 25.9175 41.1632 26.8526C41.1993 26.9209 41.2339 26.9908 41.2717 27.0574C41.516 27.5007 41.78 27.9324 42.0596 28.3518C42.1105 28.4283 42.1624 28.504 42.215 28.5804C42.5036 28.999 42.8055 29.4077 43.1278 29.7992C43.1657 29.8461 43.2068 29.8897 43.2454 29.9374C43.5686 30.323 43.9058 30.6956 44.2594 31.0525C44.289 31.0821 44.3162 31.1125 44.3458 31.1421C44.7093 31.504 45.0908 31.8469 45.4831 32.1775C45.5505 32.2343 45.6171 32.2918 45.6862 32.3469C46.0144 32.6142 46.3491 32.8741 46.6953 33.1192L14.3623 33.1216L39.0809 19.3886ZM15.1332 36.3831H98.8626V38.5583H15.1332V36.3831ZM36.3377 41.8207V43.9959H23.2883V41.8207H36.3377ZM26.0071 47.2574H28.1822V76.6177H26.0071V47.2574ZM23.2891 87.4915V85.3163H90.7068V87.4915H23.2891ZM105.93 98.3658C103.831 98.3658 102.124 96.6585 102.124 94.5598C102.124 92.4611 103.831 90.7539 105.93 90.7539C108.029 90.7539 109.736 92.4611 109.736 94.5598C109.735 96.6585 108.028 98.3658 105.93 98.3658Z" stroke="url(#paint60_linear_894_539)" stroke-width="6" mask="url(#path-1-inside-1_894_539)"/>
<path d="M42.3199 94.5604C42.3199 95.4609 41.5896 96.1912 40.6891 96.1912C39.7886 96.1912 39.0583 95.4609 39.0583 94.5604C39.0583 93.66 39.7886 92.9305 40.6891 92.9305C41.5896 92.9305 42.3199 93.6599 42.3199 94.5604Z" stroke="url(#paint61_linear_894_539)" stroke-width="6" mask="url(#path-1-inside-1_894_539)"/>
<path d="M31.4461 94.5604C31.4461 95.4609 30.7158 96.1912 29.8153 96.1912C28.9148 96.1912 28.1845 95.4609 28.1845 94.5604C28.1845 93.66 28.9148 92.9305 29.8153 92.9305C30.7158 92.9305 31.4461 93.6599 31.4461 94.5604Z" stroke="url(#paint62_linear_894_539)" stroke-width="6" mask="url(#path-1-inside-1_894_539)"/>
<path d="M36.8819 94.5604C36.8819 95.4609 36.1516 96.1912 35.2511 96.1912C34.3506 96.1912 33.6212 95.4609 33.6212 94.5604C33.6212 93.66 34.3506 92.9305 35.2511 92.9305C36.1516 92.9305 36.8819 93.6599 36.8819 94.5604Z" stroke="url(#paint63_linear_894_539)" stroke-width="6" mask="url(#path-1-inside-1_894_539)"/>
<path d="M47.7578 99.9963C47.7578 100.897 47.0276 101.626 46.1271 101.626C45.2266 101.626 44.4963 100.897 44.4963 99.9963C44.4963 99.0958 45.2266 98.3655 46.1271 98.3655C47.0276 98.3655 47.7578 99.0958 47.7578 99.9963Z" stroke="url(#paint64_linear_894_539)" stroke-width="6" mask="url(#path-1-inside-1_894_539)"/>
<path d="M47.7578 94.5604C47.7578 95.4609 47.0276 96.1912 46.1271 96.1912C45.2266 96.1912 44.4963 95.4609 44.4963 94.5604C44.4963 93.66 45.2266 92.9305 46.1271 92.9305C47.0276 92.9305 47.7578 93.6599 47.7578 94.5604Z" stroke="url(#paint65_linear_894_539)" stroke-width="6" mask="url(#path-1-inside-1_894_539)"/>
<path d="M80.3793 94.5604C80.3793 95.4609 79.6498 96.1912 78.7493 96.1912C77.8488 96.1912 77.1185 95.4609 77.1185 94.5604C77.1185 93.66 77.8488 92.9305 78.7493 92.9305C79.6498 92.9305 80.3793 93.6599 80.3793 94.5604Z" stroke="url(#paint66_linear_894_539)" stroke-width="6" mask="url(#path-1-inside-1_894_539)"/>
<path d="M85.8151 94.5604C85.8151 95.4609 85.0848 96.1912 84.1843 96.1912C83.2838 96.1912 82.5536 95.4609 82.5536 94.5604C82.5536 93.66 83.2838 92.9305 84.1843 92.9305C85.0848 92.9305 85.8151 93.6599 85.8151 94.5604Z" stroke="url(#paint67_linear_894_539)" stroke-width="6" mask="url(#path-1-inside-1_894_539)"/>
<path d="M74.9413 94.5604C74.9413 95.4609 74.211 96.1912 73.3105 96.1912C72.41 96.1912 71.6798 95.4609 71.6798 94.5604C71.6798 93.66 72.41 92.9305 73.3105 92.9305C74.211 92.9305 74.9413 93.6599 74.9413 94.5604Z" stroke="url(#paint68_linear_894_539)" stroke-width="6" mask="url(#path-1-inside-1_894_539)"/>
<path d="M69.5034 99.9963C69.5034 100.897 68.7731 101.626 67.8726 101.626C66.9721 101.626 66.2418 100.897 66.2418 99.9963C66.2418 99.0958 66.9721 98.3655 67.8726 98.3655C68.7731 98.3655 69.5034 99.0958 69.5034 99.9963Z" stroke="url(#paint69_linear_894_539)" stroke-width="6" mask="url(#path-1-inside-1_894_539)"/>
<path d="M69.5034 94.5604C69.5034 95.4609 68.7731 96.1912 67.8726 96.1912C66.9721 96.1912 66.2418 95.4609 66.2418 94.5604C66.2418 93.66 66.9721 92.9305 67.8726 92.9305C68.7731 92.9305 69.5034 93.6599 69.5034 94.5604Z" stroke="url(#paint70_linear_894_539)" stroke-width="6" mask="url(#path-1-inside-1_894_539)"/>
<path d="M15.1343 78.2487C15.1343 79.1492 14.404 79.8786 13.5035 79.8786C12.603 79.8786 11.8736 79.1492 11.8736 78.2487C11.8736 77.3482 12.603 76.6179 13.5035 76.6179C14.404 76.6179 15.1343 77.3482 15.1343 78.2487Z" stroke="url(#paint71_linear_894_539)" stroke-width="6" mask="url(#path-1-inside-1_894_539)"/>
<path d="M9.69844 83.6845C9.69844 84.585 8.96816 85.3153 8.06767 85.3153C7.16717 85.3153 6.43771 84.585 6.43771 83.6845C6.43771 82.784 7.16715 82.0538 8.06767 82.0538C8.96816 82.0538 9.69844 82.784 9.69844 83.6845Z" stroke="url(#paint72_linear_894_539)" stroke-width="6" mask="url(#path-1-inside-1_894_539)"/>
<path d="M15.1343 72.8128C15.1343 73.7133 14.404 74.4436 13.5035 74.4436C12.603 74.4436 11.8736 73.7133 11.8736 72.8128C11.8736 71.9123 12.603 71.182 13.5035 71.182C14.404 71.182 15.1343 71.9123 15.1343 72.8128Z" stroke="url(#paint73_linear_894_539)" stroke-width="6" mask="url(#path-1-inside-1_894_539)"/>
<path d="M15.1343 83.6845C15.1343 84.585 14.404 85.3153 13.5035 85.3153C12.603 85.3153 11.8736 84.585 11.8736 83.6845C11.8736 82.784 12.603 82.0538 13.5035 82.0538C14.404 82.0538 15.1343 82.784 15.1343 83.6845Z" stroke="url(#paint74_linear_894_539)" stroke-width="6" mask="url(#path-1-inside-1_894_539)"/>
<path d="M20.5702 72.8128C20.5702 73.7133 19.8407 74.4436 18.9402 74.4436C18.0397 74.4436 17.3094 73.7133 17.3094 72.8128C17.3094 71.9123 18.0397 71.182 18.9402 71.182C19.8407 71.182 20.5702 71.9123 20.5702 72.8128Z" stroke="url(#paint75_linear_894_539)" stroke-width="6" mask="url(#path-1-inside-1_894_539)"/>
<path d="M102.125 83.6845C102.125 84.585 101.395 85.3153 100.495 85.3153C99.5943 85.3153 98.864 84.585 98.864 83.6845C98.864 82.784 99.5943 82.0538 100.495 82.0538C101.395 82.0538 102.125 82.784 102.125 83.6845Z" stroke="url(#paint76_linear_894_539)" stroke-width="6" mask="url(#path-1-inside-1_894_539)"/>
<path d="M107.563 83.6845C107.563 84.585 106.833 85.3153 105.933 85.3153C105.032 85.3153 104.302 84.585 104.302 83.6845C104.302 82.784 105.032 82.0538 105.933 82.0538C106.833 82.0538 107.563 82.784 107.563 83.6845Z" stroke="url(#paint77_linear_894_539)" stroke-width="6" mask="url(#path-1-inside-1_894_539)"/>
<path d="M102.125 72.8128C102.125 73.7133 101.395 74.4436 100.495 74.4436C99.5943 74.4436 98.864 73.7133 98.864 72.8128C98.864 71.9123 99.5943 71.182 100.495 71.182C101.395 71.182 102.125 71.9123 102.125 72.8128Z" stroke="url(#paint78_linear_894_539)" stroke-width="6" mask="url(#path-1-inside-1_894_539)"/>
<path d="M102.125 78.2487C102.125 79.1492 101.395 79.8786 100.495 79.8786C99.5943 79.8786 98.864 79.1492 98.864 78.2487C98.864 77.3482 99.5943 76.6179 100.495 76.6179C101.395 76.6179 102.125 77.3482 102.125 78.2487Z" stroke="url(#paint79_linear_894_539)" stroke-width="6" mask="url(#path-1-inside-1_894_539)"/>
<path d="M96.6889 72.8128C96.6889 73.7133 95.9587 74.4436 95.0582 74.4436C94.1577 74.4436 93.4282 73.7133 93.4282 72.8128C93.4282 71.9123 94.1576 71.182 95.0582 71.182C95.9587 71.182 96.6889 71.9123 96.6889 72.8128Z" stroke="url(#paint80_linear_894_539)" stroke-width="6" mask="url(#path-1-inside-1_894_539)"/>
<path d="M9.69844 45.6272C9.69844 46.5277 8.96816 47.258 8.06767 47.258C7.16717 47.258 6.43771 46.5277 6.43771 45.6272C6.43771 44.7268 7.16715 43.9965 8.06767 43.9965C8.96816 43.9965 9.69844 44.7268 9.69844 45.6272Z" stroke="url(#paint81_linear_894_539)" stroke-width="6" mask="url(#path-1-inside-1_894_539)"/>
<path d="M15.1343 51.0631C15.1343 51.9636 14.404 52.6939 13.5035 52.6939C12.603 52.6939 11.8736 51.9636 11.8736 51.0631C11.8736 50.1626 12.603 49.4331 13.5035 49.4331C14.404 49.4331 15.1343 50.1626 15.1343 51.0631Z" stroke="url(#paint82_linear_894_539)" stroke-width="6" mask="url(#path-1-inside-1_894_539)"/>
<path d="M20.5702 51.0631C20.5702 51.9636 19.8407 52.6939 18.9402 52.6939C18.0397 52.6939 17.3094 51.9636 17.3094 51.0631C17.3094 50.1626 18.0397 49.4331 18.9402 49.4331C19.8407 49.4331 20.5702 50.1626 20.5702 51.0631Z" stroke="url(#paint83_linear_894_539)" stroke-width="6" mask="url(#path-1-inside-1_894_539)"/>
<path d="M15.1343 45.6272C15.1343 46.5277 14.404 47.258 13.5035 47.258C12.603 47.258 11.8736 46.5277 11.8736 45.6272C11.8736 44.7268 12.603 43.9965 13.5035 43.9965C14.404 43.9965 15.1343 44.7268 15.1343 45.6272Z" stroke="url(#paint84_linear_894_539)" stroke-width="6" mask="url(#path-1-inside-1_894_539)"/>
<path d="M102.125 51.0631C102.125 51.9636 101.395 52.6939 100.495 52.6939C99.5943 52.6939 98.864 51.9636 98.864 51.0631C98.864 50.1626 99.5943 49.4331 100.495 49.4331C101.395 49.4331 102.125 50.1626 102.125 51.0631Z" stroke="url(#paint85_linear_894_539)" stroke-width="6" mask="url(#path-1-inside-1_894_539)"/>
<path d="M96.6889 51.0631C96.6889 51.9636 95.9587 52.6939 95.0582 52.6939C94.1577 52.6939 93.4282 51.9636 93.4282 51.0631C93.4282 50.1626 94.1576 49.4331 95.0582 49.4331C95.9587 49.4331 96.6889 50.1626 96.6889 51.0631Z" stroke="url(#paint86_linear_894_539)" stroke-width="6" mask="url(#path-1-inside-1_894_539)"/>
<path d="M102.125 45.6272C102.125 46.5277 101.395 47.258 100.495 47.258C99.5943 47.258 98.864 46.5277 98.864 45.6272C98.864 44.7268 99.5943 43.9965 100.495 43.9965C101.395 43.9965 102.125 44.7268 102.125 45.6272Z" stroke="url(#paint87_linear_894_539)" stroke-width="6" mask="url(#path-1-inside-1_894_539)"/>
<path d="M107.563 45.6272C107.563 46.5277 106.833 47.258 105.933 47.258C105.032 47.258 104.302 46.5277 104.302 45.6272C104.302 44.7268 105.032 43.9965 105.933 43.9965C106.833 43.9965 107.563 44.7268 107.563 45.6272Z" stroke="url(#paint88_linear_894_539)" stroke-width="6" mask="url(#path-1-inside-1_894_539)"/>
<path d="M57.798 24.0607H52.3975C51.497 24.0607 50.7667 24.7901 50.7667 25.6915C50.7667 26.5919 51.4978 27.3222 52.3975 27.3222H55.2611V29.3157C55.2611 30.2162 55.9922 30.9465 56.8919 30.9465C57.7915 30.9465 58.5226 30.217 58.5226 29.3157V27.249C61.1757 26.8905 63.2341 24.6355 63.2341 21.8863C63.2341 18.8879 60.7949 16.4487 57.7965 16.4487H55.8393C54.8392 16.4487 54.0259 15.6362 54.0259 14.637C54.0259 13.637 54.8392 12.8253 55.8393 12.8253H60.8772C61.7777 12.8253 62.508 12.0959 62.508 11.1945C62.508 10.294 61.7769 9.56375 60.8772 9.56375H58.5218L58.521 7.56783C58.521 6.66734 57.7899 5.93705 56.8902 5.93705C55.9905 5.93705 55.2594 6.66649 55.2594 7.56783V9.62049C52.7365 9.91325 50.7642 12.0359 50.7642 14.6361C50.7642 17.4338 53.0405 19.7103 55.8399 19.7103H57.7971C58.9962 19.7103 59.9723 20.6856 59.9723 21.8855C59.9731 23.0845 58.997 24.0607 57.798 24.0607Z" stroke="url(#paint89_linear_894_539)" stroke-width="6" mask="url(#path-1-inside-1_894_539)"/>
<defs>
<linearGradient id="paint0_linear_894_539" x1="63.4122" y1="-21.2241" x2="-33.9592" y2="82.4392" gradientUnits="userSpaceOnUse">
<stop stop-color="#44F26B"/>
<stop offset="1" stop-color="#3B53A9"/>
</linearGradient>
<linearGradient id="paint1_linear_894_539" x1="63.4122" y1="-21.2241" x2="-33.9592" y2="82.4392" gradientUnits="userSpaceOnUse">
<stop stop-color="#44F26B"/>
<stop offset="1" stop-color="#3B53A9"/>
</linearGradient>
<linearGradient id="paint2_linear_894_539" x1="63.4122" y1="-21.2241" x2="-33.9592" y2="82.4392" gradientUnits="userSpaceOnUse">
<stop stop-color="#44F26B"/>
<stop offset="1" stop-color="#3B53A9"/>
</linearGradient>
<linearGradient id="paint3_linear_894_539" x1="63.4122" y1="-21.2241" x2="-33.9592" y2="82.4392" gradientUnits="userSpaceOnUse">
<stop stop-color="#44F26B"/>
<stop offset="1" stop-color="#3B53A9"/>
</linearGradient>
<linearGradient id="paint4_linear_894_539" x1="63.4122" y1="-21.2241" x2="-33.9592" y2="82.4392" gradientUnits="userSpaceOnUse">
<stop stop-color="#44F26B"/>
<stop offset="1" stop-color="#3B53A9"/>
</linearGradient>
<linearGradient id="paint5_linear_894_539" x1="63.4122" y1="-21.2241" x2="-33.9592" y2="82.4392" gradientUnits="userSpaceOnUse">
<stop stop-color="#44F26B"/>
<stop offset="1" stop-color="#3B53A9"/>
</linearGradient>
<linearGradient id="paint6_linear_894_539" x1="63.4122" y1="-21.2241" x2="-33.9592" y2="82.4392" gradientUnits="userSpaceOnUse">
<stop stop-color="#44F26B"/>
<stop offset="1" stop-color="#3B53A9"/>
</linearGradient>
<linearGradient id="paint7_linear_894_539" x1="63.4122" y1="-21.2241" x2="-33.9592" y2="82.4392" gradientUnits="userSpaceOnUse">
<stop stop-color="#44F26B"/>
<stop offset="1" stop-color="#3B53A9"/>
</linearGradient>
<linearGradient id="paint8_linear_894_539" x1="63.4122" y1="-21.2241" x2="-33.9592" y2="82.4392" gradientUnits="userSpaceOnUse">
<stop stop-color="#44F26B"/>
<stop offset="1" stop-color="#3B53A9"/>
</linearGradient>
<linearGradient id="paint9_linear_894_539" x1="63.4122" y1="-21.2241" x2="-33.9592" y2="82.4392" gradientUnits="userSpaceOnUse">
<stop stop-color="#44F26B"/>
<stop offset="1" stop-color="#3B53A9"/>
</linearGradient>
<linearGradient id="paint10_linear_894_539" x1="63.4122" y1="-21.2241" x2="-33.9592" y2="82.4392" gradientUnits="userSpaceOnUse">
<stop stop-color="#44F26B"/>
<stop offset="1" stop-color="#3B53A9"/>
</linearGradient>
<linearGradient id="paint11_linear_894_539" x1="63.4122" y1="-21.2241" x2="-33.9592" y2="82.4392" gradientUnits="userSpaceOnUse">
<stop stop-color="#44F26B"/>
<stop offset="1" stop-color="#3B53A9"/>
</linearGradient>
<linearGradient id="paint12_linear_894_539" x1="63.4122" y1="-21.2241" x2="-33.9592" y2="82.4392" gradientUnits="userSpaceOnUse">
<stop stop-color="#44F26B"/>
<stop offset="1" stop-color="#3B53A9"/>
</linearGradient>
<linearGradient id="paint13_linear_894_539" x1="63.4122" y1="-21.2241" x2="-33.9592" y2="82.4392" gradientUnits="userSpaceOnUse">
<stop stop-color="#44F26B"/>
<stop offset="1" stop-color="#3B53A9"/>
</linearGradient>
<linearGradient id="paint14_linear_894_539" x1="63.4122" y1="-21.2241" x2="-33.9592" y2="82.4392" gradientUnits="userSpaceOnUse">
<stop stop-color="#44F26B"/>
<stop offset="1" stop-color="#3B53A9"/>
</linearGradient>
<linearGradient id="paint15_linear_894_539" x1="63.4122" y1="-21.2241" x2="-33.9592" y2="82.4392" gradientUnits="userSpaceOnUse">
<stop stop-color="#44F26B"/>
<stop offset="1" stop-color="#3B53A9"/>
</linearGradient>
<linearGradient id="paint16_linear_894_539" x1="63.4122" y1="-21.2241" x2="-33.9592" y2="82.4392" gradientUnits="userSpaceOnUse">
<stop stop-color="#44F26B"/>
<stop offset="1" stop-color="#3B53A9"/>
</linearGradient>
<linearGradient id="paint17_linear_894_539" x1="63.4122" y1="-21.2241" x2="-33.9592" y2="82.4392" gradientUnits="userSpaceOnUse">
<stop stop-color="#44F26B"/>
<stop offset="1" stop-color="#3B53A9"/>
</linearGradient>
<linearGradient id="paint18_linear_894_539" x1="63.4122" y1="-21.2241" x2="-33.9592" y2="82.4392" gradientUnits="userSpaceOnUse">
<stop stop-color="#44F26B"/>
<stop offset="1" stop-color="#3B53A9"/>
</linearGradient>
<linearGradient id="paint19_linear_894_539" x1="63.4122" y1="-21.2241" x2="-33.9592" y2="82.4392" gradientUnits="userSpaceOnUse">
<stop stop-color="#44F26B"/>
<stop offset="1" stop-color="#3B53A9"/>
</linearGradient>
<linearGradient id="paint20_linear_894_539" x1="63.4122" y1="-21.2241" x2="-33.9592" y2="82.4392" gradientUnits="userSpaceOnUse">
<stop stop-color="#44F26B"/>
<stop offset="1" stop-color="#3B53A9"/>
</linearGradient>
<linearGradient id="paint21_linear_894_539" x1="63.4122" y1="-21.2241" x2="-33.9592" y2="82.4392" gradientUnits="userSpaceOnUse">
<stop stop-color="#44F26B"/>
<stop offset="1" stop-color="#3B53A9"/>
</linearGradient>
<linearGradient id="paint22_linear_894_539" x1="63.4122" y1="-21.2241" x2="-33.9592" y2="82.4392" gradientUnits="userSpaceOnUse">
<stop stop-color="#44F26B"/>
<stop offset="1" stop-color="#3B53A9"/>
</linearGradient>
<linearGradient id="paint23_linear_894_539" x1="63.4122" y1="-21.2241" x2="-33.9592" y2="82.4392" gradientUnits="userSpaceOnUse">
<stop stop-color="#44F26B"/>
<stop offset="1" stop-color="#3B53A9"/>
</linearGradient>
<linearGradient id="paint24_linear_894_539" x1="63.4122" y1="-21.2241" x2="-33.9592" y2="82.4392" gradientUnits="userSpaceOnUse">
<stop stop-color="#44F26B"/>
<stop offset="1" stop-color="#3B53A9"/>
</linearGradient>
<linearGradient id="paint25_linear_894_539" x1="63.4122" y1="-21.2241" x2="-33.9592" y2="82.4392" gradientUnits="userSpaceOnUse">
<stop stop-color="#44F26B"/>
<stop offset="1" stop-color="#3B53A9"/>
</linearGradient>
<linearGradient id="paint26_linear_894_539" x1="63.4122" y1="-21.2241" x2="-33.9592" y2="82.4392" gradientUnits="userSpaceOnUse">
<stop stop-color="#44F26B"/>
<stop offset="1" stop-color="#3B53A9"/>
</linearGradient>
<linearGradient id="paint27_linear_894_539" x1="63.4122" y1="-21.2241" x2="-33.9592" y2="82.4392" gradientUnits="userSpaceOnUse">
<stop stop-color="#44F26B"/>
<stop offset="1" stop-color="#3B53A9"/>
</linearGradient>
<linearGradient id="paint28_linear_894_539" x1="63.4122" y1="-21.2241" x2="-33.9592" y2="82.4392" gradientUnits="userSpaceOnUse">
<stop stop-color="#44F26B"/>
<stop offset="1" stop-color="#3B53A9"/>
</linearGradient>
<linearGradient id="paint29_linear_894_539" x1="63.4122" y1="-21.2241" x2="-33.9592" y2="82.4392" gradientUnits="userSpaceOnUse">
<stop stop-color="#44F26B"/>
<stop offset="1" stop-color="#3B53A9"/>
</linearGradient>
<linearGradient id="paint30_linear_894_539" x1="63.4122" y1="-21.2241" x2="-33.9592" y2="82.4392" gradientUnits="userSpaceOnUse">
<stop stop-color="#44F26B"/>
<stop offset="1" stop-color="#3B53A9"/>
</linearGradient>
<linearGradient id="paint31_linear_894_539" x1="63.4122" y1="-21.2241" x2="-33.9592" y2="82.4392" gradientUnits="userSpaceOnUse">
<stop stop-color="#44F26B"/>
<stop offset="1" stop-color="#3B53A9"/>
</linearGradient>
<linearGradient id="paint32_linear_894_539" x1="63.4122" y1="-21.2241" x2="-33.9592" y2="82.4392" gradientUnits="userSpaceOnUse">
<stop stop-color="#44F26B"/>
<stop offset="1" stop-color="#3B53A9"/>
</linearGradient>
<linearGradient id="paint33_linear_894_539" x1="63.4122" y1="-21.2241" x2="-33.9592" y2="82.4392" gradientUnits="userSpaceOnUse">
<stop stop-color="#44F26B"/>
<stop offset="1" stop-color="#3B53A9"/>
</linearGradient>
<linearGradient id="paint34_linear_894_539" x1="63.4122" y1="-21.2241" x2="-33.9592" y2="82.4392" gradientUnits="userSpaceOnUse">
<stop stop-color="#44F26B"/>
<stop offset="1" stop-color="#3B53A9"/>
</linearGradient>
<linearGradient id="paint35_linear_894_539" x1="63.4122" y1="-21.2241" x2="-33.9592" y2="82.4392" gradientUnits="userSpaceOnUse">
<stop stop-color="#44F26B"/>
<stop offset="1" stop-color="#3B53A9"/>
</linearGradient>
<linearGradient id="paint36_linear_894_539" x1="63.4122" y1="-21.2241" x2="-33.9592" y2="82.4392" gradientUnits="userSpaceOnUse">
<stop stop-color="#44F26B"/>
<stop offset="1" stop-color="#3B53A9"/>
</linearGradient>
<linearGradient id="paint37_linear_894_539" x1="63.4122" y1="-21.2241" x2="-33.9592" y2="82.4392" gradientUnits="userSpaceOnUse">
<stop stop-color="#44F26B"/>
<stop offset="1" stop-color="#3B53A9"/>
</linearGradient>
<linearGradient id="paint38_linear_894_539" x1="63.4122" y1="-21.2241" x2="-33.9592" y2="82.4392" gradientUnits="userSpaceOnUse">
<stop stop-color="#44F26B"/>
<stop offset="1" stop-color="#3B53A9"/>
</linearGradient>
<linearGradient id="paint39_linear_894_539" x1="63.4122" y1="-21.2241" x2="-33.9592" y2="82.4392" gradientUnits="userSpaceOnUse">
<stop stop-color="#44F26B"/>
<stop offset="1" stop-color="#3B53A9"/>
</linearGradient>
<linearGradient id="paint40_linear_894_539" x1="63.4122" y1="-21.2241" x2="-33.9592" y2="82.4392" gradientUnits="userSpaceOnUse">
<stop stop-color="#44F26B"/>
<stop offset="1" stop-color="#3B53A9"/>
</linearGradient>
<linearGradient id="paint41_linear_894_539" x1="63.4122" y1="-21.2241" x2="-33.9592" y2="82.4392" gradientUnits="userSpaceOnUse">
<stop stop-color="#44F26B"/>
<stop offset="1" stop-color="#3B53A9"/>
</linearGradient>
<linearGradient id="paint42_linear_894_539" x1="63.4122" y1="-21.2241" x2="-33.9592" y2="82.4392" gradientUnits="userSpaceOnUse">
<stop stop-color="#44F26B"/>
<stop offset="1" stop-color="#3B53A9"/>
</linearGradient>
<linearGradient id="paint43_linear_894_539" x1="63.4122" y1="-21.2241" x2="-33.9592" y2="82.4392" gradientUnits="userSpaceOnUse">
<stop stop-color="#44F26B"/>
<stop offset="1" stop-color="#3B53A9"/>
</linearGradient>
<linearGradient id="paint44_linear_894_539" x1="63.4122" y1="-21.2241" x2="-33.9592" y2="82.4392" gradientUnits="userSpaceOnUse">
<stop stop-color="#44F26B"/>
<stop offset="1" stop-color="#3B53A9"/>
</linearGradient>
<linearGradient id="paint45_linear_894_539" x1="63.4122" y1="-21.2241" x2="-33.9592" y2="82.4392" gradientUnits="userSpaceOnUse">
<stop stop-color="#44F26B"/>
<stop offset="1" stop-color="#3B53A9"/>
</linearGradient>
<linearGradient id="paint46_linear_894_539" x1="63.4122" y1="-21.2241" x2="-33.9592" y2="82.4392" gradientUnits="userSpaceOnUse">
<stop stop-color="#44F26B"/>
<stop offset="1" stop-color="#3B53A9"/>
</linearGradient>
<linearGradient id="paint47_linear_894_539" x1="63.4122" y1="-21.2241" x2="-33.9592" y2="82.4392" gradientUnits="userSpaceOnUse">
<stop stop-color="#44F26B"/>
<stop offset="1" stop-color="#3B53A9"/>
</linearGradient>
<linearGradient id="paint48_linear_894_539" x1="63.4122" y1="-21.2241" x2="-33.9592" y2="82.4392" gradientUnits="userSpaceOnUse">
<stop stop-color="#44F26B"/>
<stop offset="1" stop-color="#3B53A9"/>
</linearGradient>
<linearGradient id="paint49_linear_894_539" x1="63.4122" y1="-21.2241" x2="-33.9592" y2="82.4392" gradientUnits="userSpaceOnUse">
<stop stop-color="#44F26B"/>
<stop offset="1" stop-color="#3B53A9"/>
</linearGradient>
<linearGradient id="paint50_linear_894_539" x1="63.4122" y1="-21.2241" x2="-33.9592" y2="82.4392" gradientUnits="userSpaceOnUse">
<stop stop-color="#44F26B"/>
<stop offset="1" stop-color="#3B53A9"/>
</linearGradient>
<linearGradient id="paint51_linear_894_539" x1="63.4122" y1="-21.2241" x2="-33.9592" y2="82.4392" gradientUnits="userSpaceOnUse">
<stop stop-color="#44F26B"/>
<stop offset="1" stop-color="#3B53A9"/>
</linearGradient>
<linearGradient id="paint52_linear_894_539" x1="63.4122" y1="-21.2241" x2="-33.9592" y2="82.4392" gradientUnits="userSpaceOnUse">
<stop stop-color="#44F26B"/>
<stop offset="1" stop-color="#3B53A9"/>
</linearGradient>
<linearGradient id="paint53_linear_894_539" x1="63.4122" y1="-21.2241" x2="-33.9592" y2="82.4392" gradientUnits="userSpaceOnUse">
<stop stop-color="#44F26B"/>
<stop offset="1" stop-color="#3B53A9"/>
</linearGradient>
<linearGradient id="paint54_linear_894_539" x1="63.4122" y1="-21.2241" x2="-33.9592" y2="82.4392" gradientUnits="userSpaceOnUse">
<stop stop-color="#44F26B"/>
<stop offset="1" stop-color="#3B53A9"/>
</linearGradient>
<linearGradient id="paint55_linear_894_539" x1="63.4122" y1="-21.2241" x2="-33.9592" y2="82.4392" gradientUnits="userSpaceOnUse">
<stop stop-color="#44F26B"/>
<stop offset="1" stop-color="#3B53A9"/>
</linearGradient>
<linearGradient id="paint56_linear_894_539" x1="63.4122" y1="-21.2241" x2="-33.9592" y2="82.4392" gradientUnits="userSpaceOnUse">
<stop stop-color="#44F26B"/>
<stop offset="1" stop-color="#3B53A9"/>
</linearGradient>
<linearGradient id="paint57_linear_894_539" x1="63.4122" y1="-21.2241" x2="-33.9592" y2="82.4392" gradientUnits="userSpaceOnUse">
<stop stop-color="#44F26B"/>
<stop offset="1" stop-color="#3B53A9"/>
</linearGradient>
<linearGradient id="paint58_linear_894_539" x1="63.4122" y1="-21.2241" x2="-33.9592" y2="82.4392" gradientUnits="userSpaceOnUse">
<stop stop-color="#44F26B"/>
<stop offset="1" stop-color="#3B53A9"/>
</linearGradient>
<linearGradient id="paint59_linear_894_539" x1="63.4122" y1="-21.2241" x2="-33.9592" y2="82.4392" gradientUnits="userSpaceOnUse">
<stop stop-color="#44F26B"/>
<stop offset="1" stop-color="#3B53A9"/>
</linearGradient>
<linearGradient id="paint60_linear_894_539" x1="63.4122" y1="-21.2241" x2="-33.9592" y2="82.4392" gradientUnits="userSpaceOnUse">
<stop stop-color="#44F26B"/>
<stop offset="1" stop-color="#3B53A9"/>
</linearGradient>
<linearGradient id="paint61_linear_894_539" x1="63.4122" y1="-21.2241" x2="-33.9592" y2="82.4392" gradientUnits="userSpaceOnUse">
<stop stop-color="#44F26B"/>
<stop offset="1" stop-color="#3B53A9"/>
</linearGradient>
<linearGradient id="paint62_linear_894_539" x1="63.4122" y1="-21.2241" x2="-33.9592" y2="82.4392" gradientUnits="userSpaceOnUse">
<stop stop-color="#44F26B"/>
<stop offset="1" stop-color="#3B53A9"/>
</linearGradient>
<linearGradient id="paint63_linear_894_539" x1="63.4122" y1="-21.2241" x2="-33.9592" y2="82.4392" gradientUnits="userSpaceOnUse">
<stop stop-color="#44F26B"/>
<stop offset="1" stop-color="#3B53A9"/>
</linearGradient>
<linearGradient id="paint64_linear_894_539" x1="63.4122" y1="-21.2241" x2="-33.9592" y2="82.4392" gradientUnits="userSpaceOnUse">
<stop stop-color="#44F26B"/>
<stop offset="1" stop-color="#3B53A9"/>
</linearGradient>
<linearGradient id="paint65_linear_894_539" x1="63.4122" y1="-21.2241" x2="-33.9592" y2="82.4392" gradientUnits="userSpaceOnUse">
<stop stop-color="#44F26B"/>
<stop offset="1" stop-color="#3B53A9"/>
</linearGradient>
<linearGradient id="paint66_linear_894_539" x1="63.4122" y1="-21.2241" x2="-33.9592" y2="82.4392" gradientUnits="userSpaceOnUse">
<stop stop-color="#44F26B"/>
<stop offset="1" stop-color="#3B53A9"/>
</linearGradient>
<linearGradient id="paint67_linear_894_539" x1="63.4122" y1="-21.2241" x2="-33.9592" y2="82.4392" gradientUnits="userSpaceOnUse">
<stop stop-color="#44F26B"/>
<stop offset="1" stop-color="#3B53A9"/>
</linearGradient>
<linearGradient id="paint68_linear_894_539" x1="63.4122" y1="-21.2241" x2="-33.9592" y2="82.4392" gradientUnits="userSpaceOnUse">
<stop stop-color="#44F26B"/>
<stop offset="1" stop-color="#3B53A9"/>
</linearGradient>
<linearGradient id="paint69_linear_894_539" x1="63.4122" y1="-21.2241" x2="-33.9592" y2="82.4392" gradientUnits="userSpaceOnUse">
<stop stop-color="#44F26B"/>
<stop offset="1" stop-color="#3B53A9"/>
</linearGradient>
<linearGradient id="paint70_linear_894_539" x1="63.4122" y1="-21.2241" x2="-33.9592" y2="82.4392" gradientUnits="userSpaceOnUse">
<stop stop-color="#44F26B"/>
<stop offset="1" stop-color="#3B53A9"/>
</linearGradient>
<linearGradient id="paint71_linear_894_539" x1="63.4122" y1="-21.2241" x2="-33.9592" y2="82.4392" gradientUnits="userSpaceOnUse">
<stop stop-color="#44F26B"/>
<stop offset="1" stop-color="#3B53A9"/>
</linearGradient>
<linearGradient id="paint72_linear_894_539" x1="63.4122" y1="-21.2241" x2="-33.9592" y2="82.4392" gradientUnits="userSpaceOnUse">
<stop stop-color="#44F26B"/>
<stop offset="1" stop-color="#3B53A9"/>
</linearGradient>
<linearGradient id="paint73_linear_894_539" x1="63.4122" y1="-21.2241" x2="-33.9592" y2="82.4392" gradientUnits="userSpaceOnUse">
<stop stop-color="#44F26B"/>
<stop offset="1" stop-color="#3B53A9"/>
</linearGradient>
<linearGradient id="paint74_linear_894_539" x1="63.4122" y1="-21.2241" x2="-33.9592" y2="82.4392" gradientUnits="userSpaceOnUse">
<stop stop-color="#44F26B"/>
<stop offset="1" stop-color="#3B53A9"/>
</linearGradient>
<linearGradient id="paint75_linear_894_539" x1="63.4122" y1="-21.2241" x2="-33.9592" y2="82.4392" gradientUnits="userSpaceOnUse">
<stop stop-color="#44F26B"/>
<stop offset="1" stop-color="#3B53A9"/>
</linearGradient>
<linearGradient id="paint76_linear_894_539" x1="63.4122" y1="-21.2241" x2="-33.9592" y2="82.4392" gradientUnits="userSpaceOnUse">
<stop stop-color="#44F26B"/>
<stop offset="1" stop-color="#3B53A9"/>
</linearGradient>
<linearGradient id="paint77_linear_894_539" x1="63.4122" y1="-21.2241" x2="-33.9592" y2="82.4392" gradientUnits="userSpaceOnUse">
<stop stop-color="#44F26B"/>
<stop offset="1" stop-color="#3B53A9"/>
</linearGradient>
<linearGradient id="paint78_linear_894_539" x1="63.4122" y1="-21.2241" x2="-33.9592" y2="82.4392" gradientUnits="userSpaceOnUse">
<stop stop-color="#44F26B"/>
<stop offset="1" stop-color="#3B53A9"/>
</linearGradient>
<linearGradient id="paint79_linear_894_539" x1="63.4122" y1="-21.2241" x2="-33.9592" y2="82.4392" gradientUnits="userSpaceOnUse">
<stop stop-color="#44F26B"/>
<stop offset="1" stop-color="#3B53A9"/>
</linearGradient>
<linearGradient id="paint80_linear_894_539" x1="63.4122" y1="-21.2241" x2="-33.9592" y2="82.4392" gradientUnits="userSpaceOnUse">
<stop stop-color="#44F26B"/>
<stop offset="1" stop-color="#3B53A9"/>
</linearGradient>
<linearGradient id="paint81_linear_894_539" x1="63.4122" y1="-21.2241" x2="-33.9592" y2="82.4392" gradientUnits="userSpaceOnUse">
<stop stop-color="#44F26B"/>
<stop offset="1" stop-color="#3B53A9"/>
</linearGradient>
<linearGradient id="paint82_linear_894_539" x1="63.4122" y1="-21.2241" x2="-33.9592" y2="82.4392" gradientUnits="userSpaceOnUse">
<stop stop-color="#44F26B"/>
<stop offset="1" stop-color="#3B53A9"/>
</linearGradient>
<linearGradient id="paint83_linear_894_539" x1="63.4122" y1="-21.2241" x2="-33.9592" y2="82.4392" gradientUnits="userSpaceOnUse">
<stop stop-color="#44F26B"/>
<stop offset="1" stop-color="#3B53A9"/>
</linearGradient>
<linearGradient id="paint84_linear_894_539" x1="63.4122" y1="-21.2241" x2="-33.9592" y2="82.4392" gradientUnits="userSpaceOnUse">
<stop stop-color="#44F26B"/>
<stop offset="1" stop-color="#3B53A9"/>
</linearGradient>
<linearGradient id="paint85_linear_894_539" x1="63.4122" y1="-21.2241" x2="-33.9592" y2="82.4392" gradientUnits="userSpaceOnUse">
<stop stop-color="#44F26B"/>
<stop offset="1" stop-color="#3B53A9"/>
</linearGradient>
<linearGradient id="paint86_linear_894_539" x1="63.4122" y1="-21.2241" x2="-33.9592" y2="82.4392" gradientUnits="userSpaceOnUse">
<stop stop-color="#44F26B"/>
<stop offset="1" stop-color="#3B53A9"/>
</linearGradient>
<linearGradient id="paint87_linear_894_539" x1="63.4122" y1="-21.2241" x2="-33.9592" y2="82.4392" gradientUnits="userSpaceOnUse">
<stop stop-color="#44F26B"/>
<stop offset="1" stop-color="#3B53A9"/>
</linearGradient>
<linearGradient id="paint88_linear_894_539" x1="63.4122" y1="-21.2241" x2="-33.9592" y2="82.4392" gradientUnits="userSpaceOnUse">
<stop stop-color="#44F26B"/>
<stop offset="1" stop-color="#3B53A9"/>
</linearGradient>
<linearGradient id="paint89_linear_894_539" x1="63.4122" y1="-21.2241" x2="-33.9592" y2="82.4392" gradientUnits="userSpaceOnUse">
<stop stop-color="#44F26B"/>
<stop offset="1" stop-color="#3B53A9"/>
</linearGradient>
</defs>
</svg>
