<svg width="112" height="112" viewBox="0 0 112 112" fill="none" xmlns="http://www.w3.org/2000/svg">
<mask id="path-1-inside-1_195_297" fill="white">
<path d="M100.8 40.32C101.094 40.32 101.384 40.2623 101.656 40.1494C101.928 40.0348 102.175 39.8694 102.385 39.6611L111.345 30.7011C111.765 30.282 112 29.7132 112 29.12V2.24C112 1.64589 111.764 1.07625 111.344 0.656255C110.924 0.236255 110.354 2.43052e-06 109.76 2.43052e-06H82.88C82.2859 -0.000872513 81.7154 0.234508 81.2945 0.654507L72.3345 9.61451C72.1262 9.82451 71.9609 10.0721 71.8454 10.3443C71.7351 10.6164 71.6791 10.9069 71.68 11.2V17.92H40.32V2.24C40.32 1.64589 40.0837 1.07625 39.6637 0.656255C39.2437 0.236255 38.6741 2.43052e-06 38.08 2.43052e-06H11.2C10.6059 -0.000872513 10.0354 0.234508 9.61451 0.654507L0.654512 9.61451C0.446261 9.82451 0.280879 10.0721 0.165385 10.3443C0.0551346 10.6164 -0.000865723 10.9069 1.01165e-05 11.2V38.08C1.01165e-05 38.6741 0.236263 39.2437 0.656263 39.6637C1.07626 40.0837 1.64589 40.32 2.24001 40.32H17.92V71.68H11.2C10.6059 71.6791 10.0354 71.9145 9.61451 72.3345L0.654517 81.2945C0.446266 81.5045 0.280885 81.7521 0.16539 82.0242C0.0551397 82.2964 -0.000860596 82.5869 1.52435e-05 82.88V109.76C1.52435e-05 110.354 0.236269 110.924 0.656269 111.344C1.07627 111.764 1.6459 112 2.24002 112H29.12C29.414 112 29.7045 111.942 29.9758 111.829C30.2479 111.715 30.4955 111.549 30.7055 111.341L39.6655 102.381C40.0846 101.962 40.32 101.393 40.32 100.8V94.08H71.68V109.76C71.68 110.354 71.9163 110.924 72.3363 111.344C72.7563 111.764 73.3259 112 73.92 112H100.8C101.094 112 101.385 111.942 101.656 111.829C101.928 111.715 102.175 111.549 102.386 111.341L111.345 102.381C111.765 101.962 112 101.393 112 100.8V73.92C112 73.3259 111.764 72.7562 111.344 72.3362C110.924 71.9162 110.354 71.68 109.76 71.68H94.08V40.32L100.8 40.32ZM76.16 35.84V13.44H98.56V35.84H76.16ZM103.04 32.6724V12.1274L107.52 7.64737V28.1924L103.04 32.6724ZM83.8076 4.47978H104.353L99.8726 8.95978H79.3276L83.8076 4.47978ZM31.3602 12.1274L35.8402 7.64737V28.1924L31.3602 32.6724V12.1274ZM12.1278 4.47978H32.6729L28.1929 8.95978H7.64781L12.1278 4.47978ZM4.48023 13.4398H26.8802V35.8398H4.48023V13.4398ZM12.1278 76.1598H32.6729L28.1929 80.6398H7.64781L12.1278 76.1598ZM4.48023 85.1198H26.8802V107.52H4.48023V85.1198ZM35.8402 99.8722L31.3602 104.352V83.8071L35.8402 79.3271V99.8722ZM104.353 76.1595L99.8729 80.6395H79.3278L83.8078 76.1595H104.353ZM76.1602 85.1195H98.5602V107.52H76.1602V85.1195ZM103.04 104.352V83.8069L107.52 79.3269V99.872L103.04 104.352ZM89.6002 71.6793H82.8802C82.2861 71.6785 81.7156 71.9138 81.2947 72.3338L72.3347 81.2938C72.1265 81.5038 71.9611 81.7515 71.8456 82.0236C71.7353 82.2957 71.6793 82.5862 71.6802 82.8793V89.5993H40.3202V73.9193C40.3202 73.3252 40.084 72.7556 39.664 72.3356C39.244 71.9156 38.6743 71.6793 38.0802 71.6793H22.4002V40.3193H29.1202C29.4142 40.3193 29.7047 40.2616 29.976 40.1487C30.2481 40.0341 30.4957 39.8687 30.7057 39.6604L39.6657 30.7005C40.0848 30.2813 40.3202 29.7126 40.3202 29.1193V22.3993H71.6802V38.0793C71.6802 38.6734 71.9165 39.2431 72.3365 39.6631C72.7565 40.0831 73.3261 40.3193 73.9202 40.3193H89.6002V71.6793Z"/>
<path d="M53.76 44.276H64.96C66.1972 44.276 67.2 43.2791 67.2 42.0491C67.2 40.8191 66.1972 39.8222 64.96 39.8222H58.24V37.5953C58.24 36.3653 57.2372 35.3684 56 35.3684C54.7628 35.3684 53.76 36.3653 53.76 37.5953V39.8222C50.5593 39.8222 47.6009 41.5202 46.0004 44.276C44.3999 47.0318 44.4 50.4278 46.0004 53.1836C47.6008 55.9394 50.5593 57.6374 53.76 57.6374H58.24C59.8404 57.6374 61.3191 58.4864 62.1197 59.8643C62.9203 61.2422 62.9203 62.9401 62.1197 64.3181C61.3191 65.696 59.8403 66.545 58.24 66.545H47.04C45.8028 66.545 44.8 67.5419 44.8 68.7719C44.8 70.0019 45.8028 70.9988 47.04 70.9988H53.76V73.2257C53.76 74.4557 54.7628 75.4526 56 75.4526C57.2372 75.4526 58.24 74.4557 58.24 73.2257V70.9988C61.4407 70.9988 64.3991 69.3008 65.9996 66.545C67.6001 63.7892 67.5999 60.3932 65.9996 57.6374C64.3992 54.8816 61.4407 53.1836 58.24 53.1836H53.76C52.1596 53.1836 50.6809 52.3346 49.8803 50.9567C49.0797 49.5788 49.0797 47.8809 49.8803 46.5029C50.6809 45.125 52.1597 44.276 53.76 44.276Z"/>
</mask>
<path d="M100.8 40.32C101.094 40.32 101.384 40.2623 101.656 40.1494C101.928 40.0348 102.175 39.8694 102.385 39.6611L111.345 30.7011C111.765 30.282 112 29.7132 112 29.12V2.24C112 1.64589 111.764 1.07625 111.344 0.656255C110.924 0.236255 110.354 2.43052e-06 109.76 2.43052e-06H82.88C82.2859 -0.000872513 81.7154 0.234508 81.2945 0.654507L72.3345 9.61451C72.1262 9.82451 71.9609 10.0721 71.8454 10.3443C71.7351 10.6164 71.6791 10.9069 71.68 11.2V17.92H40.32V2.24C40.32 1.64589 40.0837 1.07625 39.6637 0.656255C39.2437 0.236255 38.6741 2.43052e-06 38.08 2.43052e-06H11.2C10.6059 -0.000872513 10.0354 0.234508 9.61451 0.654507L0.654512 9.61451C0.446261 9.82451 0.280879 10.0721 0.165385 10.3443C0.0551346 10.6164 -0.000865723 10.9069 1.01165e-05 11.2V38.08C1.01165e-05 38.6741 0.236263 39.2437 0.656263 39.6637C1.07626 40.0837 1.64589 40.32 2.24001 40.32H17.92V71.68H11.2C10.6059 71.6791 10.0354 71.9145 9.61451 72.3345L0.654517 81.2945C0.446266 81.5045 0.280885 81.7521 0.16539 82.0242C0.0551397 82.2964 -0.000860596 82.5869 1.52435e-05 82.88V109.76C1.52435e-05 110.354 0.236269 110.924 0.656269 111.344C1.07627 111.764 1.6459 112 2.24002 112H29.12C29.414 112 29.7045 111.942 29.9758 111.829C30.2479 111.715 30.4955 111.549 30.7055 111.341L39.6655 102.381C40.0846 101.962 40.32 101.393 40.32 100.8V94.08H71.68V109.76C71.68 110.354 71.9163 110.924 72.3363 111.344C72.7563 111.764 73.3259 112 73.92 112H100.8C101.094 112 101.385 111.942 101.656 111.829C101.928 111.715 102.175 111.549 102.386 111.341L111.345 102.381C111.765 101.962 112 101.393 112 100.8V73.92C112 73.3259 111.764 72.7562 111.344 72.3362C110.924 71.9162 110.354 71.68 109.76 71.68H94.08V40.32L100.8 40.32ZM76.16 35.84V13.44H98.56V35.84H76.16ZM103.04 32.6724V12.1274L107.52 7.64737V28.1924L103.04 32.6724ZM83.8076 4.47978H104.353L99.8726 8.95978H79.3276L83.8076 4.47978ZM31.3602 12.1274L35.8402 7.64737V28.1924L31.3602 32.6724V12.1274ZM12.1278 4.47978H32.6729L28.1929 8.95978H7.64781L12.1278 4.47978ZM4.48023 13.4398H26.8802V35.8398H4.48023V13.4398ZM12.1278 76.1598H32.6729L28.1929 80.6398H7.64781L12.1278 76.1598ZM4.48023 85.1198H26.8802V107.52H4.48023V85.1198ZM35.8402 99.8722L31.3602 104.352V83.8071L35.8402 79.3271V99.8722ZM104.353 76.1595L99.8729 80.6395H79.3278L83.8078 76.1595H104.353ZM76.1602 85.1195H98.5602V107.52H76.1602V85.1195ZM103.04 104.352V83.8069L107.52 79.3269V99.872L103.04 104.352ZM89.6002 71.6793H82.8802C82.2861 71.6785 81.7156 71.9138 81.2947 72.3338L72.3347 81.2938C72.1265 81.5038 71.9611 81.7515 71.8456 82.0236C71.7353 82.2957 71.6793 82.5862 71.6802 82.8793V89.5993H40.3202V73.9193C40.3202 73.3252 40.084 72.7556 39.664 72.3356C39.244 71.9156 38.6743 71.6793 38.0802 71.6793H22.4002V40.3193H29.1202C29.4142 40.3193 29.7047 40.2616 29.976 40.1487C30.2481 40.0341 30.4957 39.8687 30.7057 39.6604L39.6657 30.7005C40.0848 30.2813 40.3202 29.7126 40.3202 29.1193V22.3993H71.6802V38.0793C71.6802 38.6734 71.9165 39.2431 72.3365 39.6631C72.7565 40.0831 73.3261 40.3193 73.9202 40.3193H89.6002V71.6793Z" fill="black"/>
<path d="M53.76 44.276H64.96C66.1972 44.276 67.2 43.2791 67.2 42.0491C67.2 40.8191 66.1972 39.8222 64.96 39.8222H58.24V37.5953C58.24 36.3653 57.2372 35.3684 56 35.3684C54.7628 35.3684 53.76 36.3653 53.76 37.5953V39.8222C50.5593 39.8222 47.6009 41.5202 46.0004 44.276C44.3999 47.0318 44.4 50.4278 46.0004 53.1836C47.6008 55.9394 50.5593 57.6374 53.76 57.6374H58.24C59.8404 57.6374 61.3191 58.4864 62.1197 59.8643C62.9203 61.2422 62.9203 62.9401 62.1197 64.3181C61.3191 65.696 59.8403 66.545 58.24 66.545H47.04C45.8028 66.545 44.8 67.5419 44.8 68.7719C44.8 70.0019 45.8028 70.9988 47.04 70.9988H53.76V73.2257C53.76 74.4557 54.7628 75.4526 56 75.4526C57.2372 75.4526 58.24 74.4557 58.24 73.2257V70.9988C61.4407 70.9988 64.3991 69.3008 65.9996 66.545C67.6001 63.7892 67.5999 60.3932 65.9996 57.6374C64.3992 54.8816 61.4407 53.1836 58.24 53.1836H53.76C52.1596 53.1836 50.6809 52.3346 49.8803 50.9567C49.0797 49.5788 49.0797 47.8809 49.8803 46.5029C50.6809 45.125 52.1597 44.276 53.76 44.276Z" fill="black"/>
<path d="M100.8 40.32C101.094 40.32 101.384 40.2623 101.656 40.1494C101.928 40.0348 102.175 39.8694 102.385 39.6611L111.345 30.7011C111.765 30.282 112 29.7132 112 29.12V2.24C112 1.64589 111.764 1.07625 111.344 0.656255C110.924 0.236255 110.354 2.43052e-06 109.76 2.43052e-06H82.88C82.2859 -0.000872513 81.7154 0.234508 81.2945 0.654507L72.3345 9.61451C72.1262 9.82451 71.9609 10.0721 71.8454 10.3443C71.7351 10.6164 71.6791 10.9069 71.68 11.2V17.92H40.32V2.24C40.32 1.64589 40.0837 1.07625 39.6637 0.656255C39.2437 0.236255 38.6741 2.43052e-06 38.08 2.43052e-06H11.2C10.6059 -0.000872513 10.0354 0.234508 9.61451 0.654507L0.654512 9.61451C0.446261 9.82451 0.280879 10.0721 0.165385 10.3443C0.0551346 10.6164 -0.000865723 10.9069 1.01165e-05 11.2V38.08C1.01165e-05 38.6741 0.236263 39.2437 0.656263 39.6637C1.07626 40.0837 1.64589 40.32 2.24001 40.32H17.92V71.68H11.2C10.6059 71.6791 10.0354 71.9145 9.61451 72.3345L0.654517 81.2945C0.446266 81.5045 0.280885 81.7521 0.16539 82.0242C0.0551397 82.2964 -0.000860596 82.5869 1.52435e-05 82.88V109.76C1.52435e-05 110.354 0.236269 110.924 0.656269 111.344C1.07627 111.764 1.6459 112 2.24002 112H29.12C29.414 112 29.7045 111.942 29.9758 111.829C30.2479 111.715 30.4955 111.549 30.7055 111.341L39.6655 102.381C40.0846 101.962 40.32 101.393 40.32 100.8V94.08H71.68V109.76C71.68 110.354 71.9163 110.924 72.3363 111.344C72.7563 111.764 73.3259 112 73.92 112H100.8C101.094 112 101.385 111.942 101.656 111.829C101.928 111.715 102.175 111.549 102.386 111.341L111.345 102.381C111.765 101.962 112 101.393 112 100.8V73.92C112 73.3259 111.764 72.7562 111.344 72.3362C110.924 71.9162 110.354 71.68 109.76 71.68H94.08V40.32L100.8 40.32ZM76.16 35.84V13.44H98.56V35.84H76.16ZM103.04 32.6724V12.1274L107.52 7.64737V28.1924L103.04 32.6724ZM83.8076 4.47978H104.353L99.8726 8.95978H79.3276L83.8076 4.47978ZM31.3602 12.1274L35.8402 7.64737V28.1924L31.3602 32.6724V12.1274ZM12.1278 4.47978H32.6729L28.1929 8.95978H7.64781L12.1278 4.47978ZM4.48023 13.4398H26.8802V35.8398H4.48023V13.4398ZM12.1278 76.1598H32.6729L28.1929 80.6398H7.64781L12.1278 76.1598ZM4.48023 85.1198H26.8802V107.52H4.48023V85.1198ZM35.8402 99.8722L31.3602 104.352V83.8071L35.8402 79.3271V99.8722ZM104.353 76.1595L99.8729 80.6395H79.3278L83.8078 76.1595H104.353ZM76.1602 85.1195H98.5602V107.52H76.1602V85.1195ZM103.04 104.352V83.8069L107.52 79.3269V99.872L103.04 104.352ZM89.6002 71.6793H82.8802C82.2861 71.6785 81.7156 71.9138 81.2947 72.3338L72.3347 81.2938C72.1265 81.5038 71.9611 81.7515 71.8456 82.0236C71.7353 82.2957 71.6793 82.5862 71.6802 82.8793V89.5993H40.3202V73.9193C40.3202 73.3252 40.084 72.7556 39.664 72.3356C39.244 71.9156 38.6743 71.6793 38.0802 71.6793H22.4002V40.3193H29.1202C29.4142 40.3193 29.7047 40.2616 29.976 40.1487C30.2481 40.0341 30.4957 39.8687 30.7057 39.6604L39.6657 30.7005C40.0848 30.2813 40.3202 29.7126 40.3202 29.1193V22.3993H71.6802V38.0793C71.6802 38.6734 71.9165 39.2431 72.3365 39.6631C72.7565 40.0831 73.3261 40.3193 73.9202 40.3193H89.6002V71.6793Z" stroke="url(#paint0_linear_195_297)" stroke-width="6" mask="url(#path-1-inside-1_195_297)"/>
<path d="M53.76 44.276H64.96C66.1972 44.276 67.2 43.2791 67.2 42.0491C67.2 40.8191 66.1972 39.8222 64.96 39.8222H58.24V37.5953C58.24 36.3653 57.2372 35.3684 56 35.3684C54.7628 35.3684 53.76 36.3653 53.76 37.5953V39.8222C50.5593 39.8222 47.6009 41.5202 46.0004 44.276C44.3999 47.0318 44.4 50.4278 46.0004 53.1836C47.6008 55.9394 50.5593 57.6374 53.76 57.6374H58.24C59.8404 57.6374 61.3191 58.4864 62.1197 59.8643C62.9203 61.2422 62.9203 62.9401 62.1197 64.3181C61.3191 65.696 59.8403 66.545 58.24 66.545H47.04C45.8028 66.545 44.8 67.5419 44.8 68.7719C44.8 70.0019 45.8028 70.9988 47.04 70.9988H53.76V73.2257C53.76 74.4557 54.7628 75.4526 56 75.4526C57.2372 75.4526 58.24 74.4557 58.24 73.2257V70.9988C61.4407 70.9988 64.3991 69.3008 65.9996 66.545C67.6001 63.7892 67.5999 60.3932 65.9996 57.6374C64.3992 54.8816 61.4407 53.1836 58.24 53.1836H53.76C52.1596 53.1836 50.6809 52.3346 49.8803 50.9567C49.0797 49.5788 49.0797 47.8809 49.8803 46.5029C50.6809 45.125 52.1597 44.276 53.76 44.276Z" stroke="url(#paint1_linear_195_297)" stroke-width="6" mask="url(#path-1-inside-1_195_297)"/>
<defs>
<linearGradient id="paint0_linear_195_297" x1="62.4122" y1="-21.7241" x2="-34.9594" y2="81.9362" gradientUnits="userSpaceOnUse">
<stop stop-color="#44F26B"/>
<stop offset="1" stop-color="#3B53A9"/>
</linearGradient>
<linearGradient id="paint1_linear_195_297" x1="62.4122" y1="-21.7241" x2="-34.9594" y2="81.9362" gradientUnits="userSpaceOnUse">
<stop stop-color="#44F26B"/>
<stop offset="1" stop-color="#3B53A9"/>
</linearGradient>
</defs>
</svg>
