<svg width="92" height="116" viewBox="0 0 92 116" fill="none" xmlns="http://www.w3.org/2000/svg">
<path d="M6.319 20.2573C15.6076 9.60237 28.7447 3.06984 42.8468 2.09523C65.149 0.737412 79.7412 14.3115 82.0895 16.6195M2.81689 41.9487C5.19249 37.9852 19.1058 15.5743 42.7111 13.5653C67.1444 11.4889 83.0668 32.7455 85.6323 36.2747M3.68562 56.9888C6.86983 54.6132 9.77197 51.8804 12.3323 48.8439C16.7712 43.5776 17.3544 40.6991 20.2868 36.9126C26.911 28.2935 37.078 25.7 38.6118 25.3335C52.756 21.9267 64.1582 29.5546 65.0677 30.1794C73.6925 36.2222 78.9961 45.9498 79.4019 56.4724C79.5648 66.2052 74.3931 70.1415 76.4562 79.114C77.7828 84.2156 80.6214 88.7965 84.6001 92.2544M3.34627 73.2369C9.29823 69.0727 14.4983 63.9274 18.7257 58.0204C24.3452 50.0934 24.848 45.2881 31.173 40.727C35.5106 37.4964 40.8062 35.8138 46.2131 35.9492C53.6724 36.3696 60.5052 40.2507 64.6874 46.4423C73.0897 59.6631 59.76 73.9026 67.972 89.6621H67.973C70.3855 94.0943 73.8955 97.8334 78.1668 100.521M2.13818 88.6164C16.8661 79.0465 25.2141 69.1647 30.1415 61.8211C34.105 55.9023 37.5392 49.0471 44.1364 48.1643C46.6777 47.8793 49.2465 48.3508 51.5209 49.5192C53.7962 50.6886 55.6747 52.5028 56.9227 54.7345C58.7009 58.3724 58.0088 63.0015 53.977 70.4669C45.5075 86.1721 30.6568 98.7824 18.0342 107.47M6.45474 100.548C16.2585 94.0317 25.2019 86.306 33.0735 77.5535C37.8911 72.1782 42.2835 66.4374 46.2129 60.3823M85.6323 44.0255C90.6714 55.5658 91.2282 68.5702 87.1928 80.4991M55.3757 84.9921C53.7197 88.9319 53.4148 93.3082 54.5065 97.4394C55.9977 102.556 59.486 106.857 64.1852 109.371M28.9334 111.095C30.7542 109.248 32.7871 107.621 34.9876 106.249C38.2458 104.227 40.4168 102.828 42.7659 103.141C46.363 103.616 49.3493 108.136 50.5443 114" stroke="url(#paint0_linear_195_731)" stroke-width="4" stroke-miterlimit="10" stroke-linecap="round"/>
<defs>
<linearGradient id="paint0_linear_195_731" x1="51.0223" y1="-19.7241" x2="-44.951" y2="60.3015" gradientUnits="userSpaceOnUse">
<stop stop-color="#44F26B"/>
<stop offset="1" stop-color="#3B53A9"/>
</linearGradient>
</defs>
</svg>
