<svg width="64" height="118" viewBox="0 0 64 118" fill="none" xmlns="http://www.w3.org/2000/svg">
<mask id="path-1-outside-1_894_553" maskUnits="userSpaceOnUse" x="0.866211" y="0" width="63" height="118" fill="black">
<rect fill="white" x="0.866211" width="63" height="118"/>
<path d="M56.4908 26.9613V17.269C58.5144 16.7309 60.1342 14.9806 60.1342 12.6923C60.1342 10.1344 57.975 7.98028 55.411 7.98028C52.8471 7.98028 50.6879 10.1343 50.6879 12.6923C50.6879 14.8464 52.1722 16.731 54.3314 17.269V21.0382H31.9324V12.2887C34.0915 11.8849 35.7105 10.0003 35.7105 7.71201C35.7105 5.15408 33.5513 3 30.9874 3C28.4234 3 26.2642 5.15406 26.2642 7.71201C26.2642 9.86607 27.7485 11.6154 29.6375 12.1543V20.9038H25.0501C19.1128 20.9038 13.4459 23.5959 9.66781 28.1726C5.88971 32.7492 4.40546 38.8067 5.61961 44.73C6.83378 50.518 10.6119 55.4994 15.8742 58.3259C18.7083 59.8067 21.8115 60.6142 25.0491 60.4799H38.677C45.0189 60.4799 50.8205 63.8453 53.9246 69.2294C57.0278 74.6136 57.0278 81.3443 53.9246 86.8638C50.8214 92.2479 45.0189 95.6133 38.677 95.6133L9.66902 95.6152V92.1154C11.8282 91.7116 13.3124 89.8271 13.3124 87.5387C13.3124 84.9808 11.1533 82.8267 8.58932 82.8267C6.02534 82.8267 3.86621 84.9808 3.86621 87.5387C3.86621 89.6928 5.35051 91.5774 7.37421 92.1154V100.731C5.35061 101.269 3.86621 103.019 3.86621 105.307C3.86621 107.865 6.02534 110.019 8.58932 110.019C11.1533 110.019 13.3124 107.865 13.3124 105.307C13.3124 103.019 11.6935 101.135 9.66902 100.731V98.0378H31.9324V105.711C29.9088 106.249 28.2889 108 28.2889 110.288C28.2889 112.846 30.4481 115 33.0121 115C35.576 115 37.7352 112.846 37.7352 110.288C37.7352 108.134 36.2509 106.249 34.0918 105.711V98.0378H38.6792C44.6165 98.0378 50.2834 95.3457 54.0615 90.769C57.8396 86.1923 59.3238 80.1349 58.1097 74.2116C56.8955 68.4236 53.1174 63.4421 47.7197 60.6157C44.8856 59.1349 41.7824 58.4617 38.6792 58.4617H25.0513C18.7095 58.4617 12.9079 55.0963 9.80371 49.7121C6.70051 44.328 6.70051 37.5973 9.80371 32.0778C12.9069 26.6937 18.7095 23.3283 25.0513 23.3283H54.1967V27.0975C52.1731 27.6356 50.5533 29.3859 50.5533 31.6742C50.5533 34.2321 52.7124 36.3862 55.2764 36.3862C57.8403 36.3862 59.9995 34.2321 59.9995 31.6742C60.1331 29.3849 58.5142 27.5004 56.4908 26.9615V26.9613Z"/>
</mask>
<path d="M56.4908 17.269L55.7199 14.3697L53.4908 14.9624V17.269H56.4908ZM54.3314 17.269H57.3314V14.9247L55.0567 14.358L54.3314 17.269ZM54.3314 21.0382V24.0382H57.3314V21.0382H54.3314ZM31.9324 21.0382H28.9324V24.0382H31.9324V21.0382ZM31.9324 12.2887L31.3809 9.33981L28.9324 9.7977V12.2887H31.9324ZM29.6375 12.1543H32.6375V9.89052L30.4606 9.26943L29.6375 12.1543ZM29.6375 20.9038V23.9038H32.6375V20.9038H29.6375ZM5.61961 44.73L2.68068 45.3324L2.68351 45.3459L5.61961 44.73ZM15.8742 58.3259L14.4547 60.9688L14.4698 60.9769L14.4849 60.9848L15.8742 58.3259ZM25.0491 60.4799V57.4799H24.9869L24.9248 57.4825L25.0491 60.4799ZM53.9246 69.2294L56.5238 67.7314L56.5236 67.731L53.9246 69.2294ZM53.9246 86.8638L56.5238 88.3619L56.5318 88.348L56.5397 88.334L53.9246 86.8638ZM38.677 95.6133V92.6133H38.6768L38.677 95.6133ZM9.66902 95.6152H6.66902V98.6154L9.66921 98.6152L9.66902 95.6152ZM9.66902 92.1154L9.11756 89.1665L6.66902 89.6244V92.1154H9.66902ZM7.37421 92.1154H10.3742V89.8087L8.14496 89.2161L7.37421 92.1154ZM7.37421 100.731L8.14509 103.63L10.3742 103.037V100.731H7.37421ZM9.66902 100.731H6.66902V103.191L9.08215 103.673L9.66902 100.731ZM9.66902 98.0378V95.0378H6.66902V98.0378H9.66902ZM31.9324 98.0378H34.9324V95.0378H31.9324V98.0378ZM31.9324 105.711L32.7032 108.611L34.9324 108.018V105.711H31.9324ZM34.0918 105.711H31.0918V108.056L33.3664 108.622L34.0918 105.711ZM34.0918 98.0378V95.0378H31.0918V98.0378H34.0918ZM58.1097 74.2116L61.0486 73.6092L61.0458 73.5957L58.1097 74.2116ZM47.7197 60.6157L49.1113 57.958L49.109 57.9568L47.7197 60.6157ZM9.80371 49.7121L7.20452 51.2102L7.20472 51.2106L9.80371 49.7121ZM9.80371 32.0778L7.20452 30.5797L7.19652 30.5936L7.18868 30.6075L9.80371 32.0778ZM54.1967 23.3283H57.1967V20.3283H54.1967V23.3283ZM54.1967 27.0975L54.9675 29.9968L57.1967 29.4041V27.0975H54.1967ZM59.9995 31.6742L57.0046 31.4993L56.9995 31.5867V31.6742H59.9995ZM56.4908 26.9615H53.4908V29.267L55.7186 29.8604L56.4908 26.9615ZM59.4908 26.9613V17.269H53.4908V26.9613H59.4908ZM57.2616 20.1682C60.4076 19.3318 63.1342 16.5295 63.1342 12.6923H57.1342C57.1342 13.4317 56.6211 14.1301 55.7199 14.3697L57.2616 20.1682ZM63.1342 12.6923C63.1342 8.47087 59.6252 4.98028 55.411 4.98028V10.9803C56.3248 10.9803 57.1342 11.7979 57.1342 12.6923H63.1342ZM55.411 4.98028C51.1969 4.98028 47.6879 8.47084 47.6879 12.6923H53.6879C53.6879 11.7978 54.4973 10.9803 55.411 10.9803V4.98028ZM47.6879 12.6923C47.6879 16.2619 50.1476 19.3182 53.606 20.18L55.0567 14.358C54.1969 14.1438 53.6879 13.4308 53.6879 12.6923H47.6879ZM51.3314 17.269V21.0382H57.3314V17.269H51.3314ZM54.3314 18.0382H31.9324V24.0382H54.3314V18.0382ZM34.9324 21.0382V12.2887H28.9324V21.0382H34.9324ZM32.4838 15.2376C36.0475 14.5711 38.7105 11.4598 38.7105 7.71201H32.7105C32.7105 8.54093 32.1355 9.1987 31.3809 9.33981L32.4838 15.2376ZM38.7105 7.71201C38.7105 3.49059 35.2015 0 30.9874 0V6C31.9011 6 32.7105 6.81758 32.7105 7.71201H38.7105ZM30.9874 0C26.7732 0 23.2642 3.49055 23.2642 7.71201H29.2642C29.2642 6.81757 30.0736 6 30.9874 6V0ZM23.2642 7.71201C23.2642 11.299 25.7288 14.1588 28.8145 15.0392L30.4606 9.26943C29.7683 9.07191 29.2642 8.43313 29.2642 7.71201H23.2642ZM26.6375 12.1543V20.9038H32.6375V12.1543H26.6375ZM29.6375 17.9038H25.0501V23.9038H29.6375V17.9038ZM25.0501 17.9038C18.2104 17.9038 11.6976 21.0013 7.35427 26.2627L11.9813 30.0824C15.1942 26.1905 20.0153 23.9038 25.0501 23.9038V17.9038ZM7.35427 26.2627C2.98717 31.5529 1.28797 38.5378 2.68071 45.3324L8.5585 44.1276C7.52295 39.0756 8.79225 33.9456 11.9813 30.0824L7.35427 26.2627ZM2.68351 45.3459C4.08355 52.0199 8.43043 57.7331 14.4547 60.9688L17.2937 55.683C12.7933 53.2658 9.58401 49.016 8.5557 44.1141L2.68351 45.3459ZM14.4849 60.9848C17.722 62.6762 21.3435 63.6362 25.1734 63.4774L24.9248 57.4825C22.2795 57.5922 19.6945 56.9372 17.2635 55.667L14.4849 60.9848ZM25.0491 63.4799H38.677V57.4799H25.0491V63.4799ZM38.677 63.4799C43.9541 63.4799 48.7609 66.2794 51.3256 70.7279L56.5236 67.731C52.88 61.4112 46.0837 57.4799 38.677 57.4799V63.4799ZM51.3254 70.7275C53.8877 75.1731 53.906 80.7755 51.3096 85.3935L56.5397 88.334C60.1496 81.9132 60.1679 74.054 56.5238 67.7314L51.3254 70.7275ZM51.3254 85.3657C48.7619 89.8136 43.9543 92.6133 38.677 92.6133V98.6133C46.0834 98.6133 52.881 94.6822 56.5238 88.3619L51.3254 85.3657ZM38.6768 92.6133L9.66882 92.6152L9.66921 98.6152L38.6772 98.6133L38.6768 92.6133ZM12.669 95.6152V92.1154H6.66902V95.6152H12.669ZM10.2205 95.0643C13.9108 94.3742 16.3124 91.1547 16.3124 87.5387H10.3124C10.3124 88.4995 9.74553 89.0491 9.11756 89.1665L10.2205 95.0643ZM16.3124 87.5387C16.3124 83.3173 12.8035 79.8267 8.58932 79.8267V85.8267C9.50309 85.8267 10.3124 86.6443 10.3124 87.5387H16.3124ZM8.58932 79.8267C4.37514 79.8267 0.866211 83.3173 0.866211 87.5387H6.86621C6.86621 86.6443 7.67554 85.8267 8.58932 85.8267V79.8267ZM0.866211 87.5387C0.866211 91.0647 3.27689 94.1304 6.60345 95.0147L8.14496 89.2161C7.42413 89.0245 6.86621 88.3209 6.86621 87.5387H0.866211ZM4.37421 92.1154V100.731H10.3742V92.1154H4.37421ZM6.60332 97.8315C3.32726 98.7026 0.866211 101.596 0.866211 105.307H6.86621C6.86621 104.442 7.37395 103.835 8.14509 103.63L6.60332 97.8315ZM0.866211 105.307C0.866211 109.529 4.37514 113.019 8.58932 113.019V107.019C7.67555 107.019 6.86621 106.202 6.86621 105.307H0.866211ZM8.58932 113.019C12.8035 113.019 16.3124 109.529 16.3124 105.307H10.3124C10.3124 106.202 9.5031 107.019 8.58932 107.019V113.019ZM16.3124 105.307C16.3124 101.606 13.7009 98.476 10.2559 97.7888L9.08215 103.673C9.68617 103.793 10.3124 104.432 10.3124 105.307H16.3124ZM12.669 100.731V98.0378H6.66902V100.731H12.669ZM9.66902 101.038H31.9324V95.0378H9.66902V101.038ZM28.9324 98.0378V105.711H34.9324V98.0378H28.9324ZM31.1615 102.812C28.0155 103.649 25.2889 106.451 25.2889 110.288H31.2889C31.2889 109.549 31.802 108.85 32.7032 108.611L31.1615 102.812ZM25.2889 110.288C25.2889 114.509 28.7979 118 33.0121 118V112C32.0983 112 31.2889 111.182 31.2889 110.288H25.2889ZM33.0121 118C37.2262 118 40.7352 114.509 40.7352 110.288H34.7352C34.7352 111.182 33.9258 112 33.0121 112V118ZM40.7352 110.288C40.7352 106.718 38.2756 103.662 34.8171 102.8L33.3664 108.622C34.2262 108.837 34.7352 109.549 34.7352 110.288H40.7352ZM37.0918 105.711V98.0378H31.0918V105.711H37.0918ZM34.0918 101.038H38.6792V95.0378H34.0918V101.038ZM38.6792 101.038C45.5189 101.038 52.0317 97.9403 56.375 92.6789L51.748 88.8592C48.5351 92.7511 43.714 95.0378 38.6792 95.0378V101.038ZM56.375 92.6789C60.7421 87.3887 62.4413 80.4038 61.0486 73.6092L55.1708 74.814C56.2064 79.866 54.937 84.996 51.748 88.8592L56.375 92.6789ZM61.0458 73.5957C59.644 66.9136 55.2875 61.1921 49.1113 57.958L46.328 63.2734C50.9474 65.6922 54.147 69.9337 55.1736 74.8275L61.0458 73.5957ZM49.109 57.9568C45.8034 56.2296 42.2156 55.4617 38.6792 55.4617V61.4617C41.3492 61.4617 43.9679 62.0402 46.3304 63.2746L49.109 57.9568ZM38.6792 55.4617H25.0513V61.4617H38.6792V55.4617ZM25.0513 55.4617C19.7743 55.4617 14.9674 52.6621 12.4027 48.2137L7.20472 51.2106C10.8484 57.5304 17.6447 61.4617 25.0513 61.4617V55.4617ZM12.4029 48.2141C9.84061 43.7684 9.82233 38.1661 12.4187 33.548L7.18868 30.6075C3.57868 37.0284 3.5604 44.8876 7.20452 51.2102L12.4029 48.2141ZM12.4029 33.5759C14.9665 29.128 19.774 26.3283 25.0513 26.3283V20.3283C17.6449 20.3283 10.8473 24.2593 7.20452 30.5797L12.4029 33.5759ZM25.0513 26.3283H54.1967V20.3283H25.0513V26.3283ZM51.1967 23.3283V27.0975H57.1967V23.3283H51.1967ZM53.4258 24.1982C50.2798 25.0347 47.5533 27.837 47.5533 31.6742H53.5533C53.5533 30.9347 54.0663 30.2364 54.9675 29.9968L53.4258 24.1982ZM47.5533 31.6742C47.5533 35.8956 51.0622 39.3862 55.2764 39.3862V33.3862C54.3626 33.3862 53.5533 32.5686 53.5533 31.6742H47.5533ZM55.2764 39.3862C59.4905 39.3862 62.9995 35.8957 62.9995 31.6742H56.9995C56.9995 32.5686 56.1901 33.3862 55.2764 33.3862V39.3862ZM62.9944 31.849C63.2213 27.9627 60.4869 24.9212 57.2629 24.0625L55.7186 29.8604C56.5416 30.0796 57.045 30.8071 57.0046 31.4993L62.9944 31.849ZM59.4908 26.9615V26.9613H53.4908V26.9615H59.4908Z" fill="url(#paint0_linear_894_553)" mask="url(#path-1-outside-1_894_553)"/>
<path d="M56.4908 17.269L55.7199 14.3697L53.4908 14.9624V17.269H56.4908ZM54.3314 17.269H57.3314V14.9247L55.0567 14.358L54.3314 17.269ZM54.3314 21.0382V24.0382H57.3314V21.0382H54.3314ZM31.9324 21.0382H28.9324V24.0382H31.9324V21.0382ZM31.9324 12.2887L31.3809 9.33981L28.9324 9.7977V12.2887H31.9324ZM29.6375 12.1543H32.6375V9.89052L30.4606 9.26943L29.6375 12.1543ZM29.6375 20.9038V23.9038H32.6375V20.9038H29.6375ZM5.61961 44.73L2.68068 45.3324L2.68351 45.3459L5.61961 44.73ZM15.8742 58.3259L14.4547 60.9688L14.4698 60.9769L14.4849 60.9848L15.8742 58.3259ZM25.0491 60.4799V57.4799H24.9869L24.9248 57.4825L25.0491 60.4799ZM53.9246 69.2294L56.5238 67.7314L56.5236 67.731L53.9246 69.2294ZM53.9246 86.8638L56.5238 88.3619L56.5318 88.348L56.5397 88.334L53.9246 86.8638ZM38.677 95.6133V92.6133H38.6768L38.677 95.6133ZM9.66902 95.6152H6.66902V98.6154L9.66921 98.6152L9.66902 95.6152ZM9.66902 92.1154L9.11756 89.1665L6.66902 89.6244V92.1154H9.66902ZM7.37421 92.1154H10.3742V89.8087L8.14496 89.2161L7.37421 92.1154ZM7.37421 100.731L8.14509 103.63L10.3742 103.037V100.731H7.37421ZM9.66902 100.731H6.66902V103.191L9.08215 103.673L9.66902 100.731ZM9.66902 98.0378V95.0378H6.66902V98.0378H9.66902ZM31.9324 98.0378H34.9324V95.0378H31.9324V98.0378ZM31.9324 105.711L32.7032 108.611L34.9324 108.018V105.711H31.9324ZM34.0918 105.711H31.0918V108.056L33.3664 108.622L34.0918 105.711ZM34.0918 98.0378V95.0378H31.0918V98.0378H34.0918ZM58.1097 74.2116L61.0486 73.6092L61.0458 73.5957L58.1097 74.2116ZM47.7197 60.6157L49.1113 57.958L49.109 57.9568L47.7197 60.6157ZM9.80371 49.7121L7.20452 51.2102L7.20472 51.2106L9.80371 49.7121ZM9.80371 32.0778L7.20452 30.5797L7.19652 30.5936L7.18868 30.6075L9.80371 32.0778ZM54.1967 23.3283H57.1967V20.3283H54.1967V23.3283ZM54.1967 27.0975L54.9675 29.9968L57.1967 29.4041V27.0975H54.1967ZM59.9995 31.6742L57.0046 31.4993L56.9995 31.5867V31.6742H59.9995ZM56.4908 26.9615H53.4908V29.267L55.7186 29.8604L56.4908 26.9615ZM59.4908 26.9613V17.269H53.4908V26.9613H59.4908ZM57.2616 20.1682C60.4076 19.3318 63.1342 16.5295 63.1342 12.6923H57.1342C57.1342 13.4317 56.6211 14.1301 55.7199 14.3697L57.2616 20.1682ZM63.1342 12.6923C63.1342 8.47087 59.6252 4.98028 55.411 4.98028V10.9803C56.3248 10.9803 57.1342 11.7979 57.1342 12.6923H63.1342ZM55.411 4.98028C51.1969 4.98028 47.6879 8.47084 47.6879 12.6923H53.6879C53.6879 11.7978 54.4973 10.9803 55.411 10.9803V4.98028ZM47.6879 12.6923C47.6879 16.2619 50.1476 19.3182 53.606 20.18L55.0567 14.358C54.1969 14.1438 53.6879 13.4308 53.6879 12.6923H47.6879ZM51.3314 17.269V21.0382H57.3314V17.269H51.3314ZM54.3314 18.0382H31.9324V24.0382H54.3314V18.0382ZM34.9324 21.0382V12.2887H28.9324V21.0382H34.9324ZM32.4838 15.2376C36.0475 14.5711 38.7105 11.4598 38.7105 7.71201H32.7105C32.7105 8.54093 32.1355 9.1987 31.3809 9.33981L32.4838 15.2376ZM38.7105 7.71201C38.7105 3.49059 35.2015 0 30.9874 0V6C31.9011 6 32.7105 6.81758 32.7105 7.71201H38.7105ZM30.9874 0C26.7732 0 23.2642 3.49055 23.2642 7.71201H29.2642C29.2642 6.81757 30.0736 6 30.9874 6V0ZM23.2642 7.71201C23.2642 11.299 25.7288 14.1588 28.8145 15.0392L30.4606 9.26943C29.7683 9.07191 29.2642 8.43313 29.2642 7.71201H23.2642ZM26.6375 12.1543V20.9038H32.6375V12.1543H26.6375ZM29.6375 17.9038H25.0501V23.9038H29.6375V17.9038ZM25.0501 17.9038C18.2104 17.9038 11.6976 21.0013 7.35427 26.2627L11.9813 30.0824C15.1942 26.1905 20.0153 23.9038 25.0501 23.9038V17.9038ZM7.35427 26.2627C2.98717 31.5529 1.28797 38.5378 2.68071 45.3324L8.5585 44.1276C7.52295 39.0756 8.79225 33.9456 11.9813 30.0824L7.35427 26.2627ZM2.68351 45.3459C4.08355 52.0199 8.43043 57.7331 14.4547 60.9688L17.2937 55.683C12.7933 53.2658 9.58401 49.016 8.5557 44.1141L2.68351 45.3459ZM14.4849 60.9848C17.722 62.6762 21.3435 63.6362 25.1734 63.4774L24.9248 57.4825C22.2795 57.5922 19.6945 56.9372 17.2635 55.667L14.4849 60.9848ZM25.0491 63.4799H38.677V57.4799H25.0491V63.4799ZM38.677 63.4799C43.9541 63.4799 48.7609 66.2794 51.3256 70.7279L56.5236 67.731C52.88 61.4112 46.0837 57.4799 38.677 57.4799V63.4799ZM51.3254 70.7275C53.8877 75.1731 53.906 80.7755 51.3096 85.3935L56.5397 88.334C60.1496 81.9132 60.1679 74.054 56.5238 67.7314L51.3254 70.7275ZM51.3254 85.3657C48.7619 89.8136 43.9543 92.6133 38.677 92.6133V98.6133C46.0834 98.6133 52.881 94.6822 56.5238 88.3619L51.3254 85.3657ZM38.6768 92.6133L9.66882 92.6152L9.66921 98.6152L38.6772 98.6133L38.6768 92.6133ZM12.669 95.6152V92.1154H6.66902V95.6152H12.669ZM10.2205 95.0643C13.9108 94.3742 16.3124 91.1547 16.3124 87.5387H10.3124C10.3124 88.4995 9.74553 89.0491 9.11756 89.1665L10.2205 95.0643ZM16.3124 87.5387C16.3124 83.3173 12.8035 79.8267 8.58932 79.8267V85.8267C9.50309 85.8267 10.3124 86.6443 10.3124 87.5387H16.3124ZM8.58932 79.8267C4.37514 79.8267 0.866211 83.3173 0.866211 87.5387H6.86621C6.86621 86.6443 7.67554 85.8267 8.58932 85.8267V79.8267ZM0.866211 87.5387C0.866211 91.0647 3.27689 94.1304 6.60345 95.0147L8.14496 89.2161C7.42413 89.0245 6.86621 88.3209 6.86621 87.5387H0.866211ZM4.37421 92.1154V100.731H10.3742V92.1154H4.37421ZM6.60332 97.8315C3.32726 98.7026 0.866211 101.596 0.866211 105.307H6.86621C6.86621 104.442 7.37395 103.835 8.14509 103.63L6.60332 97.8315ZM0.866211 105.307C0.866211 109.529 4.37514 113.019 8.58932 113.019V107.019C7.67555 107.019 6.86621 106.202 6.86621 105.307H0.866211ZM8.58932 113.019C12.8035 113.019 16.3124 109.529 16.3124 105.307H10.3124C10.3124 106.202 9.5031 107.019 8.58932 107.019V113.019ZM16.3124 105.307C16.3124 101.606 13.7009 98.476 10.2559 97.7888L9.08215 103.673C9.68617 103.793 10.3124 104.432 10.3124 105.307H16.3124ZM12.669 100.731V98.0378H6.66902V100.731H12.669ZM9.66902 101.038H31.9324V95.0378H9.66902V101.038ZM28.9324 98.0378V105.711H34.9324V98.0378H28.9324ZM31.1615 102.812C28.0155 103.649 25.2889 106.451 25.2889 110.288H31.2889C31.2889 109.549 31.802 108.85 32.7032 108.611L31.1615 102.812ZM25.2889 110.288C25.2889 114.509 28.7979 118 33.0121 118V112C32.0983 112 31.2889 111.182 31.2889 110.288H25.2889ZM33.0121 118C37.2262 118 40.7352 114.509 40.7352 110.288H34.7352C34.7352 111.182 33.9258 112 33.0121 112V118ZM40.7352 110.288C40.7352 106.718 38.2756 103.662 34.8171 102.8L33.3664 108.622C34.2262 108.837 34.7352 109.549 34.7352 110.288H40.7352ZM37.0918 105.711V98.0378H31.0918V105.711H37.0918ZM34.0918 101.038H38.6792V95.0378H34.0918V101.038ZM38.6792 101.038C45.5189 101.038 52.0317 97.9403 56.375 92.6789L51.748 88.8592C48.5351 92.7511 43.714 95.0378 38.6792 95.0378V101.038ZM56.375 92.6789C60.7421 87.3887 62.4413 80.4038 61.0486 73.6092L55.1708 74.814C56.2064 79.866 54.937 84.996 51.748 88.8592L56.375 92.6789ZM61.0458 73.5957C59.644 66.9136 55.2875 61.1921 49.1113 57.958L46.328 63.2734C50.9474 65.6922 54.147 69.9337 55.1736 74.8275L61.0458 73.5957ZM49.109 57.9568C45.8034 56.2296 42.2156 55.4617 38.6792 55.4617V61.4617C41.3492 61.4617 43.9679 62.0402 46.3304 63.2746L49.109 57.9568ZM38.6792 55.4617H25.0513V61.4617H38.6792V55.4617ZM25.0513 55.4617C19.7743 55.4617 14.9674 52.6621 12.4027 48.2137L7.20472 51.2106C10.8484 57.5304 17.6447 61.4617 25.0513 61.4617V55.4617ZM12.4029 48.2141C9.84061 43.7684 9.82233 38.1661 12.4187 33.548L7.18868 30.6075C3.57868 37.0284 3.5604 44.8876 7.20452 51.2102L12.4029 48.2141ZM12.4029 33.5759C14.9665 29.128 19.774 26.3283 25.0513 26.3283V20.3283C17.6449 20.3283 10.8473 24.2593 7.20452 30.5797L12.4029 33.5759ZM25.0513 26.3283H54.1967V20.3283H25.0513V26.3283ZM51.1967 23.3283V27.0975H57.1967V23.3283H51.1967ZM53.4258 24.1982C50.2798 25.0347 47.5533 27.837 47.5533 31.6742H53.5533C53.5533 30.9347 54.0663 30.2364 54.9675 29.9968L53.4258 24.1982ZM47.5533 31.6742C47.5533 35.8956 51.0622 39.3862 55.2764 39.3862V33.3862C54.3626 33.3862 53.5533 32.5686 53.5533 31.6742H47.5533ZM55.2764 39.3862C59.4905 39.3862 62.9995 35.8957 62.9995 31.6742H56.9995C56.9995 32.5686 56.1901 33.3862 55.2764 33.3862V39.3862ZM62.9944 31.849C63.2213 27.9627 60.4869 24.9212 57.2629 24.0625L55.7186 29.8604C56.5416 30.0796 57.045 30.8071 57.0046 31.4993L62.9944 31.849ZM59.4908 26.9615V26.9613H53.4908V26.9615H59.4908Z" fill="black" fill-opacity="0.2" mask="url(#path-1-outside-1_894_553)"/>
<defs>
<linearGradient id="paint0_linear_894_553" x1="34.7921" y1="126.586" x2="72.4167" y2="80.2268" gradientUnits="userSpaceOnUse">
<stop stop-color="#3B53A9"/>
<stop offset="1" stop-color="#EC2158"/>
</linearGradient>
</defs>
</svg>
