<svg width="130" height="130" viewBox="0 0 130 130" fill="none" xmlns="http://www.w3.org/2000/svg">
<path d="M117.377 67.168C118.063 69.1106 119.63 70.6121 121.601 71.2156C123.57 71.818 125.71 71.4516 127.366 70.2265C129.022 69.0004 130 67.0628 130 65.0023C130 62.9419 129.023 61.0043 127.366 59.7782C125.71 58.5532 123.57 58.1867 121.601 58.7891C119.63 59.3924 118.063 60.8941 117.377 62.8367H103.984V44.24L109.212 39.0119H113.045C113.732 40.9545 115.299 42.4561 117.269 43.0595C119.239 43.6619 121.379 43.2955 123.035 42.0704C124.691 40.8443 125.668 38.9067 125.668 36.8463C125.668 34.7858 124.691 32.8482 123.035 31.6222C121.378 30.3971 119.239 30.0306 117.269 30.633C115.299 31.2363 113.731 32.738 113.045 34.6806H108.315C107.741 34.6806 107.19 34.9088 106.784 35.3149L101.417 40.6823L88.8233 34.0136V21.6854H95.7188C96.4053 23.6279 97.9726 25.1295 99.9429 25.733C101.912 26.3354 104.052 25.9689 105.708 24.7439C107.365 23.5178 108.342 21.5802 108.342 19.5197C108.342 17.4593 107.365 15.5216 105.708 14.2956C104.052 13.0705 101.912 12.7041 99.9429 13.3065C97.9725 13.9098 96.4052 15.4114 95.7188 17.3541H86.6575C85.4615 17.3541 84.4917 18.3239 84.4917 19.52V31.7205L67.1656 22.5522V12.624C69.108 11.9375 70.6095 10.3701 71.213 8.39968C71.8153 6.43008 71.4489 4.29019 70.2239 2.63397C68.9979 0.977644 67.0603 0 65 0C62.9397 0 61.0021 0.977545 59.7762 2.63397C58.5512 4.29029 58.1847 6.43008 58.7871 8.39968C59.3904 10.3702 60.8919 11.9376 62.8345 12.624V22.5522L45.5083 31.7244V19.52C45.5083 18.9456 45.2801 18.3945 44.874 17.9884C44.468 17.5823 43.9168 17.3541 43.3425 17.3541H34.2812C33.5947 15.4115 32.0274 13.9099 30.0571 13.3065C28.0876 12.7041 25.9478 13.0705 24.2917 14.2956C22.6354 15.5217 21.6578 17.4593 21.6578 19.5197C21.6578 21.5802 22.6353 23.5178 24.2917 24.7439C25.9479 25.9689 28.0876 26.3354 30.0571 25.733C32.0275 25.1297 33.5948 23.628 34.2812 21.6854H41.1768V34.0136L28.5824 40.6823L23.2152 35.3149H23.2162C22.8101 34.9088 22.259 34.6806 21.6847 34.6806H16.9549C16.2684 32.7381 14.7011 31.2365 12.7308 30.633C10.7613 30.0306 8.6215 30.3971 6.96536 31.6222C5.30913 32.8482 4.33154 34.7858 4.33154 36.8463C4.33154 38.9067 5.30903 40.8444 6.96536 42.0704C8.6216 43.2955 10.7613 43.6619 12.7308 43.0595C14.7012 42.4562 16.2685 40.9546 16.9549 39.0119H20.7884L26.0162 44.24V62.8367H12.6233C11.9369 60.8941 10.3696 59.3926 8.39923 58.7891C6.42974 58.1867 4.28996 58.5532 2.63382 59.7782C0.977591 61.0043 0 62.9419 0 65.0023C0 67.0628 0.977492 69.0005 2.63382 70.2265C4.29006 71.4515 6.42974 71.818 8.39923 71.2156C10.3697 70.6123 11.937 69.1107 12.6233 67.168H26.0162V85.7647L20.7884 90.9928H16.9549C16.2684 89.0502 14.7011 87.5486 12.7308 86.9452C10.7613 86.3428 8.6215 86.7092 6.96536 87.9343C5.30913 89.1604 4.33154 91.098 4.33154 93.1584C4.33154 95.2189 5.30903 97.1565 6.96536 98.3826C8.6216 99.6076 10.7613 99.9741 12.7308 99.3717C14.7012 98.7684 16.2685 97.2667 16.9549 95.3241H21.6847C22.259 95.3241 22.8101 95.0959 23.2162 94.6898L28.5833 89.3224L41.1767 95.9911V108.319H34.2812C33.5947 106.377 32.0274 104.875 30.0571 104.272C28.0876 103.669 25.9478 104.036 24.2917 105.261C22.6354 106.487 21.6578 108.425 21.6578 110.485C21.6578 112.545 22.6353 114.483 24.2917 115.709C25.9479 116.934 28.0876 117.301 30.0571 116.698C32.0275 116.095 33.5948 114.593 34.2812 112.651H43.3425C43.9168 112.651 44.4679 112.422 44.874 112.016C45.2801 111.61 45.5083 111.059 45.5083 110.485V98.2842L62.8344 107.453V117.377C60.892 118.063 59.3905 119.631 58.7871 121.6C58.1847 123.571 58.5511 125.711 59.7762 127.367C61.0021 129.023 62.9397 130 65 130C67.0603 130 68.9979 129.023 70.2238 127.367C71.4488 125.711 71.8153 123.571 71.2129 121.6C70.6096 119.631 69.1081 118.063 67.1655 117.377V107.453L84.4917 98.2803V110.485C84.4917 111.059 84.7199 111.61 85.126 112.016C85.532 112.422 86.0832 112.651 86.6575 112.651H95.7188C96.4053 114.593 97.9726 116.095 99.9429 116.698C101.912 117.301 104.052 116.934 105.708 115.709C107.365 114.483 108.342 112.545 108.342 110.485C108.342 108.425 107.365 106.487 105.708 105.261C104.052 104.036 101.912 103.669 99.9429 104.272C97.9725 104.875 96.4052 106.377 95.7188 108.319H88.8232V95.9911L101.418 89.3224L106.785 94.6898H106.784C107.19 95.0959 107.741 95.3241 108.315 95.3241H113.045C113.732 97.2666 115.299 98.7682 117.269 99.3717C119.239 99.9741 121.379 99.6076 123.035 98.3826C124.691 97.1565 125.668 95.2189 125.668 93.1584C125.668 91.098 124.691 89.1603 123.035 87.9343C121.378 86.7092 119.239 86.3428 117.269 86.9452C115.299 87.5485 113.731 89.0501 113.045 90.9928H109.212L103.984 85.7647V67.168H117.377ZM123.476 62.8362C124.352 62.8362 125.142 63.3642 125.476 64.1735C125.812 64.9828 125.627 65.9139 125.007 66.5337C124.387 67.1535 123.456 67.3382 122.647 67.0027C121.838 66.6681 121.31 65.8781 121.31 65.0021C121.31 63.8061 122.28 62.8362 123.476 62.8362ZM119.144 34.6797C120.02 34.6797 120.81 35.2076 121.145 36.0169C121.48 36.8262 121.295 37.7574 120.676 38.3772C120.056 38.997 119.125 39.1817 118.316 38.8461C117.506 38.5116 116.978 37.7216 116.978 36.8456C116.978 35.6495 117.948 34.6797 119.144 34.6797ZM101.818 17.3526C102.694 17.3526 103.484 17.8806 103.818 18.6898C104.154 19.4991 103.969 20.4303 103.35 21.0501C102.73 21.6699 101.799 21.8546 100.989 21.519C100.18 21.1845 99.6522 20.3945 99.6522 19.5185C99.6522 18.3224 100.622 17.3526 101.818 17.3526ZM28.1818 21.6844C27.3058 21.6844 26.5159 21.1565 26.1814 20.3472C25.8459 19.5379 26.0306 18.6067 26.6503 17.9869C27.2701 17.3671 28.2011 17.1824 29.0104 17.518C29.8197 17.8525 30.3476 18.6425 30.3476 19.5185C30.3476 20.0928 30.1194 20.644 29.7133 21.0501C29.3072 21.4562 28.7561 21.6844 28.1818 21.6844ZM10.8557 39.0115C9.97967 39.0115 9.18974 38.4836 8.85523 37.6743C8.51972 36.865 8.70439 35.9338 9.32415 35.314C9.9439 34.6942 10.875 34.5095 11.6843 34.8451C12.4935 35.1796 13.0214 35.9696 13.0214 36.8456C13.0214 37.4199 12.7932 37.9711 12.3872 38.3772C11.9811 38.7833 11.43 39.0115 10.8557 39.0115ZM6.52411 67.168C5.64813 67.168 4.8582 66.6401 4.52369 65.8308C4.18818 65.0215 4.37285 64.0904 4.99261 63.4705C5.61236 62.8507 6.54345 62.6661 7.35273 63.0016C8.16198 63.3362 8.68989 64.1261 8.68989 65.0021C8.68989 65.5765 8.4617 66.1276 8.05562 66.5337C7.64954 66.9398 7.09843 67.168 6.52411 67.168ZM10.8557 95.3246C9.97967 95.3246 9.18974 94.7966 8.85523 93.9873C8.51972 93.178 8.70439 92.2469 9.32415 91.6271C9.9439 91.0073 10.875 90.8226 11.6843 91.1581C12.4935 91.4927 13.0214 92.2827 13.0214 93.1587C13.0214 93.733 12.7932 94.2842 12.3872 94.6903C11.9811 95.0964 11.43 95.3246 10.8557 95.3246ZM28.1818 112.652C27.3058 112.652 26.5159 112.124 26.1814 111.314C25.8459 110.505 26.0306 109.574 26.6503 108.954C27.2701 108.334 28.2011 108.15 29.0104 108.485C29.8197 108.82 30.3476 109.61 30.3476 110.486C30.3476 111.06 30.1194 111.611 29.7133 112.017C29.3072 112.423 28.7561 112.652 28.1818 112.652ZM101.818 108.32C102.694 108.32 103.484 108.848 103.818 109.657C104.154 110.466 103.969 111.398 103.35 112.017C102.73 112.637 101.799 112.822 100.989 112.486C100.18 112.152 99.6522 111.362 99.6522 110.486C99.6522 109.29 100.622 108.32 101.818 108.32ZM119.144 90.9928C120.02 90.9928 120.81 91.5207 121.145 92.33C121.48 93.1393 121.295 94.0704 120.676 94.6903C120.056 95.3101 119.125 95.4947 118.316 95.1592C117.506 94.8246 116.978 94.0347 116.978 93.1587C116.978 91.9626 117.948 90.9928 119.144 90.9928ZM64.9999 4.35729C65.8759 4.35729 66.6658 4.88523 67.0003 5.69453C67.3359 6.50383 67.1512 7.43496 66.5314 8.05477C65.9117 8.67459 64.9806 8.85925 64.1713 8.52372C63.362 8.18916 62.8341 7.39919 62.8341 6.52318C62.8341 5.32712 63.8039 4.35729 64.9999 4.35729ZM64.9999 125.647C64.1239 125.647 63.334 125.119 62.9995 124.31C62.664 123.5 62.8487 122.569 63.4684 121.949C64.0882 121.33 65.0192 121.145 65.8285 121.481C66.6378 121.815 67.1657 122.605 67.1657 123.481C67.1657 124.055 66.9375 124.607 66.5314 125.013C66.1253 125.419 65.5742 125.647 64.9999 125.647ZM99.6522 85.3615L64.9999 103.705L30.3476 85.3615V44.6428L64.9999 26.2956L99.6522 44.6428V85.3615Z" fill="url(#paint0_linear_195_787)"/>
<path d="M64.032 30.5757L33.7112 45.7369C32.9763 46.1043 32.5132 46.8546 32.5132 47.6755V82.3297C32.5084 83.1545 32.9735 83.9106 33.7112 84.279L64.032 99.4402C64.6411 99.7448 65.3585 99.7448 65.9676 99.4402L96.2884 84.279C97.0261 83.9106 97.4912 83.1545 97.4863 82.3297V47.6755C97.4863 46.8546 97.0232 46.1043 96.2884 45.7369L65.9676 30.5757C65.3585 30.2711 64.6411 30.2711 64.032 30.5757ZM93.1548 49.0137V80.9921L64.9997 95.0703L36.8447 80.9921V49.0137L64.9997 34.9354L93.1548 49.0137Z" fill="url(#paint1_linear_195_787)"/>
<path d="M49.8393 64.4897L45.2912 55.3698C44.8493 54.457 43.8332 53.9726 42.846 54.2046C41.8588 54.4377 41.1646 55.3233 41.1762 56.3376V75.8306H45.5078V65.5126L50.0665 74.6336V74.6326C50.5151 75.5328 51.5236 76.0056 52.502 75.7745C53.4805 75.5444 54.1718 74.6703 54.1708 73.6647V54.1718H49.8393V64.4897Z" fill="url(#paint2_linear_195_787)"/>
<path d="M58.5024 56.3386V75.8316H62.8339V67.168H69.3312V62.8362H62.8339V58.5045H71.497V54.1727H60.6681C59.4721 54.1727 58.5024 55.1425 58.5024 56.3386Z" fill="url(#paint3_linear_195_787)"/>
<path d="M80.1601 75.8316H84.4916V58.5045H88.8232V54.1727H75.8285V58.5045H80.1601V75.8316Z" fill="url(#paint4_linear_195_787)"/>
<defs>
<linearGradient id="paint0_linear_195_787" x1="72.4428" y1="-25.2155" x2="-40.5778" y2="95.1045" gradientUnits="userSpaceOnUse">
<stop stop-color="#44F26B"/>
<stop offset="1" stop-color="#3B53A9"/>
</linearGradient>
<linearGradient id="paint1_linear_195_787" x1="72.4428" y1="-25.2155" x2="-40.5778" y2="95.1045" gradientUnits="userSpaceOnUse">
<stop stop-color="#44F26B"/>
<stop offset="1" stop-color="#3B53A9"/>
</linearGradient>
<linearGradient id="paint2_linear_195_787" x1="72.4428" y1="-25.2155" x2="-40.5778" y2="95.1045" gradientUnits="userSpaceOnUse">
<stop stop-color="#44F26B"/>
<stop offset="1" stop-color="#3B53A9"/>
</linearGradient>
<linearGradient id="paint3_linear_195_787" x1="72.4428" y1="-25.2155" x2="-40.5778" y2="95.1045" gradientUnits="userSpaceOnUse">
<stop stop-color="#44F26B"/>
<stop offset="1" stop-color="#3B53A9"/>
</linearGradient>
<linearGradient id="paint4_linear_195_787" x1="72.4428" y1="-25.2155" x2="-40.5778" y2="95.1045" gradientUnits="userSpaceOnUse">
<stop stop-color="#44F26B"/>
<stop offset="1" stop-color="#3B53A9"/>
</linearGradient>
</defs>
</svg>
