<svg width="112" height="112" viewBox="0 0 112 112" fill="none" xmlns="http://www.w3.org/2000/svg">
<mask id="path-1-inside-1_195_442" fill="white">
<path d="M56.0012 29.867C49.07 29.867 42.423 32.621 37.5222 37.5217C32.6214 42.4226 29.8676 49.0695 29.8676 56.0011C29.8676 62.9326 32.6216 69.5796 37.5222 74.4805C42.423 79.3814 49.0698 82.1352 56.0012 82.1352C62.9326 82.1352 69.5793 79.3812 74.4801 74.4805C79.3809 69.5796 82.1347 62.9326 82.1347 56.0011C82.1269 49.0719 79.3715 42.429 74.4723 37.5297C69.5731 32.6304 62.9302 29.875 56.0014 29.8672L56.0012 29.867ZM56.0012 78.402C50.0606 78.402 44.363 76.0417 40.1622 71.8408C35.9614 67.6399 33.6012 61.9422 33.6012 56.0015C33.6012 50.0608 35.9614 44.3631 40.1622 40.1622C44.363 35.9613 50.0606 33.601 56.0012 33.601C61.9418 33.601 67.6393 35.9613 71.8401 40.1622C76.0409 44.3631 78.4011 50.0608 78.4011 56.0015C78.3949 61.9406 76.0323 67.6345 71.8331 71.8338C67.6339 76.0331 61.9402 78.3958 56.0012 78.402Z"/>
<path d="M61.6012 48.5353C61.6012 49.5658 62.4371 50.4018 63.4675 50.4018C64.4988 50.4018 65.3347 49.5658 65.3347 48.5353C65.3316 46.3845 64.5878 44.3001 63.2277 42.6336C61.8676 40.968 59.9745 39.8212 57.8675 39.3882V39.2014C57.8675 38.1702 57.0324 37.335 56.0012 37.335C54.9699 37.335 54.1348 38.1702 54.1348 39.2014V39.3882C51.2996 39.9639 48.8918 41.8218 47.6152 44.4179C46.3394 47.0139 46.3394 50.0556 47.6152 52.6516C48.8917 55.2485 51.2996 57.1063 54.1348 57.6813V68.727C53.0465 68.3426 52.1036 67.6301 51.4348 66.6893C50.7668 65.7479 50.4059 64.6229 50.4012 63.4683C50.4012 62.4378 49.5652 61.6018 48.5348 61.6018C47.5035 61.6018 46.6676 62.4378 46.6676 63.4683C46.6707 65.6191 47.4145 67.7035 48.7746 69.37C50.1347 71.0356 52.0278 72.1824 54.1348 72.6154V72.8022C54.1348 73.8334 54.9699 74.6686 56.0012 74.6686C57.0324 74.6686 57.8676 73.8334 57.8676 72.8022V72.6154C60.7028 72.0396 63.1106 70.1818 64.3871 67.5857C65.6629 64.9897 65.6629 61.948 64.3871 59.352C63.1106 56.7551 60.7028 54.8973 57.8676 54.3223V43.2782C58.9558 43.6634 59.8988 44.3744 60.5668 45.3159C61.2347 46.2565 61.5964 47.3807 61.6011 48.5355L61.6012 48.5353ZM50.4012 48.5353C50.4059 47.3806 50.7676 46.2563 51.4356 45.3157C52.1035 44.3743 53.0465 43.6633 54.1348 43.278V53.7915C53.0465 53.4071 52.1036 52.6953 51.4356 51.7546C50.7676 50.8132 50.4059 49.689 50.4012 48.5349V48.5353ZM61.6012 63.4693V63.4685C61.5965 64.6232 61.2348 65.7475 60.5668 66.6881C59.8988 67.6296 58.9558 68.3405 57.8676 68.7258V58.2124C58.9559 58.5967 59.8988 59.3085 60.5668 60.2492C61.2347 61.1906 61.5965 62.3148 61.6012 63.4689V63.4693Z"/>
<path d="M106.051 30.929C99.8221 18.4741 89.1729 8.78853 76.1851 3.76643C63.197 -1.25548 48.8032 -1.25548 35.8152 3.76643C22.8277 8.78913 12.1793 18.4737 5.9493 30.929C5.92899 30.9704 5.90477 31.0056 5.88759 31.047V31.0462C2.0158 38.7947 0 47.3387 0 56.0007C0 64.6627 2.0156 73.2065 5.88759 80.9552C5.90477 80.9966 5.92899 81.0318 5.94696 81.0732V81.0724C12.1773 93.5267 22.8259 103.211 35.8149 108.233C48.803 113.256 63.1968 113.256 76.1848 108.233C89.1723 103.21 99.8207 93.5257 106.051 81.0724C106.071 81.031 106.095 80.9958 106.112 80.9544V80.9552C109.984 73.2067 112 64.6627 112 56.0007C112 47.3387 109.984 38.7949 106.112 31.0462C106.096 31.0032 106.071 30.9696 106.051 30.929H106.051ZM90.2073 78.402C92.1299 71.7214 93.1705 64.8189 93.3019 57.8675H108.221C107.977 64.9833 106.273 71.9724 103.214 78.402H90.2073ZM78.3995 82.1357H85.0785C79.5535 96.9556 69.4917 107.188 57.8666 108.186V87.7358C57.8666 86.7045 57.0314 85.8685 56.0002 85.8685C54.9689 85.8685 54.1338 86.7045 54.1338 87.7358V108.186C42.508 107.189 32.4458 96.9564 26.9218 82.1357H33.6008C34.6321 82.1357 35.4672 81.2997 35.4672 80.2684C35.4672 79.238 34.6321 78.402 33.6008 78.402H25.6484C23.6445 71.7363 22.5617 64.8275 22.4305 57.8676H24.2672C25.2984 57.8676 26.1344 57.0324 26.1344 56.0011C26.1344 54.9699 25.2984 54.1347 24.2672 54.1347H22.4305C22.5617 47.1751 23.6445 40.2664 25.6484 33.6003H33.6008C34.6321 33.6003 35.4672 32.7643 35.4672 31.7338C35.4672 30.7026 34.6321 29.8666 33.6008 29.8666H26.9218C32.4468 15.0467 42.5086 4.81409 54.1338 3.81607V24.2665C54.1338 25.2978 54.9689 26.1337 56.0002 26.1337C57.0314 26.1337 57.8666 25.2978 57.8666 24.2665V3.81607C69.4923 4.81297 79.5545 15.0459 85.0785 29.8666H78.3995C77.3683 29.8666 76.5331 30.7026 76.5331 31.7338C76.5331 32.7643 77.3683 33.6003 78.3995 33.6003H86.3519C88.3559 40.266 89.4387 47.1747 89.5699 54.1347H87.7332C86.7019 54.1347 85.866 54.9699 85.866 56.0011C85.866 57.0324 86.7019 57.8676 87.7332 57.8676H89.5699C89.4386 64.8271 88.3558 71.7359 86.3519 78.402H78.3995C77.3683 78.402 76.5331 79.238 76.5331 80.2684C76.5331 81.2997 77.3683 82.1357 78.3995 82.1357ZM3.77971 57.8671H18.6985C18.8297 64.8181 19.8703 71.7206 21.7931 78.4016H8.7869C5.7275 71.9724 4.02371 64.9833 3.77991 57.8671H3.77971ZM21.7937 33.6006H21.7929C19.8702 40.2812 18.8297 47.1837 18.6983 54.1351H3.77953C4.02329 47.0193 5.72718 40.0302 8.78651 33.6006H21.7937ZM93.3005 54.1351C93.1692 47.1841 92.1286 40.2816 90.2059 33.6006H103.213H103.212C106.271 40.0298 107.975 47.0189 108.219 54.1351H93.3005ZM101.234 29.8686L89.0037 29.8678C86.1271 21.0044 80.9241 13.0744 73.9373 6.90731C85.4349 11.1442 95.0913 19.2654 101.233 29.8678L101.234 29.8686ZM38.0602 6.90809C31.0734 13.0746 25.8704 21.0044 22.9939 29.8686H10.7635C16.9073 19.2667 26.5626 11.1456 38.0594 6.90809H38.0602ZM10.7643 82.1357H22.9947C25.8713 90.999 31.0742 98.929 38.061 105.096C26.5635 100.859 16.9071 92.7381 10.7651 82.1357H10.7643ZM73.9381 105.096C80.9249 98.9296 86.1279 90.9998 89.0045 82.1357H101.235C95.0911 92.7375 85.4357 100.859 73.9389 105.096H73.9381Z"/>
</mask>
<path d="M56.0012 29.867C49.07 29.867 42.423 32.621 37.5222 37.5217C32.6214 42.4226 29.8676 49.0695 29.8676 56.0011C29.8676 62.9326 32.6216 69.5796 37.5222 74.4805C42.423 79.3814 49.0698 82.1352 56.0012 82.1352C62.9326 82.1352 69.5793 79.3812 74.4801 74.4805C79.3809 69.5796 82.1347 62.9326 82.1347 56.0011C82.1269 49.0719 79.3715 42.429 74.4723 37.5297C69.5731 32.6304 62.9302 29.875 56.0014 29.8672L56.0012 29.867ZM56.0012 78.402C50.0606 78.402 44.363 76.0417 40.1622 71.8408C35.9614 67.6399 33.6012 61.9422 33.6012 56.0015C33.6012 50.0608 35.9614 44.3631 40.1622 40.1622C44.363 35.9613 50.0606 33.601 56.0012 33.601C61.9418 33.601 67.6393 35.9613 71.8401 40.1622C76.0409 44.3631 78.4011 50.0608 78.4011 56.0015C78.3949 61.9406 76.0323 67.6345 71.8331 71.8338C67.6339 76.0331 61.9402 78.3958 56.0012 78.402Z" stroke="url(#paint0_linear_195_442)" stroke-width="16" mask="url(#path-1-inside-1_195_442)"/>
<path d="M61.6012 48.5353C61.6012 49.5658 62.4371 50.4018 63.4675 50.4018C64.4988 50.4018 65.3347 49.5658 65.3347 48.5353C65.3316 46.3845 64.5878 44.3001 63.2277 42.6336C61.8676 40.968 59.9745 39.8212 57.8675 39.3882V39.2014C57.8675 38.1702 57.0324 37.335 56.0012 37.335C54.9699 37.335 54.1348 38.1702 54.1348 39.2014V39.3882C51.2996 39.9639 48.8918 41.8218 47.6152 44.4179C46.3394 47.0139 46.3394 50.0556 47.6152 52.6516C48.8917 55.2485 51.2996 57.1063 54.1348 57.6813V68.727C53.0465 68.3426 52.1036 67.6301 51.4348 66.6893C50.7668 65.7479 50.4059 64.6229 50.4012 63.4683C50.4012 62.4378 49.5652 61.6018 48.5348 61.6018C47.5035 61.6018 46.6676 62.4378 46.6676 63.4683C46.6707 65.6191 47.4145 67.7035 48.7746 69.37C50.1347 71.0356 52.0278 72.1824 54.1348 72.6154V72.8022C54.1348 73.8334 54.9699 74.6686 56.0012 74.6686C57.0324 74.6686 57.8676 73.8334 57.8676 72.8022V72.6154C60.7028 72.0396 63.1106 70.1818 64.3871 67.5857C65.6629 64.9897 65.6629 61.948 64.3871 59.352C63.1106 56.7551 60.7028 54.8973 57.8676 54.3223V43.2782C58.9558 43.6634 59.8988 44.3744 60.5668 45.3159C61.2347 46.2565 61.5964 47.3807 61.6011 48.5355L61.6012 48.5353ZM50.4012 48.5353C50.4059 47.3806 50.7676 46.2563 51.4356 45.3157C52.1035 44.3743 53.0465 43.6633 54.1348 43.278V53.7915C53.0465 53.4071 52.1036 52.6953 51.4356 51.7546C50.7676 50.8132 50.4059 49.689 50.4012 48.5349V48.5353ZM61.6012 63.4693V63.4685C61.5965 64.6232 61.2348 65.7475 60.5668 66.6881C59.8988 67.6296 58.9558 68.3405 57.8676 68.7258V58.2124C58.9559 58.5967 59.8988 59.3085 60.5668 60.2492C61.2347 61.1906 61.5965 62.3148 61.6012 63.4689V63.4693Z" stroke="url(#paint1_linear_195_442)" stroke-width="16" mask="url(#path-1-inside-1_195_442)"/>
<path d="M106.051 30.929C99.8221 18.4741 89.1729 8.78853 76.1851 3.76643C63.197 -1.25548 48.8032 -1.25548 35.8152 3.76643C22.8277 8.78913 12.1793 18.4737 5.9493 30.929C5.92899 30.9704 5.90477 31.0056 5.88759 31.047V31.0462C2.0158 38.7947 0 47.3387 0 56.0007C0 64.6627 2.0156 73.2065 5.88759 80.9552C5.90477 80.9966 5.92899 81.0318 5.94696 81.0732V81.0724C12.1773 93.5267 22.8259 103.211 35.8149 108.233C48.803 113.256 63.1968 113.256 76.1848 108.233C89.1723 103.21 99.8207 93.5257 106.051 81.0724C106.071 81.031 106.095 80.9958 106.112 80.9544V80.9552C109.984 73.2067 112 64.6627 112 56.0007C112 47.3387 109.984 38.7949 106.112 31.0462C106.096 31.0032 106.071 30.9696 106.051 30.929H106.051ZM90.2073 78.402C92.1299 71.7214 93.1705 64.8189 93.3019 57.8675H108.221C107.977 64.9833 106.273 71.9724 103.214 78.402H90.2073ZM78.3995 82.1357H85.0785C79.5535 96.9556 69.4917 107.188 57.8666 108.186V87.7358C57.8666 86.7045 57.0314 85.8685 56.0002 85.8685C54.9689 85.8685 54.1338 86.7045 54.1338 87.7358V108.186C42.508 107.189 32.4458 96.9564 26.9218 82.1357H33.6008C34.6321 82.1357 35.4672 81.2997 35.4672 80.2684C35.4672 79.238 34.6321 78.402 33.6008 78.402H25.6484C23.6445 71.7363 22.5617 64.8275 22.4305 57.8676H24.2672C25.2984 57.8676 26.1344 57.0324 26.1344 56.0011C26.1344 54.9699 25.2984 54.1347 24.2672 54.1347H22.4305C22.5617 47.1751 23.6445 40.2664 25.6484 33.6003H33.6008C34.6321 33.6003 35.4672 32.7643 35.4672 31.7338C35.4672 30.7026 34.6321 29.8666 33.6008 29.8666H26.9218C32.4468 15.0467 42.5086 4.81409 54.1338 3.81607V24.2665C54.1338 25.2978 54.9689 26.1337 56.0002 26.1337C57.0314 26.1337 57.8666 25.2978 57.8666 24.2665V3.81607C69.4923 4.81297 79.5545 15.0459 85.0785 29.8666H78.3995C77.3683 29.8666 76.5331 30.7026 76.5331 31.7338C76.5331 32.7643 77.3683 33.6003 78.3995 33.6003H86.3519C88.3559 40.266 89.4387 47.1747 89.5699 54.1347H87.7332C86.7019 54.1347 85.866 54.9699 85.866 56.0011C85.866 57.0324 86.7019 57.8676 87.7332 57.8676H89.5699C89.4386 64.8271 88.3558 71.7359 86.3519 78.402H78.3995C77.3683 78.402 76.5331 79.238 76.5331 80.2684C76.5331 81.2997 77.3683 82.1357 78.3995 82.1357ZM3.77971 57.8671H18.6985C18.8297 64.8181 19.8703 71.7206 21.7931 78.4016H8.7869C5.7275 71.9724 4.02371 64.9833 3.77991 57.8671H3.77971ZM21.7937 33.6006H21.7929C19.8702 40.2812 18.8297 47.1837 18.6983 54.1351H3.77953C4.02329 47.0193 5.72718 40.0302 8.78651 33.6006H21.7937ZM93.3005 54.1351C93.1692 47.1841 92.1286 40.2816 90.2059 33.6006H103.213H103.212C106.271 40.0298 107.975 47.0189 108.219 54.1351H93.3005ZM101.234 29.8686L89.0037 29.8678C86.1271 21.0044 80.9241 13.0744 73.9373 6.90731C85.4349 11.1442 95.0913 19.2654 101.233 29.8678L101.234 29.8686ZM38.0602 6.90809C31.0734 13.0746 25.8704 21.0044 22.9939 29.8686H10.7635C16.9073 19.2667 26.5626 11.1456 38.0594 6.90809H38.0602ZM10.7643 82.1357H22.9947C25.8713 90.999 31.0742 98.929 38.061 105.096C26.5635 100.859 16.9071 92.7381 10.7651 82.1357H10.7643ZM73.9381 105.096C80.9249 98.9296 86.1279 90.9998 89.0045 82.1357H101.235C95.0911 92.7375 85.4357 100.859 73.9389 105.096H73.9381Z" stroke="url(#paint2_linear_195_442)" stroke-width="16" mask="url(#path-1-inside-1_195_442)"/>
<defs>
<linearGradient id="paint0_linear_195_442" x1="62.4122" y1="-21.7241" x2="-34.9594" y2="81.9362" gradientUnits="userSpaceOnUse">
<stop stop-color="#44F26B"/>
<stop offset="1" stop-color="#3B53A9"/>
</linearGradient>
<linearGradient id="paint1_linear_195_442" x1="62.4122" y1="-21.7241" x2="-34.9594" y2="81.9362" gradientUnits="userSpaceOnUse">
<stop stop-color="#44F26B"/>
<stop offset="1" stop-color="#3B53A9"/>
</linearGradient>
<linearGradient id="paint2_linear_195_442" x1="62.4122" y1="-21.7241" x2="-34.9594" y2="81.9362" gradientUnits="userSpaceOnUse">
<stop stop-color="#44F26B"/>
<stop offset="1" stop-color="#3B53A9"/>
</linearGradient>
</defs>
</svg>
