<svg width="118" height="112" viewBox="0 0 118 112" fill="none" xmlns="http://www.w3.org/2000/svg">
<mask id="path-1-inside-1_170_776" fill="white">
<path d="M66.441 88.3292L56.2981 94.5893C55.5924 95.0233 55.3745 95.9487 55.8086 96.6557C56.0905 97.1158 56.5826 97.3696 57.0867 97.3696C57.3548 97.3696 57.6264 97.296 57.8711 97.1461L68.0116 90.8861C68.7173 90.452 68.9378 89.5266 68.5011 88.8196C68.0669 88.1152 67.1441 87.8969 66.441 88.3292Z"/>
<path d="M70.9085 78.2836L56.2972 87.298C55.5915 87.7321 55.3736 88.6575 55.8077 89.3645C56.0896 89.8246 56.5817 90.0784 57.0858 90.0784C57.3539 90.0784 57.6255 90.0065 57.8702 89.8549L72.4816 80.8405C73.1872 80.4064 73.4052 79.481 72.971 78.774C72.5369 78.067 71.6142 77.8452 70.9085 78.2836Z"/>
<path d="M95.4489 64.2588C89.9092 64.2588 85.4045 68.7755 85.4045 74.3284C85.4045 79.8753 89.9101 84.3893 95.4489 84.3893C100.989 84.3893 105.496 79.8751 105.496 74.3284C105.496 68.7755 100.988 64.2588 95.4489 64.2588ZM95.4489 81.3874C91.561 81.3874 88.4001 78.2206 88.4001 74.3277C88.4001 70.4324 91.5608 67.2603 95.4489 67.2603C99.3371 67.2603 102.5 70.4315 102.5 74.3277C102.5 78.2215 99.3362 81.3874 95.4489 81.3874Z"/>
<path d="M116.821 69.2073L114.317 68.6684C114.286 68.561 114.25 68.4527 114.219 68.3461L116.031 66.7025C116.556 66.2277 116.675 65.4505 116.324 64.8396L113.477 59.9009C113.122 59.2883 112.388 59.0068 111.718 59.2225L109.077 60.0785C109.044 60.0447 109.008 60.0101 108.971 59.9763L109.786 57.4568C110.004 56.7827 109.722 56.048 109.11 55.6945L104.18 52.8405C103.566 52.4853 102.79 52.6083 102.317 53.1342L100.439 55.2188C100.399 55.2093 100.359 55.198 100.319 55.1885L99.7575 52.5701C99.6088 51.8778 98.9991 51.3857 98.2943 51.3857H97.5177L97.3076 28.431C97.3076 28.4284 97.3102 28.424 97.3102 28.4214C97.3102 28.4171 97.3076 28.4145 97.3076 28.4119V28.4102C97.3076 28.3955 97.3024 28.3816 97.3024 28.3695C97.2972 28.2525 97.2834 28.1347 97.2548 28.0255C97.2271 27.9302 97.1856 27.8401 97.1407 27.7534C97.1268 27.7248 97.1216 27.6945 97.1069 27.6676C97.0507 27.5723 96.979 27.4857 96.9054 27.4068C96.8916 27.3904 96.8838 27.3739 96.8717 27.3601C96.7792 27.2682 96.6728 27.1868 96.5587 27.1201L49.55 0.197228C49.0864 -0.0678972 48.52 -0.064437 48.0565 0.199827L0.748899 27.5641C0.746305 27.5658 0.743711 27.5684 0.741116 27.5692L0.738522 27.571C0.722091 27.5805 0.709984 27.597 0.693555 27.6065C0.598428 27.668 0.506762 27.7347 0.430661 27.811C0.409042 27.8326 0.399528 27.8578 0.380504 27.8794C0.311321 27.9557 0.247328 28.0354 0.196305 28.1238C0.179875 28.1498 0.174687 28.1784 0.162581 28.2061C0.120206 28.2945 0.0752371 28.388 0.0510221 28.4842C0.0432391 28.5119 0.0458335 28.5371 0.03978 28.5648C0.0181605 28.6644 0 28.7641 0 28.8689V28.8819L0.542213 83.5926C0.547402 84.1263 0.83537 84.6167 1.29543 84.881L48.2997 111.802C48.3023 111.802 48.3023 111.802 48.3049 111.803V111.805C48.3551 111.834 48.4087 111.845 48.4588 111.867C48.5254 111.895 48.592 111.933 48.6629 111.952C48.7883 111.984 48.9163 112 49.0434 112H49.0711C49.0875 112 49.1022 111.99 49.1187 111.989C49.2605 111.982 49.398 111.953 49.5338 111.906C49.6142 111.878 49.6851 111.849 49.7569 111.811C49.7707 111.803 49.7854 111.802 49.8018 111.792L82.9962 92.2549L87.173 94.6706C87.7844 95.0224 88.5602 94.9011 89.0323 94.376L90.0095 93.2921C90.4359 93.4134 90.8691 93.5218 91.305 93.6144L91.5895 94.9427C91.7382 95.635 92.3479 96.1288 93.0553 96.1288H98.7473C99.453 96.1288 100.064 95.6358 100.211 94.9427L100.543 93.3961C100.931 93.2913 101.319 93.1708 101.71 93.0383L102.71 94.1482C103.184 94.6749 103.96 94.798 104.572 94.4401L109.497 91.5888C110.109 91.2353 110.391 90.5023 110.173 89.8291L109.598 88.0408C109.821 87.8112 110.036 87.5781 110.245 87.3416L111.94 87.8918C112.61 88.1101 113.344 87.8259 113.698 87.2134L116.549 82.2722C116.9 81.6605 116.781 80.8824 116.256 80.4094L114.603 78.9122C114.651 78.7103 114.696 78.5023 114.736 78.2909L116.811 77.8456C117.503 77.6983 117.997 77.0866 117.997 76.3796L118 70.6741C118.007 69.9679 117.513 69.3562 116.821 69.2081L116.821 69.2073ZM78.3714 20.166L34.0658 45.789L18.2255 36.7176L63.4388 11.6091L78.3714 20.166ZM33.302 68.207L29.9277 64.0627L25.3054 65.5149L20.191 58.8935L17.293 60.2711L16.8434 39.3841L32.8807 48.57L33.302 68.207ZM48.8093 3.23108L60.3948 9.86797L15.1815 34.9742L4.50568 28.8581L48.8093 3.23108ZM3.52738 82.6998L3.01975 31.467L13.8071 37.6447L14.3961 64.969L19.2977 62.6436L24.2089 69.0059L28.8901 67.5373L36.4862 76.8696L35.9137 50.3127L47.0046 56.6637L47.5183 107.892L3.52738 82.6998ZM48.4883 54.0557L37.0757 47.5176L81.2684 21.9566C81.3056 21.935 81.3246 21.9003 81.3583 21.8778L92.7951 28.4297L48.4883 54.0557ZM81.738 89.5137L50.5117 107.889L49.9981 56.6495L94.3302 31.011L94.517 51.3859H92.5989C91.8933 51.3859 91.2819 51.8797 91.1331 52.572L90.5745 55.1913C90.4967 55.2121 90.4206 55.232 90.3401 55.2537L88.6374 53.3649C88.1635 52.8407 87.3895 52.7194 86.7781 53.0703L81.8479 55.9216C81.2339 56.2769 80.9511 57.0125 81.169 57.6848L81.9145 59.986C81.8003 60.0952 81.6879 60.207 81.5737 60.3205L79.4023 59.6187C78.7321 59.4021 77.9978 59.6854 77.6459 60.2954L74.7982 65.2341C74.4437 65.8466 74.5665 66.6247 75.0914 67.0986L76.6298 68.491C76.5468 68.7518 76.4707 69.0082 76.4007 69.2595L74.5275 69.6624C73.8357 69.8097 73.3436 70.4222 73.3436 71.1301V76.8356C73.3436 77.5444 73.8357 78.1552 74.5275 78.3034L76.2329 78.6707C76.3133 79.0294 76.4032 79.3829 76.501 79.7338L75.3197 80.803C74.7948 81.277 74.6728 82.055 75.0239 82.6676L77.8656 87.6045C78.2202 88.2171 78.9518 88.503 79.622 88.2829L81.067 87.8185C81.3654 88.1365 81.6732 88.4441 81.988 88.7395L81.738 89.5137ZM115.005 75.1681L113.124 75.5719C112.515 75.7027 112.051 76.1974 111.959 76.8126C111.836 77.6141 111.682 78.3289 111.487 79.0004C111.328 79.5514 111.495 80.1467 111.921 80.5322L113.35 81.8258L111.713 84.6642L110.208 84.1756C109.609 83.9806 108.954 84.1825 108.566 84.6764C108.061 85.3236 107.489 85.9457 106.869 86.5271C106.445 86.9239 106.288 87.5287 106.466 88.0832L106.952 89.5985L104.121 91.2352L103.253 90.2761C102.834 89.8117 102.173 89.6575 101.593 89.8871C100.71 90.2354 99.8232 90.5083 98.9524 90.698C98.3773 90.8254 97.9302 91.2751 97.8083 91.8513L97.5341 93.1301H94.2643L94.0247 92.0098C93.8941 91.4024 93.4047 90.938 92.7933 90.841C91.8386 90.6911 90.9089 90.4598 90.032 90.1557C89.4621 89.9564 88.8316 90.1201 88.4269 90.5681L87.6175 91.4666L84.7862 89.8299L85.1408 88.7339C85.3276 88.1525 85.146 87.5148 84.6772 87.1232C83.969 86.5253 83.2962 85.8521 82.6787 85.1235C82.2853 84.6608 81.654 84.478 81.0763 84.666L79.8613 85.0559L78.2303 82.2192L79.2231 81.3207C79.6676 80.9195 79.8319 80.2905 79.6382 79.7221C79.3588 78.9008 79.1435 78.0378 78.9913 77.1576C78.8901 76.552 78.4275 76.0694 77.8282 75.9411L76.3407 75.6214V72.3454L77.951 71.9988C78.5286 71.8749 78.9809 71.4217 79.1037 70.8412C79.2524 70.1359 79.473 69.3874 79.7765 68.554C79.9832 67.9795 79.8241 67.3349 79.3718 66.9259L78.0011 65.687L79.6347 62.8503L81.5476 63.4689C82.1088 63.6509 82.7176 63.4854 83.1146 63.053C83.617 62.5046 84.1073 62.0237 84.6158 61.5888C85.0733 61.1945 85.2523 60.562 85.0655 59.9859L84.3953 57.9168L87.2292 56.2801L88.7538 57.9697C89.1499 58.409 89.7648 58.5727 90.3286 58.3916C90.9426 58.1924 91.5523 58.0303 92.1352 57.9142C92.7206 57.7973 93.1815 57.3407 93.3052 56.7549L93.8102 54.3878H97.0801L97.5886 56.7558C97.714 57.3398 98.1714 57.7947 98.756 57.9116C99.3363 58.0286 99.914 58.1768 100.473 58.3527C101.031 58.5277 101.64 58.3622 102.034 57.9264L103.726 56.0471L106.557 57.6864L105.818 59.9763C105.631 60.5568 105.813 61.191 106.275 61.5844C106.703 61.9491 107.127 62.3529 107.568 62.8225C107.964 63.2444 108.568 63.4013 109.12 63.2211L111.482 62.4525L113.118 65.2892L111.468 66.7864C111.011 67.2014 110.854 67.8539 111.072 68.4309C111.293 69.014 111.487 69.6456 111.653 70.3076C111.792 70.8647 112.235 71.2927 112.794 71.4132L115.003 71.8879L115.002 75.1682L115.005 75.1681Z"/>
</mask>
<path d="M66.441 88.3292L56.2981 94.5893C55.5924 95.0233 55.3745 95.9487 55.8086 96.6557C56.0905 97.1158 56.5826 97.3696 57.0867 97.3696C57.3548 97.3696 57.6264 97.296 57.8711 97.1461L68.0116 90.8861C68.7173 90.452 68.9378 89.5266 68.5011 88.8196C68.0669 88.1152 67.1441 87.8969 66.441 88.3292Z" stroke="url(#paint0_linear_170_776)" stroke-width="6" mask="url(#path-1-inside-1_170_776)"/>
<path d="M70.9085 78.2836L56.2972 87.298C55.5915 87.7321 55.3736 88.6575 55.8077 89.3645C56.0896 89.8246 56.5817 90.0784 57.0858 90.0784C57.3539 90.0784 57.6255 90.0065 57.8702 89.8549L72.4816 80.8405C73.1872 80.4064 73.4052 79.481 72.971 78.774C72.5369 78.067 71.6142 77.8452 70.9085 78.2836Z" stroke="url(#paint1_linear_170_776)" stroke-width="6" mask="url(#path-1-inside-1_170_776)"/>
<path d="M95.4489 64.2588C89.9092 64.2588 85.4045 68.7755 85.4045 74.3284C85.4045 79.8753 89.9101 84.3893 95.4489 84.3893C100.989 84.3893 105.496 79.8751 105.496 74.3284C105.496 68.7755 100.988 64.2588 95.4489 64.2588ZM95.4489 81.3874C91.561 81.3874 88.4001 78.2206 88.4001 74.3277C88.4001 70.4324 91.5608 67.2603 95.4489 67.2603C99.3371 67.2603 102.5 70.4315 102.5 74.3277C102.5 78.2215 99.3362 81.3874 95.4489 81.3874Z" stroke="url(#paint2_linear_170_776)" stroke-width="6" mask="url(#path-1-inside-1_170_776)"/>
<path d="M116.821 69.2073L114.317 68.6684C114.286 68.561 114.25 68.4527 114.219 68.3461L116.031 66.7025C116.556 66.2277 116.675 65.4505 116.324 64.8396L113.477 59.9009C113.122 59.2883 112.388 59.0068 111.718 59.2225L109.077 60.0785C109.044 60.0447 109.008 60.0101 108.971 59.9763L109.786 57.4568C110.004 56.7827 109.722 56.048 109.11 55.6945L104.18 52.8405C103.566 52.4853 102.79 52.6083 102.317 53.1342L100.439 55.2188C100.399 55.2093 100.359 55.198 100.319 55.1885L99.7575 52.5701C99.6088 51.8778 98.9991 51.3857 98.2943 51.3857H97.5177L97.3076 28.431C97.3076 28.4284 97.3102 28.424 97.3102 28.4214C97.3102 28.4171 97.3076 28.4145 97.3076 28.4119V28.4102C97.3076 28.3955 97.3024 28.3816 97.3024 28.3695C97.2972 28.2525 97.2834 28.1347 97.2548 28.0255C97.2271 27.9302 97.1856 27.8401 97.1407 27.7534C97.1268 27.7248 97.1216 27.6945 97.1069 27.6676C97.0507 27.5723 96.979 27.4857 96.9054 27.4068C96.8916 27.3904 96.8838 27.3739 96.8717 27.3601C96.7792 27.2682 96.6728 27.1868 96.5587 27.1201L49.55 0.197228C49.0864 -0.0678972 48.52 -0.064437 48.0565 0.199827L0.748899 27.5641C0.746305 27.5658 0.743711 27.5684 0.741116 27.5692L0.738522 27.571C0.722091 27.5805 0.709984 27.597 0.693555 27.6065C0.598428 27.668 0.506762 27.7347 0.430661 27.811C0.409042 27.8326 0.399528 27.8578 0.380504 27.8794C0.311321 27.9557 0.247328 28.0354 0.196305 28.1238C0.179875 28.1498 0.174687 28.1784 0.162581 28.2061C0.120206 28.2945 0.0752371 28.388 0.0510221 28.4842C0.0432391 28.5119 0.0458335 28.5371 0.03978 28.5648C0.0181605 28.6644 0 28.7641 0 28.8689V28.8819L0.542213 83.5926C0.547402 84.1263 0.83537 84.6167 1.29543 84.881L48.2997 111.802C48.3023 111.802 48.3023 111.802 48.3049 111.803V111.805C48.3551 111.834 48.4087 111.845 48.4588 111.867C48.5254 111.895 48.592 111.933 48.6629 111.952C48.7883 111.984 48.9163 112 49.0434 112H49.0711C49.0875 112 49.1022 111.99 49.1187 111.989C49.2605 111.982 49.398 111.953 49.5338 111.906C49.6142 111.878 49.6851 111.849 49.7569 111.811C49.7707 111.803 49.7854 111.802 49.8018 111.792L82.9962 92.2549L87.173 94.6706C87.7844 95.0224 88.5602 94.9011 89.0323 94.376L90.0095 93.2921C90.4359 93.4134 90.8691 93.5218 91.305 93.6144L91.5895 94.9427C91.7382 95.635 92.3479 96.1288 93.0553 96.1288H98.7473C99.453 96.1288 100.064 95.6358 100.211 94.9427L100.543 93.3961C100.931 93.2913 101.319 93.1708 101.71 93.0383L102.71 94.1482C103.184 94.6749 103.96 94.798 104.572 94.4401L109.497 91.5888C110.109 91.2353 110.391 90.5023 110.173 89.8291L109.598 88.0408C109.821 87.8112 110.036 87.5781 110.245 87.3416L111.94 87.8918C112.61 88.1101 113.344 87.8259 113.698 87.2134L116.549 82.2722C116.9 81.6605 116.781 80.8824 116.256 80.4094L114.603 78.9122C114.651 78.7103 114.696 78.5023 114.736 78.2909L116.811 77.8456C117.503 77.6983 117.997 77.0866 117.997 76.3796L118 70.6741C118.007 69.9679 117.513 69.3562 116.821 69.2081L116.821 69.2073ZM78.3714 20.166L34.0658 45.789L18.2255 36.7176L63.4388 11.6091L78.3714 20.166ZM33.302 68.207L29.9277 64.0627L25.3054 65.5149L20.191 58.8935L17.293 60.2711L16.8434 39.3841L32.8807 48.57L33.302 68.207ZM48.8093 3.23108L60.3948 9.86797L15.1815 34.9742L4.50568 28.8581L48.8093 3.23108ZM3.52738 82.6998L3.01975 31.467L13.8071 37.6447L14.3961 64.969L19.2977 62.6436L24.2089 69.0059L28.8901 67.5373L36.4862 76.8696L35.9137 50.3127L47.0046 56.6637L47.5183 107.892L3.52738 82.6998ZM48.4883 54.0557L37.0757 47.5176L81.2684 21.9566C81.3056 21.935 81.3246 21.9003 81.3583 21.8778L92.7951 28.4297L48.4883 54.0557ZM81.738 89.5137L50.5117 107.889L49.9981 56.6495L94.3302 31.011L94.517 51.3859H92.5989C91.8933 51.3859 91.2819 51.8797 91.1331 52.572L90.5745 55.1913C90.4967 55.2121 90.4206 55.232 90.3401 55.2537L88.6374 53.3649C88.1635 52.8407 87.3895 52.7194 86.7781 53.0703L81.8479 55.9216C81.2339 56.2769 80.9511 57.0125 81.169 57.6848L81.9145 59.986C81.8003 60.0952 81.6879 60.207 81.5737 60.3205L79.4023 59.6187C78.7321 59.4021 77.9978 59.6854 77.6459 60.2954L74.7982 65.2341C74.4437 65.8466 74.5665 66.6247 75.0914 67.0986L76.6298 68.491C76.5468 68.7518 76.4707 69.0082 76.4007 69.2595L74.5275 69.6624C73.8357 69.8097 73.3436 70.4222 73.3436 71.1301V76.8356C73.3436 77.5444 73.8357 78.1552 74.5275 78.3034L76.2329 78.6707C76.3133 79.0294 76.4032 79.3829 76.501 79.7338L75.3197 80.803C74.7948 81.277 74.6728 82.055 75.0239 82.6676L77.8656 87.6045C78.2202 88.2171 78.9518 88.503 79.622 88.2829L81.067 87.8185C81.3654 88.1365 81.6732 88.4441 81.988 88.7395L81.738 89.5137ZM115.005 75.1681L113.124 75.5719C112.515 75.7027 112.051 76.1974 111.959 76.8126C111.836 77.6141 111.682 78.3289 111.487 79.0004C111.328 79.5514 111.495 80.1467 111.921 80.5322L113.35 81.8258L111.713 84.6642L110.208 84.1756C109.609 83.9806 108.954 84.1825 108.566 84.6764C108.061 85.3236 107.489 85.9457 106.869 86.5271C106.445 86.9239 106.288 87.5287 106.466 88.0832L106.952 89.5985L104.121 91.2352L103.253 90.2761C102.834 89.8117 102.173 89.6575 101.593 89.8871C100.71 90.2354 99.8232 90.5083 98.9524 90.698C98.3773 90.8254 97.9302 91.2751 97.8083 91.8513L97.5341 93.1301H94.2643L94.0247 92.0098C93.8941 91.4024 93.4047 90.938 92.7933 90.841C91.8386 90.6911 90.9089 90.4598 90.032 90.1557C89.4621 89.9564 88.8316 90.1201 88.4269 90.5681L87.6175 91.4666L84.7862 89.8299L85.1408 88.7339C85.3276 88.1525 85.146 87.5148 84.6772 87.1232C83.969 86.5253 83.2962 85.8521 82.6787 85.1235C82.2853 84.6608 81.654 84.478 81.0763 84.666L79.8613 85.0559L78.2303 82.2192L79.2231 81.3207C79.6676 80.9195 79.8319 80.2905 79.6382 79.7221C79.3588 78.9008 79.1435 78.0378 78.9913 77.1576C78.8901 76.552 78.4275 76.0694 77.8282 75.9411L76.3407 75.6214V72.3454L77.951 71.9988C78.5286 71.8749 78.9809 71.4217 79.1037 70.8412C79.2524 70.1359 79.473 69.3874 79.7765 68.554C79.9832 67.9795 79.8241 67.3349 79.3718 66.9259L78.0011 65.687L79.6347 62.8503L81.5476 63.4689C82.1088 63.6509 82.7176 63.4854 83.1146 63.053C83.617 62.5046 84.1073 62.0237 84.6158 61.5888C85.0733 61.1945 85.2523 60.562 85.0655 59.9859L84.3953 57.9168L87.2292 56.2801L88.7538 57.9697C89.1499 58.409 89.7648 58.5727 90.3286 58.3916C90.9426 58.1924 91.5523 58.0303 92.1352 57.9142C92.7206 57.7973 93.1815 57.3407 93.3052 56.7549L93.8102 54.3878H97.0801L97.5886 56.7558C97.714 57.3398 98.1714 57.7947 98.756 57.9116C99.3363 58.0286 99.914 58.1768 100.473 58.3527C101.031 58.5277 101.64 58.3622 102.034 57.9264L103.726 56.0471L106.557 57.6864L105.818 59.9763C105.631 60.5568 105.813 61.191 106.275 61.5844C106.703 61.9491 107.127 62.3529 107.568 62.8225C107.964 63.2444 108.568 63.4013 109.12 63.2211L111.482 62.4525L113.118 65.2892L111.468 66.7864C111.011 67.2014 110.854 67.8539 111.072 68.4309C111.293 69.014 111.487 69.6456 111.653 70.3076C111.792 70.8647 112.235 71.2927 112.794 71.4132L115.003 71.8879L115.002 75.1682L115.005 75.1681Z" stroke="url(#paint3_linear_170_776)" stroke-width="6" mask="url(#path-1-inside-1_170_776)"/>
<defs>
<linearGradient id="paint0_linear_170_776" x1="65.7558" y1="-21.7241" x2="-31.1676" y2="86.9866" gradientUnits="userSpaceOnUse">
<stop stop-color="#44F26B"/>
<stop offset="1" stop-color="#3B53A9"/>
</linearGradient>
<linearGradient id="paint1_linear_170_776" x1="65.7558" y1="-21.7241" x2="-31.1676" y2="86.9866" gradientUnits="userSpaceOnUse">
<stop stop-color="#44F26B"/>
<stop offset="1" stop-color="#3B53A9"/>
</linearGradient>
<linearGradient id="paint2_linear_170_776" x1="65.7558" y1="-21.7241" x2="-31.1676" y2="86.9866" gradientUnits="userSpaceOnUse">
<stop stop-color="#44F26B"/>
<stop offset="1" stop-color="#3B53A9"/>
</linearGradient>
<linearGradient id="paint3_linear_170_776" x1="65.7558" y1="-21.7241" x2="-31.1676" y2="86.9866" gradientUnits="userSpaceOnUse">
<stop stop-color="#44F26B"/>
<stop offset="1" stop-color="#3B53A9"/>
</linearGradient>
</defs>
</svg>
