<svg width="98" height="112" viewBox="0 0 98 112" fill="none" xmlns="http://www.w3.org/2000/svg">
<mask id="path-1-inside-1_195_1021" fill="white">
<path d="M48.9992 0C22.221 0 0.435059 21.7866 0.435059 48.5641V63.4349C0.435059 73.6055 3.58374 83.0515 8.94891 90.8616C8.95171 90.8644 8.95264 90.8681 8.95543 90.87C17.717 103.619 32.3959 112 48.9988 112C65.6016 112 80.2805 103.619 89.0445 90.87C89.0473 90.8672 89.0482 90.8634 89.051 90.8616C94.4162 83.0518 97.5648 73.6057 97.5648 63.4349L97.5639 48.5641C97.5639 21.7859 75.7773 0 48.9998 0H48.9992ZM8.51954 84.3852C5.54323 78.6579 3.74395 72.2282 3.45142 65.4111C4.75988 68.9369 6.46969 72.2682 8.51954 75.3554V84.3852ZM20.8396 99.2579C17.2494 96.4296 14.0924 93.0788 11.4868 89.3145V79.3712C14.2035 82.6736 17.3538 85.6025 20.8396 88.0927V99.2579ZM34.2957 106.587C30.5584 105.31 27.0373 103.568 23.8057 101.417V90.0696C27.0697 92.0579 30.5882 93.6681 34.2957 94.848V106.587ZM47.5162 108.996C43.983 108.882 40.5501 108.371 37.2627 107.494V95.6865C40.5614 96.5089 43.9923 96.9847 47.5162 97.0909V108.996ZM60.7294 107.496C57.4439 108.372 54.0139 108.882 50.4833 108.996V97.0908C54.0046 96.9846 57.4334 96.5087 60.7294 95.6873V107.496ZM72.8492 102.279C69.9921 104.04 66.9235 105.486 63.6964 106.589V94.8502C66.9056 93.8285 69.9659 92.4772 72.8492 90.8446V102.279ZM86.5129 89.3145C83.5869 93.5425 79.966 97.2528 75.8162 100.281V89.0267C79.8422 86.3501 83.4501 83.0944 86.5129 79.3711V89.3145ZM89.48 84.3852V75.3544C91.5297 72.2673 93.2397 68.936 94.5481 65.4101C94.2556 72.2282 92.4564 78.6576 89.48 84.3852ZM49.1672 94.1571C49.1095 94.1506 49.0583 94.1236 48.9987 94.1236C48.9391 94.1236 48.8879 94.1506 48.8301 94.158C23.7637 94.0658 3.4011 73.65 3.4011 48.5645C3.4011 23.4218 23.8569 2.96625 48.9994 2.96625C74.1418 2.96625 94.5977 23.4221 94.5977 48.5645C94.5977 73.65 74.2332 94.0674 49.1686 94.158L49.1672 94.1571Z"/>
<path d="M48.9992 9.88566C27.6717 9.88566 10.3195 27.2374 10.3195 48.5653C10.3195 69.8932 27.6712 87.2449 48.9992 87.2449C70.3271 87.2449 87.6764 69.8932 87.6764 48.5653C87.6764 27.2369 70.3256 9.88566 48.9992 9.88566ZM48.9992 84.2767C29.307 84.2767 13.2853 68.2567 13.2853 48.5653C13.2853 28.8738 29.3063 12.8539 48.9992 12.8539C68.6921 12.8539 84.7106 28.8738 84.7106 48.5653C84.7106 68.2567 68.6916 84.2767 48.9992 84.2767Z"/>
<path d="M48.9992 46.1802C42.9207 46.1802 37.9746 52.7253 37.9746 60.7697C37.9746 68.8151 42.9207 75.3602 48.9992 75.3602C55.0777 75.3602 60.0237 68.8151 60.0237 60.7697C60.0237 52.7253 55.0777 46.1802 48.9992 46.1802ZM48.9992 72.3934C44.5559 72.3934 40.9416 67.1791 40.9416 60.77C40.9416 54.3608 44.5559 49.1465 48.9992 49.1465C53.4424 49.1465 57.0567 54.3598 57.0567 60.769C57.0567 67.1782 53.4424 72.3934 48.9992 72.3934Z"/>
<path d="M34.2086 23.7814V25.6382H31.7264V38.0172H34.2086V39.8741H35.4498V38.0172H36.6909V39.8741H37.932V38.0172H38.8629C40.7415 38.0172 42.276 36.4868 42.276 34.613C42.276 33.3243 41.556 32.1928 40.4919 31.615C41.2094 30.9888 41.6554 30.0627 41.6554 29.0424C41.6554 27.1687 40.121 25.6382 38.2423 25.6382H37.932V23.7814H36.6909V25.6382H35.4498V23.7814H34.2086ZM32.9675 26.8761H38.2423C39.4495 26.8761 40.4143 27.8384 40.4143 29.0424C40.4143 30.2465 39.4495 31.2088 38.2423 31.2088H32.9675V26.8761ZM32.9675 32.4467H38.8629C40.0701 32.4467 41.0349 33.4089 41.0349 34.613C41.0349 35.817 40.0701 36.7793 38.8629 36.7793H32.9675V32.4467Z"/>
<path d="M61.2442 23.7814C61.182 23.7824 61.1214 23.8007 61.069 23.8342C61.0167 23.8678 60.9747 23.9152 60.9477 23.9712L56.2801 31.3064C56.2724 31.3178 56.2654 31.3296 56.2591 31.3418C56.2589 31.342 56.2587 31.3422 56.2585 31.3424C56.2536 31.3522 56.2493 31.3623 56.2454 31.3725C56.2373 31.3935 56.2314 31.4152 56.2277 31.4373C56.224 31.4594 56.2224 31.4817 56.2231 31.5041C56.2231 31.5043 56.2231 31.5045 56.2231 31.5047C56.2235 31.5157 56.2243 31.5266 56.2258 31.5374C56.2262 31.5396 56.2266 31.5418 56.2271 31.544C56.2298 31.5606 56.2337 31.577 56.2388 31.5931C56.2397 31.5961 56.2406 31.5992 56.2415 31.6022C56.2415 31.6025 56.2415 31.6027 56.2415 31.6029C56.2451 31.6133 56.2492 31.6236 56.2539 31.6336C56.2539 31.6339 56.2539 31.6341 56.2539 31.6343C56.2587 31.6442 56.2639 31.6538 56.2696 31.6631C56.2696 31.6633 56.2696 31.6635 56.2696 31.6638C56.2753 31.6732 56.2814 31.6824 56.2879 31.6912C56.2911 31.6952 56.2944 31.6992 56.2977 31.703C56.3015 31.7079 56.3055 31.7127 56.3095 31.7174C56.3168 31.7256 56.3244 31.7335 56.3324 31.741C56.3327 31.7412 56.3329 31.7414 56.3331 31.7416C56.3494 31.7564 56.3672 31.7696 56.3861 31.7809C56.3863 31.7811 56.3865 31.7813 56.3868 31.7816C56.3885 31.7824 56.3902 31.7833 56.392 31.7842C56.3922 31.7844 56.3924 31.7846 56.3926 31.7848L61.0413 34.4413C61.1001 34.4878 61.1729 34.5131 61.2479 34.5134C61.3229 34.5136 61.3958 34.4887 61.4549 34.4426L66.0996 31.7881C66.102 31.7868 66.1044 31.7855 66.1068 31.7842C66.1142 31.7799 66.1214 31.7753 66.1284 31.7704C66.1306 31.7689 66.1328 31.7674 66.135 31.7659C66.1365 31.7646 66.138 31.7632 66.1395 31.7619C66.1465 31.7572 66.1533 31.7521 66.1598 31.7469C66.1603 31.7464 66.1607 31.746 66.1611 31.7456C66.1625 31.7445 66.1638 31.7434 66.1651 31.7423C66.1721 31.7358 66.1789 31.7291 66.1854 31.722C66.193 31.7139 66.2002 31.7053 66.207 31.6965C66.2135 31.6878 66.2196 31.6789 66.2253 31.6696C66.2255 31.6694 66.2257 31.6692 66.2259 31.669C66.2262 31.6683 66.2264 31.6677 66.2266 31.667C66.2322 31.6583 66.2375 31.6494 66.2423 31.6402C66.2423 31.64 66.2423 31.6398 66.2423 31.6395C66.2461 31.6318 66.2496 31.624 66.2528 31.616C66.2537 31.6136 66.2545 31.6112 66.2554 31.6088C66.2563 31.6062 66.2572 31.6036 66.258 31.6009C66.2605 31.5934 66.2626 31.5857 66.2645 31.578C66.2648 31.5776 66.265 31.5772 66.2652 31.5767C66.2654 31.5761 66.2656 31.5754 66.2659 31.5747C66.2683 31.5646 66.2703 31.5543 66.2717 31.544C66.2732 31.5355 66.2743 31.527 66.275 31.5185C66.275 31.5176 66.275 31.5167 66.275 31.5158C66.2757 31.5056 66.2759 31.4953 66.2757 31.4851C66.2754 31.4785 66.275 31.472 66.2744 31.4655C66.2739 31.4585 66.2733 31.4515 66.2724 31.4445C66.2724 31.4443 66.2724 31.4441 66.2724 31.4439C66.2722 31.4428 66.272 31.4417 66.2717 31.4406C66.2702 31.4311 66.2682 31.4217 66.2659 31.4124C66.2659 31.412 66.2659 31.4116 66.2659 31.4111C66.2638 31.4028 66.2614 31.3945 66.2587 31.3863C66.2578 31.3839 66.2569 31.3815 66.256 31.3791C66.255 31.3764 66.2539 31.3738 66.2528 31.3712C66.25 31.3637 66.2469 31.3563 66.2436 31.349C66.2434 31.3487 66.2432 31.3485 66.243 31.3483C66.2427 31.3476 66.2425 31.347 66.2423 31.3463C66.2375 31.3369 66.2323 31.3278 66.2266 31.3189C66.2259 31.3178 66.2253 31.3167 66.2246 31.3156C66.2242 31.3147 66.2238 31.3138 66.2233 31.313L66.2128 31.2973L61.5498 23.9692C61.5219 23.9122 61.4783 23.8642 61.4242 23.831C61.3701 23.7977 61.3077 23.7805 61.2442 23.7814ZM60.9143 25.2723V29.2612L57.4241 30.7567L60.9143 25.2723ZM61.5845 25.2723L65.0747 30.7567L61.5845 29.2612V25.2723ZM60.9143 29.9903V33.5957L57.3095 31.5361L60.9143 29.9903ZM61.5845 29.9903L65.1893 31.5361L61.5845 33.5957V29.9903ZM65.9432 32.8326C65.884 32.8323 65.8257 32.8476 65.7744 32.8771L61.2494 35.4629L56.7245 32.8771C56.6757 32.8494 56.6208 32.8343 56.5648 32.8333C56.5022 32.8321 56.4406 32.8484 56.3868 32.8804C56.333 32.9124 56.2893 32.9588 56.2606 33.0144C56.2318 33.07 56.2192 33.1325 56.2242 33.1949C56.2291 33.2572 56.2514 33.317 56.2886 33.3673L60.9575 39.7038C60.9867 39.7554 61.029 39.7984 61.0802 39.8283C61.1314 39.8582 61.1896 39.874 61.2489 39.8741C61.3082 39.8741 61.3664 39.8585 61.4177 39.8287C61.4689 39.7989 61.5114 39.756 61.5406 39.7045L66.2102 33.3673C66.2471 33.3176 66.2695 33.2586 66.2749 33.197C66.2803 33.1353 66.2685 33.0734 66.2408 33.018C66.2132 32.9626 66.1707 32.916 66.1182 32.8833C66.0657 32.8506 66.0051 32.833 65.9432 32.8326ZM57.769 34.2463L60.9143 36.0441V38.5153L57.769 34.2463ZM64.7298 34.2463L61.5845 38.5153V36.0441L64.7298 34.2463Z"/>
</mask>
<path d="M48.9992 0C22.221 0 0.435059 21.7866 0.435059 48.5641V63.4349C0.435059 73.6055 3.58374 83.0515 8.94891 90.8616C8.95171 90.8644 8.95264 90.8681 8.95543 90.87C17.717 103.619 32.3959 112 48.9988 112C65.6016 112 80.2805 103.619 89.0445 90.87C89.0473 90.8672 89.0482 90.8634 89.051 90.8616C94.4162 83.0518 97.5648 73.6057 97.5648 63.4349L97.5639 48.5641C97.5639 21.7859 75.7773 0 48.9998 0H48.9992ZM8.51954 84.3852C5.54323 78.6579 3.74395 72.2282 3.45142 65.4111C4.75988 68.9369 6.46969 72.2682 8.51954 75.3554V84.3852ZM20.8396 99.2579C17.2494 96.4296 14.0924 93.0788 11.4868 89.3145V79.3712C14.2035 82.6736 17.3538 85.6025 20.8396 88.0927V99.2579ZM34.2957 106.587C30.5584 105.31 27.0373 103.568 23.8057 101.417V90.0696C27.0697 92.0579 30.5882 93.6681 34.2957 94.848V106.587ZM47.5162 108.996C43.983 108.882 40.5501 108.371 37.2627 107.494V95.6865C40.5614 96.5089 43.9923 96.9847 47.5162 97.0909V108.996ZM60.7294 107.496C57.4439 108.372 54.0139 108.882 50.4833 108.996V97.0908C54.0046 96.9846 57.4334 96.5087 60.7294 95.6873V107.496ZM72.8492 102.279C69.9921 104.04 66.9235 105.486 63.6964 106.589V94.8502C66.9056 93.8285 69.9659 92.4772 72.8492 90.8446V102.279ZM86.5129 89.3145C83.5869 93.5425 79.966 97.2528 75.8162 100.281V89.0267C79.8422 86.3501 83.4501 83.0944 86.5129 79.3711V89.3145ZM89.48 84.3852V75.3544C91.5297 72.2673 93.2397 68.936 94.5481 65.4101C94.2556 72.2282 92.4564 78.6576 89.48 84.3852ZM49.1672 94.1571C49.1095 94.1506 49.0583 94.1236 48.9987 94.1236C48.9391 94.1236 48.8879 94.1506 48.8301 94.158C23.7637 94.0658 3.4011 73.65 3.4011 48.5645C3.4011 23.4218 23.8569 2.96625 48.9994 2.96625C74.1418 2.96625 94.5977 23.4221 94.5977 48.5645C94.5977 73.65 74.2332 94.0674 49.1686 94.158L49.1672 94.1571Z" stroke="url(#paint0_linear_195_1021)" stroke-width="8" mask="url(#path-1-inside-1_195_1021)"/>
<path d="M48.9992 9.88566C27.6717 9.88566 10.3195 27.2374 10.3195 48.5653C10.3195 69.8932 27.6712 87.2449 48.9992 87.2449C70.3271 87.2449 87.6764 69.8932 87.6764 48.5653C87.6764 27.2369 70.3256 9.88566 48.9992 9.88566ZM48.9992 84.2767C29.307 84.2767 13.2853 68.2567 13.2853 48.5653C13.2853 28.8738 29.3063 12.8539 48.9992 12.8539C68.6921 12.8539 84.7106 28.8738 84.7106 48.5653C84.7106 68.2567 68.6916 84.2767 48.9992 84.2767Z" stroke="url(#paint1_linear_195_1021)" stroke-width="8" mask="url(#path-1-inside-1_195_1021)"/>
<path d="M48.9992 46.1802C42.9207 46.1802 37.9746 52.7253 37.9746 60.7697C37.9746 68.8151 42.9207 75.3602 48.9992 75.3602C55.0777 75.3602 60.0237 68.8151 60.0237 60.7697C60.0237 52.7253 55.0777 46.1802 48.9992 46.1802ZM48.9992 72.3934C44.5559 72.3934 40.9416 67.1791 40.9416 60.77C40.9416 54.3608 44.5559 49.1465 48.9992 49.1465C53.4424 49.1465 57.0567 54.3598 57.0567 60.769C57.0567 67.1782 53.4424 72.3934 48.9992 72.3934Z" stroke="url(#paint2_linear_195_1021)" stroke-width="8" mask="url(#path-1-inside-1_195_1021)"/>
<path d="M34.2086 23.7814V25.6382H31.7264V38.0172H34.2086V39.8741H35.4498V38.0172H36.6909V39.8741H37.932V38.0172H38.8629C40.7415 38.0172 42.276 36.4868 42.276 34.613C42.276 33.3243 41.556 32.1928 40.4919 31.615C41.2094 30.9888 41.6554 30.0627 41.6554 29.0424C41.6554 27.1687 40.121 25.6382 38.2423 25.6382H37.932V23.7814H36.6909V25.6382H35.4498V23.7814H34.2086ZM32.9675 26.8761H38.2423C39.4495 26.8761 40.4143 27.8384 40.4143 29.0424C40.4143 30.2465 39.4495 31.2088 38.2423 31.2088H32.9675V26.8761ZM32.9675 32.4467H38.8629C40.0701 32.4467 41.0349 33.4089 41.0349 34.613C41.0349 35.817 40.0701 36.7793 38.8629 36.7793H32.9675V32.4467Z" stroke="url(#paint3_linear_195_1021)" stroke-width="8" mask="url(#path-1-inside-1_195_1021)"/>
<path d="M61.2442 23.7814C61.182 23.7824 61.1214 23.8007 61.069 23.8342C61.0167 23.8678 60.9747 23.9152 60.9477 23.9712L56.2801 31.3064C56.2724 31.3178 56.2654 31.3296 56.2591 31.3418C56.2589 31.342 56.2587 31.3422 56.2585 31.3424C56.2536 31.3522 56.2493 31.3623 56.2454 31.3725C56.2373 31.3935 56.2314 31.4152 56.2277 31.4373C56.224 31.4594 56.2224 31.4817 56.2231 31.5041C56.2231 31.5043 56.2231 31.5045 56.2231 31.5047C56.2235 31.5157 56.2243 31.5266 56.2258 31.5374C56.2262 31.5396 56.2266 31.5418 56.2271 31.544C56.2298 31.5606 56.2337 31.577 56.2388 31.5931C56.2397 31.5961 56.2406 31.5992 56.2415 31.6022C56.2415 31.6025 56.2415 31.6027 56.2415 31.6029C56.2451 31.6133 56.2492 31.6236 56.2539 31.6336C56.2539 31.6339 56.2539 31.6341 56.2539 31.6343C56.2587 31.6442 56.2639 31.6538 56.2696 31.6631C56.2696 31.6633 56.2696 31.6635 56.2696 31.6638C56.2753 31.6732 56.2814 31.6824 56.2879 31.6912C56.2911 31.6952 56.2944 31.6992 56.2977 31.703C56.3015 31.7079 56.3055 31.7127 56.3095 31.7174C56.3168 31.7256 56.3244 31.7335 56.3324 31.741C56.3327 31.7412 56.3329 31.7414 56.3331 31.7416C56.3494 31.7564 56.3672 31.7696 56.3861 31.7809C56.3863 31.7811 56.3865 31.7813 56.3868 31.7816C56.3885 31.7824 56.3902 31.7833 56.392 31.7842C56.3922 31.7844 56.3924 31.7846 56.3926 31.7848L61.0413 34.4413C61.1001 34.4878 61.1729 34.5131 61.2479 34.5134C61.3229 34.5136 61.3958 34.4887 61.4549 34.4426L66.0996 31.7881C66.102 31.7868 66.1044 31.7855 66.1068 31.7842C66.1142 31.7799 66.1214 31.7753 66.1284 31.7704C66.1306 31.7689 66.1328 31.7674 66.135 31.7659C66.1365 31.7646 66.138 31.7632 66.1395 31.7619C66.1465 31.7572 66.1533 31.7521 66.1598 31.7469C66.1603 31.7464 66.1607 31.746 66.1611 31.7456C66.1625 31.7445 66.1638 31.7434 66.1651 31.7423C66.1721 31.7358 66.1789 31.7291 66.1854 31.722C66.193 31.7139 66.2002 31.7053 66.207 31.6965C66.2135 31.6878 66.2196 31.6789 66.2253 31.6696C66.2255 31.6694 66.2257 31.6692 66.2259 31.669C66.2262 31.6683 66.2264 31.6677 66.2266 31.667C66.2322 31.6583 66.2375 31.6494 66.2423 31.6402C66.2423 31.64 66.2423 31.6398 66.2423 31.6395C66.2461 31.6318 66.2496 31.624 66.2528 31.616C66.2537 31.6136 66.2545 31.6112 66.2554 31.6088C66.2563 31.6062 66.2572 31.6036 66.258 31.6009C66.2605 31.5934 66.2626 31.5857 66.2645 31.578C66.2648 31.5776 66.265 31.5772 66.2652 31.5767C66.2654 31.5761 66.2656 31.5754 66.2659 31.5747C66.2683 31.5646 66.2703 31.5543 66.2717 31.544C66.2732 31.5355 66.2743 31.527 66.275 31.5185C66.275 31.5176 66.275 31.5167 66.275 31.5158C66.2757 31.5056 66.2759 31.4953 66.2757 31.4851C66.2754 31.4785 66.275 31.472 66.2744 31.4655C66.2739 31.4585 66.2733 31.4515 66.2724 31.4445C66.2724 31.4443 66.2724 31.4441 66.2724 31.4439C66.2722 31.4428 66.272 31.4417 66.2717 31.4406C66.2702 31.4311 66.2682 31.4217 66.2659 31.4124C66.2659 31.412 66.2659 31.4116 66.2659 31.4111C66.2638 31.4028 66.2614 31.3945 66.2587 31.3863C66.2578 31.3839 66.2569 31.3815 66.256 31.3791C66.255 31.3764 66.2539 31.3738 66.2528 31.3712C66.25 31.3637 66.2469 31.3563 66.2436 31.349C66.2434 31.3487 66.2432 31.3485 66.243 31.3483C66.2427 31.3476 66.2425 31.347 66.2423 31.3463C66.2375 31.3369 66.2323 31.3278 66.2266 31.3189C66.2259 31.3178 66.2253 31.3167 66.2246 31.3156C66.2242 31.3147 66.2238 31.3138 66.2233 31.313L66.2128 31.2973L61.5498 23.9692C61.5219 23.9122 61.4783 23.8642 61.4242 23.831C61.3701 23.7977 61.3077 23.7805 61.2442 23.7814ZM60.9143 25.2723V29.2612L57.4241 30.7567L60.9143 25.2723ZM61.5845 25.2723L65.0747 30.7567L61.5845 29.2612V25.2723ZM60.9143 29.9903V33.5957L57.3095 31.5361L60.9143 29.9903ZM61.5845 29.9903L65.1893 31.5361L61.5845 33.5957V29.9903ZM65.9432 32.8326C65.884 32.8323 65.8257 32.8476 65.7744 32.8771L61.2494 35.4629L56.7245 32.8771C56.6757 32.8494 56.6208 32.8343 56.5648 32.8333C56.5022 32.8321 56.4406 32.8484 56.3868 32.8804C56.333 32.9124 56.2893 32.9588 56.2606 33.0144C56.2318 33.07 56.2192 33.1325 56.2242 33.1949C56.2291 33.2572 56.2514 33.317 56.2886 33.3673L60.9575 39.7038C60.9867 39.7554 61.029 39.7984 61.0802 39.8283C61.1314 39.8582 61.1896 39.874 61.2489 39.8741C61.3082 39.8741 61.3664 39.8585 61.4177 39.8287C61.4689 39.7989 61.5114 39.756 61.5406 39.7045L66.2102 33.3673C66.2471 33.3176 66.2695 33.2586 66.2749 33.197C66.2803 33.1353 66.2685 33.0734 66.2408 33.018C66.2132 32.9626 66.1707 32.916 66.1182 32.8833C66.0657 32.8506 66.0051 32.833 65.9432 32.8326ZM57.769 34.2463L60.9143 36.0441V38.5153L57.769 34.2463ZM64.7298 34.2463L61.5845 38.5153V36.0441L64.7298 34.2463Z" stroke="url(#paint4_linear_195_1021)" stroke-width="8" mask="url(#path-1-inside-1_195_1021)"/>
<defs>
<linearGradient id="paint0_linear_195_1021" x1="54.5608" y1="-21.7241" x2="-42.6912" y2="68.0628" gradientUnits="userSpaceOnUse">
<stop stop-color="#44F26B"/>
<stop offset="1" stop-color="#3B53A9"/>
</linearGradient>
<linearGradient id="paint1_linear_195_1021" x1="54.5608" y1="-21.7241" x2="-42.6912" y2="68.0628" gradientUnits="userSpaceOnUse">
<stop stop-color="#44F26B"/>
<stop offset="1" stop-color="#3B53A9"/>
</linearGradient>
<linearGradient id="paint2_linear_195_1021" x1="54.5608" y1="-21.7241" x2="-42.6912" y2="68.0628" gradientUnits="userSpaceOnUse">
<stop stop-color="#44F26B"/>
<stop offset="1" stop-color="#3B53A9"/>
</linearGradient>
<linearGradient id="paint3_linear_195_1021" x1="54.5608" y1="-21.7241" x2="-42.6912" y2="68.0628" gradientUnits="userSpaceOnUse">
<stop stop-color="#44F26B"/>
<stop offset="1" stop-color="#3B53A9"/>
</linearGradient>
<linearGradient id="paint4_linear_195_1021" x1="54.5608" y1="-21.7241" x2="-42.6912" y2="68.0628" gradientUnits="userSpaceOnUse">
<stop stop-color="#44F26B"/>
<stop offset="1" stop-color="#3B53A9"/>
</linearGradient>
</defs>
</svg>
