<svg width="52" height="52" viewBox="0 0 52 52" fill="none" xmlns="http://www.w3.org/2000/svg">
<path d="M38.2321 26.8869H25.1137V13.7685C25.1137 13.4013 24.8158 13.1035 24.4487 13.1035C16.482 13.1035 10 19.5851 10 27.5521C10 35.5188 16.4816 42 24.4487 42C32.4153 41.9997 38.8973 35.5186 38.8973 27.5521C38.8973 27.185 38.5992 26.8869 38.2321 26.8869ZM24.4485 40.6696C17.2149 40.6696 11.3302 34.785 11.3302 27.552C11.3302 20.5415 16.8576 14.7979 23.7834 14.4503L23.7837 27.5528C23.7837 27.9199 24.0816 28.2178 24.4487 28.2178H37.5505C37.2028 35.1433 31.4592 40.6703 24.4487 40.6703L24.4485 40.6696ZM27.5732 10.0001H27.5723C27.3963 10.0001 27.2274 10.0703 27.1021 10.1944C26.9772 10.319 26.907 10.4882 26.907 10.6651V24.4479C26.907 24.815 27.2048 25.1129 27.572 25.1129H41.3357C41.7028 25.1129 42.0007 24.815 42.0007 24.4479C42.001 16.4923 35.5284 10.0111 27.5726 10L27.5732 10.0001ZM28.2373 23.7829V11.3478C34.9317 11.6936 40.3176 17.0877 40.6541 23.7829H28.2373Z" fill="white"/>
<rect x="0.5" y="0.5" width="51" height="51" rx="11.5" stroke="url(#paint0_linear_1255_1649)"/>
<defs>
<linearGradient id="paint0_linear_1255_1649" x1="29.125" y1="68.5455" x2="29.125" y2="7.56364" gradientUnits="userSpaceOnUse">
<stop stop-color="#4461C6"/>
<stop offset="1" stop-color="#E82134"/>
</linearGradient>
</defs>
</svg>
