<svg width="52" height="52" viewBox="0 0 52 52" fill="none" xmlns="http://www.w3.org/2000/svg">
<path d="M28.4894 16.4C29.1496 16.4 29.7826 16.1379 30.2493 15.6711C30.7161 15.2044 30.9782 14.5712 30.9782 13.9112V12.4888C30.9782 11.8288 30.7161 11.1957 30.2493 10.7289C29.7826 10.2621 29.1497 10 28.4894 10H14.2672C13.6071 10 12.974 10.2622 12.5072 10.7289C12.0404 11.1957 11.7783 11.8288 11.7783 12.4888V13.9112C11.7783 14.5712 12.0405 15.2043 12.5072 15.6711C12.974 16.1379 13.6071 16.4 14.2672 16.4H20.5606V19.529V19.5287C20.5606 19.906 20.7104 20.2678 20.977 20.5344C21.2438 20.8013 21.6055 20.9511 21.9827 20.9511H28.7383C28.9268 20.9511 29.1076 21.026 29.241 21.1594C29.3744 21.2926 29.4493 21.4737 29.4493 21.6622V23.8666H23.5115C22.8513 23.8666 22.2184 24.129 21.7516 24.5957C21.2848 25.0625 21.0227 25.6954 21.0227 26.3556V27.7777C21.0227 28.4379 21.2849 29.0709 21.7516 29.5377C22.2184 30.0045 22.8513 30.2666 23.5115 30.2666H35.1382V38.3733C35.1382 38.562 35.0631 38.7428 34.9299 38.8762C34.7965 39.0094 34.6157 39.0843 34.4269 39.0843H32.0447V38.0888C32.0447 37.4288 31.7825 36.7956 31.3158 36.3288C30.849 35.8621 30.2161 35.5999 29.5559 35.5999H15.6892C15.029 35.5999 14.396 35.8621 13.9292 36.3288C13.4625 36.7956 13.2001 37.4288 13.2001 38.0888V39.5111C13.2001 40.1711 13.4625 40.8043 13.9292 41.2711C14.396 41.7378 15.0289 41.9999 15.6892 41.9999H29.5559C30.1695 42.0039 30.763 41.7812 31.2223 41.3742C31.6819 40.9675 31.9745 40.4052 32.0447 39.7956H34.4269C34.8042 39.7956 35.166 39.6458 35.4326 39.3789C35.6995 39.1123 35.8493 38.7505 35.8493 38.3732V30.2665H37.7338C38.3938 30.2665 39.0269 30.0044 39.4937 29.5376C39.9605 29.0709 40.2226 28.4379 40.2226 27.7777V26.3556C40.2226 25.6954 39.9604 25.0624 39.4937 24.5957C39.0269 24.1289 38.3938 23.8665 37.7338 23.8665H30.1604V21.6621C30.1604 21.2849 30.0106 20.9233 29.744 20.6564C29.4771 20.3898 29.1155 20.24 28.7383 20.24H21.9827C21.5901 20.24 21.2717 19.9215 21.2717 19.5287V16.4L28.4894 16.4ZM31.3339 39.5112C31.3339 39.9827 31.1467 40.4348 30.8133 40.7681C30.4798 41.1017 30.0276 41.289 29.5561 41.289H15.6894C15.2179 41.289 14.7656 41.1017 14.4322 40.7681C14.0989 40.4348 13.9116 39.9827 13.9116 39.5112V38.0888C13.9116 37.6173 14.0989 37.1652 14.4322 36.8319C14.7656 36.4985 15.2179 36.311 15.6894 36.311H29.5561C30.0276 36.311 30.4797 36.4985 30.8133 36.8319C31.1467 37.1652 31.3339 37.6173 31.3339 38.0888V39.5112ZM39.5117 26.3556V27.7777C39.5117 28.2492 39.3245 28.7013 38.9909 29.0349C38.6576 29.3682 38.2054 29.5555 37.7339 29.5555H23.5117C23.0402 29.5555 22.5881 29.3682 22.2545 29.0349C21.9211 28.7013 21.7339 28.2492 21.7339 27.7777V26.3556C21.7339 25.8841 21.9211 25.4317 22.2545 25.0984C22.588 24.7651 23.0402 24.5778 23.5117 24.5778H37.7339C38.2054 24.5778 38.6576 24.7651 38.9909 25.0984C39.3245 25.4317 39.5117 25.8841 39.5117 26.3556ZM12.4894 13.9111V12.4888C12.4894 12.0173 12.6767 11.5651 13.0103 11.2318C13.3436 10.8982 13.7957 10.711 14.2672 10.711H28.4895C28.961 10.711 29.4131 10.8982 29.7467 11.2318C30.08 11.5651 30.2673 12.0173 30.2673 12.4888V13.9111C30.2673 14.3826 30.08 14.8347 29.7467 15.1681C29.4131 15.5014 28.961 15.6889 28.4895 15.6889H14.2672C13.7957 15.6889 13.3436 15.5014 13.0103 15.1681C12.6767 14.8347 12.4894 14.3826 12.4894 13.9111Z" fill="white" stroke="white"/>
<rect x="0.5" y="0.5" width="51" height="51" rx="11.5" stroke="url(#paint0_linear_1223_21037)"/>
<defs>
<linearGradient id="paint0_linear_1223_21037" x1="29.125" y1="68.5455" x2="29.125" y2="7.56364" gradientUnits="userSpaceOnUse">
<stop stop-color="#4461C6"/>
<stop offset="1" stop-color="#E82134"/>
</linearGradient>
</defs>
</svg>
