<svg width="52" height="52" viewBox="0 0 52 52" fill="none" xmlns="http://www.w3.org/2000/svg">
<path d="M27.4489 17.6092L27.2162 18.723C29.521 19.2061 31.3155 21.008 31.7902 23.3158L32.9042 23.0883C32.3409 20.3347 30.1982 18.1859 27.4489 17.6093V17.6092Z" fill="white"/>
<path d="M26.0007 14.2032C26.3154 14.2032 26.5692 13.9496 26.5692 13.6347V10.5685C26.5692 10.2537 26.3157 10 26.0007 10C25.686 10 25.4322 10.2535 25.4322 10.5685V13.6358C25.4322 13.9496 25.686 14.2032 26.0007 14.2032Z" fill="white"/>
<path d="M20.0727 15.3761C20.1787 15.5589 20.3688 15.6598 20.5662 15.6598C20.6629 15.6598 20.7615 15.6359 20.8499 15.5828C21.1222 15.4269 21.2156 15.0778 21.0577 14.8055L19.5251 12.152C19.3671 11.8797 19.0211 11.7841 18.7479 11.943C18.4756 12.101 18.3821 12.4479 18.54 12.7202L20.0727 15.3761Z" fill="white"/>
<path d="M16.8705 18.5788L14.2137 17.0453C13.9426 16.8873 13.5933 16.982 13.4365 17.254C13.2795 17.5263 13.3741 17.8733 13.6452 18.0312L16.3021 19.5638C16.3913 19.6167 16.489 19.6408 16.5848 19.6408C16.7812 19.6408 16.9735 19.5369 17.0783 19.3572C17.2354 19.0849 17.1428 18.7358 16.8705 18.5788Z" fill="white"/>
<path d="M15.1291 23.9375H12.0626C11.7488 23.9375 11.4941 24.1931 11.4941 24.508C11.4941 24.8228 11.7488 25.0765 12.0626 25.0765H15.1288C15.4436 25.0765 15.6982 24.823 15.6982 24.508C15.6985 24.1931 15.4438 23.9375 15.1291 23.9375Z" fill="white"/>
<path d="M31.1515 15.5839C31.242 15.6368 31.3396 15.6609 31.4352 15.6609C31.6316 15.6609 31.8227 15.5591 31.9287 15.3773L33.4635 12.7205C33.6193 12.4482 33.5268 12.1012 33.2547 11.9432C32.9815 11.7853 32.6334 11.8799 32.4775 12.152L30.9449 14.8067C30.7858 15.0778 30.8795 15.4271 31.1515 15.5839Z" fill="white"/>
<path d="M38.5628 17.2536C38.4069 16.9813 38.0588 16.8857 37.7855 17.0448L35.1308 18.5796C34.8585 18.7354 34.765 19.0845 34.923 19.3568C35.0278 19.5377 35.2192 19.6404 35.4165 19.6404C35.5133 19.6404 35.6109 19.6166 35.6993 19.5634L38.355 18.0308C38.6261 17.8729 38.7198 17.5259 38.5628 17.2536Z" fill="white"/>
<path d="M39.9391 23.9375H36.8729C36.5581 23.9375 36.3035 24.1931 36.3035 24.508C36.3035 24.8228 36.5581 25.0765 36.8729 25.0765H39.9391C40.2538 25.0765 40.5076 24.823 40.5076 24.508C40.5073 24.1931 40.2538 23.9375 39.9391 23.9375Z" fill="white"/>
<path d="M26.0007 15.5631C21.0681 15.5631 17.0552 19.5749 17.0552 24.5063C17.0552 27.5363 18.3884 29.1946 19.4606 30.5275C19.7702 30.9109 20.0602 31.2725 20.3074 31.6475C20.8977 32.54 21.8911 34.0727 22.2983 36.0376C21.2467 36.1126 20.4125 36.9812 20.4125 38.0513C20.4125 39.0924 21.201 39.9506 22.2121 40.0661V40.7603C22.2121 41.4441 22.7689 42 23.4527 42H28.5483C29.2321 42 29.788 41.4441 29.788 40.7603V40.0661C30.799 39.9509 31.5867 39.0904 31.5867 38.0513C31.5867 36.9821 30.7513 36.1114 29.6997 36.0376C30.107 34.0706 31.1003 32.5391 31.6936 31.6434C31.9367 31.2746 32.2278 30.9109 32.5362 30.5294C33.6096 29.1962 34.9428 27.5358 34.9428 24.5057C34.9437 19.5748 30.9319 15.5626 26.0002 15.5626L26.0007 15.5631ZM28.5494 40.8642H23.4538C23.3947 40.8642 23.3499 40.8174 23.3499 40.7603V40.0787H28.6534V40.7603C28.6534 40.8176 28.6067 40.8642 28.5494 40.8642ZM30.4511 38.0515C30.4511 38.5409 30.051 38.9399 29.5607 38.9399H22.441C21.9495 38.9399 21.5506 38.5398 21.5506 38.0515C21.5506 37.5601 21.9507 37.1611 22.441 37.1611H29.5607C30.051 37.16 30.4511 37.5601 30.4511 38.0515ZM31.6511 29.8162C31.3259 30.2204 31.0205 30.6038 30.7428 31.0215C30.1307 31.9474 28.9827 33.7282 28.5557 36.0237H23.4466C23.0196 33.7285 21.8692 31.9444 21.2562 31.0174C20.9818 30.6018 20.6743 30.2193 20.3479 29.8141C19.2891 28.4965 18.1948 27.1355 18.1948 24.5076C18.1948 20.2027 21.6975 16.6998 26.0027 16.6998C30.3079 16.6998 33.8094 20.2024 33.8094 24.5076C33.8075 27.1373 32.7114 28.4986 31.6515 29.8162H31.6511Z" fill="white"/>
<rect x="0.5" y="0.5" width="51" height="51" rx="11.5" stroke="url(#paint0_linear_1255_1540)"/>
<defs>
<linearGradient id="paint0_linear_1255_1540" x1="29.125" y1="68.5455" x2="29.125" y2="7.56364" gradientUnits="userSpaceOnUse">
<stop stop-color="#4461C6"/>
<stop offset="1" stop-color="#E82134"/>
</linearGradient>
</defs>
</svg>
