<svg width="52" height="52" viewBox="0 0 52 52" fill="none" xmlns="http://www.w3.org/2000/svg">
<path d="M36.0839 42H15.915C14.7379 42 13.7842 41.0426 13.7842 39.8691V16.2432C13.7842 15.066 14.7416 14.1123 15.915 14.1123H20.7133C21.0225 14.1123 21.272 14.3619 21.272 14.6711V15.9638H30.7271V14.6711C30.7271 14.3619 30.9767 14.1123 31.2859 14.1123H36.0841C36.6541 14.1123 37.1868 14.3321 37.5891 14.7382C37.9914 15.1405 38.215 15.6769 38.215 16.2469V39.8688C38.215 41.0423 37.2575 41.9996 36.0841 41.9996L36.0839 42ZM15.915 15.2303C15.3562 15.2303 14.9018 15.6848 14.9018 16.2436V39.8655C14.9018 40.4243 15.3562 40.8787 15.915 40.8787H36.0798C36.6386 40.8787 37.0931 40.4243 37.0931 39.8655V16.2436C37.0931 15.9716 36.9888 15.7183 36.7951 15.5246C36.6051 15.3346 36.3481 15.2266 36.0798 15.2266H31.8442V16.0461C31.8442 16.6161 31.3822 17.078 30.8123 17.078H21.1863C20.6163 17.078 20.1544 16.616 20.1544 16.0461V15.2266H15.915V15.2303Z" fill="white"/>
<path d="M30.8129 17.0818H21.1903C20.6203 17.0818 20.1584 16.6199 20.1584 16.0499V13.2932C20.1584 12.7232 20.6203 12.2576 21.1903 12.2576H23.2392C23.4999 10.9723 24.6398 10 25.9996 10C27.3631 10 28.503 10.9723 28.76 12.2576H30.8089C31.3789 12.2576 31.8408 12.7232 31.8408 13.2932V16.0499C31.8445 16.6199 31.3826 17.0818 30.8126 17.0818H30.8129ZM21.2727 15.9642H30.7277V13.3751H28.2578C27.9486 13.3751 27.699 13.1255 27.699 12.8163C27.699 11.8776 26.9353 11.1176 26.0003 11.1176C25.0652 11.1176 24.3015 11.8813 24.3015 12.8163C24.3015 13.1255 24.0519 13.3751 23.7427 13.3751H21.2728L21.2727 15.9642Z" fill="white"/>
<path d="M25.9995 13.5165C25.6121 13.5165 25.2991 13.2036 25.2991 12.8162C25.2991 12.4288 25.6121 12.1159 25.9995 12.1159C26.3869 12.1159 26.6998 12.4288 26.6998 12.8162C26.6998 13.2036 26.3869 13.5165 25.9995 13.5165ZM25.9995 12.399C25.7685 12.399 25.5822 12.5852 25.5822 12.8162C25.5822 13.0472 25.7685 13.2334 25.9995 13.2334C26.2305 13.2334 26.4167 13.0472 26.4167 12.8162C26.4167 12.589 26.2305 12.399 25.9995 12.399Z" fill="white"/>
<path d="M24.3414 25.8733L23.5517 25.0835L24.9412 23.694L23.5517 22.3045L24.3414 21.5148L26.1258 23.2992C26.3456 23.5189 26.3456 23.8729 26.1258 24.0889L24.3414 25.8733Z" fill="white"/>
<path d="M18.7168 30.4258L17.927 29.636L19.7114 27.8516C19.8157 27.7473 19.9573 27.6877 20.1063 27.6877C20.2553 27.6877 20.3969 27.7473 20.5012 27.8516L22.2856 29.636L21.4921 30.4258L20.1026 29.0363L18.7168 30.4258Z" fill="white"/>
<path d="M31.1255 30.9959C30.9839 30.9959 30.8387 30.9401 30.7306 30.832L28.9462 29.0476L29.736 28.2578L31.1255 29.6474L32.515 28.2578L33.3048 29.0476L31.5204 30.832C31.4124 30.9401 31.2671 30.9959 31.1255 30.9959Z" fill="white"/>
<path d="M21.9613 23.1356H25.7314V24.2532H21.9613V23.1356Z" fill="white"/>
<path d="M19.5472 28.2466H20.6648V33.2162H19.5472V28.2466Z" fill="white"/>
<path d="M30.5669 26.2643H31.6845V30.4367H30.5669V26.2643Z" fill="white"/>
<path d="M21.9614 37.485H18.2509C17.9417 37.485 17.6922 37.2354 17.6922 36.9262V33.2158C17.6922 32.9066 17.9417 32.657 18.2509 32.657H21.9614C22.2706 32.657 22.5202 32.9066 22.5202 33.2158V36.9262C22.5202 37.2354 22.2668 37.485 21.9614 37.485ZM18.8097 36.3675H21.4025V33.7747H18.8097V36.3675Z" fill="white"/>
<path d="M20.1058 26.1083C18.7759 26.1083 17.6918 25.0243 17.6918 23.6943C17.6918 22.3644 18.7758 21.2803 20.1058 21.2803C21.4357 21.2803 22.5198 22.3643 22.5198 23.6943C22.5198 25.0242 21.4357 26.1083 20.1058 26.1083ZM20.1058 22.3979C19.3905 22.3979 18.8094 22.9791 18.8094 23.6943C18.8094 24.4096 19.3905 24.9907 20.1058 24.9907C20.821 24.9907 21.4022 24.4096 21.4022 23.6943C21.4022 22.9791 20.821 22.3979 20.1058 22.3979Z" fill="white"/>
<path d="M31.1255 26.8754C30.9839 26.8754 30.8386 26.8195 30.7306 26.7115L28.108 24.0889C28.0037 23.9845 27.9441 23.843 27.9441 23.694C27.9441 23.545 28.0037 23.4034 28.108 23.2991L30.7306 20.6727C30.8349 20.5684 30.9765 20.5088 31.1255 20.5088C31.2745 20.5088 31.4161 20.5684 31.5204 20.6727L34.143 23.2953C34.3628 23.5151 34.3628 23.869 34.143 24.0851L31.5204 26.7077C31.4123 26.8195 31.2708 26.8754 31.1255 26.8754ZM29.2927 23.694L31.1255 25.5268L32.9583 23.694L31.1255 21.8611L29.2927 23.694Z" fill="white"/>
<path d="M31.1255 37.485C29.7956 37.485 28.7115 36.401 28.7115 35.071C28.7115 33.7411 29.7955 32.657 31.1255 32.657C32.4555 32.657 33.5395 33.741 33.5395 35.071C33.5395 36.4009 32.4555 37.485 31.1255 37.485ZM31.1255 33.7746C30.4103 33.7746 29.8291 34.3557 29.8291 35.071C29.8291 35.7862 30.4103 36.3674 31.1255 36.3674C31.8408 36.3674 32.4219 35.7862 32.4219 35.071C32.4219 34.3557 31.8408 33.7746 31.1255 33.7746Z" fill="white"/>
<rect x="0.5" y="0.5" width="51" height="51" rx="11.5" stroke="url(#paint0_linear_1221_20648)"/>
<defs>
<linearGradient id="paint0_linear_1221_20648" x1="29.125" y1="68.5455" x2="29.125" y2="7.56364" gradientUnits="userSpaceOnUse">
<stop stop-color="#4461C6"/>
<stop offset="1" stop-color="#E82134"/>
</linearGradient>
</defs>
</svg>
