<svg width="52" height="52" viewBox="0 0 52 52" fill="none" xmlns="http://www.w3.org/2000/svg">
<path d="M36.6862 26C36.6862 27.2091 37.669 28.1916 38.8779 28.1916C40.0867 28.1916 41.0692 27.2088 41.0695 26H36.6862ZM36.6862 26C36.6862 24.7912 37.6687 23.8084 38.8779 23.8084M36.6862 26L38.8779 23.8084M38.8779 23.8084C40.0867 23.8084 41.0694 24.7909 41.0695 26L38.8779 23.8084ZM15.3134 26C15.3134 24.7909 14.3306 23.8084 13.1217 23.8084C11.9129 23.8084 10.9304 24.7912 10.9301 26H15.3134ZM15.3134 26C15.3134 27.2088 14.3309 28.1916 13.1217 28.1916M15.3134 26L13.1217 28.1916M13.1217 28.1916C11.9129 28.1916 10.9302 27.2092 10.9301 26L13.1217 28.1916ZM21.1669 26C21.1669 28.6661 23.3336 30.8329 25.9997 30.8329C28.6659 30.8329 30.8326 28.6661 30.8326 26C30.8326 23.3339 28.6659 21.1671 25.9997 21.1671C23.3336 21.1671 21.1669 23.3339 21.1669 26ZM25.9997 22.2476C28.0671 22.2476 29.7522 23.9327 29.7522 26C29.7522 28.0673 28.0671 29.7524 25.9997 29.7524C23.9324 29.7524 22.2473 28.0673 22.2473 26C22.2473 23.9327 23.9324 22.2476 25.9997 22.2476ZM38.8779 22.728C37.2583 22.728 35.9104 23.9121 35.6536 25.4597H32.6339C32.3366 25.4597 32.0935 25.7023 32.0935 26C32.0935 26.2973 32.3362 26.5404 32.6339 26.5404H35.6533C35.9102 28.088 37.2583 29.272 38.8776 29.272C40.6813 29.272 42.1496 27.8038 42.1496 26C42.1499 24.1963 40.6816 22.728 38.8779 22.728ZM13.1217 29.272C14.7413 29.272 16.0892 28.0879 16.346 26.5403H19.3657C19.663 26.5403 19.9061 26.2976 19.9061 26C19.9061 25.7027 19.6634 25.4596 19.3657 25.4596H16.3463C16.0894 23.912 14.7413 22.728 13.122 22.728C11.3183 22.728 9.85 24.1962 9.85 26C9.84971 27.8037 11.318 29.272 13.1217 29.272ZM25.9997 19.9061C26.297 19.9061 26.5401 19.6634 26.5401 19.3657V16.3463C28.0877 16.0894 29.2717 14.7413 29.2717 13.122C29.2717 11.3183 27.8035 9.85 25.9997 9.85C24.1959 9.85 22.7277 11.3182 22.7277 13.122C22.7277 14.7415 23.9117 16.0894 25.4593 16.3463V19.366C25.4593 19.6635 25.7026 19.9061 25.9997 19.9061ZM23.8081 13.122C23.8081 11.9132 24.7906 10.9304 25.9997 10.9304C27.2085 10.9304 28.1913 11.9129 28.1913 13.122C28.1913 14.3308 27.2089 15.3136 25.9997 15.3136C24.7909 15.3136 23.8081 14.3309 23.8081 13.122ZM25.9998 32.0939C25.7025 32.0939 25.4594 32.3366 25.4594 32.6343V35.6537C23.9118 35.9106 22.7278 37.2587 22.7278 38.878C22.7278 40.6817 24.196 42.15 25.9998 42.15C27.8036 42.15 29.2718 40.6818 29.2718 38.878C29.2718 37.2585 28.0878 35.9106 26.5402 35.6537V32.634C26.5402 32.3365 26.297 32.0939 25.9998 32.0939ZM28.1914 38.878C28.1914 40.0868 27.2089 41.0696 25.9998 41.0696C24.791 41.0696 23.8082 40.0871 23.8082 38.878C23.8082 37.6692 24.7907 36.6864 25.9998 36.6864C27.2086 36.6864 28.1914 37.6691 28.1914 38.878Z" fill="white" stroke="white" stroke-width="0.3"/>
<rect x="0.5" y="0.5" width="51" height="51" rx="11.5" stroke="url(#paint0_linear_1255_1662)"/>
<defs>
<linearGradient id="paint0_linear_1255_1662" x1="29.125" y1="68.5455" x2="29.125" y2="7.56364" gradientUnits="userSpaceOnUse">
<stop stop-color="#4461C6"/>
<stop offset="1" stop-color="#E82134"/>
</linearGradient>
</defs>
</svg>
