<svg width="52" height="52" viewBox="0 0 52 52" fill="none" xmlns="http://www.w3.org/2000/svg">
<path d="M31.9904 25.3335L37.6096 19.7154C37.71 19.6145 37.7689 19.4822 37.7822 19.3419C37.9171 19.3285 38.0489 19.2729 38.1521 19.1693C39.6201 17.7012 39.6201 15.3126 38.1521 13.8446C37.441 13.1329 36.4955 12.7411 35.4896 12.7411C34.4836 12.7411 33.5381 13.1331 32.827 13.8446C32.7215 13.9501 32.6657 14.0852 32.6538 14.2227C32.5162 14.2355 32.3827 14.2888 32.2831 14.3886L26.6649 20.0078L18.8286 12.1714C18.6003 11.9425 18.1958 11.9432 17.9674 12.1714L12.1764 17.9646C11.9386 18.2024 11.9386 18.5878 12.1764 18.8253L20.0111 26.6617L14.9317 31.7413C14.8693 31.8038 14.8213 31.8787 14.7912 31.9613L12.9147 37.055C12.5342 38.0847 12.8788 38.6402 13.1181 38.8795C13.2803 39.0421 13.5879 39.2529 14.0911 39.2529C14.3291 39.2529 14.6111 39.2058 14.9415 39.0833L20.0233 37.2112C20.1076 37.1824 20.187 37.1342 20.2543 37.0669L25.3359 31.9864L33.1711 39.8216C33.2854 39.9359 33.4401 40 33.6015 40C33.7631 40 33.9181 39.9359 34.0323 39.8216L39.8238 34.0285C40.0616 33.7907 40.0616 33.4053 39.8238 33.1677L31.9904 25.3335ZM35.4895 13.9592C36.1698 13.9592 36.8097 14.2244 37.2909 14.7059C38.2841 15.6993 38.2841 17.3154 37.2909 18.309C37.2514 18.3485 37.2206 18.3933 37.1945 18.4398L33.5574 14.8023C33.6039 14.7757 33.6487 14.7449 33.6882 14.7055C34.1693 14.2243 34.809 13.9592 35.4895 13.9592ZM19.5091 24.4372L21.0754 22.8705C21.3132 22.6326 21.3132 22.2471 21.0754 22.0093C20.8376 21.7719 20.4522 21.7714 20.2142 22.0093L18.6481 23.576L16.5379 21.4653L18.1033 19.8998C18.3411 19.662 18.3411 19.2766 18.1033 19.039C17.8655 18.8012 17.4799 18.8012 17.2426 19.039L15.6771 20.6045L13.4678 18.3949L18.3982 13.4628L25.8041 20.8687L20.8725 25.8005L19.5091 24.4372ZM19.8248 35.7751L17.822 33.7718C17.5846 33.534 17.1986 33.534 16.9612 33.7718C16.7234 34.0096 16.7234 34.395 16.9612 34.6326L18.7218 36.3934L14.5206 37.9413C14.1721 38.0698 14.0023 38.033 13.9823 38.022C13.9653 37.9959 13.9282 37.826 14.0573 37.4765V37.4759L15.8875 32.5077L21.2914 27.1039C21.2954 27.1003 21.2999 27.0975 21.3039 27.0939C21.3079 27.0903 21.3103 27.0854 21.3139 27.0814L27.0701 21.3246C27.079 21.3168 27.089 21.3108 27.0975 21.3021C27.106 21.2936 27.1117 21.2836 27.12 21.2747L32.7131 15.6811L36.3173 19.2857L24.9267 30.6752C24.9195 30.682 24.9108 30.6867 24.9036 30.6941C24.8963 30.7013 24.8915 30.7096 24.8847 30.717L19.8248 35.7751ZM33.6017 38.5304L31.3909 36.3199L32.9572 34.7536C33.195 34.5158 33.195 34.1304 32.9572 33.8928C32.7199 33.655 32.3338 33.655 32.0965 33.8928L30.5302 35.4591L28.4205 33.3491L29.9873 31.7823C30.2251 31.5445 30.2251 31.1592 29.9873 30.9216C29.7499 30.6838 29.3639 30.6838 29.1265 30.9216L27.5598 32.4883L26.1971 31.1258L31.1294 26.1944L38.5325 33.5981L33.6017 38.5304Z" fill="white"/>
<rect x="0.5" y="0.5" width="51" height="51" rx="11.5" stroke="url(#paint0_linear_1255_1546)"/>
<defs>
<linearGradient id="paint0_linear_1255_1546" x1="29.125" y1="68.5455" x2="29.125" y2="7.56364" gradientUnits="userSpaceOnUse">
<stop stop-color="#4461C6"/>
<stop offset="1" stop-color="#E82134"/>
</linearGradient>
</defs>
</svg>
