<svg width="52" height="52" viewBox="0 0 52 52" fill="none" xmlns="http://www.w3.org/2000/svg">
<path d="M38.2579 7H13.7418C13.4036 7 13.1289 7.27471 13.1289 7.6129V29.6774C13.1289 30.0164 13.4036 30.2903 13.7418 30.2903H18.9679C20.1833 32.0278 22.0225 33.2954 24.1612 33.7642V35.1935H23.5483C23.2101 35.1935 22.9354 35.4674 22.9354 35.8065V45H24.1612V38.871H27.8386V45H29.0644V35.8065C29.0644 35.4674 28.7897 35.1935 28.4515 35.1935H27.8386V33.7642C29.9764 33.2952 31.8164 32.0278 33.0319 30.2903H38.2579C38.5961 30.2903 38.8708 30.0164 38.8708 29.6774V7.6129C38.8708 7.27471 38.5961 7 38.2579 7ZM37.645 8.22581V9.45161H22.9354V10.6774H37.645V11.9032H14.3547V8.22581H37.645ZM24.1612 37.6452V36.4194H27.8386V37.6452H24.1612ZM26.6128 35.1935H25.387V33.9366C25.5905 33.9513 25.7927 33.9678 25.9999 33.9678C26.207 33.9678 26.4092 33.9513 26.6128 33.9366V35.1935ZM25.9999 32.7419C21.9443 32.7419 18.645 29.4426 18.645 25.3871C18.645 21.3316 21.9443 18.0323 25.9999 18.0323C30.0554 18.0323 33.3547 21.3316 33.3547 25.3871C33.3547 29.4426 30.0554 32.7419 25.9999 32.7419ZM33.7407 29.0645C34.2734 27.9479 34.5804 26.7043 34.5804 25.3871C34.5804 20.6554 30.7314 16.8065 25.9997 16.8065C21.268 16.8065 17.4191 20.6554 17.4191 25.3871C17.4191 26.7043 17.7261 27.9479 18.2588 29.0645H14.3546V13.129H37.6449V29.0645H33.7407Z" fill="white"/>
<path d="M15.5805 9.45161H16.8063V10.6774H15.5805V9.45161Z" fill="white"/>
<path d="M18.0321 9.45161H19.2579V10.6774H18.0321V9.45161Z" fill="white"/>
<path d="M20.4837 9.45161H21.7096V10.6774H20.4837V9.45161Z" fill="white"/>
<path d="M25.9999 19.2581C22.6204 19.2581 19.8708 22.0077 19.8708 25.3871H21.0966C21.0966 22.6835 23.2962 20.4839 25.9999 20.4839V19.2581Z" fill="white"/>
<path d="M30.9031 25.3871C30.9031 28.0907 28.7035 30.2903 25.9999 30.2903V31.5161C29.3793 31.5161 32.1289 28.7665 32.1289 25.3871H30.9031Z" fill="white"/>
<rect x="0.5" y="0.5" width="51" height="51" rx="11.5" stroke="url(#paint0_linear_1223_21030)"/>
<defs>
<linearGradient id="paint0_linear_1223_21030" x1="29.125" y1="68.5455" x2="29.125" y2="7.56364" gradientUnits="userSpaceOnUse">
<stop stop-color="#4461C6"/>
<stop offset="1" stop-color="#E82134"/>
</linearGradient>
</defs>
</svg>
