<svg width="52" height="52" viewBox="0 0 52 52" fill="none" xmlns="http://www.w3.org/2000/svg">
<path d="M41.4528 11.312C41.3748 11.1424 41.2683 10.9874 41.138 10.8538L41.0565 10.7761C40.9765 10.7094 40.8893 10.652 40.7964 10.6051C38.2095 8.96214 28.5186 10.5273 22.0481 16.9983C21.5239 17.5225 21.046 18.0546 20.5995 18.5946L20.5529 18.622L10 24.4985L15.9271 27.3804C15.8805 27.5318 15.8377 27.6795 15.799 27.8193L12.816 30.8023L14.5521 32.5384H14.5519C14.3278 32.7039 14.1162 32.8854 13.919 33.0824C12.0623 34.935 11.7632 38.0423 12.4508 39.1103C12.495 39.1889 12.5483 39.262 12.6098 39.3279L12.6759 39.4016L12.7225 39.4287V39.4289C12.7507 39.452 12.7805 39.4728 12.812 39.491C13.3045 39.7741 13.8683 39.909 14.4354 39.8795C14.8079 39.8776 15.1796 39.8437 15.5462 39.7784C16.8147 39.5685 17.9889 38.9778 18.9139 38.0848C19.1106 37.8876 19.2924 37.676 19.4576 37.452L21.1937 39.1881L24.1767 36.2051L24.6156 36.0769L27.4975 42L33.3702 31.4388V31.4117C33.9102 30.965 34.4461 30.4835 34.9666 29.963C41.3909 23.5466 42.9989 14.0148 41.4531 11.3119L41.4528 11.312ZM13.3593 24.4054L18.5251 21.5273C17.6917 22.9156 16.9897 24.3783 16.4278 25.8969L13.3593 24.4054ZM17.8104 36.978C16.4355 38.3529 14.3149 38.4307 13.7478 38.2327C13.5614 37.6851 13.6351 35.5526 15.0101 34.1776V34.1774C15.2108 33.9823 15.4308 33.8081 15.6665 33.6569L18.327 36.3174C18.1775 36.5545 18.0044 36.7756 17.8104 36.978ZM21.1857 36.978L15.0101 30.8021L16.42 29.3922L22.5997 35.5681L21.1857 36.978ZM27.5826 38.6288L26.0911 35.5642L26.0914 35.564C27.6086 35.0021 29.0702 34.3 30.4568 33.4667L27.5826 38.6288ZM33.8904 28.8486C31.0933 31.5923 27.6554 33.5947 23.8889 34.6746L17.3327 28.103C18.4137 24.3367 20.4161 20.8994 23.1588 18.1015C29.4043 11.8365 38.2872 10.8536 39.9733 11.9414L40.0277 11.9725L40.0743 12.0657C41.0218 13.6854 40.2683 22.4709 33.8906 28.8484L33.8904 28.8486Z" fill="white"/>
<path d="M27.4813 18.1904C26.6433 19.0281 26.1724 20.1641 26.1724 21.3489C26.1722 22.5337 26.6428 23.67 27.4805 24.5077C28.3182 25.3457 29.4542 25.8163 30.639 25.8163C31.8238 25.8163 32.9601 25.3457 33.7978 24.5077C34.6355 23.67 35.1058 22.5337 35.1058 21.3489C35.1055 20.1641 34.6346 19.0281 33.7966 18.1904C32.9587 17.3543 31.8229 16.8845 30.639 16.8845C29.455 16.8845 28.3193 17.3543 27.4813 18.1904ZM32.7016 23.4107C32.1552 23.9567 31.4142 24.2634 30.6418 24.2634C29.8693 24.2631 29.1286 23.9561 28.5824 23.4099C28.0362 22.8634 27.7293 22.1227 27.7293 21.3503C27.7293 20.5776 28.0362 19.8369 28.5824 19.2907C29.1286 18.7443 29.8694 18.4373 30.6418 18.4373C31.4142 18.437 32.1551 18.7437 32.7016 19.2896C33.2473 19.8366 33.5537 20.5776 33.5537 21.3503C33.5537 22.1228 33.2473 22.8637 32.7016 23.4107Z" fill="white"/>
<rect x="0.5" y="0.5" width="51" height="51" rx="11.5" stroke="url(#paint0_linear_1235_21876)"/>
<defs>
<linearGradient id="paint0_linear_1235_21876" x1="29.125" y1="68.5455" x2="29.125" y2="7.56364" gradientUnits="userSpaceOnUse">
<stop stop-color="#4461C6"/>
<stop offset="1" stop-color="#E82134"/>
</linearGradient>
</defs>
</svg>
