<svg width="52" height="52" viewBox="0 0 52 52" fill="none" xmlns="http://www.w3.org/2000/svg">
<mask id="path-2-inside-1_1221_20641" fill="white">
<path d="M32.0637 29.9379L31.8873 29.8393C31.9213 29.5467 31.9213 29.2512 31.8873 28.9586L32.0623 28.861H32.062C32.288 28.7372 32.4537 28.5267 32.5213 28.2781C32.5875 28.0345 32.5501 27.7745 32.4185 27.5593L31.7315 26.4212V26.4209C31.5994 26.2088 31.3913 26.055 31.1496 25.9914C30.9079 25.9278 30.651 25.9592 30.4318 26.0792L30.2313 26.1902V26.19C29.9727 26.0054 29.6946 25.8504 29.4018 25.7276V25.5419V25.5421C29.3989 25.2899 29.2963 25.0492 29.1163 24.8726C28.9365 24.6959 28.6939 24.5976 28.4418 24.5992H27.0653C26.8132 24.5976 26.5706 24.6959 26.3908 24.8726C26.2108 25.0492 26.1082 25.29 26.1053 25.5421V25.7278V25.7276C25.8127 25.8502 25.5348 26.0052 25.277 26.19L25.076 26.079V26.0792C24.8567 25.9595 24.5998 25.9283 24.3584 25.9916C24.1167 26.0552 23.9086 26.209 23.7767 26.4209L23.0886 27.559V27.5593C22.9574 27.7748 22.9205 28.035 22.9862 28.2786C23.0541 28.5265 23.2191 28.7362 23.4439 28.8605L23.6203 28.9586H23.6205C23.6034 29.1048 23.5948 29.2519 23.5948 29.3993C23.5951 29.5462 23.6036 29.6931 23.6205 29.8393L23.4446 29.9374C23.2193 30.0615 23.0541 30.2713 22.9862 30.5194C22.9203 30.7629 22.9574 31.0232 23.0893 31.2387L23.7763 32.3768C23.9087 32.5887 24.117 32.742 24.3587 32.8054C24.6003 32.8689 24.857 32.838 25.0765 32.7187L25.277 32.6077C25.5349 32.7928 25.8127 32.9478 26.1054 33.0701V33.2537C26.1082 33.5059 26.2108 33.7468 26.3906 33.9235C26.5706 34.1004 26.8132 34.1987 27.0654 34.1973H28.4397C28.6921 34.1987 28.9347 34.1004 29.1144 33.9235C29.2944 33.7468 29.3971 33.5058 29.3997 33.2537V33.068C29.6928 32.9456 29.9709 32.7906 30.2292 32.6056L30.4297 32.7161C30.6487 32.8363 30.9056 32.8678 31.1475 32.8044C31.3892 32.7408 31.5975 32.587 31.7294 32.3746L32.4159 31.2375V31.2377C32.5478 31.0222 32.5854 30.7618 32.5192 30.5177C32.4519 30.2708 32.2876 30.0618 32.0638 29.938L32.0637 29.9379ZM30.8456 29.3993C30.8454 29.531 30.8358 29.6624 30.8168 29.7929C30.7928 29.9796 30.8256 30.1693 30.9113 30.3369C30.997 30.5048 31.1313 30.6427 31.2968 30.7327L31.4318 30.8079L30.8675 31.7417L30.6947 31.6458V31.6455C30.5285 31.5567 30.3406 31.5165 30.1525 31.5303C29.9646 31.5439 29.7844 31.6105 29.6327 31.7224C29.4215 31.8777 29.1915 32.0053 28.948 32.1022C28.7692 32.1703 28.6151 32.2905 28.5056 32.4474C28.3958 32.6041 28.3361 32.7903 28.3337 32.9817V33.1327H27.1698V32.9817C27.1675 32.7903 27.1077 32.6041 26.9979 32.4472C26.8884 32.2905 26.7341 32.1703 26.5553 32.1022C26.312 32.0051 26.082 31.8774 25.8706 31.7224C25.7194 31.61 25.5394 31.5429 25.3515 31.5293C25.1634 31.5158 24.9755 31.556 24.8098 31.6455L24.6365 31.7415L24.0722 30.8077L24.2051 30.7336C24.3708 30.6434 24.5055 30.5048 24.591 30.3365C24.6767 30.1681 24.7096 29.9779 24.6851 29.7907C24.647 29.5303 24.647 29.2655 24.6851 29.005C24.7089 28.8181 24.676 28.6286 24.5903 28.4607C24.5046 28.2928 24.3703 28.155 24.2051 28.0647L24.0708 27.99L24.6346 27.0562L24.8074 27.1516H24.8072C24.9732 27.2412 25.161 27.2814 25.3491 27.2681C25.5372 27.2545 25.7175 27.1876 25.8691 27.0754C26.0803 26.9204 26.3106 26.7931 26.5539 26.6957C26.7325 26.6276 26.8867 26.5073 26.996 26.3504C27.1056 26.1935 27.1653 26.0073 27.1677 25.8161V25.6657H28.3329V25.8161C28.3358 26.0073 28.396 26.1933 28.506 26.35C28.616 26.5064 28.7706 26.6261 28.9496 26.6935C29.1932 26.7912 29.4234 26.9193 29.6349 27.075C29.7865 27.1864 29.9668 27.2528 30.1546 27.2662C30.3425 27.2795 30.5303 27.2395 30.6963 27.1507L30.8692 27.0547L31.4323 27.99L31.2999 28.0636V28.0638C31.1337 28.1533 30.9984 28.2914 30.912 28.4595C30.8256 28.6279 30.7923 28.8181 30.8163 29.0055C30.8356 29.136 30.8454 29.2674 30.8456 29.3993Z"/>
<path d="M35.6728 35.0562C35.4644 34.848 35.1268 34.848 34.9187 35.0562L34.5416 35.4333L33.0146 33.9064C34.5901 32.0706 35.0975 29.5479 34.3542 27.246C33.6111 24.944 31.7242 23.1942 29.3726 22.6264C27.0212 22.0587 24.5437 22.7547 22.8323 24.464C21.1209 26.1733 20.4211 28.6498 20.9856 31.0019C21.5499 33.3541 23.2971 35.2434 25.5978 35.9898C27.8988 36.7365 30.4224 36.2324 32.2601 34.6598L33.7877 36.1872L33.4105 36.5644C33.2022 36.7725 33.2022 37.1101 33.4105 37.3184L37.9358 41.8437C38.1442 42.0521 38.4818 42.0521 38.6901 41.8437L40.1985 40.3354L40.1983 40.3356C40.4066 40.1273 40.4066 39.7897 40.1983 39.5813L35.6728 35.0562ZM31.9015 33.5473C30.612 34.8371 28.7957 35.4537 26.9874 35.2159C25.179 34.978 23.5842 33.9125 22.6721 32.3332C21.7599 30.7537 21.6344 28.8399 22.3323 27.1546C23.0301 25.4695 24.4721 24.2047 26.2338 23.7326C27.9955 23.2604 29.8767 23.6345 31.3239 24.7447C32.7708 25.8547 33.6194 27.575 33.6194 29.3988C33.6242 30.9557 33.0056 32.4496 31.9015 33.5472L31.9015 33.5473ZM38.3126 40.7136L34.5413 36.9424L35.2954 36.1876L39.0666 39.9588L38.3126 40.7136Z"/>
<path d="M27.7525 27.2663C27.1867 27.2663 26.6441 27.4911 26.2439 27.8911C25.8439 28.2911 25.6191 28.8337 25.6191 29.3997C25.6191 29.9654 25.8439 30.508 26.2439 30.908C26.6441 31.3083 27.1868 31.533 27.7525 31.533C28.3182 31.533 28.8608 31.3083 29.2611 30.908C29.6611 30.508 29.8858 29.9654 29.8858 29.3997C29.8858 28.8337 29.6611 28.291 29.2611 27.8911C28.8608 27.4911 28.3182 27.2663 27.7525 27.2663ZM27.7525 30.4664C27.4696 30.4664 27.1982 30.354 26.9982 30.1537C26.7982 29.9537 26.6858 29.6825 26.6858 29.3997C26.6858 29.1166 26.7982 28.8454 26.9982 28.6454C27.1982 28.4454 27.4696 28.333 27.7525 28.333C28.0353 28.333 28.3068 28.4454 28.5068 28.6454C28.7068 28.8454 28.8192 29.1166 28.8192 29.3997C28.8192 29.6825 28.7068 29.9537 28.5068 30.1537C28.3068 30.354 28.0353 30.4664 27.7525 30.4664Z"/>
<path d="M17.5123 10.5333V11.6H12.1789C11.8843 11.6 11.6455 11.8388 11.6455 12.1334V39.3339C11.6455 39.4753 11.7017 39.611 11.8017 39.711C11.9017 39.811 12.0374 39.8672 12.1789 39.8672H33.5126V38.8005H12.7122V12.6667H17.5123V13.7334C17.5123 13.8748 17.5685 14.0106 17.6685 14.1106C17.7685 14.2106 17.9042 14.2667 18.0456 14.2667H30.3125C30.4539 14.2667 30.5897 14.2106 30.6897 14.1106C30.7897 14.0105 30.8459 13.8748 30.8459 13.7334V12.6667H36.1793V33.4671H37.246V12.1334C37.246 11.9919 37.1898 11.8562 37.0898 11.7562C36.9898 11.6562 36.8541 11.6 36.7126 11.6H30.8459V10.5333C30.8459 10.3919 30.7897 10.2562 30.6897 10.1562C30.5897 10.0562 30.4539 10 30.3125 10H18.0456C17.7511 10 17.5123 10.2388 17.5123 10.5333ZM18.579 11.0667H29.7792V13.2001H18.579V11.0667Z"/>
<path d="M15.3789 16.4001H33.5126V17.4668H15.3789V16.4001Z"/>
<path d="M15.3789 19.6002H27.1125V20.6669H15.3789V19.6002Z"/>
<path d="M15.3789 22.8002H21.2457V23.8669H15.3789V22.8002Z"/>
<path d="M19.1123 26.0003H15.9123C15.6177 26.0003 15.3789 26.2391 15.3789 26.5336V29.7337C15.3789 29.8751 15.4351 30.0108 15.5351 30.1108C15.6351 30.2108 15.7708 30.267 15.9123 30.267H19.1123C19.2537 30.267 19.3895 30.2108 19.4895 30.1108C19.5895 30.0108 19.6457 29.8751 19.6457 29.7337V26.5336C19.6457 26.3922 19.5895 26.2565 19.4895 26.1565C19.3895 26.0565 19.2537 26.0003 19.1123 26.0003ZM18.579 29.2003H16.4456V27.067H18.579V29.2003Z"/>
<path d="M15.3789 32.4004H19.6457V33.4671H15.3789V32.4004Z"/>
<path d="M15.3789 35.6005H21.779V36.6671H15.3789V35.6005Z"/>
</mask>
<path d="M32.0637 29.9379L31.8873 29.8393C31.9213 29.5467 31.9213 29.2512 31.8873 28.9586L32.0623 28.861H32.062C32.288 28.7372 32.4537 28.5267 32.5213 28.2781C32.5875 28.0345 32.5501 27.7745 32.4185 27.5593L31.7315 26.4212V26.4209C31.5994 26.2088 31.3913 26.055 31.1496 25.9914C30.9079 25.9278 30.651 25.9592 30.4318 26.0792L30.2313 26.1902V26.19C29.9727 26.0054 29.6946 25.8504 29.4018 25.7276V25.5419V25.5421C29.3989 25.2899 29.2963 25.0492 29.1163 24.8726C28.9365 24.6959 28.6939 24.5976 28.4418 24.5992H27.0653C26.8132 24.5976 26.5706 24.6959 26.3908 24.8726C26.2108 25.0492 26.1082 25.29 26.1053 25.5421V25.7278V25.7276C25.8127 25.8502 25.5348 26.0052 25.277 26.19L25.076 26.079V26.0792C24.8567 25.9595 24.5998 25.9283 24.3584 25.9916C24.1167 26.0552 23.9086 26.209 23.7767 26.4209L23.0886 27.559V27.5593C22.9574 27.7748 22.9205 28.035 22.9862 28.2786C23.0541 28.5265 23.2191 28.7362 23.4439 28.8605L23.6203 28.9586H23.6205C23.6034 29.1048 23.5948 29.2519 23.5948 29.3993C23.5951 29.5462 23.6036 29.6931 23.6205 29.8393L23.4446 29.9374C23.2193 30.0615 23.0541 30.2713 22.9862 30.5194C22.9203 30.7629 22.9574 31.0232 23.0893 31.2387L23.7763 32.3768C23.9087 32.5887 24.117 32.742 24.3587 32.8054C24.6003 32.8689 24.857 32.838 25.0765 32.7187L25.277 32.6077C25.5349 32.7928 25.8127 32.9478 26.1054 33.0701V33.2537C26.1082 33.5059 26.2108 33.7468 26.3906 33.9235C26.5706 34.1004 26.8132 34.1987 27.0654 34.1973H28.4397C28.6921 34.1987 28.9347 34.1004 29.1144 33.9235C29.2944 33.7468 29.3971 33.5058 29.3997 33.2537V33.068C29.6928 32.9456 29.9709 32.7906 30.2292 32.6056L30.4297 32.7161C30.6487 32.8363 30.9056 32.8678 31.1475 32.8044C31.3892 32.7408 31.5975 32.587 31.7294 32.3746L32.4159 31.2375V31.2377C32.5478 31.0222 32.5854 30.7618 32.5192 30.5177C32.4519 30.2708 32.2876 30.0618 32.0638 29.938L32.0637 29.9379ZM30.8456 29.3993C30.8454 29.531 30.8358 29.6624 30.8168 29.7929C30.7928 29.9796 30.8256 30.1693 30.9113 30.3369C30.997 30.5048 31.1313 30.6427 31.2968 30.7327L31.4318 30.8079L30.8675 31.7417L30.6947 31.6458V31.6455C30.5285 31.5567 30.3406 31.5165 30.1525 31.5303C29.9646 31.5439 29.7844 31.6105 29.6327 31.7224C29.4215 31.8777 29.1915 32.0053 28.948 32.1022C28.7692 32.1703 28.6151 32.2905 28.5056 32.4474C28.3958 32.6041 28.3361 32.7903 28.3337 32.9817V33.1327H27.1698V32.9817C27.1675 32.7903 27.1077 32.6041 26.9979 32.4472C26.8884 32.2905 26.7341 32.1703 26.5553 32.1022C26.312 32.0051 26.082 31.8774 25.8706 31.7224C25.7194 31.61 25.5394 31.5429 25.3515 31.5293C25.1634 31.5158 24.9755 31.556 24.8098 31.6455L24.6365 31.7415L24.0722 30.8077L24.2051 30.7336C24.3708 30.6434 24.5055 30.5048 24.591 30.3365C24.6767 30.1681 24.7096 29.9779 24.6851 29.7907C24.647 29.5303 24.647 29.2655 24.6851 29.005C24.7089 28.8181 24.676 28.6286 24.5903 28.4607C24.5046 28.2928 24.3703 28.155 24.2051 28.0647L24.0708 27.99L24.6346 27.0562L24.8074 27.1516H24.8072C24.9732 27.2412 25.161 27.2814 25.3491 27.2681C25.5372 27.2545 25.7175 27.1876 25.8691 27.0754C26.0803 26.9204 26.3106 26.7931 26.5539 26.6957C26.7325 26.6276 26.8867 26.5073 26.996 26.3504C27.1056 26.1935 27.1653 26.0073 27.1677 25.8161V25.6657H28.3329V25.8161C28.3358 26.0073 28.396 26.1933 28.506 26.35C28.616 26.5064 28.7706 26.6261 28.9496 26.6935C29.1932 26.7912 29.4234 26.9193 29.6349 27.075C29.7865 27.1864 29.9668 27.2528 30.1546 27.2662C30.3425 27.2795 30.5303 27.2395 30.6963 27.1507L30.8692 27.0547L31.4323 27.99L31.2999 28.0636V28.0638C31.1337 28.1533 30.9984 28.2914 30.912 28.4595C30.8256 28.6279 30.7923 28.8181 30.8163 29.0055C30.8356 29.136 30.8454 29.2674 30.8456 29.3993Z" stroke="white" stroke-width="2" mask="url(#path-2-inside-1_1221_20641)"/>
<path d="M35.6728 35.0562C35.4644 34.848 35.1268 34.848 34.9187 35.0562L34.5416 35.4333L33.0146 33.9064C34.5901 32.0706 35.0975 29.5479 34.3542 27.246C33.6111 24.944 31.7242 23.1942 29.3726 22.6264C27.0212 22.0587 24.5437 22.7547 22.8323 24.464C21.1209 26.1733 20.4211 28.6498 20.9856 31.0019C21.5499 33.3541 23.2971 35.2434 25.5978 35.9898C27.8988 36.7365 30.4224 36.2324 32.2601 34.6598L33.7877 36.1872L33.4105 36.5644C33.2022 36.7725 33.2022 37.1101 33.4105 37.3184L37.9358 41.8437C38.1442 42.0521 38.4818 42.0521 38.6901 41.8437L40.1985 40.3354L40.1983 40.3356C40.4066 40.1273 40.4066 39.7897 40.1983 39.5813L35.6728 35.0562ZM31.9015 33.5473C30.612 34.8371 28.7957 35.4537 26.9874 35.2159C25.179 34.978 23.5842 33.9125 22.6721 32.3332C21.7599 30.7537 21.6344 28.8399 22.3323 27.1546C23.0301 25.4695 24.4721 24.2047 26.2338 23.7326C27.9955 23.2604 29.8767 23.6345 31.3239 24.7447C32.7708 25.8547 33.6194 27.575 33.6194 29.3988C33.6242 30.9557 33.0056 32.4496 31.9015 33.5472L31.9015 33.5473ZM38.3126 40.7136L34.5413 36.9424L35.2954 36.1876L39.0666 39.9588L38.3126 40.7136Z" stroke="white" stroke-width="2" mask="url(#path-2-inside-1_1221_20641)"/>
<path d="M27.7525 27.2663C27.1867 27.2663 26.6441 27.4911 26.2439 27.8911C25.8439 28.2911 25.6191 28.8337 25.6191 29.3997C25.6191 29.9654 25.8439 30.508 26.2439 30.908C26.6441 31.3083 27.1868 31.533 27.7525 31.533C28.3182 31.533 28.8608 31.3083 29.2611 30.908C29.6611 30.508 29.8858 29.9654 29.8858 29.3997C29.8858 28.8337 29.6611 28.291 29.2611 27.8911C28.8608 27.4911 28.3182 27.2663 27.7525 27.2663ZM27.7525 30.4664C27.4696 30.4664 27.1982 30.354 26.9982 30.1537C26.7982 29.9537 26.6858 29.6825 26.6858 29.3997C26.6858 29.1166 26.7982 28.8454 26.9982 28.6454C27.1982 28.4454 27.4696 28.333 27.7525 28.333C28.0353 28.333 28.3068 28.4454 28.5068 28.6454C28.7068 28.8454 28.8192 29.1166 28.8192 29.3997C28.8192 29.6825 28.7068 29.9537 28.5068 30.1537C28.3068 30.354 28.0353 30.4664 27.7525 30.4664Z" stroke="white" stroke-width="2" mask="url(#path-2-inside-1_1221_20641)"/>
<path d="M17.5123 10.5333V11.6H12.1789C11.8843 11.6 11.6455 11.8388 11.6455 12.1334V39.3339C11.6455 39.4753 11.7017 39.611 11.8017 39.711C11.9017 39.811 12.0374 39.8672 12.1789 39.8672H33.5126V38.8005H12.7122V12.6667H17.5123V13.7334C17.5123 13.8748 17.5685 14.0106 17.6685 14.1106C17.7685 14.2106 17.9042 14.2667 18.0456 14.2667H30.3125C30.4539 14.2667 30.5897 14.2106 30.6897 14.1106C30.7897 14.0105 30.8459 13.8748 30.8459 13.7334V12.6667H36.1793V33.4671H37.246V12.1334C37.246 11.9919 37.1898 11.8562 37.0898 11.7562C36.9898 11.6562 36.8541 11.6 36.7126 11.6H30.8459V10.5333C30.8459 10.3919 30.7897 10.2562 30.6897 10.1562C30.5897 10.0562 30.4539 10 30.3125 10H18.0456C17.7511 10 17.5123 10.2388 17.5123 10.5333ZM18.579 11.0667H29.7792V13.2001H18.579V11.0667Z" stroke="white" stroke-width="2" mask="url(#path-2-inside-1_1221_20641)"/>
<path d="M15.3789 16.4001H33.5126V17.4668H15.3789V16.4001Z" stroke="white" stroke-width="2" mask="url(#path-2-inside-1_1221_20641)"/>
<path d="M15.3789 19.6002H27.1125V20.6669H15.3789V19.6002Z" stroke="white" stroke-width="2" mask="url(#path-2-inside-1_1221_20641)"/>
<path d="M15.3789 22.8002H21.2457V23.8669H15.3789V22.8002Z" stroke="white" stroke-width="2" mask="url(#path-2-inside-1_1221_20641)"/>
<path d="M19.1123 26.0003H15.9123C15.6177 26.0003 15.3789 26.2391 15.3789 26.5336V29.7337C15.3789 29.8751 15.4351 30.0108 15.5351 30.1108C15.6351 30.2108 15.7708 30.267 15.9123 30.267H19.1123C19.2537 30.267 19.3895 30.2108 19.4895 30.1108C19.5895 30.0108 19.6457 29.8751 19.6457 29.7337V26.5336C19.6457 26.3922 19.5895 26.2565 19.4895 26.1565C19.3895 26.0565 19.2537 26.0003 19.1123 26.0003ZM18.579 29.2003H16.4456V27.067H18.579V29.2003Z" stroke="white" stroke-width="2" mask="url(#path-2-inside-1_1221_20641)"/>
<path d="M15.3789 32.4004H19.6457V33.4671H15.3789V32.4004Z" stroke="white" stroke-width="2" mask="url(#path-2-inside-1_1221_20641)"/>
<path d="M15.3789 35.6005H21.779V36.6671H15.3789V35.6005Z" stroke="white" stroke-width="2" mask="url(#path-2-inside-1_1221_20641)"/>
<rect x="0.5" y="0.5" width="51" height="51" rx="11.5" stroke="url(#paint0_linear_1221_20641)"/>
<defs>
<linearGradient id="paint0_linear_1221_20641" x1="29.125" y1="68.5455" x2="29.125" y2="7.56364" gradientUnits="userSpaceOnUse">
<stop stop-color="#4461C6"/>
<stop offset="1" stop-color="#E82134"/>
</linearGradient>
</defs>
</svg>
