<svg width="52" height="52" viewBox="0 0 52 52" fill="none" xmlns="http://www.w3.org/2000/svg">
<path d="M24.9106 16.1932H33.0387C33.5272 16.1932 33.9271 15.7936 33.9271 15.3048C33.9271 14.8162 33.5275 14.4163 33.0387 14.4163L24.9106 14.4166C24.422 14.4166 24.0221 14.8162 24.0221 15.305C24.0223 15.7935 24.422 16.1932 24.9106 16.1932Z" fill="white"/>
<path d="M19.5362 19.9243H33.0392C33.5278 19.9243 33.9277 19.5247 33.9277 19.0359C33.9277 18.5474 33.528 18.1475 33.0392 18.1475L19.5362 18.1477C19.0477 18.1477 18.6478 18.5474 18.6478 19.0361C18.6478 19.5247 19.0476 19.9243 19.5362 19.9243Z" fill="white"/>
<path d="M19.1807 23.6109H33.0833C33.5718 23.6109 33.9717 23.2112 33.9717 22.7225C33.9717 22.2339 33.572 21.834 33.0833 21.834L19.1807 21.8343C18.6921 21.8343 18.2923 22.2339 18.2923 22.7227C18.2923 23.2112 18.6921 23.6109 19.1807 23.6109Z" fill="white"/>
<path d="M36.7258 29.3853V12.5958C36.7258 11.1745 35.571 10.0197 34.1497 10.0197C34.1497 10.0197 21.2691 9.97537 21.1799 10.0197L19.9807 10.5971C19.8918 10.6415 16.0719 14.417 16.0719 14.417C15.5834 14.9056 15.3167 15.5276 15.3167 16.2382V26.0987C13.5401 27.6532 12.5185 30.0075 12.7406 32.4504C11.0972 33.3386 10.0312 35.0265 10.0312 36.9364C10.0312 39.7346 12.2966 42 15.0949 42H35.6155C39.1244 42 41.9672 39.1572 41.9672 35.6483C42.0115 32.4947 39.7018 29.874 36.7259 29.3857L36.7258 29.3853ZM19.9363 13.0839V14.683H18.3372L19.9363 13.0839ZM35.6158 40.2226H15.0952C13.274 40.2226 11.8084 38.7568 11.8084 36.9358C11.8084 35.5589 12.6968 34.3151 13.9849 33.8266C14.3845 33.6934 14.6512 33.2492 14.5623 32.8495C14.0738 29.9624 15.895 26.1423 20.3366 25.9651C22.6906 25.8762 24.8228 27.3864 25.7555 29.5629C25.9333 29.9626 26.3773 30.1847 26.8215 30.096C28.8202 29.6075 30.4193 30.7178 31.041 32.0947C31.1742 32.3612 31.3963 32.539 31.6628 32.5833C31.9292 32.6276 32.2402 32.539 32.4623 32.3612C33.3062 31.5173 34.461 31.0731 35.6604 31.0731C38.1922 31.0731 40.2355 33.1164 40.2355 35.6482C40.2353 38.1796 38.1476 40.2228 35.6159 40.2228L35.6158 40.2226ZM17.0939 16.415H20.825C21.3135 16.415 21.7134 16.0153 21.7134 15.5265V11.7955H34.1945C34.6387 11.7955 34.994 12.1508 34.994 12.5951V29.296C33.9724 29.3849 32.9953 29.7402 32.1069 30.3177C31.1299 28.9407 29.3087 27.8748 27.1322 28.1412C25.7996 25.6983 23.2234 24.1435 20.381 24.1435C19.5814 24.1435 18.3822 24.2767 17.0942 24.8987L17.0939 16.415Z" fill="white"/>
<rect x="0.5" y="0.5" width="51" height="51" rx="11.5" stroke="url(#paint0_linear_1223_21049)"/>
<defs>
<linearGradient id="paint0_linear_1223_21049" x1="29.125" y1="68.5455" x2="29.125" y2="7.56364" gradientUnits="userSpaceOnUse">
<stop stop-color="#4461C6"/>
<stop offset="1" stop-color="#E82134"/>
</linearGradient>
</defs>
</svg>
