<svg width="52" height="52" viewBox="0 0 52 52" fill="none" xmlns="http://www.w3.org/2000/svg">
<path d="M37.7328 12.5853H36.3865V11.3341C36.3863 10.9804 36.2454 10.6414 35.9954 10.3911C35.7454 10.1411 35.4061 10.0005 35.0524 10H17.5864C17.5715 10 17.5566 10 17.542 10.0025L17.5288 10.0047C17.5159 10.0047 17.5035 10.0082 17.4914 10.0107L17.4775 10.0141C17.4658 10.0169 17.4537 10.0201 17.442 10.0241L17.4274 10.029C17.4167 10.0332 17.4058 10.0372 17.3954 10.0422V10.0424C17.39 10.0444 17.3847 10.0471 17.3798 10.0499C17.3701 10.0543 17.3604 10.0593 17.351 10.0647L17.3349 10.0747C17.3265 10.0801 17.3178 10.0856 17.3096 10.0918L17.2932 10.1039C17.2853 10.1099 17.2779 10.1168 17.2704 10.123C17.263 10.1295 17.2605 10.1319 17.2555 10.1369C17.2506 10.1419 17.2407 10.1523 17.2332 10.1605L17.2235 10.1704L13.0472 15.0844L13.0447 15.0871L13.0331 15.1025C13.0276 15.1092 13.0227 15.1156 13.0182 15.1223V15.1226C13.014 15.1285 13.01 15.1347 13.0063 15.1409C13.0021 15.1471 12.9981 15.1536 12.9946 15.1603C12.9907 15.1669 12.9872 15.1736 12.9837 15.1808C12.9803 15.188 12.9778 15.1932 12.9748 15.1997C12.9721 15.2061 12.9683 15.2143 12.9651 15.2218C12.9619 15.2292 12.9604 15.2349 12.9579 15.2414C12.9555 15.2478 12.953 15.2567 12.9507 15.2644H12.951C12.9488 15.2714 12.947 15.2786 12.9455 15.2857C12.9438 15.2929 12.9421 15.3004 12.9406 15.3078C12.9391 15.3153 12.9378 15.3252 12.9364 15.3339C12.9349 15.3423 12.9364 15.3463 12.9339 15.3525C12.9339 15.3678 12.9316 15.3835 12.9316 15.3986V38.0831V38.0828C12.9326 38.4362 13.0735 38.7748 13.3235 39.0243C13.5738 39.274 13.9125 39.4144 14.2657 39.4147H15.612V40.6659C15.6122 41.0196 15.7531 41.3586 16.0031 41.6089C16.2531 41.8589 16.5924 41.9995 16.9461 42H37.7327C38.0864 41.9995 38.4254 41.8589 38.6757 41.6089C38.9257 41.3586 39.0664 41.0196 39.0669 40.6659V13.9192C39.0664 13.5653 38.9257 13.2262 38.6757 12.9762C38.4255 12.726 38.0864 12.5853 37.7327 12.5851L37.7328 12.5853ZM17.1105 11.8031V14.3733C17.11 14.6699 16.8699 14.9102 16.5733 14.9105H14.4654L17.1105 11.8031ZM13.9034 38.0806V15.8825H16.5733C16.9729 15.8815 17.3555 15.7223 17.6378 15.4393C17.9201 15.1566 18.0785 14.7734 18.0788 14.3738V10.9701H35.0528C35.2542 10.9703 35.4171 11.1335 35.4174 11.3347V38.0814C35.4166 38.2825 35.2537 38.4449 35.0528 38.4452H14.2661C14.0652 38.4449 13.9023 38.2825 13.9018 38.0814L13.9034 38.0806ZM38.099 40.6659C38.099 40.7629 38.0605 40.8559 37.9918 40.9244C37.9229 40.9928 37.8299 41.031 37.7329 41.0308H16.9462C16.7448 41.0305 16.5819 40.8673 16.5816 40.6662V39.415H35.0521C35.4058 39.4147 35.7451 39.2741 35.9951 39.0238C36.2451 38.7738 36.386 38.4348 36.3862 38.0808V13.5557H37.7325C37.9336 13.556 38.0966 13.7189 38.0968 13.9201L38.099 40.6659ZM24.4348 26.7758C25.9182 26.7735 27.3401 26.1833 28.3889 25.1344C29.4376 24.0853 30.0276 22.6631 30.0291 21.18V21.1619C30.0244 19.6788 29.4309 18.2582 28.3793 17.2123C27.3277 16.1664 25.9041 15.5808 24.4209 15.5843C22.9378 15.5875 21.5167 16.1795 20.4698 17.2301C19.423 18.2807 18.8359 19.7038 18.8379 21.1869C18.8396 22.67 19.4302 24.0917 20.4797 25.1396C21.5291 26.1877 22.9517 26.776 24.4348 26.7758ZM29.0358 20.6956H24.9185V16.5781C25.9715 16.6911 26.954 17.1614 27.7029 17.9104C28.4517 18.6594 28.9214 19.6422 29.0343 20.6953L29.0358 20.6956ZM23.9488 16.5781V21.179V21.1788C23.9485 21.3077 23.9996 21.4317 24.0909 21.5228C24.1821 21.614 24.3059 21.6651 24.4349 21.6649H29.0358C28.9133 22.8296 28.3538 23.9044 27.4701 24.6726C26.5862 25.4409 25.4438 25.8454 24.2734 25.8045C23.1032 25.7636 21.9919 25.2804 21.1638 24.4523C20.3359 23.6244 19.8525 22.5131 19.8116 21.3427C19.7709 20.1722 20.1752 19.0301 20.9435 18.1462C21.7119 17.2623 22.7867 16.7028 23.9512 16.5805L23.9488 16.5781ZM33.2072 35.5387H32.005V31.4219C32.005 31.154 31.788 30.937 31.5204 30.9368H28.8537C28.5859 30.9368 28.3689 31.154 28.3689 31.4219V35.5387H26.4782V30.1657C26.4782 30.037 26.4272 29.9137 26.3361 29.8227C26.2454 29.7317 26.1218 29.6806 25.9934 29.6806H23.3267C23.0588 29.6806 22.8416 29.8978 22.8416 30.1657V35.5387H20.9505V28.8327C20.9507 28.5651 20.7342 28.3475 20.4666 28.3471H17.7999C17.5321 28.3471 17.3148 28.5641 17.3148 28.8319V35.5386H16.1114C15.8436 35.5386 15.6263 35.7559 15.6263 36.0237C15.6263 36.2916 15.8436 36.5086 16.1114 36.5086H33.2073C33.4752 36.5086 33.6922 36.2916 33.6922 36.0237C33.6922 35.7559 33.4752 35.5386 33.2073 35.5386L33.2072 35.5387ZM29.3369 31.9065H31.0353L31.0355 35.5387H29.3369L29.3369 31.9065ZM23.8101 30.6503H25.5082V35.5387H23.8101V30.6503ZM18.2838 29.3175H19.9822V35.5397H18.2838V29.3175ZM29.1105 13.9314C29.1105 13.6636 29.3275 13.4463 29.5953 13.4463H32.8441C33.112 13.4463 33.3292 13.6636 33.3292 13.9314C33.3292 14.1993 33.112 14.4163 32.8441 14.4163H29.5953C29.3275 14.4163 29.1105 14.1993 29.1105 13.9314Z" fill="white"/>
<rect x="0.5" y="0.5" width="51" height="51" rx="11.5" stroke="url(#paint0_linear_1255_1655)"/>
<defs>
<linearGradient id="paint0_linear_1255_1655" x1="29.125" y1="68.5455" x2="29.125" y2="7.56364" gradientUnits="userSpaceOnUse">
<stop stop-color="#4461C6"/>
<stop offset="1" stop-color="#E82134"/>
</linearGradient>
</defs>
</svg>
