<svg width="52" height="52" viewBox="0 0 52 52" fill="none" xmlns="http://www.w3.org/2000/svg">
<path d="M23.793 15.5172H28.2068C28.3531 15.5172 28.4935 15.4591 28.597 15.3557C28.7004 15.2522 28.7586 15.1118 28.7586 14.9655V10.5517C28.7586 10.4054 28.7004 10.265 28.597 10.1616C28.4935 10.0581 28.3531 10 28.2068 10H23.793C23.6467 10 23.5063 10.0581 23.4029 10.1616C23.2994 10.265 23.2413 10.4054 23.2413 10.5517V14.9655C23.2413 15.1118 23.2994 15.2522 23.4029 15.3557C23.5063 15.4591 23.6467 15.5172 23.793 15.5172ZM24.3448 11.1034H27.6551V14.4138H24.3448V11.1034Z" fill="white"/>
<path d="M28.2068 36.4828H23.793C23.6467 36.4828 23.5063 36.5409 23.4029 36.6443C23.2994 36.7478 23.2413 36.8882 23.2413 37.0345V41.4483C23.2413 41.5946 23.2994 41.735 23.4029 41.8384C23.5063 41.9419 23.6467 42 23.793 42H28.2068C28.3531 42 28.4935 41.9419 28.597 41.8384C28.7004 41.735 28.7586 41.5946 28.7586 41.4483V37.0345C28.7586 36.8882 28.7004 36.7478 28.597 36.6443C28.4935 36.5409 28.3531 36.4828 28.2068 36.4828ZM27.6551 40.8965H24.3448V37.5862H27.6551V40.8965Z" fill="white"/>
<path d="M37.5861 27.1034V19.3793C37.5861 19.233 37.528 19.0926 37.4246 18.9892C37.3211 18.8857 37.1807 18.8276 37.0344 18.8276H14.9655C14.8191 18.8276 14.6788 18.8857 14.5753 18.9892C14.4719 19.0926 14.4137 19.233 14.4137 19.3793V27.1034C14.4137 27.2498 14.4719 27.3902 14.5753 27.4936C14.6788 27.597 14.8191 27.6552 14.9655 27.6552H23.793C24.0977 27.6552 24.3448 27.4081 24.3448 27.1034C24.3448 26.7988 24.0977 26.5517 23.793 26.5517H15.5172V19.931H36.4827V26.5517H28.2068C27.9022 26.5517 27.6551 26.7988 27.6551 27.1034C27.6551 27.4081 27.9022 27.6552 28.2068 27.6552H37.0344C37.1807 27.6552 37.3211 27.597 37.4246 27.4936C37.528 27.3901 37.5861 27.2498 37.5861 27.1034Z" fill="white"/>
<path d="M20.873 37.7476C20.6565 37.5385 20.3124 37.5415 20.0996 37.7545C19.8868 37.9673 19.8838 38.3114 20.0927 38.5279L20.2545 38.6895H12.7586C12.3197 38.689 11.899 38.5144 11.5887 38.2043C11.2785 37.894 11.1039 37.4732 11.1034 37.0343V14.9654C11.1039 14.5265 11.2785 14.1057 11.5887 13.7954C11.899 13.4853 12.3197 13.3107 12.7586 13.3102H21.5862C21.8909 13.3102 22.1379 13.0631 22.1379 12.7584C22.1379 12.4538 21.8909 12.2067 21.5862 12.2067H12.7586C12.0271 12.2075 11.3258 12.4984 10.8086 13.0153C10.2916 13.5326 10.0008 14.2338 10 14.9653V37.0343C10.0007 37.7659 10.2916 38.4671 10.8086 38.9843C11.3258 39.5013 12.0271 39.7922 12.7586 39.7929H20.2545L20.0929 39.9545H20.0927C19.9863 40.0575 19.9257 40.1986 19.9244 40.3466C19.923 40.4947 19.9813 40.637 20.086 40.7415C20.1905 40.8461 20.3328 40.9045 20.4809 40.903C20.6289 40.9018 20.77 40.8412 20.873 40.7348L21.9764 39.6314C22.0799 39.5279 22.138 39.3875 22.138 39.2412C22.138 39.0949 22.0799 38.9545 21.9764 38.8511L20.873 37.7476Z" fill="white"/>
<path d="M39.2413 12.2069H31.7454L31.907 12.0453H31.9073C32.1164 11.8288 32.1132 11.4847 31.9004 11.2719C31.6876 11.0591 31.3435 11.0561 31.1269 11.265L30.0235 12.3684C29.92 12.4719 29.8619 12.6123 29.8619 12.7586C29.8619 12.9049 29.92 13.0453 30.0235 13.1487L31.1269 14.2522C31.3434 14.4613 31.6875 14.4583 31.9004 14.2453C32.1132 14.0325 32.1164 13.6884 31.9073 13.4719L31.7454 13.3103H39.2413C39.6802 13.3108 40.1009 13.4854 40.4113 13.7955C40.7214 14.1059 40.896 14.5266 40.8965 14.9655V37.0345C40.896 37.4734 40.7214 37.8941 40.4113 38.2044C40.1009 38.5145 39.6802 38.6892 39.2413 38.6896H30.4137C30.109 38.6896 29.862 38.9367 29.862 39.2414C29.862 39.546 30.109 39.7931 30.4137 39.7931H39.2413C39.9729 39.7924 40.6741 39.5015 41.1913 38.9845C41.7083 38.4672 41.9992 37.766 41.9999 37.0345V14.9655C41.9992 14.234 41.7083 13.5327 41.1913 13.0155C40.6741 12.4985 39.9729 12.2077 39.2413 12.2069Z" fill="white"/>
<path d="M33.1723 30.4138C33.1723 30.2675 33.1142 30.1271 33.0108 30.0236C32.9073 29.9202 32.7669 29.8621 32.6206 29.8621H19.3792C19.0746 29.8621 18.8275 30.1091 18.8275 30.4138C18.8275 30.7185 19.0746 30.9655 19.3792 30.9655H32.6206C32.7669 30.9655 32.9073 30.9074 33.0108 30.8039C33.1142 30.7005 33.1723 30.5601 33.1723 30.4138Z" fill="white"/>
<path d="M21.5861 32.069C21.2815 32.069 21.0344 32.316 21.0344 32.6207C21.0344 32.9254 21.2815 33.1724 21.5861 33.1724H30.4137C30.7184 33.1724 30.9655 32.9254 30.9655 32.6207C30.9655 32.316 30.7184 32.069 30.4137 32.069H21.5861Z" fill="white"/>
<path d="M26.5517 27.1034C26.5517 27.4081 26.3046 27.6552 25.9999 27.6552C25.6953 27.6552 25.4482 27.4081 25.4482 27.1034C25.4482 26.7988 25.6953 26.5517 25.9999 26.5517C26.3046 26.5517 26.5517 26.7988 26.5517 27.1034Z" fill="white"/>
<rect x="0.5" y="0.5" width="51" height="51" rx="11.5" stroke="url(#paint0_linear_1221_20660)"/>
<defs>
<linearGradient id="paint0_linear_1221_20660" x1="29.125" y1="68.5455" x2="29.125" y2="7.56364" gradientUnits="userSpaceOnUse">
<stop stop-color="#4461C6"/>
<stop offset="1" stop-color="#E82134"/>
</linearGradient>
</defs>
</svg>
