<svg width="52" height="52" viewBox="0 0 52 52" fill="none" xmlns="http://www.w3.org/2000/svg">
<path d="M43.0337 19.9405L29.2701 12L22.7239 15.7805L16.1764 12L8.96484 16.1636V32.057L22.7294 39.9983L29.2769 36.2195L35.824 40L43.0355 35.8608L43.0337 19.9405ZM16.8351 20.7072L22.059 17.6919V23.7298L16.8351 26.7476V20.7072ZM22.7239 24.8746L27.9543 27.8948L22.73 30.9109L17.4996 27.8907L22.7239 24.8746ZM29.2701 13.5206L41.0582 20.3217L35.8184 23.3472L24.0355 16.5437L24.0412 16.5409L24.0408 16.5405L29.2701 13.5206ZM16.1766 13.5206L21.4062 16.5397L21.4005 16.5433L21.4009 16.5437L16.1724 19.5632L10.9416 16.5437L16.1766 13.5206ZM10.2825 31.2967V17.6855L15.5183 20.7082V28.296L22.0711 32.0537V38.0999L10.2825 31.2967ZM23.3886 32.059L28.6122 29.0429V35.0825L23.3886 38.097V32.059ZM29.9415 35.0825V27.5093L23.3886 23.7285V17.6921L35.1663 24.5161L35.1667 38.097L29.9415 35.0825ZM41.7181 35.0739L36.4831 38.097V24.4858L41.7189 21.4627V35.0739H41.7181Z" fill="white"/>
<rect x="0.5" y="0.5" width="51" height="51" rx="11.5" stroke="url(#paint0_linear_1235_21864)"/>
<defs>
<linearGradient id="paint0_linear_1235_21864" x1="29.125" y1="68.5455" x2="29.125" y2="7.56364" gradientUnits="userSpaceOnUse">
<stop stop-color="#4461C6"/>
<stop offset="1" stop-color="#E82134"/>
</linearGradient>
</defs>
</svg>
