<svg width="52" height="52" viewBox="0 0 52 52" fill="none" xmlns="http://www.w3.org/2000/svg">
<path d="M37.2403 33.0669C37.2403 33.6052 37.6792 34.0495 38.2229 34.0495C38.7606 34.0495 39.2052 33.6047 39.2055 33.0669H37.2403ZM37.2403 33.0669C37.2403 32.5226 37.6786 32.0843 38.2229 32.0843M37.2403 33.0669L38.2229 32.0843M38.2229 32.0843C38.7666 32.0843 39.2054 32.5285 39.2055 33.0668L38.2229 32.0843ZM40.228 33.0675C40.228 32.1356 39.5905 31.3493 38.7308 31.1242V20.8693C39.5904 20.6444 40.228 19.8579 40.228 18.926C40.228 17.8199 39.3298 16.9139 38.2224 16.9139C37.665 16.9139 37.1615 17.1452 36.7997 17.5081L27.9329 12.3807C27.9795 12.2137 28.0065 12.0351 28.0065 11.8556C28.0065 10.7489 27.1076 9.85 26.0009 9.85C24.8939 9.85 23.9953 10.7493 23.9953 11.8621C23.9953 12.0468 24.0224 12.2221 24.0688 12.3873L15.2028 17.5142C14.84 17.1458 14.3361 16.9204 13.7794 16.9204C12.6724 16.9204 11.7738 17.8197 11.7738 18.9325C11.7738 19.8644 12.4115 20.6507 13.2711 20.8758V31.1242C12.4114 31.3491 11.7738 32.1356 11.7738 33.0675C11.7738 34.1735 12.6721 35.0796 13.7794 35.0796C14.3369 35.0796 14.8403 34.8483 15.2021 34.4854L24.0689 39.6128C24.0224 39.7798 23.9953 39.9583 23.9953 40.1379C23.9953 41.2439 24.8936 42.15 26.0009 42.15C27.1079 42.15 28.0065 41.2507 28.0065 40.1379C28.0065 39.9532 27.9795 39.7779 27.9331 39.6127L36.799 34.4858C37.1618 34.8542 37.6658 35.0796 38.2224 35.0796C39.3295 35.0796 40.228 34.1803 40.228 33.0675ZM38.2226 17.9432C38.7663 17.9432 39.2052 18.3874 39.2052 18.9258C39.2052 19.4701 38.7668 19.9083 38.2226 19.9083C37.6789 19.9083 37.24 19.4641 37.24 18.9258C37.24 18.3874 37.6789 17.9432 38.2226 17.9432ZM26.0012 10.8727C26.5449 10.8727 26.9837 11.3169 26.9837 11.8553C26.9837 12.3936 26.5449 12.8378 26.0012 12.8378C25.4575 12.8378 25.0186 12.3936 25.0186 11.8553C25.0186 11.3169 25.4575 10.8727 26.0012 10.8727ZM15.7117 18.4006L24.5778 13.2736C24.9406 13.642 25.4446 13.8674 26.0012 13.8674C26.5586 13.8674 27.0621 13.6361 27.4239 13.2732L36.2907 18.4006C36.2441 18.5676 36.2171 18.7461 36.2171 18.9257C36.2171 19.1054 36.2441 19.2838 36.2907 19.4508L27.4246 24.5777C27.0618 24.2094 26.5578 23.9839 26.0012 23.9839C25.4438 23.9839 24.9403 24.2153 24.5785 24.5781L15.7117 19.4508C15.7582 19.2838 15.7853 19.1052 15.7853 18.9257C15.7853 18.746 15.7582 18.5675 15.7117 18.4006ZM26.0012 26.9788C25.4575 26.9788 25.0186 26.5346 25.0186 25.9963C25.0186 25.452 25.4569 25.0137 26.0012 25.0137C26.5449 25.0137 26.9837 25.458 26.9837 25.9963C26.9837 26.5406 26.5454 26.9788 26.0012 26.9788ZM12.7974 18.9254C12.7974 18.3812 13.2357 17.9429 13.78 17.9429C14.3237 17.9429 14.7625 18.3871 14.7625 18.9254C14.7625 19.4697 14.3242 19.908 13.78 19.908C13.2357 19.908 12.7974 19.4697 12.7974 18.9254ZM13.7798 34.0494C13.236 34.0494 12.7972 33.6051 12.7972 33.0668C12.7972 32.5225 13.2355 32.0842 13.7798 32.0842C14.3234 32.0842 14.7623 32.5285 14.7623 33.0668C14.7623 33.6051 14.3234 34.0494 13.7798 34.0494ZM15.7183 33.5918C15.7648 33.4248 15.7919 33.2463 15.7919 33.0668C15.7919 32.1349 15.1542 31.3486 14.2946 31.1235V20.8681C14.6452 20.7748 14.9574 20.5921 15.2042 20.3381L24.0695 25.4646C24.0229 25.6316 23.9959 25.8102 23.9959 25.9897C23.9959 26.9216 24.6335 27.7079 25.4931 27.933V38.1821C25.1425 38.2755 24.8303 38.4582 24.5835 38.7121L15.7183 33.5918ZM26.0012 41.1199C25.4575 41.1199 25.0187 40.6756 25.0187 40.1373C25.0187 39.593 25.457 39.1547 26.0012 39.1547C26.5449 39.1547 26.9838 39.599 26.9838 40.1373C26.9838 40.6756 26.5449 41.1199 26.0012 41.1199ZM36.2844 33.5921L27.4245 38.719C27.1785 38.4696 26.8671 38.283 26.5159 38.1886V27.9394C27.3758 27.7141 28.0069 26.9273 28.0069 25.9961C28.0069 25.8114 27.9799 25.6362 27.9334 25.4709L36.7995 20.344C37.0455 20.5934 37.3569 20.78 37.7081 20.8744V31.1236C36.8485 31.3485 36.2109 32.135 36.2109 33.0669C36.2109 33.2516 36.2379 33.4269 36.2844 33.5921Z" fill="white" stroke="white" stroke-width="0.3"/>
<rect x="0.5" y="0.5" width="51" height="51" rx="11.5" stroke="url(#paint0_linear_1255_1668)"/>
<defs>
<linearGradient id="paint0_linear_1255_1668" x1="29.125" y1="68.5455" x2="29.125" y2="7.56364" gradientUnits="userSpaceOnUse">
<stop stop-color="#4461C6"/>
<stop offset="1" stop-color="#E82134"/>
</linearGradient>
</defs>
</svg>
