<svg width="52" height="52" viewBox="0 0 52 52" fill="none" xmlns="http://www.w3.org/2000/svg">
<path d="M29.9504 14.3237L28.8666 14.0266C28.727 13.9801 28.5897 13.9945 28.456 14.0703C28.3218 14.1461 28.2313 14.2599 28.1847 14.4111L21.6651 36.9767C21.6185 37.1282 21.633 37.271 21.7088 37.4049C21.7846 37.5392 21.8981 37.6294 22.0496 37.676L23.1331 37.9731C23.273 38.0201 23.4098 38.0054 23.544 37.9296C23.6782 37.8536 23.7685 37.7401 23.815 37.5891L30.3347 15.0235C30.3812 14.872 30.3667 14.7292 30.291 14.595C30.2155 14.4608 30.1019 14.3705 29.9504 14.324L29.9504 14.3237Z" fill="white"/>
<path d="M20.18 18.7287C20.18 18.5771 20.1215 18.4432 20.0051 18.3266L19.1311 17.4525C19.0147 17.3362 18.8805 17.2777 18.729 17.2777C18.5775 17.2777 18.4435 17.3362 18.3269 17.4525L10.1816 25.5978C10.065 25.7141 10.0068 25.8484 10.0068 25.9999C10.0068 26.1514 10.0653 26.2854 10.1816 26.402L18.3269 34.5472C18.4432 34.6639 18.5772 34.7218 18.729 34.7218C18.8808 34.7218 19.0145 34.6636 19.1311 34.5472L20.0051 33.6737C20.1215 33.5574 20.18 33.4231 20.18 33.2714C20.18 33.1201 20.1215 32.9861 20.0051 32.8695L13.1356 25.9999L20.0051 19.131C20.1218 19.0147 20.18 18.8805 20.18 18.7289V18.7287Z" fill="white"/>
<path d="M41.8187 25.5976L33.6735 17.4523C33.5571 17.336 33.4229 17.2775 33.2716 17.2775C33.1198 17.2775 32.9864 17.336 32.8693 17.4523L31.9958 18.3264C31.8794 18.4427 31.8212 18.5767 31.8212 18.7285C31.8212 18.8803 31.8794 19.014 31.9958 19.1306L38.8653 25.9995L31.9958 32.8691C31.8794 32.9854 31.8212 33.1197 31.8212 33.2709C31.8212 33.4227 31.8794 33.5567 31.9958 33.6733L32.8693 34.5468C32.9861 34.6634 33.1198 34.7214 33.2716 34.7214C33.4229 34.7214 33.5569 34.6632 33.6735 34.5468L41.8187 26.4016C41.9351 26.2852 41.9933 26.1507 41.9933 25.9992C41.9933 25.8479 41.9351 25.7137 41.8185 25.5973L41.8187 25.5976Z" fill="white"/>
<rect x="0.5" y="0.5" width="51" height="51" rx="11.5" stroke="url(#paint0_linear_1235_21851)"/>
<defs>
<linearGradient id="paint0_linear_1235_21851" x1="29.125" y1="68.5455" x2="29.125" y2="7.56364" gradientUnits="userSpaceOnUse">
<stop stop-color="#4461C6"/>
<stop offset="1" stop-color="#E82134"/>
</linearGradient>
</defs>
</svg>
