<svg width="52" height="52" viewBox="0 0 52 52" fill="none" xmlns="http://www.w3.org/2000/svg">
<path d="M16.3628 13.3684C16.3628 13.7777 16.0311 14.1094 15.6218 14.1094C15.2125 14.1094 14.8807 13.7777 14.8807 13.3684C14.8807 12.9591 15.2125 12.6273 15.6218 12.6273C16.0311 12.6273 16.3628 12.9591 16.3628 13.3684Z" fill="white"/>
<path d="M18.4849 13.3684C18.4849 13.7777 18.1531 14.1094 17.7439 14.1094C17.3348 14.1094 17.003 13.7777 17.003 13.3684C17.003 12.9591 17.3348 12.6273 17.7439 12.6273C18.1532 12.6273 18.4849 12.9591 18.4849 13.3684Z" fill="white"/>
<path d="M20.607 13.3684C20.607 13.7777 20.2752 14.1094 19.8659 14.1094C19.4566 14.1094 19.1249 13.7777 19.1249 13.3684C19.1249 12.9591 19.4567 12.6273 19.8659 12.6273C20.2752 12.6273 20.607 12.9591 20.607 13.3684Z" fill="white"/>
<path d="M38.6952 10H13.365C12.6913 10 12.1523 10.539 12.1523 11.2126V31.8608C12.1523 32.5344 12.6913 33.0734 13.365 33.0734H16.4302V33.7134C16.4302 34.4209 17.0028 34.9935 17.7103 34.9935H18.586C18.687 35.263 18.7881 35.5325 18.9229 35.802L18.3165 36.4418C18.0806 36.6777 17.946 37.0144 17.946 37.3513C17.946 37.6882 18.0806 38.0249 18.3165 38.2608L20.1692 40.1135C20.6407 40.6187 21.5164 40.6187 21.988 40.1135L22.5942 39.5073C22.8637 39.6419 23.1332 39.7432 23.4026 39.8442V40.72C23.4026 41.4274 23.9752 42 24.6827 42H27.31C28.0175 42 28.5901 41.4274 28.5901 40.72V39.8442C28.8596 39.7432 29.1291 39.6422 29.3985 39.5073L30.0047 40.1135C30.4763 40.6187 31.352 40.6187 31.8235 40.1135L33.6762 38.2608C33.9121 38.0249 34.0467 37.6882 34.0467 37.3513C34.0467 37.0144 33.9121 36.6777 33.6762 36.4418L33.07 35.8356C33.2046 35.5661 33.3059 35.2966 33.4069 35.0271H34.2827C34.9901 35.0271 35.5627 34.4545 35.5627 33.7471L35.5625 33.0735H38.6278C39.3014 33.0735 39.8404 32.5345 39.8404 31.8608V11.2127C39.9076 10.5391 39.3688 10.0001 38.695 10.0001L38.6952 10ZM38.5605 11.3811V15.3557H13.4998V11.3811H38.5605ZM32.969 33.6123C32.6659 33.6123 32.3964 33.8144 32.2954 34.1175C32.1608 34.6226 31.9585 35.1281 31.6892 35.5996C31.5208 35.8691 31.5882 36.2058 31.7903 36.4081L32.6998 37.3176L30.9482 39.0692L30.0723 38.1597C29.8702 37.9576 29.4997 37.8902 29.2638 38.0587C28.7922 38.3282 28.3206 38.5302 27.7816 38.6649C27.4785 38.7323 27.2765 39.0018 27.2765 39.3385V40.6522H24.8176V39.3721C24.8176 39.069 24.6156 38.7995 24.3125 38.6985C23.8073 38.5639 23.3019 38.3616 22.8303 38.0923C22.5608 37.9577 22.2241 37.9913 22.0219 38.1933L21.1123 39.1029L19.3607 37.3512L20.2702 36.4417C20.4723 36.2397 20.5397 35.9027 20.3713 35.6333C20.1018 35.1617 19.8997 34.6901 19.7651 34.1511C19.6976 33.848 19.4281 33.6459 19.0915 33.6459H17.7778V31.1871H19.0578C19.3609 31.1871 19.6304 30.985 19.7315 30.6819C19.8661 30.1768 20.0684 29.6714 20.3376 29.1998C20.5061 28.9303 20.4387 28.5936 20.2366 28.3913L19.3271 27.4818L21.0787 25.7302L21.9882 26.6397C22.1903 26.8418 22.5608 26.9092 22.7967 26.7407C23.2683 26.4712 23.7398 26.2692 24.2788 26.1345C24.5819 26.0671 24.784 25.7976 24.784 25.4609V24.1473H27.2429V25.4273C27.2429 25.7304 27.4449 25.9999 27.748 26.1009C28.2532 26.2355 28.7586 26.4378 29.2302 26.7071C29.4997 26.8417 29.8364 26.8081 30.0386 26.6061L30.9482 25.6965L32.6998 27.4482L31.7903 28.3577C31.5882 28.5597 31.5208 28.9303 31.6892 29.1662C31.9587 29.6377 32.1608 30.1093 32.2954 30.6483C32.3628 30.9514 32.6323 31.1535 32.969 31.1535H34.2827V33.6123H32.969ZM35.6301 31.726V31.086C35.6301 30.3785 35.0575 29.8059 34.3501 29.8059L33.4405 29.8062C33.3395 29.5367 33.2385 29.2672 33.1036 28.9977L33.7098 28.3915C33.9457 28.1556 34.0803 27.8189 34.0803 27.482C34.0803 27.1451 33.9457 26.8084 33.7098 26.5725L31.8571 24.7198C31.3856 24.2146 30.5099 24.2146 30.0383 24.7198L29.4321 25.326C29.1626 25.1913 28.8931 25.0901 28.6237 24.989V24.1133C28.6237 23.4058 28.0511 22.8333 27.3436 22.8333H24.7163C24.0088 22.8333 23.4362 23.4059 23.4362 24.1133L23.4365 24.9892C23.167 25.0903 22.8975 25.1913 22.628 25.3262L21.9882 24.7197C21.5166 24.2146 20.641 24.2146 20.1694 24.7197L18.3167 26.5724C18.0808 26.8083 17.9462 27.145 17.9462 27.4819C17.9462 27.8189 18.0808 28.1555 18.3167 28.3914L18.9229 28.9976C18.7883 29.2671 18.687 29.5366 18.586 29.8061H17.7103C17.0028 29.8061 16.4302 30.3787 16.4302 31.0861V31.726H13.4998V16.7367H38.5605V31.726L35.6301 31.726Z" fill="white"/>
<path d="M26.0301 28.4587C23.8407 28.4587 22.0891 30.244 22.0891 32.3997C22.0891 34.589 23.8743 36.3407 26.0301 36.3407C28.2194 36.3407 29.9711 34.5555 29.9711 32.3997C29.9711 30.244 28.2195 28.4587 26.0301 28.4587ZM26.0301 34.9934C24.6153 34.9934 23.4702 33.8482 23.4702 32.4335C23.4702 31.0187 24.6153 29.8398 26.0301 29.8398C27.4448 29.8398 28.6238 30.9849 28.6238 32.4335C28.5899 33.8146 27.4447 34.9934 26.0301 34.9934Z" fill="white"/>
<rect x="0.5" y="0.5" width="51" height="51" rx="11.5" stroke="url(#paint0_linear_1235_21857)"/>
<defs>
<linearGradient id="paint0_linear_1235_21857" x1="29.125" y1="68.5455" x2="29.125" y2="7.56364" gradientUnits="userSpaceOnUse">
<stop stop-color="#4461C6"/>
<stop offset="1" stop-color="#E82134"/>
</linearGradient>
</defs>
</svg>
