<svg width="52" height="52" viewBox="0 0 52 52" fill="none" xmlns="http://www.w3.org/2000/svg">
<path d="M18.4719 37.4185C17.8544 37.4149 17.267 37.1511 16.8541 36.6921C16.4409 36.2332 16.2405 35.6214 16.3014 35.007L17.0328 27.7872L12.1958 22.3755C11.6772 21.7946 11.5063 20.9818 11.7467 20.2412C11.9874 19.5006 12.6037 18.9435 13.3648 18.7787L20.4575 17.2425L24.0085 11.1452C24.4214 10.436 25.1802 10 26.0006 10C26.8211 10 27.5798 10.4361 27.9927 11.1452L31.5438 17.2425L38.6368 18.7787C39.3979 18.9435 40.0141 19.5003 40.2546 20.2409C40.4953 20.9815 40.3243 21.7943 39.8054 22.3749L34.9699 27.7872L35.7031 35.007C35.7815 35.782 35.4422 36.5402 34.8117 36.9975C34.1815 37.4553 33.3557 37.5434 32.643 37.2291L26.0007 34.3034L19.3622 37.2291C19.0819 37.354 18.7785 37.4185 18.4719 37.4185ZM26.0006 11.5937C25.7474 11.5917 25.5129 11.7267 25.3879 11.9467L21.6599 18.3495C21.5471 18.5431 21.3583 18.6802 21.1395 18.7277L13.7022 20.3383C13.4962 20.3828 13.3291 20.5333 13.2641 20.734C13.1988 20.9344 13.2451 21.1546 13.3855 21.3117L18.4555 26.9855C18.6051 27.1523 18.6773 27.3746 18.6547 27.5975L17.8889 35.1672C17.8675 35.3768 17.9595 35.5819 18.1299 35.706C18.3006 35.8298 18.5241 35.8538 18.7171 35.7689L25.6788 32.7011C25.8839 32.6108 26.1173 32.6108 26.3224 32.7011L33.2854 35.7689H33.2851C33.478 35.8538 33.7015 35.8298 33.8722 35.706C34.0426 35.5819 34.1346 35.3768 34.1132 35.1672L33.3474 27.5975C33.3248 27.3746 33.397 27.1523 33.5466 26.9855L38.6157 21.3114C38.7561 21.154 38.8024 20.9341 38.7374 20.7337C38.6721 20.5333 38.505 20.3825 38.299 20.3383L30.8626 18.7277C30.6438 18.6802 30.455 18.5431 30.3422 18.3495L26.6133 11.9482C26.4887 11.7276 26.2541 11.592 26.0006 11.5937Z" fill="white"/>
<path d="M26.0003 42C25.5595 42 25.2024 41.6429 25.2024 41.2021V38.0105C25.2024 37.5697 25.5595 37.2126 26.0003 37.2126C26.4411 37.2126 26.7982 37.5697 26.7982 38.0105V41.2021C26.7982 41.4137 26.7142 41.6168 26.5646 41.7664C26.415 41.916 26.2119 42 26.0003 42Z" fill="white"/>
<path d="M10.0642 30.422C9.6718 30.4217 9.33786 30.1362 9.27643 29.7488C9.21528 29.3611 9.44473 28.9865 9.81757 28.8654L12.853 27.879V27.8787C13.2722 27.7428 13.7224 27.9719 13.8587 28.3911C13.9949 28.8105 13.7655 29.2605 13.3463 29.3967L10.3109 30.3831C10.231 30.4089 10.1479 30.422 10.0642 30.422Z" fill="white"/>
<path d="M41.9364 30.422C41.8527 30.422 41.7695 30.409 41.6897 30.3831L38.6542 29.3968C38.2351 29.2605 38.0056 28.8105 38.1419 28.3911C38.2781 27.972 38.7284 27.7428 39.1476 27.8788L42.183 28.8651V28.8654C42.5558 28.9865 42.7853 29.3611 42.7242 29.7488C42.6627 30.1362 42.3288 30.4217 41.9364 30.422Z" fill="white"/>
<path d="M33.9725 14.2701C33.6727 14.2701 33.3981 14.1018 33.2619 13.8344C33.1259 13.5672 33.1512 13.246 33.3275 13.0032L35.2038 10.4212L35.2035 10.4215C35.468 10.0825 35.9533 10.014 36.3012 10.2663C36.6491 10.5186 36.7345 11.0013 36.4947 11.3577L34.6184 13.9399C34.4685 14.1471 34.2284 14.27 33.9725 14.27L33.9725 14.2701Z" fill="white"/>
<path d="M18.0281 14.2701C17.7725 14.2707 17.5324 14.1484 17.3822 13.9418L15.5059 11.3597V11.3594C15.266 11.0029 15.3515 10.5205 15.6994 10.2682C16.0473 10.0159 16.5326 10.0845 16.7971 10.4235L18.6734 13.0054L18.6731 13.0051C18.8494 13.2479 18.8746 13.5688 18.7387 13.8363C18.6024 14.1034 18.3279 14.2721 18.0281 14.2721L18.0281 14.2701Z" fill="white"/>
<rect x="0.5" y="0.5" width="51" height="51" rx="11.5" stroke="url(#paint0_linear_1223_21024)"/>
<defs>
<linearGradient id="paint0_linear_1223_21024" x1="29.125" y1="68.5455" x2="29.125" y2="7.56364" gradientUnits="userSpaceOnUse">
<stop stop-color="#4461C6"/>
<stop offset="1" stop-color="#E82134"/>
</linearGradient>
</defs>
</svg>
