<svg width="52" height="52" viewBox="0 0 52 52" fill="none" xmlns="http://www.w3.org/2000/svg">
<path d="M36.3141 42H15.6868C14.7851 42 14.051 41.2659 14.051 40.3642V16.6941C14.051 16.5137 14.1971 16.3676 14.3775 16.3676C14.5578 16.3676 14.7039 16.5137 14.7039 16.6941V40.3642C14.7039 40.9061 15.1446 41.3468 15.6868 41.3468H36.3141C36.8563 41.3468 37.297 40.9061 37.297 40.3639V11.6358C37.297 11.0936 36.8563 10.6529 36.3141 10.6529H20.7448C20.5644 10.6529 20.4184 10.5069 20.4184 10.3265C20.4184 10.1461 20.5644 10 20.7448 10H36.3141C37.2158 10 37.9499 10.7341 37.9499 11.6358V40.364C37.9499 41.2657 37.2158 41.9995 36.3141 41.9995L36.3141 42Z" fill="white"/>
<path d="M19.4351 17.0208H14.3772C14.2451 17.0208 14.1259 16.9412 14.0755 16.8194C14.0251 16.6976 14.0532 16.5566 14.1464 16.4636L20.5137 10.0963C20.6069 10.0026 20.7485 9.97577 20.8695 10.0254C20.9913 10.0757 21.0709 10.195 21.0709 10.327V15.385C21.0709 16.2868 20.3369 17.0208 19.4351 17.0208ZM15.1654 16.3676H19.4351C19.9773 16.3676 20.418 15.9269 20.418 15.3848V11.1152L15.1654 16.3676Z" fill="white"/>
<path d="M26.0005 30.6941C24.0049 30.6941 22.3813 29.0703 22.3813 27.075C22.3813 25.0791 24.0048 23.4561 26.0005 23.4561C27.9961 23.4561 29.6196 25.0791 29.6196 27.0747C29.6196 29.0703 27.9961 30.6941 26.0005 30.6941ZM26.0005 24.1095C24.3646 24.1095 23.0343 25.4399 23.0343 27.075C23.0343 28.7108 24.3646 30.0412 26.0005 30.0412C27.6363 30.0412 28.9667 28.7108 28.9667 27.075C28.9667 25.4399 27.6363 24.1095 26.0005 24.1095Z" fill="white"/>
<path d="M26.7547 34.9523H25.2457C25.0836 34.9523 24.9466 34.8338 24.923 34.6742L24.6765 33.0204C23.9807 32.8673 23.3283 32.5975 22.7313 32.2161L21.3893 33.2098C21.2593 33.3068 21.0774 33.2927 20.9639 33.1785L19.8963 32.1114C19.7821 31.9971 19.7688 31.816 19.865 31.686L20.8586 30.344C20.4778 29.7465 20.2082 29.0941 20.0544 28.3983L18.4013 28.152C18.2415 28.129 18.123 27.9917 18.123 27.8298V26.3203C18.123 26.1582 18.2415 26.0211 18.4011 25.9976L20.0547 25.7508C20.2082 25.0555 20.4776 24.4031 20.8589 23.8056L19.8653 22.4636C19.769 22.3336 19.7823 22.1525 19.8966 22.0382L20.9642 20.9706C21.0784 20.8564 21.2601 20.8431 21.3896 20.9393L22.7315 21.9329C23.3286 21.5521 23.981 21.2825 24.6768 21.1287L24.9235 19.4751C24.9471 19.3158 25.0841 19.197 25.2462 19.197H26.7553C26.9174 19.197 27.0544 19.3155 27.078 19.4751L27.3248 21.1287C28.0205 21.2823 28.673 21.5521 29.27 21.9329L30.6119 20.9393C30.7414 20.8418 30.9226 20.8559 31.0373 20.9706L32.1049 22.0382C32.2192 22.1525 32.2325 22.3336 32.1363 22.4636L31.1426 23.8056C31.5239 24.4031 31.793 25.0555 31.9468 25.7508L33.6004 25.9976C33.7598 26.0211 33.8785 26.1582 33.8785 26.3203V27.8298C33.8785 27.9919 33.76 28.129 33.5999 28.1525L31.9469 28.3988C31.7933 29.0946 31.5234 29.747 31.1426 30.3445L32.1363 31.6865C32.2325 31.8165 32.2192 31.9976 32.1049 32.1119L31.0373 33.179C30.9231 33.2937 30.7419 33.3078 30.6119 33.2103L29.27 32.2166C28.6712 32.5977 28.0187 32.8673 27.3242 33.0204L27.0775 34.674C27.0539 34.8336 26.9168 34.9523 26.7547 34.9523ZM25.5271 34.2991H26.4734L26.7126 32.6971C26.7329 32.5588 26.8397 32.4491 26.9772 32.4243C27.7439 32.286 28.4554 31.9913 29.0933 31.5494C29.2088 31.4697 29.3611 31.4729 29.4741 31.5556L30.774 32.518L31.4437 31.849L30.4813 30.5491C30.3979 30.4369 30.3951 30.2838 30.4751 30.1691C30.9163 29.5314 31.2109 28.8189 31.35 28.0517C31.3748 27.9139 31.4853 27.8074 31.6236 27.7871L33.2248 27.5483V26.6012L31.6228 26.362C31.485 26.3417 31.3748 26.2349 31.35 26.0974C31.2109 25.3307 30.9163 24.6184 30.475 23.9808C30.3954 23.866 30.3979 23.7135 30.4813 23.6007L31.4437 22.3009L30.774 21.6312L29.4741 22.5935C29.3611 22.6777 29.2088 22.6802 29.0933 22.5998C28.4569 22.1586 27.7444 21.8639 26.9772 21.7249C26.8394 21.7001 26.7329 21.5896 26.7126 21.452L26.4733 19.85H25.527L25.2878 21.452C25.2675 21.5898 25.1607 21.7001 25.0232 21.7249C24.256 21.8639 23.5437 22.1586 22.9071 22.5998C22.7928 22.6802 22.6405 22.6777 22.5263 22.5935L21.2264 21.6312L20.5567 22.3009L21.5191 23.6007C21.6025 23.7137 21.6053 23.866 21.5253 23.9808C21.0841 24.6184 20.7895 25.331 20.6504 26.0974C20.6256 26.2352 20.5151 26.3417 20.3776 26.362L18.7758 26.6012V27.5483L20.3773 27.7869C20.5156 27.8071 20.6261 27.9139 20.6509 28.0514C20.79 28.8186 21.0846 29.5309 21.5258 30.1688C21.6055 30.2836 21.603 30.4366 21.5196 30.5489L20.5572 31.8487L21.2269 32.5177L22.5268 31.5554C22.641 31.4724 22.7933 31.4692 22.9076 31.5491C23.544 31.9911 24.2558 32.2857 25.0237 32.424C25.1615 32.4488 25.268 32.5586 25.2883 32.6969L25.5271 34.2991Z" fill="white"/>
<path d="M33.5516 27.83H33.5578M36.3141 42H15.6868C14.7851 42 14.051 41.2659 14.051 40.3642V16.6941C14.051 16.5137 14.1971 16.3676 14.3775 16.3676C14.5578 16.3676 14.7039 16.5137 14.7039 16.6941V40.3642C14.7039 40.9061 15.1446 41.3468 15.6868 41.3468H36.3141C36.8563 41.3468 37.297 40.9061 37.297 40.3639V11.6358C37.297 11.0936 36.8563 10.6529 36.3141 10.6529H20.7448C20.5644 10.6529 20.4184 10.5069 20.4184 10.3265C20.4184 10.1461 20.5644 10 20.7448 10H36.3141C37.2158 10 37.9499 10.7341 37.9499 11.6358V40.364C37.9499 41.2657 37.2158 41.9995 36.3141 41.9995L36.3141 42ZM19.4351 17.0208H14.3772C14.2451 17.0208 14.1259 16.9412 14.0755 16.8194C14.0251 16.6976 14.0532 16.5566 14.1464 16.4636L20.5137 10.0963C20.6069 10.0026 20.7485 9.97577 20.8695 10.0254C20.9913 10.0757 21.0709 10.195 21.0709 10.327V15.385C21.0709 16.2868 20.3369 17.0208 19.4351 17.0208ZM15.1654 16.3676H19.4351C19.9773 16.3676 20.418 15.9269 20.418 15.3848V11.1152L15.1654 16.3676ZM26.0005 30.6941C24.0049 30.6941 22.3813 29.0703 22.3813 27.075C22.3813 25.0791 24.0048 23.4561 26.0005 23.4561C27.9961 23.4561 29.6196 25.0791 29.6196 27.0747C29.6196 29.0703 27.9961 30.6941 26.0005 30.6941ZM26.0005 24.1095C24.3646 24.1095 23.0343 25.4399 23.0343 27.075C23.0343 28.7108 24.3646 30.0412 26.0005 30.0412C27.6363 30.0412 28.9667 28.7108 28.9667 27.075C28.9667 25.4399 27.6363 24.1095 26.0005 24.1095ZM26.7547 34.9523H25.2457C25.0836 34.9523 24.9466 34.8338 24.923 34.6742L24.6765 33.0204C23.9807 32.8673 23.3283 32.5975 22.7313 32.2161L21.3893 33.2098C21.2593 33.3068 21.0774 33.2927 20.9639 33.1785L19.8963 32.1114C19.7821 31.9971 19.7688 31.816 19.865 31.686L20.8586 30.344C20.4778 29.7465 20.2082 29.0941 20.0544 28.3983L18.4013 28.152C18.2415 28.129 18.123 27.9917 18.123 27.8298V26.3203C18.123 26.1582 18.2415 26.0211 18.4011 25.9976L20.0547 25.7508C20.2082 25.0555 20.4776 24.4031 20.8589 23.8056L19.8653 22.4636C19.769 22.3336 19.7823 22.1525 19.8966 22.0382L20.9642 20.9706C21.0784 20.8564 21.2601 20.8431 21.3896 20.9393L22.7315 21.9329C23.3286 21.5521 23.981 21.2825 24.6768 21.1287L24.9235 19.4751C24.9471 19.3158 25.0841 19.197 25.2462 19.197H26.7553C26.9174 19.197 27.0544 19.3155 27.078 19.4751L27.3248 21.1287C28.0205 21.2823 28.673 21.5521 29.27 21.9329L30.6119 20.9393C30.7414 20.8418 30.9226 20.8559 31.0373 20.9706L32.1049 22.0382C32.2192 22.1525 32.2325 22.3336 32.1363 22.4636L31.1426 23.8056C31.5239 24.4031 31.793 25.0555 31.9468 25.7508L33.6004 25.9976C33.7598 26.0211 33.8785 26.1582 33.8785 26.3203V27.8298C33.8785 27.9919 33.76 28.129 33.5999 28.1525L31.9469 28.3988C31.7933 29.0946 31.5234 29.747 31.1426 30.3445L32.1363 31.6865C32.2325 31.8165 32.2192 31.9976 32.1049 32.1119L31.0373 33.179C30.9231 33.2937 30.7419 33.3078 30.6119 33.2103L29.27 32.2166C28.6712 32.5977 28.0187 32.8673 27.3242 33.0204L27.0775 34.674C27.0539 34.8336 26.9168 34.9523 26.7547 34.9523ZM25.5271 34.2991H26.4734L26.7126 32.6971C26.7329 32.5588 26.8397 32.4491 26.9772 32.4243C27.7439 32.286 28.4554 31.9913 29.0933 31.5494C29.2088 31.4697 29.3611 31.4729 29.4741 31.5556L30.774 32.518L31.4437 31.849L30.4813 30.5491C30.3979 30.4369 30.3951 30.2838 30.4751 30.1691C30.9163 29.5314 31.2109 28.8189 31.35 28.0517C31.3748 27.9139 31.4853 27.8074 31.6236 27.7871L33.2248 27.5483V26.6012L31.6228 26.362C31.485 26.3417 31.3748 26.2349 31.35 26.0974C31.2109 25.3307 30.9163 24.6184 30.475 23.9808C30.3954 23.866 30.3979 23.7135 30.4813 23.6007L31.4437 22.3009L30.774 21.6312L29.4741 22.5935C29.3611 22.6777 29.2088 22.6802 29.0933 22.5998C28.4569 22.1586 27.7444 21.8639 26.9772 21.7249C26.8394 21.7001 26.7329 21.5896 26.7126 21.452L26.4733 19.85H25.527L25.2878 21.452C25.2675 21.5898 25.1607 21.7001 25.0232 21.7249C24.256 21.8639 23.5437 22.1586 22.9071 22.5998C22.7928 22.6802 22.6405 22.6777 22.5263 22.5935L21.2264 21.6312L20.5567 22.3009L21.5191 23.6007C21.6025 23.7137 21.6053 23.866 21.5253 23.9808C21.0841 24.6184 20.7895 25.331 20.6504 26.0974C20.6256 26.2352 20.5151 26.3417 20.3776 26.362L18.7758 26.6012V27.5483L20.3773 27.7869C20.5156 27.8072 20.6261 27.9139 20.6509 28.0514C20.79 28.8186 21.0846 29.5309 21.5258 30.1688C21.6055 30.2836 21.603 30.4366 21.5196 30.5489L20.5572 31.8487L21.2269 32.5177L22.5268 31.5554C22.641 31.4724 22.7933 31.4692 22.9076 31.5491C23.544 31.9911 24.2558 32.2857 25.0237 32.424C25.1615 32.4488 25.268 32.5586 25.2883 32.6969L25.5271 34.2991Z" stroke="white" stroke-width="0.3"/>
<rect x="0.5" y="0.5" width="51" height="51" rx="11.5" stroke="url(#paint0_linear_1221_20635)"/>
<defs>
<linearGradient id="paint0_linear_1221_20635" x1="29.125" y1="68.5455" x2="29.125" y2="7.56364" gradientUnits="userSpaceOnUse">
<stop stop-color="#4461C6"/>
<stop offset="1" stop-color="#E82134"/>
</linearGradient>
</defs>
</svg>
