<svg width="52" height="52" viewBox="0 0 52 52" fill="none" xmlns="http://www.w3.org/2000/svg">
<path d="M42.3793 10.0006H17.6197C17.2863 10.0006 17.0167 10.2705 17.0167 10.6036V11.6531H13.6201C13.2867 11.6531 13.0172 11.923 13.0172 12.256V13.3047H9.62054C9.2871 13.3047 9.01758 13.5746 9.01758 13.9077V41.397C9.01758 41.7296 9.2871 42 9.62054 42H34.3812C34.7147 42 34.9842 41.7301 34.9842 41.397V40.3484H38.3808C38.7142 40.3484 38.9838 40.0784 38.9838 39.7454V38.6942H42.3804C42.7138 38.6942 42.9833 38.4243 42.9833 38.0913L42.9829 10.603C42.9829 10.2699 42.7134 10 42.38 10L42.3793 10.0006ZM21.3968 40.7946H10.2226V17.7637H21.3968V40.7946ZM33.7777 40.7946H22.6024V33.9215H33.7777V40.7946ZM33.7777 32.716H22.6024V25.8421H33.7777V32.716ZM33.7777 24.6366H22.6024V17.7635H33.7777V24.6366ZM33.7777 16.558H10.2226V14.5103H33.7766L33.7777 16.558ZM37.7772 39.1432H34.9832V16.1124H37.7772V39.1432ZM37.7772 14.9068H34.9832V13.9086C34.9832 13.576 34.7137 13.3056 34.3802 13.3056H14.2223V12.8595H37.7763L37.7772 14.9068ZM41.7767 37.4899H38.9827V14.459H41.7767V37.4899ZM41.7767 13.2534H38.9827V12.2569C38.9827 11.9243 38.7132 11.6539 38.3797 11.6539L18.2218 11.6543V11.2078H41.7758L41.7767 13.2534Z" fill="white"/>
<rect x="0.5" y="0.5" width="51" height="51" rx="11.5" stroke="url(#paint0_linear_1223_21043)"/>
<defs>
<linearGradient id="paint0_linear_1223_21043" x1="29.125" y1="68.5455" x2="29.125" y2="7.56364" gradientUnits="userSpaceOnUse">
<stop stop-color="#4461C6"/>
<stop offset="1" stop-color="#E82134"/>
</linearGradient>
</defs>
</svg>
