<svg width="52" height="52" viewBox="0 0 52 52" fill="none" xmlns="http://www.w3.org/2000/svg">
<path d="M40.0899 41.9997H23.5521C23.276 41.9997 23.0521 41.7761 23.0521 41.4998C23.0521 41.2235 23.276 40.9999 23.5521 40.9999H40.0899C40.3157 40.9999 40.4995 40.8163 40.4995 40.5903L40.4997 16.452C40.4997 16.1757 40.7236 15.9521 40.9996 15.9521C41.2757 15.9521 41.4996 16.1757 41.4996 16.452V40.5903C41.4996 41.3677 40.8673 42 40.0899 42L40.0899 41.9997Z" fill="white"/>
<path d="M18.5446 17.2409C18.2685 17.2409 18.0446 17.0173 18.0446 16.741L18.0444 11.4074C18.0444 10.6317 18.6755 10.0008 19.451 10.0008H35.049C35.3251 10.0008 35.5489 10.2245 35.5489 10.5007C35.5489 10.777 35.3251 11.0007 35.049 11.0007H19.4516C19.2272 11.0007 19.0449 11.1833 19.0449 11.4074V16.7412C19.0449 17.0173 18.821 17.2409 18.5449 17.2409L18.5446 17.2409Z" fill="white"/>
<path d="M36.2359 17.2403C35.2921 17.2403 34.5488 16.4966 34.5488 15.5826V10.5009C34.5488 10.2988 34.6707 10.1162 34.8574 10.0389C35.0438 9.95968 35.2589 10.0043 35.4023 10.1473L41.3533 16.0982C41.4925 16.2374 41.5371 16.4449 41.4674 16.629C41.3976 16.813 41.2264 16.9389 41.0301 16.9508L36.2381 17.2404L36.2359 17.2403ZM35.5487 11.708V15.5829C35.5487 15.9462 35.8444 16.2415 36.2075 16.2415L39.8607 16.0202L35.5487 11.708Z" fill="white"/>
<path d="M20.4983 28.197H14.0489C13.0322 28.197 12.2048 27.3698 12.2048 26.3529C12.2048 25.3357 13.0322 24.5083 14.0489 24.5083H20.4983C21.5154 24.5083 22.3426 25.3359 22.3426 26.3529C22.3426 27.37 21.5154 28.197 20.4983 28.197ZM14.0489 25.5081C13.5833 25.5081 13.2046 25.8871 13.2046 26.3529C13.2046 26.8182 13.5834 27.1971 14.0489 27.1971H20.4983C20.9638 27.1971 21.3428 26.8181 21.3428 26.3529C21.3428 25.8871 20.9638 25.5081 20.4983 25.5081H14.0489Z" fill="white"/>
<path d="M19.057 30.8859H15.4965C14.4798 30.8859 13.6524 30.0582 13.6524 29.0413C13.6524 28.0241 14.4798 27.1972 15.4965 27.1972H19.057C20.0736 27.1972 20.9011 28.0244 20.9011 29.0413C20.9013 30.0582 20.0739 30.8859 19.057 30.8859ZM15.4968 28.197C15.0312 28.197 14.6525 28.576 14.6525 29.0413C14.6525 29.5071 15.0312 29.886 15.4968 29.886H19.0572C19.5227 29.886 19.9015 29.5071 19.9015 29.0413C19.9015 28.576 19.5227 28.197 19.0572 28.197H15.4968Z" fill="white"/>
<path d="M21.8424 38.9253H12.7041C12.4959 38.9253 12.3093 38.7963 12.2362 38.6011C12.1629 38.4064 12.2182 38.1866 12.375 38.0495C14.7097 36.0052 14.1818 30.4915 14.1761 30.4363C14.1619 30.2956 14.2079 30.1555 14.3028 30.0507C14.3974 29.9461 14.5323 29.8861 14.6737 29.8861H19.8726C20.0137 29.8861 20.1484 29.9456 20.2433 30.0507C20.3379 30.1552 20.3842 30.2952 20.3702 30.4353C20.3645 30.491 19.8475 36.0094 22.1721 38.0498C22.3286 38.1875 22.3834 38.4072 22.3103 38.6021C22.2368 38.7966 22.0504 38.9256 21.8422 38.9256L21.8424 38.9253ZM13.8018 37.9252H20.7472C19.2567 35.7353 19.2686 32.2371 19.3369 30.8857H15.2108C15.2806 32.2373 15.2953 35.7355 13.8019 37.9252H13.8018Z" fill="white"/>
<path d="M23.5521 41.9997L10.9999 41.9998C10.7239 41.9998 10.5 41.7761 10.5 41.4998V39.7202C10.5 38.7344 11.3104 37.9328 12.3064 37.9328H22.2649C23.2672 37.9328 24.0522 38.7181 24.0522 39.7202V41.4998C24.0519 41.7761 23.8281 41.9997 23.5521 41.9997ZM11.4996 40.9999H23.0518V39.7202C23.0518 39.2789 22.7058 38.9326 22.2644 38.9326H12.3059C11.8539 38.9326 11.4996 39.2788 11.4996 39.7202V40.9999Z" fill="white"/>
<path d="M20.3956 25.5099H14.149C13.9802 25.5099 13.8227 25.4245 13.7305 25.2834C13.6382 25.1418 13.6235 24.9635 13.6913 24.8088C14.0392 24.0175 14.2086 23.1948 14.1948 22.3631C14.1846 21.7567 14.08 21.1595 13.8848 20.5891C13.7919 20.3102 13.8381 20.0057 14.0077 19.7707C14.177 19.5355 14.4519 19.3949 14.7424 19.3949H19.7763C20.0725 19.3949 20.3499 19.5405 20.5183 19.7836C20.6881 20.0288 20.7268 20.3425 20.6215 20.6233C20.4619 21.03 20.2762 21.677 20.2826 22.4855C20.2885 23.4995 20.589 24.2935 20.8402 24.7809C20.9203 24.9358 20.9134 25.1212 20.8228 25.2702C20.732 25.4191 20.5703 25.5099 20.396 25.5099L20.3956 25.5099ZM14.8723 24.5098H19.636C19.4437 23.9693 19.2869 23.2867 19.2822 22.4923C19.2753 21.608 19.4619 20.8816 19.6384 20.3947H14.8735C15.0746 21.0227 15.1828 21.6793 15.1944 22.3458C15.2067 23.0783 15.0986 23.8033 14.8723 24.5098L14.8723 24.5098Z" fill="white"/>
<path d="M17.2721 20.3949C15.9822 20.3949 14.9326 19.3453 14.9326 18.0552C14.9326 16.7653 15.982 15.7159 17.2721 15.7159C18.562 15.7159 19.6116 16.765 19.6116 18.0552C19.6116 19.3453 18.5622 20.3949 17.2721 20.3949ZM17.2721 16.7159C16.5333 16.7159 15.9327 17.3169 15.9327 18.0552C15.9327 18.7939 16.5334 19.3948 17.2721 19.3948C18.0108 19.3948 18.6115 18.7939 18.6115 18.0552C18.6117 17.3169 18.0108 16.7159 17.2721 16.7159Z" fill="white"/>
<path d="M37.245 35.1934H26.9932C26.7171 35.1934 26.4933 34.9697 26.4933 34.6935C26.4933 34.4172 26.7171 34.1935 26.9932 34.1935H37.245C37.521 34.1935 37.7449 34.4172 37.7449 34.6935C37.7449 34.9697 37.521 35.1934 37.245 35.1934Z" fill="white"/>
<path d="M37.245 31.6818H26.9932C26.7171 31.6818 26.4933 31.4582 26.4933 31.1819C26.4933 30.9056 26.7171 30.682 26.9932 30.682H37.245C37.521 30.682 37.7449 30.9056 37.7449 31.1819C37.7449 31.4582 37.521 31.6818 37.245 31.6818Z" fill="white"/>
<path d="M37.245 28.1696H26.9932C26.7171 28.1696 26.4933 27.946 26.4933 27.6697C26.4933 27.3934 26.7171 27.1698 26.9932 27.1698H37.245C37.521 27.1698 37.7449 27.3934 37.7449 27.6697C37.7449 27.946 37.521 28.1696 37.245 28.1696Z" fill="white"/>
<path d="M37.245 24.6575H26.9932C26.7171 24.6575 26.4933 24.4338 26.4933 24.1576C26.4933 23.8813 26.7171 23.6576 26.9932 23.6576H37.245C37.521 23.6576 37.7449 23.8813 37.7449 24.1576C37.7449 24.4338 37.521 24.6575 37.245 24.6575Z" fill="white"/>
<path d="M37.245 38.7055H26.9932C26.7171 38.7055 26.4933 38.4819 26.4933 38.2056C26.4933 37.9293 26.7171 37.7057 26.9932 37.7057H37.245C37.521 37.7057 37.7449 37.9293 37.7449 38.2056C37.7449 38.4819 37.521 38.7055 37.245 38.7055Z" fill="white"/>
<path d="M31.6735 14.1212H22.6262C22.3502 14.1212 22.1263 13.8976 22.1263 13.6213C22.1263 13.345 22.3502 13.1214 22.6262 13.1214H31.6735C31.9495 13.1214 32.1734 13.345 32.1734 13.6213C32.1736 13.8978 31.9498 14.1212 31.6735 14.1212Z" fill="white"/>
<path d="M31.6735 17.6338H22.6262C22.3502 17.6338 22.1263 17.4101 22.1263 17.1338C22.1263 16.8575 22.3502 16.6339 22.6262 16.6339H31.6735C31.9495 16.6339 32.1734 16.8575 32.1734 17.1338C32.1736 17.4101 31.9498 17.6338 31.6735 17.6338Z" fill="white"/>
<path d="M31.6735 21.1453H22.6262C22.3502 21.1453 22.1263 20.9217 22.1263 20.6454C22.1263 20.3691 22.3502 20.1455 22.6262 20.1455H31.6735C31.9495 20.1455 32.1734 20.3691 32.1734 20.6454C32.1736 20.9217 31.9498 21.1453 31.6735 21.1453Z" fill="white"/>
<rect x="0.5" y="0.5" width="51" height="51" rx="11.5" stroke="url(#paint0_linear_1220_19669)"/>
<defs>
<linearGradient id="paint0_linear_1220_19669" x1="29.125" y1="68.5455" x2="29.125" y2="7.56364" gradientUnits="userSpaceOnUse">
<stop stop-color="#4461C6"/>
<stop offset="1" stop-color="#E82134"/>
</linearGradient>
</defs>
</svg>
