<svg width="52" height="52" viewBox="0 0 52 52" fill="none" xmlns="http://www.w3.org/2000/svg">
<path d="M33.4496 11.8521L33.44 11.8334L33.33 11.8545C33.0499 11.908 32.8484 12.1551 32.853 12.4405V18.8512H26.0095C25.9757 18.8485 25.9418 18.8487 25.9079 18.8518L25.9004 18.8524L25.893 18.8538C25.6128 18.9074 25.4114 19.1546 25.4157 19.44V25.8509H18.5725C18.5386 25.8482 18.5045 25.8484 18.4708 25.8515L18.4633 25.8521L18.456 25.8535C18.1758 25.9071 17.9744 26.1543 17.9787 26.4396V32.8505H11.1362C11.1015 32.8476 11.0667 32.8478 11.0321 32.8513L11.032 32.8507L11.0193 32.8532C10.7383 32.9064 10.5374 33.1542 10.5417 33.439V36.9368V36.9377H10.6917M33.4496 11.8521L11.4408 37.2511C11.5229 37.1678 11.5684 37.0549 11.5666 36.9377H11.7166V36.9366M33.4496 11.8521H40.8774C41.2019 11.8521 41.465 12.1151 41.465 12.4394V39.5627C41.465 39.8869 41.2019 40.1499 40.8774 40.1499H11.1304H11.1292V39.9999M33.4496 11.8521L11.7166 34.0255M10.6917 36.9377C10.6901 37.0549 10.7353 37.1678 10.8177 37.2511M10.6917 36.9377V33.4378V36.9377ZM10.8177 37.2511L10.7109 37.3564C10.7109 37.3564 10.7109 37.3564 10.711 37.3565M10.8177 37.2511L10.7111 37.3566C10.711 37.3565 10.711 37.3565 10.711 37.3565M10.8177 37.2511L10.711 37.3565M10.711 37.3565C10.8213 37.4684 10.972 37.5314 11.1293 37.5314C11.2864 37.5314 11.437 37.4683 11.5475 37.3566L11.5477 37.3564C11.6576 37.2448 11.7187 37.0937 11.7166 36.9366M11.7166 36.9366V34.0255M11.7166 36.9366V34.0255M11.7166 34.0255H17.9787V38.9751H11.1303H11.1292V39.1251M11.7166 34.0255V33.8755H17.9787L11.7166 34.0255ZM11.1292 39.1251C11.0121 39.1235 10.8992 39.1687 10.8159 39.2511M11.1292 39.1251H17.9787H11.1292ZM10.8159 39.2511L10.7108 39.1441C10.7107 39.1441 10.7106 39.1442 10.7105 39.1443C10.7105 39.1443 10.7104 39.1444 10.7104 39.1444L10.8159 39.2511ZM10.8159 39.2511C10.7322 39.3332 10.6855 39.4455 10.6855 39.5627C10.6855 39.6795 10.7322 39.7918 10.8159 39.8742C10.8992 39.9563 11.0121 40.0018 11.1292 39.9999M11.1292 39.9999H40.8774C41.1191 39.9999 41.315 39.804 41.315 39.5627V12.4394C41.315 12.198 41.1191 12.0021 40.8774 12.0021H33.4404L11.1292 39.9999ZM18.1287 34.0255V38.9751V34.0255ZM34.0279 13.0267H40.29V38.975H34.0279V13.0267ZM26.5909 20.0264H32.853V38.9752H26.5909V20.0264ZM19.1537 27.0258H25.4157V38.975H19.1537V27.0258Z" fill="white" stroke="white" stroke-width="0.3"/>
<rect x="0.5" y="0.5" width="51" height="51" rx="11.5" stroke="url(#paint0_linear_1255_1674)"/>
<defs>
<linearGradient id="paint0_linear_1255_1674" x1="29.125" y1="68.5455" x2="29.125" y2="7.56364" gradientUnits="userSpaceOnUse">
<stop stop-color="#4461C6"/>
<stop offset="1" stop-color="#E82134"/>
</linearGradient>
</defs>
</svg>
