<svg width="27" height="21" viewBox="0 0 27 21" fill="none" xmlns="http://www.w3.org/2000/svg">
<path fill-rule="evenodd" clip-rule="evenodd" d="M0.330078 0.5H38.3305V2.03846H0.330078V0.5ZM0.330078 3.57696H38.3305V5.11542H0.330078V3.57696ZM0.330078 6.65392H38.3305V8.19237H0.330078V6.65392ZM0.330078 9.73087H38.3305V11.2693H0.330078V9.73087ZM0.330078 12.8078H38.3305V14.3463H0.330078V12.8078ZM0.330078 15.8847H38.3305V17.4232H0.330078V15.8847ZM0.330078 18.9617H38.3305V20.5002H0.330078V18.9617Z" fill="#BD3D44"/>
<path fill-rule="evenodd" clip-rule="evenodd" d="M0.330078 2.03846H38.3305V3.57696H0.330078V2.03846ZM0.330078 5.11542H38.3305V6.65392H0.330078V5.11542ZM0.330078 8.19237H38.3305V9.73087H0.330078V8.19237ZM0.330078 11.2693H38.3305V12.8078H0.330078V11.2693ZM0.330078 14.3463H38.3305V15.8847H0.330078V14.3463ZM0.330078 17.4232H38.3305V18.9617H0.330078V17.4232Z" fill="white"/>
<path fill-rule="evenodd" clip-rule="evenodd" d="M0.330078 0.5H15.5301V11.2692L0.330078 11.2693V0.5Z" fill="#192F5D"/>
<path fill-rule="evenodd" clip-rule="evenodd" d="M1.59674 0.960958L1.73508 1.38654H2.18258L1.82049 1.64967L1.95883 2.07529L1.59674 1.81221L1.23466 2.07529L1.37299 1.64967L1.01091 1.38654H1.45841L1.59674 0.960958ZM4.13008 0.960958L4.26841 1.38654H4.71599L4.35387 1.64967L4.4922 2.07529L4.13008 1.81221L3.76804 2.07529L3.90633 1.64967L3.54424 1.38654H3.99179L4.13008 0.960958ZM6.66349 0.960958L6.80183 1.38654H7.24937L6.88729 1.64967L7.02562 2.07529L6.66354 1.81221L6.30145 2.07529L6.43974 1.64967L6.07766 1.38654H6.52524L6.66349 0.960958ZM9.19683 0.960958L9.33508 1.38654H9.78258L9.42054 1.64967L9.55883 2.07529L9.19679 1.81221L8.8347 2.07529L8.97304 1.64967L8.61091 1.38654H9.05849L9.19683 0.960958ZM11.7302 0.960958L11.8685 1.38654H12.316L11.954 1.64967L12.0923 2.07529L11.7302 1.81221L11.3681 2.07529L11.5064 1.64967L11.1443 1.38654H11.5919L11.7302 0.960958ZM14.2636 0.960958L14.4019 1.38654H14.8495L14.4874 1.64967L14.6257 2.07529L14.2636 1.81221L13.9015 2.07529L14.0398 1.64967L13.6777 1.38654H14.1253L14.2636 0.960958ZM2.86349 2.03788L3.00174 2.4635H3.44933L3.08724 2.72654L3.22558 3.15221L2.86349 2.88917L2.50141 3.15221L2.6397 2.72658L2.27762 2.4635H2.7252L2.86349 2.03788ZM5.39674 2.03788L5.53508 2.4635H5.98258L5.62049 2.72654L5.75883 3.15221L5.39674 2.88917L5.03466 3.15221L5.17299 2.72658L4.81087 2.4635H5.25845L5.39674 2.03788ZM7.93016 2.03788L8.06845 2.4635H8.51604L8.15391 2.72654L8.29224 3.15221L7.93012 2.88917L7.56808 3.15221L7.70637 2.72658L7.34429 2.4635H7.79183L7.93016 2.03788ZM10.4635 2.03788L10.6019 2.4635H11.0494L10.6873 2.72654L10.8257 3.15221L10.4636 2.88917L10.1015 3.15221L10.2398 2.72658L9.87774 2.4635H10.3253L10.4635 2.03788ZM12.9969 2.03788L13.1351 2.4635H13.5826L13.2206 2.72654L13.3589 3.15221L12.9968 2.88917L12.6347 3.15221L12.7731 2.72658L12.411 2.4635H12.8585L12.9969 2.03788ZM1.59674 3.11479L1.73508 3.54042H2.18258L1.82049 3.8035L1.95883 4.22917L1.59674 3.96612L1.23466 4.22917L1.37299 3.80354L1.01091 3.54046H1.45841L1.59674 3.11479ZM4.13008 3.11479L4.26841 3.54042H4.71599L4.35387 3.8035L4.49216 4.22917L4.13008 3.96608L3.76804 4.22917L3.90633 3.80354L3.54424 3.54046H3.99179L4.13008 3.11479ZM6.66349 3.11479L6.80183 3.54042H7.24937L6.88729 3.8035L7.02562 4.22913L6.66354 3.96608L6.30145 4.22913L6.43974 3.8035L6.07766 3.54042H6.52524L6.66349 3.11479ZM9.19683 3.11479L9.33508 3.54042H9.78258L9.42054 3.8035L9.55883 4.22917L9.19679 3.96612L8.8347 4.22917L8.97304 3.80354L8.61091 3.54046H9.05849L9.19683 3.11479ZM11.7302 3.11479L11.8685 3.54042H12.316L11.954 3.8035L12.0923 4.22913L11.7302 3.96608L11.3681 4.22913L11.5064 3.8035L11.1443 3.54042H11.5919L11.7302 3.11479ZM14.2636 3.11479L14.4019 3.54042H14.8495L14.4874 3.8035L14.6257 4.22913L14.2636 3.96608L13.9015 4.22913L14.0398 3.8035L13.6777 3.54042H14.1253L14.2636 3.11479ZM2.86349 4.19171L3.00174 4.61737H3.44933L3.08724 4.88042L3.22558 5.30608L2.86349 5.04304L2.50141 5.30608L2.6397 4.88042L2.27762 4.61737H2.7252L2.86349 4.19171ZM5.39674 4.19171L5.53508 4.61737H5.98258L5.62049 4.88042L5.75883 5.30608L5.39674 5.04304L5.03466 5.30608L5.17299 4.88042L4.81087 4.61737H5.25845L5.39674 4.19171ZM7.93016 4.19171L8.06845 4.61737H8.51604L8.15391 4.88042L8.29224 5.30608L7.93012 5.04304L7.56808 5.30608L7.70637 4.88042L7.34429 4.61737H7.79183L7.93016 4.19171ZM10.4635 4.19171L10.6019 4.61737H11.0494L10.6873 4.88042L10.8257 5.30608L10.4636 5.04304L10.1015 5.30608L10.2398 4.88042L9.8777 4.61737H10.3253L10.4635 4.19171ZM12.9969 4.19171L13.1351 4.61737H13.5826L13.2206 4.88042L13.3589 5.30608L12.9968 5.04304L12.6347 5.30608L12.7731 4.88042L12.411 4.61737H12.8585L12.9969 4.19171ZM1.59674 5.26867L1.73508 5.69429H2.18258L1.82049 5.95738L1.95883 6.383L1.59674 6.11996L1.23466 6.383L1.37299 5.95738L1.01091 5.69429H1.45841L1.59674 5.26867ZM4.13008 5.26867L4.26841 5.69429H4.71599L4.35387 5.95738L4.4922 6.383L4.13008 6.11996L3.76804 6.383L3.90633 5.95738L3.54424 5.69429H3.99179L4.13008 5.26867ZM6.66349 5.26867L6.80183 5.69429H7.24937L6.88729 5.95738L7.02562 6.383L6.66354 6.11996L6.30145 6.383L6.43974 5.95738L6.07766 5.69429H6.52524L6.66349 5.26867ZM9.19683 5.26867L9.33508 5.69429H9.78258L9.42054 5.95738L9.55883 6.383L9.19679 6.11996L8.8347 6.383L8.97304 5.95738L8.61091 5.69429H9.05849L9.19683 5.26867ZM11.7302 5.26867L11.8685 5.69429H12.316L11.954 5.95738L12.0923 6.383L11.7302 6.11996L11.3681 6.383L11.5064 5.95738L11.1443 5.69429H11.5919L11.7302 5.26867ZM14.2636 5.26867L14.4019 5.69429H14.8495L14.4874 5.95738L14.6257 6.383L14.2636 6.11996L13.9015 6.383L14.0398 5.95738L13.6777 5.69429H14.1253L14.2636 5.26867ZM2.86349 6.34558L3.00174 6.77125H3.44933L3.08724 7.03429L3.22558 7.45996L2.86349 7.19692L2.50141 7.45996L2.6397 7.03429L2.27762 6.77125H2.7252L2.86349 6.34558ZM5.39674 6.34558L5.53508 6.77125H5.98258L5.62049 7.03429L5.75883 7.45996L5.39674 7.19692L5.03466 7.45996L5.17299 7.03429L4.81087 6.77125H5.25845L5.39674 6.34558ZM7.93016 6.34558L8.06845 6.77125H8.51604L8.15391 7.03429L8.29224 7.45996L7.93012 7.19692L7.56808 7.45996L7.70637 7.03429L7.34429 6.77125H7.79183L7.93016 6.34558ZM10.4635 6.34558L10.6019 6.77125H11.0494L10.6873 7.03429L10.8257 7.45996L10.4636 7.19692L10.1015 7.45996L10.2398 7.03429L9.8777 6.77125H10.3253L10.4635 6.34558ZM12.9969 6.34558L13.1351 6.77125H13.5826L13.2206 7.03429L13.3589 7.45996L12.9968 7.19692L12.6347 7.45996L12.7731 7.03429L12.411 6.77125H12.8585L12.9969 6.34558ZM1.59674 7.42254L1.73508 7.84817H2.18258L1.82049 8.11125L1.95883 8.53687L1.59674 8.27383L1.23466 8.53687L1.37299 8.11125L1.01091 7.84817H1.45841L1.59674 7.42254ZM4.13008 7.42254L4.26841 7.84817H4.71599L4.35387 8.11125L4.4922 8.53687L4.13008 8.27383L3.76804 8.53687L3.90633 8.11125L3.54424 7.84817H3.99179L4.13008 7.42254ZM6.66349 7.42254L6.80183 7.84817H7.24937L6.88729 8.11125L7.02562 8.53687L6.66354 8.27383L6.30145 8.53687L6.43974 8.11125L6.07766 7.84817H6.52524L6.66349 7.42254ZM9.19683 7.42254L9.33508 7.84817H9.78258L9.42054 8.11125L9.55883 8.53687L9.19679 8.27383L8.8347 8.53687L8.97304 8.11125L8.61091 7.84817H9.05849L9.19683 7.42254ZM11.7302 7.42254L11.8685 7.84817H12.316L11.954 8.11125L12.0923 8.53687L11.7302 8.27383L11.3681 8.53687L11.5064 8.11125L11.1443 7.84817H11.5919L11.7302 7.42254ZM14.2636 7.42254L14.4019 7.84817H14.8495L14.4874 8.11125L14.6257 8.53687L14.2636 8.27383L13.9015 8.53687L14.0398 8.11125L13.6777 7.84817H14.1253L14.2636 7.42254ZM2.86349 8.49946L3.00174 8.92513H3.44933L3.08724 9.18817L3.22558 9.61383L2.86349 9.35079L2.50141 9.61383L2.6397 9.18817L2.27762 8.92513H2.7252L2.86349 8.49946ZM5.39674 8.49946L5.53508 8.92513H5.98258L5.62049 9.18817L5.75883 9.61383L5.39674 9.35079L5.03466 9.61383L5.17299 9.18817L4.81087 8.92513H5.25845L5.39674 8.49946ZM7.93016 8.49946L8.06845 8.92513H8.51604L8.15391 9.18817L8.29224 9.61383L7.93012 9.35079L7.56808 9.61383L7.70637 9.18817L7.34429 8.92513H7.79183L7.93016 8.49946ZM10.4635 8.49946L10.6019 8.92513H11.0494L10.6873 9.18817L10.8257 9.61383L10.4636 9.35079L10.1015 9.61383L10.2398 9.18817L9.8777 8.92513H10.3253L10.4635 8.49946ZM12.9969 8.49946L13.1351 8.92513H13.5826L13.2206 9.18817L13.3589 9.61383L12.9968 9.35079L12.6347 9.61383L12.7731 9.18817L12.411 8.92513H12.8585L12.9969 8.49946ZM1.59674 9.57642L1.73508 10.002H2.18258L1.82049 10.2651L1.95883 10.6908L1.59674 10.4277L1.23466 10.6908L1.37299 10.2651L1.01091 10.002H1.45841L1.59674 9.57642ZM4.13008 9.57642L4.26841 10.002H4.71599L4.35387 10.2651L4.4922 10.6908L4.13008 10.4277L3.76804 10.6908L3.90633 10.2651L3.54424 10.002H3.99179L4.13008 9.57642ZM6.66349 9.57642L6.80183 10.002H7.24937L6.88729 10.2651L7.02562 10.6908L6.66354 10.4277L6.30145 10.6908L6.43974 10.2651L6.07766 10.002H6.52524L6.66349 9.57642ZM9.19683 9.57642L9.33508 10.002H9.78258L9.42054 10.2651L9.55883 10.6908L9.19679 10.4277L8.8347 10.6908L8.97304 10.2651L8.61091 10.002H9.05849L9.19683 9.57642ZM11.7302 9.57642L11.8685 10.002H12.316L11.954 10.2651L12.0923 10.6908L11.7302 10.4277L11.3681 10.6908L11.5064 10.2651L11.1443 10.002H11.5919L11.7302 9.57642ZM14.2636 9.57642L14.4019 10.002H14.8495L14.4874 10.2651L14.6257 10.6908L14.2636 10.4277L13.9015 10.6908L14.0398 10.2651L13.6777 10.002H14.1253L14.2636 9.57642Z" fill="white"/>
</svg>
