<svg width="27" height="21" viewBox="0 0 27 21" fill="none" xmlns="http://www.w3.org/2000/svg">
<mask id="mask0_832_63" style="mask-type:alpha" maskUnits="userSpaceOnUse" x="0" y="0" width="27" height="21">
<rect x="0.330078" y="0.5" width="26.67" height="20" rx="4" fill="#D9D9D9"/>
</mask>
<g mask="url(#mask0_832_63)">
<path fill-rule="evenodd" clip-rule="evenodd" d="M0.330078 0.5H26.9967V20.5H0.330078V0.5Z" fill="#229E45"/>
<path fill-rule="evenodd" clip-rule="evenodd" d="M13.722 18.664L26.2838 10.511L13.646 2.33604L1.04299 10.5306L13.722 18.664Z" fill="#F8E509"/>
<path fill-rule="evenodd" clip-rule="evenodd" d="M19.1955 10.5002C19.1955 13.4305 16.8162 15.806 13.8812 15.806C10.9461 15.806 8.56683 13.4305 8.56683 10.5002C8.56683 7.56988 10.9462 5.19438 13.8812 5.19438C16.8162 5.19438 19.1955 7.56988 19.1955 10.5002Z" fill="#2B49A3"/>
<path fill-rule="evenodd" clip-rule="evenodd" d="M12.1342 13.6781L11.97 13.5833L11.7994 13.6677L11.8376 13.4781L11.7059 13.3393L11.8942 13.3172L11.9827 13.1472L12.0616 13.323L12.2475 13.3568L12.1081 13.4872M15.6955 14.5799L15.5313 14.4851L15.3608 14.5695L15.399 14.3799L15.2673 14.2411L15.4557 14.219L15.5441 14.049L15.623 14.2248L15.8088 14.2586L15.6695 14.389M14.1605 13.1393L14.0187 13.0575L13.8713 13.1303L13.9043 12.9665L13.7906 12.8465L13.9532 12.8275L14.0297 12.6807L14.0978 12.8326L14.2584 12.8618L14.138 12.9745M17.7573 12.6213L17.6181 12.5409L17.4734 12.6125L17.5058 12.4518L17.3941 12.334L17.5538 12.3152L17.6288 12.171L17.6958 12.3202L17.8534 12.3488L17.7352 12.4595M14.0955 11.5429L13.9313 11.4482L13.7608 11.5326L13.799 11.343L13.6672 11.2042L13.8556 11.1821L13.9441 11.0121L14.023 11.1879L14.2088 11.2217L14.0694 11.3521M9.71049 9.89667L9.54633 9.80192L9.37574 9.88629L9.41391 9.69679L9.28224 9.55792L9.47058 9.53583L9.55899 9.36583L9.63791 9.54167L9.82374 9.57542L9.68437 9.70583M10.2378 12.0867L10.0737 11.9919L9.90308 12.0763L9.94124 11.8868L9.80958 11.7478L9.99791 11.7257L10.0864 11.5558L10.1653 11.7316L10.3511 11.7653L10.2117 11.8958M15.7098 9.09042L15.5648 9.00679L15.4142 9.08129L15.4479 8.91392L15.3315 8.79125L15.4979 8.77167L15.576 8.62154L15.6457 8.77688L15.8099 8.80667L15.6868 8.92192M15.4091 10.5153L15.2949 10.4493L15.1762 10.508L15.2028 10.3762L15.1112 10.2795L15.2422 10.2642L15.3037 10.1459L15.3587 10.2683L15.488 10.2917L15.391 10.3825M9.46604 12.4835L9.35645 12.4202L9.24254 12.4765L9.26795 12.35L9.18004 12.2573L9.30587 12.2425L9.36487 12.1291L9.41754 12.2465L9.54162 12.269L9.44858 12.3561M17.7877 12.9879L17.6984 12.9406L17.6056 12.9827L17.6265 12.8881L17.5548 12.8187L17.6573 12.8077L17.7054 12.7228L17.7483 12.8106L17.8494 12.8274L17.7735 12.8925" fill="#FFFFEF"/>
<path fill-rule="evenodd" clip-rule="evenodd" d="M9.46604 12.4835L9.35645 12.4202L9.24254 12.4765L9.26795 12.35L9.18004 12.2573L9.30587 12.2425L9.36487 12.1291L9.41754 12.2465L9.54162 12.269L9.44858 12.3561" fill="#FFFFEF"/>
<path fill-rule="evenodd" clip-rule="evenodd" d="M9.46604 12.4835L9.35645 12.4202L9.24254 12.4765L9.26795 12.35L9.18004 12.2573L9.30587 12.2425L9.36487 12.1291L9.41754 12.2465L9.54162 12.269L9.44858 12.3561M11.211 12.4831L11.1015 12.4198L10.9876 12.4761L11.013 12.3496L10.9251 12.2569L11.0509 12.2421L11.1099 12.1287L11.1626 12.2461L11.2867 12.2686L11.1937 12.3557M10.9942 13.0635L10.8847 13.0003L10.7707 13.0566L10.7962 12.93L10.7083 12.8373L10.834 12.8226L10.8931 12.7091L10.9458 12.8265L11.0698 12.849L10.9768 12.936M14.6177 12.0068L14.5081 11.9435L14.3942 11.9999L14.4196 11.8734L14.3317 11.7807L14.4575 11.766L14.5165 11.6525L14.5692 11.7698L14.6932 11.7923L14.6002 11.8794M13.5544 12.0064L13.4448 11.9432L13.3309 11.9995L13.3564 11.873L13.2685 11.7803L13.3942 11.7655L13.4533 11.652L13.506 11.7694L13.6301 11.7919L13.537 11.879M10.6704 11.6357L10.6017 11.5961L10.5303 11.6314L10.5463 11.5521L10.4912 11.494L10.5699 11.4848L10.607 11.4137L10.64 11.4873L10.7177 11.5014L10.6593 11.556M17.6526 13.447L17.543 13.3837L17.4291 13.44L17.4546 13.3135L17.3667 13.2208L17.4924 13.206L17.5515 13.0925L17.6041 13.2099L17.7282 13.2324L17.6352 13.3195M16.7672 13.563L16.6764 13.5105L16.5821 13.5573L16.6032 13.4522L16.5304 13.3752L16.6345 13.3629L16.6835 13.2687L16.7271 13.3662L16.8299 13.3849L16.7528 13.4572M17.1849 13.5529L17.1003 13.504L17.0125 13.5475L17.0322 13.4499L16.9642 13.3783L17.0613 13.3669L17.1069 13.2793L17.1475 13.37L17.2432 13.3873L17.1714 13.4546M18.3843 12.5063L18.3029 12.4592L18.2183 12.5011L18.2372 12.407L18.1719 12.3381L18.2654 12.3272L18.3092 12.2428L18.3484 12.33L18.4405 12.3468L18.3714 12.4115M16.7567 14.1538L16.6503 14.0956L16.5398 14.1473L16.5646 14.0312L16.4792 13.9461L16.6012 13.9325L16.6586 13.8284L16.7097 13.9361L16.8301 13.9568L16.7398 14.0368M16.7627 14.6304L16.6656 14.5723L16.5649 14.624L16.5875 14.5079L16.5095 14.4227L16.6209 14.4092L16.6732 14.305L16.7199 14.4128L16.8297 14.4335L16.7473 14.5134M15.9586 13.5527L15.8771 13.5057L15.7925 13.5476L15.8114 13.4535L15.7461 13.3847L15.8395 13.3737L15.8834 13.2893L15.9226 13.3765L16.0148 13.3933L15.9456 13.458M15.2047 13.5527L15.1233 13.5057L15.0387 13.5476L15.0577 13.4535L14.9922 13.3847L15.0857 13.3737L15.1296 13.2893L15.1688 13.3765L15.2609 13.3933L15.1918 13.458M13.9248 12.4335L13.8433 12.3865L13.7587 12.4283L13.7777 12.3343L13.7123 12.2653L13.8058 12.2543L13.8497 12.17L13.8888 12.2573L13.981 12.274L13.9118 12.3387M14.0674 14.7147L13.9984 14.6749L13.9267 14.7103L13.9428 14.6307L13.8874 14.5724L13.9666 14.5631L14.0038 14.4916L14.0369 14.5655L14.115 14.5796L14.0564 14.6345M12.1342 11.0249L11.97 10.9301L11.7995 11.0145L11.8377 10.825L11.7059 10.6861L11.8942 10.664L11.9827 10.494L12.0617 10.6698L12.2475 10.7036L12.1081 10.8341" fill="#FFFFEF"/>
<path fill-rule="evenodd" clip-rule="evenodd" d="M18.8454 12.409C18.9264 12.1972 19.0308 11.8778 19.0864 11.5846C16.2638 9.10513 13.1172 7.83492 9.14137 8.09629C8.99879 8.36954 8.8847 8.65558 8.78845 8.96517C13.4994 8.51575 16.9523 10.6014 18.8454 12.409Z" fill="white"/>
<path d="M17.5765 11.015L17.6773 11.0701C17.6615 11.1059 17.6573 11.1372 17.6644 11.1639C17.6719 11.1908 17.6905 11.2142 17.72 11.2342C17.7513 11.2557 17.7794 11.265 17.804 11.2625C17.829 11.26 17.8476 11.2498 17.8597 11.232C17.867 11.2215 17.8704 11.2087 17.869 11.196C17.8679 11.1835 17.861 11.1685 17.8484 11.1512C17.8397 11.1395 17.8184 11.1148 17.7847 11.0772C17.7413 11.0288 17.7155 10.9881 17.7072 10.9548C17.6955 10.9081 17.7026 10.8657 17.7284 10.8273C17.7451 10.8028 17.7674 10.7844 17.7956 10.7724C17.8242 10.7603 17.8553 10.7576 17.8889 10.7642C17.9227 10.7707 17.9582 10.7867 17.9952 10.8118C18.0557 10.8529 18.0922 10.8971 18.1047 10.9445C18.1175 10.9919 18.1096 11.0383 18.0812 11.0838L17.981 11.022C17.9935 10.9943 17.9967 10.9703 17.9901 10.9502C17.984 10.93 17.9672 10.9106 17.9397 10.892C17.9115 10.8728 17.8855 10.8636 17.8616 10.8644C17.8545 10.8643 17.8475 10.8661 17.8413 10.8695C17.835 10.8729 17.8298 10.8779 17.826 10.8839C17.8182 10.8954 17.8165 10.9085 17.8205 10.9232C17.826 10.9419 17.8484 10.9729 17.8882 11.0163C17.928 11.0596 17.9551 11.095 17.9695 11.1224C17.9843 11.1498 17.991 11.1782 17.9896 11.2078C17.9886 11.2372 17.9777 11.2673 17.9572 11.2978C17.9386 11.3254 17.9123 11.347 17.8817 11.36C17.85 11.3738 17.8162 11.3772 17.7801 11.37C17.7443 11.3626 17.7054 11.3447 17.6635 11.3162C17.6026 11.2749 17.5652 11.229 17.5516 11.1788C17.5382 11.1282 17.5463 11.0734 17.5765 11.015ZM17.0982 10.7011L17.2012 10.752C17.1869 10.7883 17.1839 10.8198 17.1921 10.8461C17.2007 10.8727 17.2201 10.8954 17.2504 10.9143C17.2827 10.9343 17.311 10.9426 17.3355 10.9391C17.3605 10.9355 17.3787 10.9247 17.39 10.9063C17.397 10.8956 17.3998 10.8827 17.3979 10.8701C17.3963 10.8575 17.3888 10.8428 17.3754 10.826C17.3662 10.8147 17.3441 10.791 17.3088 10.7546C17.2635 10.7081 17.2361 10.6684 17.2264 10.6355C17.213 10.5892 17.2183 10.5466 17.2425 10.5072C17.258 10.4821 17.2806 10.4621 17.3075 10.4498C17.3355 10.4366 17.3666 10.4325 17.4004 10.4377C17.4345 10.443 17.4706 10.4574 17.5085 10.481C17.5707 10.5196 17.6088 10.5623 17.6232 10.6091C17.6378 10.656 17.632 10.7027 17.6054 10.7493L17.5027 10.6916C17.5142 10.6634 17.5164 10.6394 17.509 10.6196C17.502 10.5995 17.4844 10.5808 17.4563 10.5633C17.4273 10.5453 17.4009 10.5372 17.3772 10.5389C17.3617 10.54 17.3502 10.547 17.3422 10.5599C17.3351 10.5717 17.3337 10.5847 17.3385 10.5993C17.3445 10.6177 17.3682 10.6478 17.4097 10.6896C17.4512 10.7313 17.4797 10.7655 17.4952 10.7923C17.5111 10.819 17.5189 10.8472 17.5187 10.8768C17.519 10.9063 17.5092 10.9366 17.49 10.9681C17.4724 10.9964 17.4471 11.0191 17.417 11.0333C17.386 11.0483 17.3522 11.0531 17.3159 11.0473C17.2799 11.0415 17.2403 11.025 17.1972 10.9984C17.1348 10.9595 17.0957 10.9152 17.08 10.8655C17.0644 10.8155 17.0704 10.7607 17.0982 10.7011ZM16.5063 10.5425L16.8095 10.0439L17.1777 10.2696L17.1265 10.354L16.8585 10.1898L16.7912 10.3003L17.0405 10.4531L16.9895 10.537L16.7402 10.3843L16.6578 10.5199L16.9352 10.6899L16.884 10.774L16.5063 10.5425ZM15.6442 9.83446L15.6892 9.74696L15.9142 9.86346L15.8081 10.0702C15.7752 10.0801 15.7339 10.0825 15.6838 10.0773C15.6356 10.0723 15.5887 10.0584 15.5456 10.0362C15.4915 10.0082 15.4502 9.97254 15.4216 9.92904C15.3934 9.88625 15.3792 9.8357 15.381 9.78446C15.3828 9.73062 15.3968 9.67789 15.4217 9.63017C15.4494 9.57608 15.4855 9.53392 15.5297 9.5035C15.5737 9.47321 15.6234 9.45808 15.6784 9.45808C15.7204 9.458 15.7661 9.47083 15.8155 9.49625C15.8797 9.52958 15.9229 9.56904 15.9448 9.61483C15.9673 9.6605 15.9714 9.70983 15.9572 9.76296L15.8436 9.72879C15.8494 9.69954 15.846 9.67229 15.8332 9.64725C15.8208 9.622 15.7996 9.60163 15.7695 9.586C15.7238 9.56238 15.6801 9.55808 15.6381 9.57329C15.5964 9.58842 15.561 9.62454 15.5317 9.68163C15.5 9.74329 15.4898 9.79663 15.5012 9.84171C15.5128 9.88642 15.5406 9.92029 15.5849 9.94325C15.6067 9.9545 15.6307 9.96158 15.657 9.96438C15.6837 9.96713 15.7078 9.96646 15.73 9.96229L15.7638 9.89638L15.6442 9.83446ZM11.8841 8.902L11.9688 8.32421L12.1427 8.35004L12.1895 8.75946L12.3503 8.38058L12.5248 8.40633L12.4401 8.98425L12.3322 8.96833L12.3988 8.51342L12.2179 8.95142L12.106 8.93483L12.0587 8.46317L11.9921 8.91796L11.8841 8.902ZM11.2962 8.83375L11.3506 8.25208L11.7801 8.29267L11.771 8.391L11.4584 8.36158L11.4463 8.49054L11.7371 8.51792L11.7279 8.61592L11.4371 8.5885L11.4224 8.74683L11.7459 8.77725L11.7367 8.87533L11.2962 8.83375Z" fill="#309E3A"/>
<path d="M9.35091 8.47C9.35258 8.41042 9.36274 8.36083 9.38158 8.32083C9.39554 8.29159 9.41452 8.26502 9.43766 8.24233C9.46124 8.21933 9.48683 8.2025 9.51449 8.19192C9.55116 8.17746 9.59316 8.17088 9.64045 8.17212C9.72612 8.17462 9.79387 8.20312 9.84366 8.25783C9.89387 8.31262 9.91762 8.38758 9.91508 8.48263C9.91258 8.57679 9.88508 8.65 9.83249 8.70196C9.77999 8.75362 9.71108 8.77837 9.6257 8.776C9.53916 8.77367 9.4712 8.74533 9.42154 8.69113C9.37195 8.63663 9.34837 8.56288 9.35091 8.47Z" fill="#309E3A"/>
<path d="M9.47233 8.46883C9.47054 8.53492 9.48441 8.5855 9.51387 8.62063C9.54337 8.6555 9.58158 8.67354 9.62837 8.67479C9.67512 8.67604 9.71399 8.66021 9.74479 8.62738C9.77583 8.59417 9.79229 8.54375 9.79412 8.476C9.79591 8.40912 9.78258 8.35879 9.75412 8.32508C9.72595 8.29133 9.68766 8.27383 9.63924 8.2725C9.59083 8.27125 9.55133 8.28687 9.52079 8.3195C9.49024 8.35187 9.47412 8.40167 9.47233 8.46883Z" fill="#F7FFFF"/>
<path d="M10.0406 8.77125L10.0474 8.18721L10.2946 8.19013C10.3568 8.19088 10.4018 8.19667 10.4297 8.20763C10.458 8.21833 10.4803 8.23721 10.497 8.26429C10.5136 8.29138 10.5217 8.322 10.5213 8.35658C10.5207 8.40042 10.5075 8.4365 10.4815 8.46483C10.4555 8.49296 10.4169 8.51046 10.3657 8.51733C10.391 8.53246 10.4117 8.549 10.4278 8.56704C10.4444 8.58496 10.4663 8.61683 10.4939 8.66258L10.5636 8.77733L10.4231 8.77567L10.3397 8.64758C10.3101 8.60183 10.2897 8.57308 10.2788 8.56125C10.2678 8.54917 10.2561 8.54096 10.2437 8.53654C10.2314 8.53196 10.2117 8.52946 10.1847 8.52917L10.1609 8.52883L10.1581 8.77267L10.0406 8.77125Z" fill="#309E3A"/>
<path d="M10.1624 8.43563L10.2493 8.43663C10.3057 8.43729 10.3409 8.43538 10.355 8.43071C10.369 8.42604 10.3801 8.418 10.3882 8.40638C10.3962 8.39475 10.4004 8.38025 10.4007 8.36271C10.4008 8.34304 10.3957 8.32717 10.3852 8.31513C10.3751 8.30279 10.3605 8.29488 10.3415 8.2915C10.3319 8.29008 10.3034 8.289 10.2558 8.2885L10.1641 8.28742L10.1624 8.43563Z" fill="white"/>
<path d="M10.7052 8.21617L10.9197 8.227C10.968 8.2295 11.0047 8.23513 11.0297 8.24388C11.0626 8.25532 11.0919 8.27541 11.1145 8.30204C11.1375 8.32896 11.1544 8.36146 11.1652 8.39954C11.1761 8.43733 11.1801 8.4835 11.1773 8.53813C11.1749 8.58617 11.1668 8.62721 11.1532 8.66146C11.1365 8.70313 11.1141 8.73633 11.0857 8.76129C11.0645 8.78017 11.0362 8.79421 11.001 8.80363C10.9747 8.81054 10.9398 8.81288 10.8964 8.81071L10.6758 8.79946L10.7052 8.21617Z" fill="#309E3A"/>
<path d="M10.8178 8.32021L10.7983 8.70662L10.886 8.711C10.9187 8.71275 10.9425 8.71204 10.9572 8.70908C10.9764 8.70521 10.9926 8.69792 11.0055 8.68717C11.0189 8.67633 11.0301 8.65821 11.0393 8.63258C11.0486 8.60675 11.0543 8.57133 11.0566 8.52621C11.059 8.48108 11.0566 8.44629 11.05 8.42175C11.0433 8.39717 11.0331 8.37788 11.0195 8.36354C11.0059 8.34929 10.9883 8.33925 10.9666 8.33338C10.9504 8.32879 10.9184 8.32533 10.8705 8.32296L10.8178 8.32021Z" fill="white"/>
<path d="M13.5647 9.25917L13.7005 8.69125L13.8838 8.73542C13.9532 8.75217 13.9979 8.76592 14.0176 8.77667C14.048 8.793 14.0707 8.81817 14.0857 8.85208C14.1007 8.88583 14.1027 8.92521 14.092 8.97042C14.0837 9.00525 14.0704 9.03308 14.0521 9.05375C14.0338 9.07458 14.0132 9.08933 13.9904 9.09833C13.9679 9.10717 13.9461 9.11125 13.925 9.11083C13.8965 9.10967 13.8562 9.10292 13.8046 9.09042L13.7302 9.07242L13.6789 9.28667L13.5647 9.25917Z" fill="#309E3A"/>
<path d="M13.792 8.81467L13.7534 8.97583L13.8159 8.99092C13.861 9.00175 13.8917 9.00608 13.9083 9.00375C13.9242 9.00178 13.9391 8.99491 13.9509 8.9841C13.9627 8.97329 13.9708 8.95907 13.9742 8.94342C13.9792 8.92275 13.9772 8.90425 13.9684 8.888C13.9596 8.87171 13.9455 8.85892 13.9285 8.85175C13.9155 8.84579 13.8885 8.83792 13.8472 8.828L13.792 8.81467Z" fill="white"/>
<path d="M14.1053 9.42108L14.2987 8.87025L14.5319 8.95275C14.5906 8.9735 14.6314 8.99358 14.6543 9.01296C14.6776 9.03225 14.6927 9.05729 14.6998 9.08825C14.7069 9.11921 14.7048 9.15096 14.6933 9.1835C14.6788 9.22483 14.6547 9.25475 14.621 9.27321C14.5874 9.29146 14.5453 9.29558 14.4947 9.28563C14.5137 9.30813 14.5281 9.33046 14.5376 9.35271C14.5475 9.37504 14.558 9.41229 14.5695 9.4645L14.5988 9.59575L14.4663 9.54883L14.4282 9.40067C14.4148 9.34775 14.4048 9.314 14.3982 9.29921C14.3917 9.28421 14.3832 9.27262 14.373 9.26446C14.3627 9.25604 14.3449 9.24738 14.3194 9.23833L14.297 9.23033L14.2163 9.46033L14.1053 9.42108Z" fill="#309E3A"/>
<path d="M14.3275 9.14275L14.4095 9.17171C14.4626 9.19054 14.4965 9.20004 14.5113 9.20017C14.5261 9.20037 14.5392 9.19629 14.5506 9.18788C14.562 9.17954 14.5705 9.16704 14.5763 9.15054C14.5827 9.132 14.583 9.11533 14.577 9.10054C14.5714 9.08554 14.56 9.07346 14.5431 9.06404C14.5345 9.05963 14.5078 9.04946 14.463 9.03363L14.3765 9.00296L14.3275 9.14275Z" fill="white"/>
<path d="M14.7888 9.4C14.8065 9.34321 14.8297 9.29817 14.8585 9.265C14.8799 9.24056 14.9054 9.22011 14.9339 9.20458C14.9629 9.18888 14.9921 9.17967 15.0215 9.17688C15.0606 9.173 15.1028 9.17813 15.148 9.19229C15.2299 9.21788 15.2874 9.26383 15.3205 9.33013C15.354 9.3965 15.3567 9.47513 15.3285 9.56588C15.3005 9.65596 15.2543 9.71879 15.1897 9.75454C15.1252 9.79004 15.0521 9.79496 14.9705 9.76942C14.888 9.74358 14.8301 9.69783 14.797 9.63217C14.764 9.56621 14.7612 9.48875 14.7888 9.4Z" fill="#309E3A"/>
<path d="M14.9062 9.43271C14.8866 9.49579 14.8862 9.54825 14.9051 9.59013C14.924 9.63163 14.9559 9.65942 15.0006 9.67346C15.0453 9.68738 15.0869 9.68275 15.1255 9.65946C15.1643 9.63604 15.1938 9.59196 15.2139 9.52729C15.2337 9.46333 15.2345 9.41133 15.2162 9.37104C15.1982 9.33096 15.166 9.30363 15.1198 9.28921C15.0736 9.27475 15.0314 9.27908 14.9932 9.30221C14.955 9.32504 14.9262 9.3685 14.9062 9.43271Z" fill="white"/>
<path d="M15.9261 10.2133L16.1934 9.69458L16.413 9.80858C16.4682 9.83733 16.5059 9.86275 16.5259 9.88525C16.5463 9.90742 16.5579 9.93442 16.5607 9.96608C16.5635 9.99775 16.5569 10.0288 16.5411 10.0595C16.5211 10.0984 16.4931 10.1247 16.4571 10.1383C16.4212 10.1518 16.3791 10.15 16.3303 10.133C16.346 10.1579 16.3572 10.1822 16.3636 10.2055C16.3702 10.229 16.3756 10.2673 16.3797 10.3206L16.3907 10.4546L16.266 10.3898L16.2487 10.2378C16.2426 10.1835 16.2374 10.1486 16.2329 10.1331C16.2285 10.1174 16.2217 10.1047 16.2126 10.0952C16.2037 10.0855 16.1872 10.0744 16.1632 10.062L16.1421 10.051L16.0305 10.2675L15.9261 10.2133Z" fill="#309E3A"/>
<path d="M16.1844 9.96775L16.2616 10.0078C16.3116 10.0339 16.344 10.0479 16.3587 10.0502C16.3732 10.0524 16.3868 10.0502 16.3992 10.0434C16.4115 10.0367 16.4217 10.0256 16.4297 10.01C16.4387 9.99246 16.4412 9.97604 16.4374 9.96054C16.4338 9.94496 16.4243 9.93129 16.4089 9.91971C16.401 9.91412 16.376 9.90033 16.3335 9.87833L16.2522 9.83613L16.1844 9.96775Z" fill="white"/>
<path d="M18.0845 11.2793C18.1177 11.23 18.153 11.1937 18.1902 11.1702C18.2177 11.153 18.2479 11.1409 18.2796 11.1343C18.3098 11.1276 18.341 11.1272 18.3713 11.1331C18.41 11.1407 18.449 11.1579 18.4882 11.1845C18.5592 11.2327 18.601 11.2934 18.6137 11.3665C18.6267 11.4397 18.6065 11.5156 18.5534 11.5945C18.5008 11.6725 18.4385 11.7194 18.3664 11.7349C18.2944 11.7501 18.2231 11.7337 18.1522 11.6856C18.0807 11.637 18.0384 11.5764 18.0256 11.5039C18.013 11.4311 18.0327 11.3563 18.0845 11.2793Z" fill="#309E3A"/>
<path d="M18.1875 11.3439C18.1506 11.3988 18.1352 11.4488 18.1412 11.4943C18.1474 11.5396 18.1699 11.5754 18.2087 11.6017C18.2475 11.6281 18.2887 11.6357 18.3323 11.6247C18.3762 11.6134 18.4172 11.5798 18.455 11.5236C18.4923 11.4682 18.508 11.4186 18.502 11.3748C18.4963 11.3312 18.4734 11.2957 18.4333 11.2685C18.3932 11.2412 18.3515 11.233 18.3083 11.2442C18.2652 11.255 18.2251 11.2883 18.1875 11.3439Z" fill="white"/>
<path d="M12.9061 9.02179L12.9997 8.61179L13.3026 8.68158L13.2868 8.75083L13.0665 8.70012L13.0455 8.79096L13.2508 8.83829L13.2349 8.90725L13.03 8.86008L13.0044 8.97163L13.2325 9.02413L13.2167 9.09329L12.9061 9.02179Z" fill="#309E3A"/>
</g>
</svg>
